<svg xmlns="http://www.w3.org/2000/svg" id="Capa_1" data-name="Capa 1" viewBox="0 0 686.01 305.36"><defs><style>      .cls-1 {        fill: #231f20;        stroke-width: 0px;      }    </style></defs><path class="cls-1" d="M514.15,131.32c-.04-4.72-3.9-8.52-8.61-8.48l-78.65.69.49-7.01h-.02c.01-.14.02-.29.02-.44.07-4.72-3.69-8.61-8.41-8.68l-5.37-.1s-.08,0-.12,0c-4.72-.28-8.77,3.33-9.05,8.05l-.31,5.02c-37.97-2.51-72.88-10.08-106.92-20.73-36.75-11.5-72.33-26.51-109.56-42.61-1.04-.54-2.2-.87-3.45-.93-4.72-.26-8.76,3.36-9.02,8.08l-3.3,57.26h.01c-.21,3.72,2.06,7.27,5.75,8.55,39.99,13.84,77.96,21.81,116.22,25.83,35.12,3.69,70.45,4.05,107.8,2.59l-.43,6.05h.02c0,.1-.01.2-.02.3-.17,4.72,3.52,8.68,8.25,8.85l4.93.17c.07,0,.15.02.23.02,4.72.35,8.83-3.19,9.18-7.91l.77-10.21,59.71-.24,21.12-.09c4.66-.02,8.46-3.77,8.51-8.45l.23-15.4h0c0-.06,0-.11,0-.17M212.95,109.04c-2.27,2.25-5.27,3.49-8.47,3.49s-6.26-1.26-8.54-3.55c-2.26-2.28-3.5-5.31-3.49-8.52,0-3.21,1.27-6.23,3.55-8.49,2.27-2.25,5.28-3.49,8.47-3.49s6.26,1.26,8.53,3.55c4.67,4.7,4.65,12.33-.06,17.01M246.33,122.28c-2.27,2.25-5.28,3.49-8.47,3.49s-6.26-1.26-8.54-3.55c-2.26-2.28-3.5-5.3-3.49-8.51.01-3.21,1.27-6.23,3.55-8.49,2.27-2.25,5.28-3.49,8.47-3.49s6.26,1.26,8.53,3.55c2.26,2.28,3.5,5.3,3.49,8.52-.01,3.21-1.27,6.23-3.55,8.49M282.85,133.05c-2.27,2.25-5.28,3.49-8.47,3.49s-6.26-1.26-8.53-3.55c-4.67-4.71-4.64-12.33.06-17.01,2.27-2.25,5.28-3.49,8.47-3.49s6.26,1.26,8.53,3.55c2.26,2.28,3.5,5.3,3.49,8.52-.01,3.21-1.27,6.23-3.55,8.49M504.82,148.25c-1.04.56-2.35.17-2.91-.87l-5.55-10.29-6.74,10.9-3.68-.04-6.53-11.19-6.76,11.28-3.63.08-7.27-11.06-7.78,11.18-3.6-.12-6.75-11.25-7.1,10.83-3.72-.24-6.68-13.73c-.52-1.07-.08-2.35.99-2.87,1.07-.52,2.35-.07,2.87.99l5.02,10.34,6.9-10.54,3.63.07,6.8,11.34,7.7-11.06,3.55.05,7.13,10.85,6.86-11.46,3.69.02,6.56,11.24,6.81-11.02,3.71.11,7.31,13.56c.56,1.04.17,2.34-.87,2.91M400.59,221.21l-3.68-26.34h-17.17l-15.12,54.42h15.32l7.5-27.01,3.65,27.01h17.01l15.12-54.42h-15.32l-7.32,26.34ZM325,194.87h-18.98l-15.72,15.35,4.26-15.35h-16.31l-15.12,54.42h16.31l4.41-15.89,3.01-2.88,5.83,18.77h17.92l-10.36-30.2,24.73-24.21ZM370.22,194.87h-42l-3.49,12.58h12.84l-11.62,41.84h16.31l11.62-41.84h12.85l3.49-12.58Z"></path></svg>