<svg xmlns="http://www.w3.org/2000/svg" id="Capa_1" data-name="Capa 1" viewBox="0 0 322.36 270"><defs><style>      .cls-1 {        opacity: .7;      }      .cls-2, .cls-3 {        fill: #fff;        stroke-width: 0px;      }      .cls-3 {        fill-rule: evenodd;      }    </style></defs><g class="cls-1"><polyline class="cls-3" points="209.52 32.96 209.78 31.79 210.04 30.74 210.24 29.76 210.43 28.84 210.63 28.05 210.83 27.34 210.96 26.62 211.15 25.96 211.28 25.31 211.41 24.66 211.54 24.07 211.67 23.42 211.87 22.75 212 22.04 212.2 21.32 212.33 20.53 212.52 19.62 212.78 18.64 213.05 17.6 213.31 16.41 212.2 15.76 211.15 15.17 210.3 14.65 209.46 14.19 208.67 13.73 208.02 13.34 207.37 12.95 206.71 12.62 206.13 12.23 205.54 11.91 204.95 11.58 204.36 11.25 203.78 10.93 203.12 10.53 202.41 10.14 201.69 9.67 200.84 9.22 199.93 8.69 198.95 8.11 197.84 7.45 196.92 8.3 196.08 9.09 195.36 9.74 194.7 10.4 194.05 10.99 193.46 11.51 192.94 12.04 192.42 12.49 191.96 12.95 191.44 13.34 190.98 13.8 190.46 14.26 190 14.71 189.42 15.23 188.9 15.76 188.24 16.34 187.59 17.01 186.81 17.66 186.02 18.45 185.11 19.29 184.59 19.1 184.13 18.97 183.61 18.77 183.15 18.64 182.63 18.51 182.11 18.32 181.65 18.18 181.13 18.05 180.67 17.92 180.15 17.79 179.69 17.66 179.17 17.53 178.71 17.4 178.19 17.27 177.67 17.14 177.21 17.01 176.69 16.94 176.17 16.81 175.71 16.75 175.19 16.62 174.86 15.43 174.47 14.32 174.21 13.41 173.95 12.49 173.69 11.71 173.43 10.93 173.23 10.21 173.03 9.54 172.84 8.96 172.64 8.3 172.45 7.65 172.25 7.06 172.06 6.41 171.79 5.69 171.6 4.91 171.34 4.13 171.08 3.2 170.75 2.28 170.42 1.17 170.03 0 168.79 0 167.62 0 166.57 0 165.66 0 164.74 0 163.96 0 163.18 0 162.53 0 161.81 0 161.15 0 160.5 0 159.78 0 159.07 0 158.35 0 157.5 0 156.65 0 155.67 0 154.63 0 153.52 0 152.21 0 151.89 1.17 151.56 2.22 151.23 3.2 150.97 4.13 150.71 4.91 150.45 5.63 150.25 6.34 150.06 7 149.86 7.65 149.67 8.24 149.47 8.89 149.28 9.48 149.08 10.14 148.88 10.86 148.62 11.58 148.36 12.43 148.1 13.28 147.84 14.26 147.51 15.3 147.12 16.47 146.6 16.62 146.08 16.68 145.56 16.81 145.1 16.94 144.58 17.01 144.05 17.14 143.53 17.27 143.07 17.4 142.55 17.53 142.03 17.66 141.51 17.79 141.05 17.92 140.53 18.05 140.01 18.18 139.55 18.38 139.03 18.51 138.57 18.64 138.05 18.84 137.53 18.97 137.07 19.16 136.16 18.32 135.37 17.53 134.59 16.88 133.94 16.21 133.28 15.69 132.76 15.17 132.24 14.65 131.72 14.19 131.2 13.73 130.74 13.28 130.28 12.88 129.82 12.43 129.3 11.97 128.78 11.45 128.19 10.93 127.61 10.34 126.89 9.74 126.17 9.02 125.32 8.3 124.47 7.45 123.36 8.11 122.32 8.69 121.47 9.22 120.62 9.67 119.84 10.14 119.19 10.53 118.53 10.93 117.88 11.25 117.29 11.58 116.71 11.91 116.12 12.23 115.53 12.62 114.94 12.95 114.29 13.34 113.57 13.73 112.85 14.19 112.01 14.65 111.09 15.17 110.11 15.76 109 16.41 109.26 17.6 109.53 18.64 109.72 19.62 109.92 20.47 110.11 21.32 110.31 22.04 110.44 22.75 110.57 23.42 110.77 24.07 110.9 24.66 111.03 25.31 111.16 25.9 111.29 26.55 111.48 27.27 111.61 27.99 111.81 28.84 112.01 29.69 112.27 30.68 112.46 31.72 112.72 32.96 113.44 32.96 115.46 32.96 118.6 32.96 122.78 32.96 127.87 32.96 133.61 32.96 140.01 32.96 146.8 32.96 153.91 32.96 161.15 32.96 168.4 32.96 175.45 32.96 182.24 32.96 188.63 32.96 194.38 32.96 199.47 32.96 203.65 32.96 206.84 32.96 208.8 32.96 209.52 32.96"></polyline><polyline class="cls-3" points="104.43 40.34 103.32 40.08 102.28 39.82 101.37 39.62 100.52 39.42 99.8 39.29 99.08 39.1 98.36 38.97 97.78 38.84 97.19 38.64 96.54 38.51 95.95 38.38 95.36 38.25 94.71 38.12 94.06 37.99 93.34 37.79 92.62 37.66 91.77 37.47 90.86 37.2 89.81 37.01 88.7 36.75 88.05 37.86 87.46 38.84 86.94 39.75 86.48 40.6 86.03 41.32 85.64 42.03 85.24 42.69 84.92 43.27 84.53 43.86 84.2 44.45 83.87 45.04 83.55 45.62 83.22 46.28 82.83 46.93 82.44 47.57 81.98 48.35 81.52 49.2 81 50.05 80.41 51.09 79.76 52.2 80.54 53.05 81.33 53.84 81.98 54.55 82.57 55.21 83.09 55.79 83.61 56.32 84.07 56.84 84.53 57.36 84.98 57.82 85.37 58.27 85.83 58.73 86.22 59.19 86.68 59.71 87.2 60.17 87.66 60.75 88.25 61.34 88.83 61.99 89.49 62.71 90.2 63.5 91.05 64.34 90.86 64.87 90.66 65.39 90.47 65.98 90.27 66.5 90.14 67.02 89.94 67.54 89.81 68.06 89.62 68.57 89.49 69.16 89.36 69.68 89.16 70.21 89.03 70.73 88.9 71.32 88.77 71.84 88.64 72.36 88.51 72.88 88.38 73.47 88.31 73.99 88.18 74.51 88.05 75.04 86.94 75.43 85.9 75.75 84.98 76.01 84.13 76.28 83.42 76.54 82.7 76.73 82.05 76.93 81.39 77.12 80.81 77.32 80.22 77.52 79.63 77.71 78.98 77.91 78.39 78.1 77.67 78.3 77.02 78.5 76.24 78.76 75.39 79.02 74.47 79.28 73.43 79.6 72.32 79.93 72.32 81.24 72.32 82.35 72.32 83.39 72.32 84.37 72.32 85.22 72.32 86.07 72.32 86.78 72.32 87.5 72.32 88.22 72.32 88.87 72.32 89.51 72.32 90.23 72.32 90.95 72.32 91.67 72.32 92.45 72.32 93.36 72.32 94.28 72.32 95.32 72.32 96.5 72.32 97.74 73.43 98.13 74.41 98.46 75.32 98.72 76.17 98.98 76.95 99.17 77.61 99.43 78.26 99.63 78.91 99.83 79.5 100.02 80.09 100.15 80.68 100.35 81.26 100.54 81.92 100.74 82.57 100.94 83.22 101.13 84 101.39 84.85 101.65 85.77 101.91 86.75 102.24 87.86 102.57 87.99 103.15 88.05 103.74 88.18 104.26 88.31 104.85 88.44 105.37 88.57 105.96 88.7 106.48 88.83 107.07 88.96 107.59 89.1 108.18 89.23 108.7 89.42 109.29 89.55 109.81 89.75 110.39 89.88 110.91 90.07 111.43 90.2 112.02 90.4 112.54 90.6 113.13 90.79 113.65 90.01 114.5 89.29 115.28 88.64 115.93 88.05 116.59 87.53 117.18 87.01 117.7 86.55 118.22 86.09 118.68 85.7 119.13 85.24 119.59 84.85 120.05 84.46 120.5 84 120.96 83.55 121.48 83.03 122.01 82.5 122.59 81.92 123.25 81.26 123.9 80.54 124.68 79.76 125.53 80.41 126.64 81 127.62 81.52 128.53 81.98 129.38 82.44 130.1 82.83 130.8 83.22 131.46 83.55 132.04 83.87 132.63 84.2 133.22 84.53 133.81 84.92 134.39 85.24 135.05 85.64 135.7 86.03 136.35 86.48 137.14 86.94 137.98 87.46 138.9 88.05 139.88 88.7 140.99 89.81 140.72 90.79 140.46 91.71 140.27 92.55 140.07 93.34 139.94 94.06 139.75 94.71 139.62 95.3 139.48 95.95 139.35 96.54 139.22 97.12 139.03 97.71 138.9 98.3 138.77 98.95 138.64 99.67 138.44 100.45 138.31 101.3 138.11 102.21 137.92 103.19 137.66 104.3 137.4 104.37 136.74 104.37 134.72 104.37 131.52 104.37 127.36 104.37 122.27 104.37 116.46 104.37 110.06 104.37 103.29 104.37 96.17 104.43 88.87 104.43 81.63 104.43 74.51 104.43 67.67 104.43 61.28 104.43 55.47 104.43 50.44 104.43 46.21 104.43 43.01 104.43 41.06 104.43 40.34"></polyline><polyline class="cls-3" points="112.46 145.95 112.27 147.06 112.01 148.04 111.81 148.95 111.61 149.75 111.48 150.53 111.29 151.25 111.16 151.9 111.03 152.49 110.9 153.07 110.77 153.66 110.63 154.25 110.5 154.84 110.37 155.42 110.18 156.09 110.05 156.81 109.85 157.53 109.66 158.37 109.46 159.29 109.26 160.27 109 161.38 110.11 161.98 111.09 162.56 112.01 163.09 112.85 163.61 113.57 164 114.29 164.39 114.94 164.78 115.53 165.18 116.12 165.5 116.71 165.83 117.29 166.15 117.88 166.48 118.53 166.87 119.19 167.26 119.84 167.66 120.62 168.05 121.47 168.58 122.32 169.1 123.36 169.63 124.47 170.28 125.26 169.5 126.04 168.84 126.76 168.18 127.34 167.59 127.93 167.07 128.45 166.55 128.98 166.09 129.43 165.7 129.89 165.24 130.35 164.85 130.8 164.46 131.2 164 131.72 163.54 132.17 163.09 132.7 162.63 133.28 162.11 133.94 161.51 134.59 160.85 135.37 160.14 136.22 159.35 136.74 159.55 137.33 159.74 137.92 159.94 138.44 160.14 139.03 160.33 139.55 160.46 140.14 160.66 140.66 160.79 141.25 160.99 141.83 161.12 142.36 161.25 142.94 161.38 143.53 161.57 144.05 161.7 144.64 161.83 145.23 161.98 145.75 162.04 146.34 162.17 146.93 162.3 147.45 162.37 147.84 163.48 148.1 164.46 148.43 165.37 148.62 166.22 148.88 166.94 149.08 167.66 149.28 168.32 149.47 168.91 149.67 169.5 149.86 170.08 150.06 170.67 150.19 171.26 150.39 171.85 150.58 172.5 150.84 173.22 151.04 173.93 151.3 174.8 151.56 175.65 151.89 176.69 152.21 177.73 153.52 177.73 154.63 177.73 155.67 177.73 156.65 177.73 157.5 177.73 158.35 177.73 159.07 177.73 159.78 177.73 160.5 177.73 161.15 177.73 161.81 177.73 162.53 177.73 163.18 177.73 163.96 177.73 164.74 177.73 165.66 177.73 166.57 177.73 167.62 177.73 168.79 177.73 170.03 177.73 170.42 176.62 170.68 175.65 171.01 174.73 171.27 173.87 171.47 173.15 171.73 172.43 171.92 171.78 172.12 171.19 172.25 170.61 172.45 170.02 172.64 169.43 172.84 168.84 173.03 168.18 173.23 167.53 173.43 166.87 173.69 166.09 173.95 165.24 174.21 164.33 174.54 163.35 174.86 162.24 175.45 162.11 175.97 162.04 176.56 161.91 177.08 161.77 177.67 161.64 178.19 161.51 178.78 161.38 179.3 161.25 179.89 161.12 180.41 160.92 181 160.79 181.52 160.66 182.11 160.46 182.63 160.33 183.15 160.14 183.74 159.94 184.26 159.81 184.78 159.61 185.37 159.42 185.89 159.22 186.74 160.01 187.52 160.72 188.24 161.38 188.83 161.98 189.42 162.5 190 163.02 190.46 163.48 190.98 163.94 191.44 164.33 191.9 164.78 192.29 165.18 192.75 165.57 193.27 166.02 193.73 166.48 194.31 167 194.9 167.53 195.49 168.11 196.21 168.78 196.99 169.5 197.84 170.28 198.95 169.63 199.93 169.1 200.84 168.58 201.69 168.05 202.41 167.66 203.12 167.26 203.78 166.87 204.36 166.48 204.95 166.15 205.54 165.83 206.13 165.5 206.71 165.18 207.37 164.78 208.02 164.39 208.67 164 209.46 163.61 210.3 163.09 211.15 162.56 212.2 161.98 213.31 161.38 213.05 160.27 212.78 159.29 212.59 158.37 212.39 157.53 212.26 156.81 212.07 156.09 211.94 155.42 211.81 154.84 211.67 154.25 211.54 153.66 211.41 153.07 211.28 152.49 211.15 151.9 211.02 151.25 210.83 150.53 210.7 149.75 210.5 148.95 210.3 148.04 210.04 147.06 209.78 145.95 202.86 145.95 196.6 145.95 190.85 145.95 185.7 145.95 180.93 145.95 176.49 145.95 172.45 145.95 168.53 145.95 164.81 145.95 161.15 145.95 157.5 145.95 153.78 145.95 149.86 145.95 145.75 145.95 141.38 145.95 136.61 145.95 131.46 145.95 125.71 145.95 119.45 145.95 112.46 145.95"></polyline><polyline class="cls-3" points="249.99 97.74 249.99 96.5 249.99 95.32 249.99 94.28 249.99 93.36 249.99 92.45 249.99 91.67 249.99 90.88 249.99 90.23 249.99 89.51 249.99 88.87 249.99 88.22 249.99 87.5 249.99 86.78 249.99 86.07 249.99 85.22 249.99 84.37 249.99 83.39 249.99 82.35 249.99 81.24 249.99 79.93 248.81 79.6 247.77 79.28 246.79 78.95 245.94 78.69 245.16 78.43 244.38 78.23 243.72 77.97 243.07 77.78 242.42 77.58 241.83 77.39 241.18 77.19 240.52 76.99 239.87 76.8 239.22 76.6 238.5 76.34 237.65 76.15 236.8 75.82 235.83 75.56 234.78 75.23 233.61 74.84 233.48 74.32 233.41 73.86 233.28 73.34 233.15 72.82 233.02 72.29 232.95 71.84 232.82 71.32 232.69 70.79 232.56 70.27 232.43 69.81 232.24 69.29 232.1 68.77 231.97 68.31 231.84 67.8 231.65 67.28 231.52 66.82 231.32 66.3 231.19 65.85 231 65.32 230.86 64.87 231.71 63.95 232.43 63.1 233.15 62.39 233.74 61.67 234.32 61.08 234.85 60.49 235.37 59.97 235.83 59.45 236.28 58.99 236.74 58.54 237.13 58.01 237.59 57.56 238.04 57.03 238.57 56.51 239.09 55.92 239.68 55.34 240.26 54.62 240.98 53.9 241.7 53.05 242.55 52.2 241.9 51.09 241.37 50.05 240.85 49.2 240.33 48.35 239.94 47.57 239.55 46.93 239.15 46.28 238.76 45.62 238.44 45.04 238.11 44.45 237.78 43.86 237.46 43.27 237.07 42.69 236.67 42.03 236.28 41.32 235.83 40.6 235.37 39.75 234.85 38.84 234.26 37.86 233.67 36.75 232.5 37.01 231.45 37.27 230.47 37.47 229.62 37.66 228.84 37.86 228.12 37.99 227.47 38.18 226.82 38.31 226.17 38.44 225.58 38.58 224.92 38.71 224.34 38.84 223.68 39.03 223.03 39.16 222.31 39.29 221.47 39.49 220.62 39.68 219.7 39.88 218.66 40.14 217.48 40.4 217.48 47.31 217.48 53.57 217.48 59.25 217.48 64.47 217.48 69.16 217.48 73.53 217.48 77.65 217.48 81.5 217.48 85.22 217.48 88.87 217.48 92.52 217.48 96.24 217.48 100.09 217.48 104.2 217.48 108.57 217.48 113.26 217.48 118.42 217.48 124.16 217.48 130.43 217.48 137.33 218.66 137.59 219.7 137.79 220.62 137.98 221.47 138.18 222.31 138.38 223.03 138.57 223.68 138.7 224.34 138.83 224.92 138.96 225.58 139.16 226.17 139.29 226.82 139.42 227.47 139.55 228.12 139.68 228.84 139.88 229.62 140.07 230.47 140.27 231.45 140.46 232.5 140.72 233.67 140.99 234.26 139.88 234.85 138.83 235.37 137.98 235.83 137.14 236.28 136.35 236.67 135.7 237.07 135.05 237.46 134.39 237.78 133.81 238.11 133.22 238.44 132.63 238.76 132.04 239.15 131.46 239.55 130.8 239.94 130.1 240.33 129.38 240.85 128.53 241.37 127.62 241.9 126.64 242.55 125.53 241.76 124.68 240.98 123.83 240.33 123.11 239.74 122.46 239.15 121.87 238.63 121.29 238.18 120.76 237.72 120.31 237.26 119.85 236.87 119.33 236.41 118.87 235.96 118.42 235.5 117.89 235.04 117.44 234.52 116.85 234 116.26 233.34 115.61 232.69 114.89 231.97 114.04 231.13 113.19 231.32 112.67 231.45 112.15 231.65 111.63 231.78 111.1 231.97 110.58 232.1 110.06 232.24 109.55 232.43 109.03 232.56 108.51 232.69 107.98 232.82 107.46 232.95 106.94 233.08 106.42 233.21 105.9 233.28 105.37 233.41 104.85 233.54 104.33 233.67 103.81 233.74 103.29 233.87 102.76 234.98 102.44 236.02 102.11 237 101.78 237.85 101.52 238.63 101.26 239.35 101.07 240.07 100.87 240.72 100.67 241.31 100.48 241.9 100.28 242.55 100.09 243.14 99.89 243.79 99.7 244.51 99.5 245.22 99.24 246.01 98.98 246.86 98.72 247.84 98.46 248.88 98.13 249.99 97.74"></polyline><polyline class="cls-3" points="10.77 254.94 10.77 255.39 10.77 255.85 10.84 256.31 10.84 256.7 10.9 257.03 10.9 257.35 10.97 257.68 11.1 257.94 11.16 258.2 11.29 258.4 11.49 258.59 11.62 258.79 11.88 258.92 12.08 259.05 12.34 259.12 12.66 259.25 12.99 259.25 13.38 259.31 13.77 259.31 14.23 259.38 14.29 259.38 14.42 259.38 14.49 259.38 14.62 259.38 14.69 259.38 14.75 259.38 14.82 259.38 14.88 259.38 14.95 259.38 15.01 259.38 15.08 259.38 15.14 259.38 15.21 259.38 15.27 259.38 15.34 259.38 15.47 259.38 15.53 259.38 15.6 259.38 15.73 259.38 16.19 259.31 16.58 259.31 16.97 259.25 17.3 259.25 17.62 259.12 17.88 259.05 18.08 258.92 18.34 258.79 18.47 258.59 18.67 258.4 18.8 258.2 18.86 257.94 18.93 257.68 19.06 257.35 19.06 257.03 19.12 256.7 19.12 256.31 19.19 255.85 19.19 255.39 19.19 254.94 19.19 254.09 19.19 253.3 19.19 252.58 19.19 251.93 19.19 251.34 19.19 250.75 19.19 250.23 19.19 249.77 19.19 249.32 19.19 248.86 19.19 248.4 19.19 247.94 19.19 247.42 19.19 246.9 19.19 246.38 19.19 245.79 19.19 245.13 19.19 244.41 19.19 243.63 19.19 242.78 19.91 242.78 20.56 242.78 21.15 242.78 21.67 242.78 22.19 242.78 22.65 242.78 23.04 242.78 23.43 242.78 23.82 242.78 24.22 242.78 24.61 242.78 25 242.78 25.39 242.78 25.85 242.78 26.3 242.78 26.76 242.78 27.35 242.78 27.94 242.78 28.59 242.78 29.31 242.78 29.31 243.76 29.31 244.61 29.31 245.4 29.31 246.11 29.31 246.77 29.31 247.36 29.31 247.94 29.31 248.47 29.31 248.99 29.31 249.51 29.31 250.03 29.31 250.49 29.31 251.08 29.31 251.6 29.31 252.26 29.31 252.91 29.31 253.63 29.31 254.41 29.31 255.26 29.31 256.24 29.24 257.61 29.24 258.92 29.11 260.1 28.98 261.21 28.72 262.19 28.52 263.1 28.2 263.95 27.81 264.67 27.35 265.39 26.83 265.98 26.24 266.5 25.59 266.96 24.87 267.35 24.02 267.68 23.11 268 22.13 268.2 21.02 268.33 19.84 268.46 18.54 268.53 17.17 268.53 16.84 268.53 16.51 268.53 16.19 268.53 15.93 268.53 15.73 268.53 15.47 268.53 15.27 268.53 15.08 268.53 14.88 268.53 14.69 268.53 14.49 268.53 14.29 268.53 14.1 268.53 13.9 268.53 13.71 268.53 13.45 268.53 13.18 268.53 12.86 268.53 12.6 268.53 12.21 268.53 10.84 268.53 9.53 268.46 8.29 268.33 7.18 268.2 6.2 268 5.29 267.68 4.44 267.35 3.72 266.96 3.07 266.5 2.48 265.98 1.96 265.39 1.5 264.67 1.11 263.95 .78 263.1 .52 262.19 .33 261.21 .2 260.1 .07 258.92 0 257.61 0 256.24 0 253.56 0 251.21 0 249.05 0 247.03 0 245.26 0 243.57 0 242 0 240.56 0 239.12 0 237.75 0 236.31 0 234.94 0 233.44 0 231.87 0 230.24 0 228.41 0 226.45 0 224.29 0 221.87 0 219.26 0 217.89 .07 216.58 .2 215.41 .33 214.3 .52 213.32 .78 212.33 1.11 211.54 1.5 210.76 1.96 210.11 2.48 209.52 3.07 208.93 3.72 208.48 4.44 208.08 5.29 207.76 6.2 207.5 7.18 207.3 8.29 207.11 9.53 206.98 10.84 206.91 12.21 206.91 12.6 206.91 12.86 206.91 13.18 206.91 13.45 206.91 13.71 206.91 13.9 206.91 14.1 206.91 14.29 206.91 14.49 206.91 14.69 206.91 14.88 206.91 15.08 206.91 15.27 206.91 15.47 206.91 15.73 206.91 15.93 206.91 16.19 206.91 16.51 206.91 16.84 206.91 17.17 206.91 18.54 206.91 19.84 206.98 21.02 207.11 22.13 207.3 23.11 207.5 24.02 207.76 24.87 208.08 25.59 208.48 26.24 208.93 26.83 209.52 27.35 210.11 27.81 210.76 28.2 211.54 28.52 212.33 28.72 213.32 28.98 214.3 29.11 215.41 29.24 216.58 29.24 217.89 29.31 219.26 29.31 220.04 29.31 220.7 29.31 221.35 29.31 221.94 29.31 222.46 29.31 222.98 29.31 223.37 29.31 223.83 29.31 224.22 29.31 224.68 29.31 225.07 29.31 225.46 29.31 225.93 29.31 226.39 29.31 226.84 29.31 227.43 29.31 227.95 29.31 228.61 29.31 229.32 29.31 230.11 28.59 230.11 27.94 230.11 27.35 230.11 26.76 230.11 26.3 230.11 25.85 230.11 25.39 230.11 25 230.11 24.61 230.11 24.22 230.11 23.82 230.11 23.43 230.11 23.04 230.11 22.65 230.11 22.19 230.11 21.67 230.11 21.15 230.11 20.56 230.11 19.91 230.11 19.19 230.11 19.19 229.39 19.19 228.8 19.19 228.21 19.19 227.76 19.19 227.24 19.19 226.84 19.19 226.45 19.19 226.06 19.19 225.67 19.19 225.33 19.19 224.94 19.19 224.61 19.19 224.22 19.19 223.83 19.19 223.37 19.19 222.91 19.19 222.39 19.19 221.87 19.19 221.22 19.19 220.56 19.19 220.04 19.19 219.59 19.12 219.19 19.12 218.8 19.06 218.41 19.06 218.08 18.93 217.82 18.86 217.5 18.8 217.3 18.67 217.04 18.47 216.84 18.34 216.71 18.08 216.58 17.88 216.45 17.62 216.32 17.3 216.26 16.97 216.19 16.58 216.13 16.19 216.13 15.73 216.13 15.6 216.13 15.53 216.13 15.47 216.13 15.34 216.13 15.27 216.13 15.21 216.13 15.14 216.13 15.08 216.13 15.01 216.13 14.95 216.13 14.88 216.13 14.82 216.13 14.75 216.13 14.69 216.13 14.62 216.13 14.49 216.13 14.42 216.13 14.29 216.13 14.23 216.13 13.77 216.13 13.38 216.13 12.99 216.19 12.66 216.26 12.34 216.32 12.08 216.45 11.88 216.58 11.62 216.71 11.49 216.84 11.29 217.04 11.16 217.3 11.1 217.5 10.97 217.82 10.9 218.08 10.9 218.41 10.84 218.8 10.84 219.19 10.77 219.59 10.77 220.04 10.77 220.56 10.77 222.98 10.77 225.2 10.77 227.24 10.77 229.06 10.77 230.76 10.77 232.33 10.77 233.77 10.77 235.14 10.77 236.44 10.77 237.75 10.77 239.06 10.77 240.36 10.77 241.74 10.77 243.17 10.77 244.74 10.77 246.38 10.77 248.2 10.77 250.23 10.77 252.45 10.77 254.94"></polyline><polyline class="cls-3" points="49.48 233.57 50.52 233.57 51.43 233.57 52.28 233.57 53.07 233.57 53.78 233.57 54.37 233.57 55.02 233.57 55.55 233.57 56.13 233.57 56.66 233.57 57.18 233.57 57.77 233.57 58.35 233.57 58.94 233.57 59.59 233.57 60.25 233.57 61.03 233.57 61.88 233.57 62.79 233.57 63.84 233.57 63.84 235.2 63.84 236.64 63.84 237.95 63.84 239.19 63.84 240.3 63.84 241.34 63.84 242.26 63.84 243.17 63.84 244.02 63.84 244.87 63.84 245.72 63.84 246.64 63.84 247.55 63.84 248.47 63.84 249.51 63.84 250.62 63.84 251.8 63.84 253.17 63.84 254.61 63.84 256.24 63.77 257.61 63.77 258.92 63.64 260.1 63.51 261.21 63.25 262.19 63.05 263.1 62.73 263.95 62.33 264.67 61.88 265.39 61.36 265.98 60.77 266.5 60.11 266.96 59.4 267.35 58.55 267.68 57.63 268 56.66 268.2 55.55 268.33 54.37 268.46 53.07 268.53 51.69 268.53 51.37 268.53 51.04 268.53 50.72 268.53 50.45 268.53 50.26 268.53 50 268.53 49.8 268.53 49.61 268.53 49.41 268.53 49.21 268.53 49.02 268.53 48.82 268.53 48.63 268.53 48.43 268.53 48.24 268.53 47.97 268.53 47.71 268.53 47.39 268.53 47.13 268.53 46.73 268.53 45.36 268.53 44.06 268.46 42.82 268.33 41.71 268.2 40.73 268 39.82 267.68 38.97 267.35 38.25 266.96 37.6 266.5 37.01 265.98 36.49 265.39 36.03 264.67 35.64 263.95 35.31 263.1 35.05 262.19 34.85 261.21 34.72 260.1 34.59 258.92 34.53 257.61 34.53 256.24 34.53 253.56 34.53 251.21 34.53 249.05 34.53 247.03 34.53 245.26 34.53 243.57 34.53 242 34.53 240.56 34.53 239.12 34.53 237.75 34.53 236.31 34.53 234.94 34.53 233.44 34.53 231.87 34.53 230.24 34.53 228.41 34.53 226.45 34.53 224.29 34.53 221.87 34.53 219.26 34.53 217.89 34.59 216.58 34.72 215.41 34.85 214.3 35.05 213.32 35.31 212.33 35.64 211.54 36.03 210.76 36.49 210.11 37.01 209.52 37.6 208.93 38.25 208.48 38.97 208.08 39.82 207.76 40.73 207.5 41.71 207.3 42.82 207.11 44.06 206.98 45.36 206.91 46.73 206.91 47.13 206.91 47.39 206.91 47.71 206.91 47.97 206.91 48.24 206.91 48.43 206.91 48.63 206.91 48.82 206.91 49.02 206.91 49.21 206.91 49.41 206.91 49.61 206.91 49.8 206.91 50 206.91 50.26 206.91 50.45 206.91 50.72 206.91 51.04 206.91 51.37 206.91 51.69 206.91 53.07 206.91 54.37 206.98 55.55 207.11 56.66 207.3 57.63 207.5 58.55 207.76 59.4 208.08 60.11 208.48 60.77 208.93 61.36 209.52 61.88 210.11 62.33 210.76 62.73 211.54 63.05 212.33 63.25 213.32 63.51 214.3 63.64 215.41 63.77 216.58 63.77 217.89 63.84 219.26 63.84 219.91 63.84 220.5 63.84 221.02 63.84 221.54 63.84 222 63.84 222.39 63.84 222.78 63.84 223.18 63.84 223.5 63.84 223.89 63.84 224.22 63.84 224.61 63.84 224.94 63.84 225.33 63.84 225.8 63.84 226.26 63.84 226.71 63.84 227.3 63.84 227.89 63.84 228.54 63.12 228.54 62.46 228.54 61.88 228.54 61.29 228.54 60.83 228.54 60.38 228.54 59.92 228.54 59.53 228.54 59.14 228.54 58.74 228.54 58.35 228.54 57.96 228.54 57.57 228.54 57.18 228.54 56.72 228.54 56.2 228.54 55.68 228.54 55.09 228.54 54.44 228.54 53.72 228.54 53.72 227.95 53.72 227.43 53.72 226.97 53.72 226.58 53.72 226.19 53.72 225.8 53.72 225.46 53.72 225.13 53.72 224.81 53.72 224.55 53.72 224.22 53.72 223.89 53.72 223.63 53.72 223.24 53.72 222.91 53.72 222.52 53.72 222.07 53.72 221.61 53.72 221.09 53.72 220.56 53.72 220.04 53.72 219.59 53.65 219.19 53.65 218.8 53.59 218.41 53.59 218.08 53.46 217.82 53.39 217.5 53.33 217.3 53.2 217.04 53 216.84 52.87 216.71 52.61 216.58 52.41 216.45 52.15 216.32 51.83 216.26 51.5 216.19 51.11 216.13 50.72 216.13 50.26 216.13 50.19 216.13 50.06 216.13 50 216.13 49.87 216.13 49.8 216.13 49.74 216.13 49.67 216.13 49.61 216.13 49.54 216.13 49.48 216.13 49.41 216.13 49.35 216.13 49.28 216.13 49.21 216.13 49.15 216.13 49.02 216.13 48.95 216.13 48.82 216.13 48.76 216.13 48.3 216.13 47.91 216.13 47.52 216.19 47.19 216.26 46.86 216.32 46.6 216.45 46.41 216.58 46.15 216.71 46.02 216.84 45.82 217.04 45.69 217.3 45.62 217.5 45.49 217.82 45.43 218.08 45.43 218.41 45.36 218.8 45.36 219.19 45.3 219.59 45.3 220.04 45.3 220.56 45.3 222.98 45.3 225.2 45.3 227.24 45.3 229.06 45.3 230.76 45.3 232.33 45.3 233.77 45.3 235.14 45.3 236.44 45.3 237.75 45.3 239.06 45.3 240.36 45.3 241.74 45.3 243.17 45.3 244.74 45.3 246.38 45.3 248.2 45.3 250.23 45.3 252.45 45.3 254.94 45.3 255.39 45.3 255.85 45.36 256.31 45.36 256.7 45.43 257.03 45.43 257.35 45.49 257.68 45.62 257.94 45.69 258.2 45.82 258.4 46.02 258.59 46.15 258.79 46.41 258.92 46.6 259.05 46.86 259.12 47.19 259.25 47.52 259.25 47.91 259.31 48.3 259.31 48.76 259.38 48.82 259.38 48.95 259.38 49.02 259.38 49.15 259.38 49.21 259.38 49.28 259.38 49.35 259.38 49.41 259.38 49.48 259.38 49.54 259.38 49.61 259.38 49.67 259.38 49.74 259.38 49.8 259.38 49.87 259.38 50 259.38 50.06 259.38 50.19 259.38 50.26 259.38 50.72 259.31 51.11 259.31 51.5 259.25 51.83 259.25 52.15 259.12 52.41 259.05 52.61 258.92 52.87 258.79 53 258.59 53.2 258.4 53.33 258.2 53.39 257.94 53.46 257.68 53.59 257.35 53.59 257.03 53.65 256.7 53.65 256.31 53.72 255.85 53.72 255.39 53.72 254.94 53.72 254.09 53.72 253.3 53.72 252.58 53.72 251.93 53.72 251.34 53.72 250.75 53.72 250.23 53.72 249.77 53.72 249.32 53.72 248.86 53.72 248.4 53.72 247.94 53.72 247.42 53.72 246.9 53.72 246.38 53.72 245.79 53.72 245.13 53.72 244.41 53.72 243.63 53.72 242.78 53.39 242.78 53.13 242.78 52.87 242.78 52.67 242.78 52.48 242.78 52.28 242.78 52.09 242.78 51.96 242.78 51.76 242.78 51.63 242.78 51.43 242.78 51.3 242.78 51.11 242.78 50.91 242.78 50.78 242.78 50.52 242.78 50.32 242.78 50.06 242.78 49.8 242.78 49.48 242.78 49.48 242.13 49.48 241.54 49.48 240.95 49.48 240.49 49.48 240.04 49.48 239.64 49.48 239.25 49.48 238.86 49.48 238.54 49.48 238.14 49.48 237.82 49.48 237.49 49.48 237.1 49.48 236.71 49.48 236.31 49.48 235.86 49.48 235.33 49.48 234.81 49.48 234.22 49.48 233.57"></polyline><polyline class="cls-3" points="125.69 235.14 126.53 235.14 127.32 235.14 128.04 235.14 128.69 235.14 129.28 235.14 129.86 235.14 130.39 235.14 130.86 235.14 131.31 235.14 131.77 235.14 132.29 235.14 132.75 235.14 133.21 235.14 133.73 235.14 134.25 235.14 134.9 235.14 135.57 235.14 136.29 235.14 137.07 235.14 137.92 235.14 137.92 236.77 137.92 238.27 137.92 239.64 137.92 240.89 137.92 242 137.92 243.04 137.92 244.02 137.92 244.94 137.92 245.79 137.92 246.7 137.92 247.55 137.92 248.4 137.92 249.38 137.92 250.3 137.92 251.34 137.92 252.52 137.92 253.76 137.92 255.07 137.92 256.57 137.92 258.2 137.92 259.38 137.85 260.42 137.79 261.47 137.66 262.38 137.46 263.23 137.27 263.95 137 264.67 136.68 265.32 136.29 265.91 135.83 266.37 135.36 266.83 134.77 267.22 134.12 267.55 133.47 267.81 132.68 268.07 131.83 268.27 130.92 268.4 129.86 268.46 128.75 268.53 127.58 268.53 127.32 268.53 127.06 268.53 126.8 268.53 126.6 268.53 126.4 268.53 126.21 268.53 126.01 268.53 125.88 268.53 125.69 268.53 125.56 268.53 125.35 268.53 125.22 268.53 125.02 268.53 124.89 268.53 124.69 268.53 124.5 268.53 124.3 268.53 124.04 268.53 123.78 268.53 123.45 268.53 122.28 268.53 121.17 268.46 120.18 268.4 119.2 268.27 118.35 268.07 117.57 267.81 116.91 267.55 116.26 267.22 115.67 266.83 115.2 266.37 114.75 265.91 114.36 265.32 114.03 264.67 113.77 263.95 113.51 263.23 113.38 262.38 113.18 261.47 113.12 260.42 113.05 259.38 113.05 258.2 113.05 255.33 113.05 252.65 113.05 250.23 113.05 248.07 113.05 246.05 113.05 244.22 113.05 242.46 113.05 240.82 113.05 239.25 113.05 237.75 113.05 236.18 113.05 234.61 113.05 232.98 113.05 231.28 113.05 229.39 113.05 227.43 113.05 225.2 113.05 222.78 113.05 220.17 113.05 217.24 113.05 216.06 113.12 215.02 113.18 214.04 113.38 213.11 113.51 212.26 113.77 211.48 114.03 210.76 114.36 210.17 114.75 209.59 115.2 209.06 115.67 208.61 116.26 208.22 116.91 207.89 117.57 207.63 118.35 207.43 119.2 207.24 120.18 207.11 121.17 206.98 122.28 206.91 123.45 206.91 123.78 206.91 124.04 206.91 124.3 206.91 124.5 206.91 124.69 206.91 124.89 206.91 125.02 206.91 125.22 206.91 125.35 206.91 125.56 206.91 125.69 206.91 125.88 206.91 126.01 206.91 126.21 206.91 126.4 206.91 126.6 206.91 126.8 206.91 127.06 206.91 127.32 206.91 127.58 206.91 128.75 206.91 129.86 206.98 130.92 207.11 131.83 207.24 132.68 207.43 133.47 207.63 134.12 207.89 134.77 208.22 135.36 208.61 135.83 209.06 136.29 209.59 136.68 210.17 137 210.76 137.27 211.48 137.46 212.26 137.66 213.11 137.79 214.04 137.85 215.02 137.92 216.06 137.92 217.24 137.92 218.02 137.92 218.74 137.92 219.46 137.92 220.04 137.92 220.56 137.92 221.09 137.92 221.54 137.92 222 137.92 222.39 137.92 222.85 137.92 223.24 137.92 223.7 137.92 224.15 137.92 224.61 137.92 225.13 137.92 225.67 137.92 226.26 137.92 226.91 137.92 227.63 137.92 228.48 137.46 228.48 137.14 228.48 136.74 228.48 136.42 228.48 136.16 228.48 135.89 228.48 135.63 228.48 135.36 228.48 135.1 228.48 134.9 228.48 134.71 228.48 134.45 228.48 134.18 228.48 133.92 228.48 133.66 228.48 133.4 228.48 133.08 228.48 132.68 228.48 132.36 228.48 131.9 228.48 131.9 227.76 131.9 227.1 131.9 226.52 131.9 225.93 131.9 225.46 131.9 225 131.9 224.55 131.9 224.15 131.9 223.76 131.9 223.37 131.9 223.05 131.9 222.65 131.9 222.26 131.9 221.8 131.9 221.35 131.9 220.89 131.9 220.3 131.9 219.72 131.9 219.06 131.9 218.35 131.9 217.69 131.9 217.04 131.83 216.45 131.83 215.93 131.77 215.41 131.7 214.95 131.64 214.56 131.51 214.17 131.38 213.84 131.18 213.52 130.99 213.25 130.73 213.05 130.39 212.85 130.06 212.65 129.67 212.52 129.21 212.39 128.75 212.33 128.17 212.26 127.58 212.2 126.93 212.2 126.73 212.2 126.6 212.2 126.47 212.2 126.34 212.2 126.21 212.2 126.08 212.2 125.95 212.2 125.88 212.2 125.75 212.2 125.69 212.2 125.62 212.2 125.48 212.2 125.41 212.2 125.28 212.2 125.15 212.2 125.02 212.2 124.89 212.2 124.76 212.2 124.63 212.2 124.43 212.2 123.78 212.2 123.13 212.26 122.61 212.33 122.15 212.39 121.69 212.52 121.3 212.65 120.97 212.85 120.65 213.05 120.37 213.25 120.18 213.52 119.98 213.84 119.85 214.17 119.72 214.56 119.66 214.95 119.59 215.41 119.52 215.93 119.46 216.45 119.46 217.04 119.46 217.69 119.46 218.35 119.46 221.15 119.46 223.63 119.46 225.93 119.46 227.95 119.46 229.85 119.46 231.61 119.46 233.24 119.46 234.81 119.46 236.25 119.46 237.75 119.46 239.19 119.46 240.69 119.46 242.19 119.46 243.83 119.46 245.59 119.46 247.49 119.46 249.58 119.46 251.8 119.46 254.35 119.46 257.09 119.46 257.74 119.46 258.4 119.46 258.99 119.52 259.51 119.59 260.03 119.66 260.49 119.72 260.88 119.85 261.27 119.98 261.6 120.18 261.93 120.37 262.19 120.65 262.45 120.97 262.65 121.3 262.84 121.69 262.97 122.15 263.04 122.61 263.17 123.13 263.23 123.78 263.23 124.43 263.23 124.63 263.23 124.76 263.23 124.89 263.23 125.02 263.23 125.15 263.23 125.28 263.23 125.41 263.23 125.48 263.23 125.62 263.23 125.69 263.23 125.75 263.23 125.88 263.23 125.95 263.23 126.08 263.23 126.21 263.23 126.34 263.23 126.47 263.23 126.6 263.23 126.73 263.23 126.93 263.23 127.58 263.23 128.17 263.23 128.75 263.17 129.21 263.04 129.67 262.97 130.06 262.84 130.39 262.65 130.73 262.45 130.99 262.19 131.18 261.93 131.38 261.6 131.51 261.27 131.64 260.88 131.7 260.49 131.77 260.03 131.83 259.51 131.83 258.99 131.9 258.4 131.9 257.74 131.9 257.09 131.9 255.92 131.9 254.8 131.9 253.82 131.9 252.97 131.9 252.13 131.9 251.41 131.9 250.69 131.9 250.03 131.9 249.38 131.9 248.79 131.9 248.14 131.9 247.49 131.9 246.83 131.9 246.11 131.9 245.4 131.9 244.55 131.9 243.7 131.9 242.72 131.9 241.61 131.9 240.43 131.44 240.43 131.05 240.43 130.66 240.43 130.32 240.43 130.06 240.43 129.73 240.43 129.47 240.43 129.28 240.43 129.02 240.43 128.75 240.43 128.56 240.43 128.3 240.43 128.04 240.43 127.78 240.43 127.51 240.43 127.25 240.43 126.86 240.43 126.53 240.43 126.14 240.43 125.69 240.43 125.69 240.04 125.69 239.71 125.69 239.38 125.69 239.12 125.69 238.86 125.69 238.6 125.69 238.4 125.69 238.21 125.69 237.95 125.69 237.75 125.69 237.55 125.69 237.36 125.69 237.16 125.69 236.97 125.69 236.71 125.69 236.44 125.69 236.18 125.69 235.86 125.69 235.53 125.69 235.14"></polyline><polygon class="cls-3" points="145.36 268.07 145.36 207.37 151.63 207.37 151.63 233.67 164.16 233.67 164.16 207.37 170.42 207.37 170.42 268.07 164.16 268.07 164.16 238.83 151.63 238.83 151.63 268.07 145.36 268.07"></polygon><rect class="cls-2" x="178.99" y="207.37" width="6.5" height="60.7"></rect><polyline class="cls-3" points="200.44 228.12 200.3 227.54 200.17 227.01 200.04 226.49 199.91 225.97 199.78 225.38 199.65 224.86 199.52 224.34 199.39 223.82 199.33 223.29 199.19 222.84 199.06 222.31 199 221.79 198.87 221.27 198.8 220.75 198.67 220.29 198.61 219.77 198.48 219.25 198.41 218.79 198.35 218.27 198.22 217.75 198.28 218.27 198.28 218.79 198.28 219.25 198.28 219.77 198.28 220.29 198.35 220.75 198.35 221.27 198.35 221.79 198.35 222.31 198.35 222.84 198.41 223.36 198.41 223.88 198.41 224.4 198.41 224.92 198.41 225.51 198.41 226.03 198.41 226.56 198.41 227.14 198.41 227.73 198.41 228.25 198.41 231.13 198.41 233.67 198.41 236.02 198.41 238.17 198.41 240.07 198.41 241.9 198.41 243.59 198.41 245.16 198.41 246.66 198.41 248.16 198.41 249.66 198.41 251.23 198.41 252.8 198.41 254.49 198.41 256.26 198.41 258.21 198.41 260.3 198.41 262.65 198.41 265.26 198.41 268.07 198.02 268.07 197.69 268.07 197.37 268.07 197.11 268.07 196.85 268.07 196.58 268.07 196.32 268.07 196.13 268.07 195.93 268.07 195.74 268.07 195.54 268.07 195.29 268.07 195.1 268.07 194.83 268.07 194.64 268.07 194.38 268.07 194.05 268.07 193.73 268.07 193.4 268.07 193.01 268.07 193.01 263.76 193.01 259.85 193.01 256.26 193.01 252.99 193.01 250.05 193.01 247.31 193.01 244.77 193.01 242.35 193.01 240 193.01 237.72 193.01 235.43 193.01 233.08 193.01 230.67 193.01 228.12 193.01 225.38 193.01 222.44 193.01 219.18 193.01 215.66 193.01 211.67 193.01 207.37 193.59 207.37 194.12 207.37 194.57 207.37 195.03 207.37 195.42 207.37 195.74 207.37 196.13 207.37 196.45 207.37 196.71 207.37 197.04 207.37 197.37 207.37 197.69 207.37 198.02 207.37 198.35 207.37 198.67 207.37 199.06 207.37 199.52 207.37 199.98 207.37 200.5 207.37 201.07 207.37 201.79 210.04 202.38 212.46 202.97 214.61 203.49 216.64 203.95 218.46 204.4 220.16 204.8 221.73 205.19 223.23 205.51 224.66 205.89 226.03 206.28 227.47 206.61 228.91 207 230.41 207.39 231.97 207.85 233.67 208.31 235.5 208.83 237.46 209.42 239.68 210 242.09 210.71 244.77 210.84 245.29 210.97 245.88 211.1 246.4 211.23 246.92 211.36 247.51 211.49 248.03 211.62 248.55 211.69 249.08 211.82 249.6 211.95 250.12 212.01 250.64 212.14 251.16 212.28 251.62 212.34 252.14 212.47 252.67 212.54 253.19 212.6 253.64 212.73 254.17 212.8 254.69 212.86 255.15 212.86 254.69 212.86 254.17 212.86 253.64 212.8 253.19 212.8 252.67 212.8 252.14 212.8 251.62 212.73 251.16 212.73 250.64 212.73 250.12 212.67 249.6 212.67 249.08 212.67 248.55 212.67 247.97 212.67 247.44 212.6 246.92 212.6 246.33 212.6 245.81 212.6 245.22 212.6 244.64 212.6 242.03 212.6 239.61 212.6 237.39 212.6 235.43 212.6 233.61 212.6 231.91 212.6 230.34 212.6 228.84 212.6 227.41 212.6 226.03 212.6 224.6 212.6 223.16 212.6 221.66 212.6 220.09 212.6 218.46 212.6 216.64 212.6 214.61 212.6 212.46 212.6 210.04 212.6 207.37 212.99 207.37 213.38 207.37 213.71 207.37 213.97 207.37 214.23 207.37 214.49 207.37 214.76 207.37 214.95 207.37 215.15 207.37 215.34 207.37 215.59 207.37 215.79 207.37 215.98 207.37 216.24 207.37 216.5 207.37 216.77 207.37 217.03 207.37 217.35 207.37 217.75 207.37 218.14 207.37 218.14 211.67 218.14 215.66 218.14 219.18 218.14 222.44 218.14 225.38 218.14 228.12 218.14 230.67 218.14 233.08 218.14 235.43 218.14 237.72 218.14 240 218.14 242.35 218.14 244.77 218.14 247.31 218.14 250.05 218.14 252.99 218.14 256.26 218.14 259.85 218.14 263.76 218.14 268.07 217.61 268.07 217.16 268.07 216.77 268.07 216.37 268.07 216.05 268.07 215.72 268.07 215.41 268.07 215.15 268.07 214.89 268.07 214.63 268.07 214.36 268.07 214.1 268.07 213.78 268.07 213.52 268.07 213.19 268.07 212.86 268.07 212.47 268.07 212.01 268.07 211.56 268.07 211.1 268.07 210.33 265.2 209.61 262.65 209.02 260.3 208.44 258.15 207.92 256.19 207.46 254.43 207 252.73 206.54 251.1 206.15 249.6 205.76 248.1 205.38 246.59 204.93 245.03 204.53 243.46 204.08 241.76 203.62 239.94 203.1 238.04 202.51 235.89 201.86 233.54 201.21 230.93 200.44 228.12"></polyline><polyline class="cls-3" points="272.9 251.99 272.9 251.15 272.9 250.36 272.83 249.64 272.77 248.92 272.64 248.27 272.51 247.68 272.31 247.09 272.05 246.51 271.79 245.92 271.46 245.4 271.14 244.81 270.68 244.22 270.22 243.7 269.7 243.04 269.05 242.46 268.4 241.8 267.61 241.08 266.83 240.36 265.92 239.58 264.94 238.8 263.76 237.75 262.65 236.84 261.67 235.99 260.82 235.14 259.98 234.35 259.26 233.57 258.6 232.78 258.02 232.07 257.5 231.35 257.04 230.63 256.65 229.91 256.32 229.19 256.06 228.48 255.8 227.69 255.67 226.84 255.47 226 255.41 225.07 255.34 224.15 255.28 223.11 255.28 222 255.28 221.67 255.28 221.35 255.28 221.09 255.28 220.83 255.28 220.63 255.28 220.37 255.28 220.17 255.28 219.98 255.28 219.78 255.28 219.65 255.28 219.46 255.28 219.26 255.28 219.06 255.28 218.87 255.28 218.67 255.28 218.41 255.28 218.15 255.28 217.89 255.28 217.56 255.28 217.24 255.28 216.06 255.34 215.02 255.41 214.04 255.54 213.11 255.73 212.26 255.99 211.48 256.26 210.76 256.58 210.17 256.97 209.59 257.36 209.06 257.89 208.61 258.47 208.22 259.06 207.89 259.78 207.63 260.56 207.43 261.41 207.24 262.33 207.11 263.3 206.98 264.41 206.91 265.59 206.91 265.85 206.91 266.05 206.91 266.24 206.91 266.44 206.91 266.57 206.91 266.76 206.91 266.89 206.91 267.02 206.91 267.16 206.91 267.29 206.91 267.42 206.91 267.55 206.91 267.68 206.91 267.81 206.91 268 206.91 268.13 206.91 268.33 206.91 268.53 206.91 268.79 206.91 268.98 206.91 270.16 206.91 271.27 206.98 272.25 207.11 273.16 207.24 274.01 207.43 274.79 207.63 275.51 207.89 276.1 208.22 276.69 208.61 277.14 209.06 277.6 209.59 277.99 210.17 278.25 210.76 278.58 211.48 278.77 212.26 278.97 213.11 279.03 214.04 279.17 215.02 279.23 216.06 279.23 217.24 279.23 217.95 279.23 218.67 279.23 219.26 279.23 219.78 279.23 220.3 279.23 220.76 279.23 221.22 279.23 221.61 279.23 222 279.23 222.39 279.23 222.78 279.23 223.18 279.23 223.63 279.23 224.02 279.23 224.48 279.23 225 279.23 225.54 279.23 226.19 279.23 226.84 279.23 227.56 278.77 227.56 278.45 227.56 278.06 227.56 277.73 227.56 277.47 227.56 277.21 227.56 276.95 227.56 276.69 227.56 276.49 227.56 276.29 227.56 276.03 227.56 275.84 227.56 275.58 227.56 275.31 227.56 275.05 227.56 274.79 227.56 274.47 227.56 274.14 227.56 273.75 227.56 273.29 227.56 273.29 226.91 273.29 226.32 273.29 225.8 273.29 225.26 273.29 224.81 273.29 224.42 273.29 224.02 273.29 223.7 273.29 223.31 273.29 222.98 273.29 222.65 273.29 222.26 273.29 221.94 273.29 221.54 273.29 221.09 273.29 220.63 273.29 220.17 273.29 219.65 273.29 219 273.29 218.35 273.29 217.69 273.29 217.04 273.29 216.45 273.23 215.93 273.16 215.41 273.1 214.95 273.03 214.56 272.9 214.17 272.7 213.84 272.57 213.52 272.31 213.25 272.05 213.05 271.79 212.85 271.46 212.65 271.07 212.52 270.61 212.39 270.16 212.33 269.57 212.26 268.98 212.2 268.33 212.2 268.2 212.2 268.07 212.2 268 212.2 267.87 212.2 267.81 212.2 267.74 212.2 267.68 212.2 267.55 212.2 267.48 212.2 267.42 212.2 267.35 212.2 267.29 212.2 267.22 212.2 267.16 212.2 267.09 212.2 266.96 212.2 266.89 212.2 266.76 212.2 266.63 212.2 266.5 212.2 265.85 212.2 265.26 212.26 264.74 212.33 264.28 212.39 263.83 212.52 263.43 212.65 263.11 212.78 262.78 213.05 262.52 213.25 262.33 213.52 262.13 213.84 262 214.17 261.87 214.56 261.8 214.95 261.67 215.41 261.67 215.87 261.61 216.45 261.61 216.97 261.61 217.63 261.54 218.28 261.54 218.54 261.54 218.8 261.54 219 261.54 219.19 261.54 219.39 261.54 219.52 261.54 219.72 261.54 219.85 261.54 219.98 261.54 220.11 261.54 220.24 261.54 220.37 261.54 220.5 261.54 220.7 261.54 220.83 261.54 221.02 261.54 221.22 261.54 221.41 261.54 221.67 261.54 221.94 261.61 222.72 261.61 223.5 261.67 224.22 261.74 224.94 261.87 225.6 262 226.19 262.19 226.78 262.39 227.37 262.72 227.95 262.98 228.48 263.37 229.06 263.83 229.65 264.28 230.24 264.81 230.82 265.46 231.41 266.11 232.07 266.89 232.78 267.68 233.5 268.59 234.29 269.57 235.14 270.75 236.12 271.85 237.03 272.83 237.95 273.68 238.73 274.53 239.51 275.25 240.3 275.9 241.08 276.49 241.8 277.01 242.52 277.47 243.24 277.86 243.96 278.19 244.68 278.45 245.46 278.64 246.25 278.84 247.03 278.97 247.88 279.1 248.79 279.17 249.77 279.23 250.82 279.23 251.86 279.23 252.32 279.23 252.78 279.23 253.11 279.23 253.43 279.23 253.76 279.23 254.09 279.23 254.35 279.23 254.54 279.23 254.8 279.23 255.07 279.23 255.26 279.23 255.52 279.23 255.79 279.23 256.05 279.23 256.37 279.23 256.63 279.23 256.96 279.23 257.35 279.23 257.74 279.23 258.2 279.23 259.38 279.17 260.42 279.03 261.47 278.97 262.38 278.77 263.23 278.58 263.95 278.25 264.67 277.99 265.32 277.6 265.91 277.14 266.37 276.69 266.83 276.1 267.22 275.51 267.55 274.79 267.81 274.01 268.07 273.16 268.27 272.25 268.4 271.27 268.46 270.16 268.53 268.98 268.53 268.79 268.53 268.53 268.53 268.33 268.53 268.13 268.53 268 268.53 267.81 268.53 267.68 268.53 267.55 268.53 267.42 268.53 267.29 268.53 267.16 268.53 267.02 268.53 266.89 268.53 266.76 268.53 266.57 268.53 266.44 268.53 266.24 268.53 266.05 268.53 265.85 268.53 265.59 268.53 264.41 268.53 263.3 268.46 262.33 268.4 261.41 268.27 260.56 268.07 259.78 267.81 259.06 267.55 258.47 267.22 257.89 266.83 257.36 266.37 256.97 265.91 256.58 265.32 256.26 264.67 255.99 263.95 255.73 263.23 255.54 262.38 255.41 261.47 255.34 260.42 255.28 259.38 255.28 258.2 255.28 257.35 255.28 256.57 255.28 255.85 255.28 255.26 255.28 254.67 255.28 254.09 255.28 253.56 255.28 253.11 255.28 252.65 255.28 252.19 255.28 251.73 255.28 251.28 255.28 250.82 255.28 250.3 255.28 249.71 255.28 249.12 255.28 248.53 255.28 247.81 255.28 247.03 255.28 246.18 255.67 246.18 256.06 246.18 256.45 246.18 256.71 246.18 257.04 246.18 257.3 246.18 257.56 246.18 257.76 246.18 258.02 246.18 258.21 246.18 258.47 246.18 258.67 246.18 258.93 246.18 259.19 246.18 259.45 246.18 259.71 246.18 260.04 246.18 260.37 246.18 260.76 246.18 261.22 246.18 261.22 246.96 261.22 247.62 261.22 248.27 261.22 248.86 261.22 249.38 261.22 249.9 261.22 250.36 261.22 250.82 261.22 251.21 261.22 251.6 261.22 252.06 261.22 252.45 261.22 252.91 261.22 253.37 261.22 253.82 261.22 254.41 261.22 254.94 261.22 255.59 261.22 256.31 261.22 257.09 261.22 257.74 261.22 258.4 261.22 258.99 261.28 259.51 261.35 260.03 261.41 260.49 261.48 260.88 261.61 261.27 261.74 261.6 261.93 261.93 262.19 262.19 262.46 262.45 262.72 262.65 263.04 262.84 263.43 262.97 263.89 263.04 264.35 263.17 264.87 263.23 265.52 263.23 266.18 263.23 266.31 263.23 266.37 263.23 266.5 263.23 266.57 263.23 266.7 263.23 266.76 263.23 266.83 263.23 266.89 263.23 266.96 263.23 267.02 263.23 267.16 263.23 267.22 263.23 267.29 263.23 267.35 263.23 267.42 263.23 267.48 263.23 267.61 263.23 267.74 263.23 267.81 263.23 267.94 263.23 268.59 263.23 269.24 263.23 269.77 263.17 270.22 263.04 270.68 262.97 271.07 262.84 271.4 262.65 271.66 262.45 271.92 262.19 272.18 261.93 272.38 261.6 272.51 261.27 272.64 260.88 272.7 260.49 272.77 260.03 272.83 259.51 272.9 258.99 272.9 258.4 272.9 257.74 272.9 257.09 272.9 256.7 272.9 256.37 272.9 256.11 272.9 255.85 272.9 255.59 272.9 255.33 272.9 255.13 272.9 254.94 272.9 254.74 272.9 254.54 272.9 254.35 272.9 254.15 272.9 253.95 272.9 253.69 272.9 253.5 272.9 253.24 272.9 252.97 272.9 252.65 272.9 252.32 272.9 251.99"></polyline><polyline class="cls-3" points="303.07 251.99 303.07 251.15 303.07 250.36 303 249.64 302.94 248.92 302.81 248.27 302.68 247.68 302.48 247.09 302.23 246.51 301.97 245.92 301.64 245.4 301.32 244.81 300.86 244.22 300.4 243.7 299.88 243.04 299.23 242.46 298.58 241.8 297.79 241.08 297.02 240.36 296.11 239.58 295.13 238.8 293.96 237.75 292.85 236.84 291.88 235.99 291.03 235.14 290.18 234.35 289.47 233.57 288.81 232.78 288.23 232.07 287.72 231.35 287.26 230.63 286.87 229.91 286.54 229.19 286.28 228.48 286.02 227.69 285.89 226.84 285.69 226 285.63 225.07 285.56 224.15 285.5 223.11 285.5 222 285.5 221.67 285.5 221.35 285.5 221.09 285.5 220.83 285.5 220.63 285.5 220.37 285.5 220.17 285.5 219.98 285.5 219.78 285.5 219.65 285.5 219.46 285.5 219.26 285.5 219.06 285.5 218.87 285.5 218.67 285.5 218.41 285.5 218.15 285.5 217.89 285.5 217.56 285.5 217.24 285.5 216.06 285.56 215.02 285.63 214.04 285.76 213.11 285.95 212.26 286.21 211.48 286.48 210.76 286.8 210.17 287.19 209.59 287.59 209.06 288.09 208.61 288.68 208.22 289.27 207.89 289.99 207.63 290.77 207.43 291.62 207.24 292.53 207.11 293.5 206.98 294.61 206.91 295.78 206.91 296.04 206.91 296.24 206.91 296.44 206.91 296.63 206.91 296.76 206.91 296.96 206.91 297.09 206.91 297.22 206.91 297.35 206.91 297.47 206.91 297.6 206.91 297.73 206.91 297.86 206.91 297.99 206.91 298.19 206.91 298.32 206.91 298.51 206.91 298.71 206.91 298.97 206.91 299.16 206.91 300.34 206.91 301.45 206.98 302.42 207.11 303.33 207.24 304.18 207.43 304.96 207.63 305.68 207.89 306.27 208.22 306.85 208.61 307.3 209.06 307.75 209.59 308.15 210.17 308.41 210.76 308.73 211.48 308.93 212.26 309.12 213.11 309.19 214.04 309.32 215.02 309.39 216.06 309.39 217.24 309.39 217.95 309.39 218.67 309.39 219.26 309.39 219.78 309.39 220.3 309.39 220.76 309.39 221.22 309.39 221.61 309.39 222 309.39 222.39 309.39 222.78 309.39 223.18 309.39 223.63 309.39 224.02 309.39 224.48 309.39 225 309.39 225.54 309.39 226.19 309.39 226.84 309.39 227.56 308.93 227.56 308.6 227.56 308.21 227.56 307.88 227.56 307.62 227.56 307.36 227.56 307.1 227.56 306.85 227.56 306.66 227.56 306.46 227.56 306.2 227.56 306 227.56 305.74 227.56 305.48 227.56 305.22 227.56 304.96 227.56 304.63 227.56 304.31 227.56 303.92 227.56 303.46 227.56 303.46 226.91 303.46 226.32 303.46 225.8 303.46 225.26 303.46 224.81 303.46 224.42 303.46 224.02 303.46 223.7 303.46 223.31 303.46 222.98 303.46 222.65 303.46 222.26 303.46 221.94 303.46 221.54 303.46 221.09 303.46 220.63 303.46 220.17 303.46 219.65 303.46 219 303.46 218.35 303.46 217.69 303.46 217.04 303.46 216.45 303.39 215.93 303.33 215.41 303.26 214.95 303.2 214.56 303.07 214.17 302.87 213.84 302.74 213.52 302.48 213.25 302.23 213.05 301.97 212.85 301.64 212.65 301.25 212.52 300.8 212.39 300.34 212.33 299.75 212.26 299.16 212.2 298.51 212.2 298.38 212.2 298.25 212.2 298.19 212.2 298.05 212.2 297.99 212.2 297.92 212.2 297.86 212.2 297.73 212.2 297.66 212.2 297.6 212.2 297.53 212.2 297.47 212.2 297.42 212.2 297.35 212.2 297.28 212.2 297.15 212.2 297.09 212.2 296.96 212.2 296.83 212.2 296.7 212.2 296.04 212.2 295.46 212.26 294.93 212.33 294.48 212.39 294.02 212.52 293.63 212.65 293.3 212.78 292.98 213.05 292.72 213.25 292.53 213.52 292.34 213.84 292.21 214.17 292.08 214.56 292.01 214.95 291.88 215.41 291.88 215.87 291.81 216.45 291.81 216.97 291.81 217.63 291.75 218.28 291.75 218.54 291.75 218.8 291.75 219 291.75 219.19 291.75 219.39 291.75 219.52 291.75 219.72 291.75 219.85 291.75 219.98 291.75 220.11 291.75 220.24 291.75 220.37 291.75 220.5 291.75 220.7 291.75 220.83 291.75 221.02 291.75 221.22 291.75 221.41 291.75 221.67 291.75 221.94 291.81 222.72 291.81 223.5 291.88 224.22 291.95 224.94 292.08 225.6 292.21 226.19 292.4 226.78 292.6 227.37 292.91 227.95 293.17 228.48 293.56 229.06 294.02 229.65 294.48 230.24 295 230.82 295.65 231.41 296.31 232.07 297.09 232.78 297.86 233.5 298.77 234.29 299.75 235.14 300.93 236.12 302.04 237.03 303 237.95 303.85 238.73 304.7 239.51 305.42 240.3 306.07 241.08 306.66 241.8 307.17 242.52 307.62 243.24 308.02 243.96 308.34 244.68 308.6 245.46 308.8 246.25 308.99 247.03 309.12 247.88 309.26 248.79 309.32 249.77 309.39 250.82 309.39 251.86 309.39 252.32 309.39 252.78 309.39 253.11 309.39 253.43 309.39 253.76 309.39 254.09 309.39 254.35 309.39 254.54 309.39 254.8 309.39 255.07 309.39 255.26 309.39 255.52 309.39 255.79 309.39 256.05 309.39 256.37 309.39 256.63 309.39 256.96 309.39 257.35 309.39 257.74 309.39 258.2 309.39 259.38 309.32 260.42 309.19 261.47 309.12 262.38 308.93 263.23 308.73 263.95 308.41 264.67 308.15 265.32 307.75 265.91 307.3 266.37 306.85 266.83 306.27 267.22 305.68 267.55 304.96 267.81 304.18 268.07 303.33 268.27 302.42 268.4 301.45 268.46 300.34 268.53 299.16 268.53 298.97 268.53 298.71 268.53 298.51 268.53 298.32 268.53 298.19 268.53 297.99 268.53 297.86 268.53 297.73 268.53 297.6 268.53 297.47 268.53 297.35 268.53 297.22 268.53 297.09 268.53 296.96 268.53 296.76 268.53 296.63 268.53 296.44 268.53 296.24 268.53 296.04 268.53 295.78 268.53 294.61 268.53 293.5 268.46 292.53 268.4 291.62 268.27 290.77 268.07 289.99 267.81 289.27 267.55 288.68 267.22 288.09 266.83 287.59 266.37 287.19 265.91 286.8 265.32 286.48 264.67 286.21 263.95 285.95 263.23 285.76 262.38 285.63 261.47 285.56 260.42 285.5 259.38 285.5 258.2 285.5 257.35 285.5 256.57 285.5 255.85 285.5 255.26 285.5 254.67 285.5 254.09 285.5 253.56 285.5 253.11 285.5 252.65 285.5 252.19 285.5 251.73 285.5 251.28 285.5 250.82 285.5 250.3 285.5 249.71 285.5 249.12 285.5 248.53 285.5 247.81 285.5 247.03 285.5 246.18 285.89 246.18 286.28 246.18 286.67 246.18 286.93 246.18 287.26 246.18 287.52 246.18 287.78 246.18 287.96 246.18 288.23 246.18 288.42 246.18 288.68 246.18 288.88 246.18 289.14 246.18 289.4 246.18 289.66 246.18 289.92 246.18 290.25 246.18 290.57 246.18 290.97 246.18 291.42 246.18 291.42 246.96 291.42 247.62 291.42 248.27 291.42 248.86 291.42 249.38 291.42 249.9 291.42 250.36 291.42 250.82 291.42 251.21 291.42 251.6 291.42 252.06 291.42 252.45 291.42 252.91 291.42 253.37 291.42 253.82 291.42 254.41 291.42 254.94 291.42 255.59 291.42 256.31 291.42 257.09 291.42 257.74 291.42 258.4 291.42 258.99 291.49 259.51 291.55 260.03 291.62 260.49 291.68 260.88 291.81 261.27 291.95 261.6 292.14 261.93 292.4 262.19 292.66 262.45 292.91 262.65 293.24 262.84 293.63 262.97 294.09 263.04 294.54 263.17 295.07 263.23 295.72 263.23 296.37 263.23 296.5 263.23 296.57 263.23 296.7 263.23 296.76 263.23 296.89 263.23 296.96 263.23 297.02 263.23 297.09 263.23 297.15 263.23 297.22 263.23 297.35 263.23 297.42 263.23 297.47 263.23 297.53 263.23 297.6 263.23 297.66 263.23 297.79 263.23 297.92 263.23 297.99 263.23 298.12 263.23 298.77 263.23 299.43 263.23 299.95 263.17 300.4 263.04 300.86 262.97 301.25 262.84 301.58 262.65 301.84 262.45 302.1 262.19 302.35 261.93 302.55 261.6 302.68 261.27 302.81 260.88 302.87 260.49 302.94 260.03 303 259.51 303.07 258.99 303.07 258.4 303.07 257.74 303.07 257.09 303.07 256.7 303.07 256.37 303.07 256.11 303.07 255.85 303.07 255.59 303.07 255.33 303.07 255.13 303.07 254.94 303.07 254.74 303.07 254.54 303.07 254.35 303.07 254.15 303.07 253.95 303.07 253.69 303.07 253.5 303.07 253.24 303.07 252.97 303.07 252.65 303.07 252.32 303.07 251.99"></polyline><rect class="cls-2" x="315.86" y="207.37" width="6.5" height="60.7"></rect><path class="cls-2" d="M70.16,209.27c8.2,0,15.67-.26,23.12.11,3.74.19,6.5,2.99,6.75,6.67.4,5.81.24,11.7-.24,17.51-.16,1.99-2,3.85-3.13,5.86,7.93,8.43,1.23,19.81,5.79,30.4-4.07,0-7.19.5-9.98-.22-1.29-.34-2.65-3.02-2.77-4.73-.38-5.2.02-10.45-.32-15.65-.11-1.67-1.13-3.89-2.46-4.75-3.26-2.13-5.59-.7-5.65,3.22-.11,7.15-.03,14.31-.03,21.33-.92.38-1.34.68-1.78.72-9.35.72-9.32.72-9.31-8.7.02-15.34,0-30.68,0-46.01,0-1.77,0-3.55,0-5.74ZM81.59,233.99c6.58,1.05,7.83.1,7.92-5.73.02-1.14.01-2.27,0-3.41-.07-6.49-1.01-7.25-7.92-6.01v15.14Z"></path><path class="cls-3" d="M161.7,99.96c-5.49-.11-5.22,3.52-4.96,6.3,0,8.17.44,8.84,5.31,8.81,5.97-.03,10.16-3.18,10.11-7.6-.04-3.91-5.04-7.39-10.47-7.5Z"></path><path class="cls-3" d="M115.14,43.67v91.58h91.58V43.67h-91.58ZM148.7,89.94l-.72.26-.72.2-.7.2-.78.13-.78.13-.72.07-.78.07h-.85l-1.44-.07-1.49-.2-1.37-.26-1.44-.39-1.31-.52-1.31-.59-1.16-.72-1.17-.78-1.11-.85-.98-.98-.98-.98-.85-1.11-.77-1.17-.72-1.24-.59-1.24-.52-1.31-.39-1.44-.26-1.37-.2-1.5-.07-1.5.07-1.44.2-1.5.26-1.37.39-1.44.52-1.31.59-1.24.72-1.24.77-1.17.85-1.11.98-.98.98-.98,1.11-.85,1.17-.78,1.16-.72,1.31-.59,1.31-.52,1.44-.39,1.37-.26,1.49-.2,1.44-.07h.78l.72.07.72.07.72.13.72.13.7.13.65.2.72.2.65.26.65.26.65.26.59.33.65.33.59.33.59.39.57.39.52.39.52.46.52.46.52.46-.2.2-.2.26-.2.2-.26.2-.2.2-.13.2-.2.26-.2.2-.2.2-.2.2-.2.2-.2.26-.18.2-.2.2-.2.2-.2.2-.2.26-.2.2-.2.2-.2.2-.39-.33-.33-.33-.39-.26-.33-.33-.39-.26-.46-.26-.39-.26-.46-.2-.39-.26-.46-.2-.46-.2-.46-.13-.44-.13-.46-.13-.52-.13-.46-.07-.52-.13h-.52l-.52-.07h-.52l-.98.07-.98.07-.97.26-.98.26-.91.33-.85.39-.85.52-.78.52-.72.59-.7.65-.65.72-.59.72-.52.78-.52.85-.39.85-.33.91-.26.98-.26.98-.07.98-.07.98.07,1.04.07.98.26.98.26.98.33.91.39.85.52.85.52.78.59.72.65.72.7.65.72.59.78.52.85.52.85.39.91.33.98.26.97.2.98.13.98.07h.59l.59-.07.52-.07.52-.07.52-.13.52-.13.52-.13.51-.2.52-.2.46-.2.46-.26.46-.26.46-.26.46-.26.46-.33.39-.33.39-.33.39-.39.33-.33.39-.39.2.2.2.13.2.2.2.2.18.2.2.2.2.2.2.2.2.2.2.2.2.2.2.2.2.2.2.2.2.26.2.2.2.26.2.2.26.26.2.26-.52.59-.52.46-.52.52-.59.46-.59.46-.64.46-.59.39-.65.33-.65.39-.65.33-.72.26-.72.26ZM176.23,116.03c-1.05,1.21-2.26,2.29-3.55,3.58,2.61,3.6,4.2,7.07-2.79,8.8-1.86-6.36-6.87-6.88-12.7-6.48-.29,2.19-.59,4.49-.93,7.08-4.21-1.17-6.88-2.88-6.67-7.69.3-6.82-.13-13.67.26-20.48.1-1.8,1.66-4.27,3.25-5.1,7.28-3.8,14.52-2.88,21.12,1.78,6.03,4.26,6.86,12.92,2.03,18.52ZM199.73,71.99v.78l-.07,1.5-.2,1.5-.26,1.37-.39,1.37-.52,1.37-.59,1.24-.72,1.24-.78,1.17-.85,1.11-.98.98-.98.98-1.11.85-1.17.78-1.24.72-1.24.59-1.31.52-1.44.39-1.37.26-1.5.2-1.44.07-1.5-.07-1.5-.2-1.37-.26-1.44-.39-1.31-.52-1.24-.59-1.24-.72-1.17-.78-1.11-.85-.98-.98-.98-.98-.85-1.11-.78-1.17-.72-1.24-.59-1.24-.52-1.37-.39-1.37-.26-1.37-.2-1.5-.07-1.5.07-1.44.2-1.5.26-1.37.39-1.44.52-1.31.59-1.31.72-1.17.78-1.17.85-1.11.98-.98.98-.98,1.11-.85,1.17-.78,1.24-.72,1.24-.59,1.31-.52,1.44-.39,1.37-.26,1.5-.2,1.5-.07h.52l.52.07h.59l.52.07.52.07.52.13.52.07.52.13.52.13.52.13.52.2.46.13.52.2.46.2.46.26.52.2.46.26.39.26.46.26.46.26-.2.26-.13.2-.2.26-.13.26-.13.2-.2.26-.13.26-.13.26-.13.26-.2.2-.13.26-.13.26-.13.26-.2.26-.13.26-.13.2-.2.26-.13.26-.2.2-.13.26-.33-.2-.26-.2-.33-.2-.33-.2-.33-.13-.33-.13-.33-.2-.33-.13-.39-.13-.33-.07-.33-.13-.39-.07-.33-.13-.39-.07-.33-.07-.39-.07h-.39l-.39-.07h-.72l-1.04.07-.98.07-.98.26-.98.26-.91.33-.85.39-.85.52-.78.52-.72.59-.72.65-.65.72-.59.72-.52.78-.52.85-.39.85-.33.91-.26.98-.2.98-.13.98-.07.98.07,1.04.13.98.2.98.26.98.33.91.39.85.52.85.52.78.59.72.65.72.72.65.72.59.78.52.85.52.85.39.91.33.98.26.98.2.98.13,1.04.07h.78l.78-.13.78-.13.72-.13.78-.2.72-.26.65-.33.72-.33.65-.39.59-.46.59-.46.59-.46.52-.52.52-.59.46-.59.46-.59.39-.65.33-.65.33-.65.33-.72h-.78l-.39-.07h-3.46l-.33-.07h-.78v-.39l-.07-.46v-4.83l-.07-.46h12.21v.13l.07.07v.85l.07.07v.13Z"></path><path class="cls-2" d="M224.74,269.16c3.06-19.89,6.11-39.73,9.14-59.46,8.16-2.03,8.87-1.63,10.15,6.44,2.55,16.06,5,32.13,7.46,48.2.24,1.58.26,3.2.4,5.16h-6c-.24-.79-.51-1.54-.68-2.31-1.65-7.24-3.4-8.62-10.73-6.88-1.46.35-3.05,3.47-3.19,5.41-.32,4.48-2.55,4.56-6.56,3.44ZM243.04,254.14c-1.61-11.78-3.15-23-4.69-34.23-.14-.01-.27-.02-.41-.03-1.59,11.32-3.18,22.64-4.81,34.26h9.9Z"></path></g></svg>