<svg xmlns="http://www.w3.org/2000/svg" id="Capa_1" data-name="Capa 1" viewBox="0 0 480 65"><defs><style>      .cls-1 {        opacity: .7;      }      .cls-2 {        fill: #fff;        stroke-width: 0px;      }    </style></defs><g class="cls-1"><polygon class="cls-2" points="480 65 0 64.92 33.73 .1 58.42 .1 28.13 59.95 480 59.95 480 65"></polygon><path class="cls-2" d="M473.81.89c2.62,0,4.76,2.14,4.76,4.77s-2.14,4.77-4.76,4.77-4.76-2.14-4.76-4.77,2.13-4.77,4.76-4.77M473.81,11.09c3,0,5.43-2.43,5.43-5.43s-2.43-5.43-5.43-5.43-5.44,2.43-5.44,5.43,2.43,5.43,5.44,5.43Z"></path><path class="cls-2" d="M472.28,3.28h1.52c.73,0,1.38.07,1.38.98,0,.98-.82,1.01-1.6,1.01h-1.3v-1.99ZM472.28,6.07h1.32c.69,0,1.36.06,1.45.87.06.69.06,1.4.56,1.83h1v-.27h-.12c-.34,0-.41-.69-.45-1.57,0-.8-.34-1.2-1.19-1.24v-.02c.9-.14,1.34-.66,1.34-1.57,0-1.53-1.24-1.66-2.44-1.66h-2.45v6.34h.98v-2.7Z"></path><path class="cls-2" d="M138.2,34.25c-.81.38-1.54,1.01-1.54,2.03,0,3.28,6.72,3.48,8.94,3.48s9.37-.19,9.37-3.58c0-3.14-3-.48-3-7.1,0-4.35-.63-4.54,6.14-4.54,2.41,0,2.99-.1,2.99,2.51,0,9.81-3.58,5.7-3.38,9.43,0,3.23,6.18,3.28,8.31,3.28,9.52,0,9.61-2.42,9.61-3.58s-.68-1.49-1.64-2.03c-1.31-.72-1.5-1.45-1.5-2.9v-12.56c0-7.68.53-7.54,1.98-8.17.97-.48,1.5-1.21,1.5-2.27,0-3.38-6.42-3.43-8.69-3.43-9.61,0-9.42,2.71-9.42,3.62,0,1.26.87,1.69,1.79,2.22.62.34,1.44.67,1.44,5.94,0,1.5.1,1.98-3.09,1.98h-2.47c-2.32,0-3.57.34-3.57-2.36,0-4.3.29-4.88,1.5-5.56,1.11-.68,1.93-1.21,1.93-2.71,0-2.9-5.6-3.14-7.63-3.14-2.71,0-10.78.39-10.78,4.1,0,.97.87,1.4,1.59,1.79,1.79.97,1.98-.1,1.98,12.76,0,10.1-.63,9.95-2.37,10.78"></path><path class="cls-2" d="M181.54,11.68c.53.68,1.01,2.08,1.01,8.22v4.78c0,6.77-.48,8.55-1.06,9.23-.77.92-2.42,1.16-2.42,2.71,0,3.09,6.09,3.14,8.12,3.14,10.59,0,11.02-2.18,11.02-3.62s-1.16-1.74-2.37-2.47c-.97-.58-1.55-.39-1.55-8.98v-4.78c0-3.38.05-7.73.97-8.8,1.11-1.25,2.95-1.16,2.95-2.9,0-3.28-5.95-3.38-8.84-3.38-.97,0-10.82,0-10.82,3.48,0,1.84,1.88,1.99,2.99,3.39"></path><path class="cls-2" d="M205.01,26.17c0,1.59-.15,5.03-.63,6.38-1.01,2.56-3.63,1.31-3.63,4.01,0,2.08,1.26,3.19,8.99,3.19,11.74,0,11.31-2.13,11.31-3.24,0-3.67-4.88.29-4.68-6.86.04-4.97-.25-5.36,1.88-5.36,5.17,0,1.98,5.46,5.08,5.46,3.28,0,3.53-5.85,3.53-8.12,0-1.89-.19-7.15-2.95-7.15-3.38,0-1.02,4.44-4.74,4.44-2.8,0-2.85-.82-2.85-1.69,0-7,1.26-6.76,4.2-6.76,9.27,0,7.54,4.97,10.87,4.97,1.83,0,2.61-1.69,2.61-3.33,0-3.29-1.98-7.1-3.87-7.1-.68,0-10.39.48-11.35.48-4.01,0-12.7-.48-13.96-.48-1.54,0-3.67.77-3.67,2.61,0,2.66,3.14.72,3.72,4.88.24,1.88.2,4.98.15,6.96v6.71Z"></path><path class="cls-2" d="M238.54,11.68c.53.68,1.01,2.08,1.01,8.22v4.78c0,6.77-.48,8.55-1.06,9.23-.78.92-2.41,1.16-2.41,2.71,0,3.09,6.09,3.14,8.12,3.14,10.58,0,11.01-2.18,11.01-3.62s-1.15-1.74-2.36-2.47c-.96-.58-1.55-.39-1.55-8.98v-4.78c0-3.38.05-7.73.97-8.8,1.12-1.25,2.94-1.16,2.94-2.9,0-3.28-5.93-3.38-8.83-3.38-.97,0-10.82,0-10.82,3.48,0,1.84,1.89,1.99,2.99,3.39"></path><polygon class="cls-2" points="480 51.34 69.1 51.36 94.55 0 117.82 0 95.86 46.26 480 46.46 480 51.34"></polygon><polygon class="cls-2" points="480 58.24 35.48 58.24 64.96 .08 86.63 .08 60.66 53.08 480 53.11 480 58.24"></polygon><path class="cls-2" d="M282.36,13.61c.47,3.82.33,15.91-.67,19.29-.59,2.4-3.45.98-3.12,3.72.35,2.8,2.97,3.48,10.56,3.48,2.51,0,9.87.2,9.41-3.53-.31-2.49-3.49-.88-3.87-3.96-.92-7.49.03-7.35.96-7.35,2.75,0,.64,5.14,4.26,5.14,3.97,0,3.47-7.25,3.13-9.99-.23-1.91-1.18-5.24-3.68-5.24-3.63,0-1.02,4.45-4.3,4.45-.54,0-1.02.05-1.1-.58-.15-1.22,0-4.36.09-5.63.02-1.81.1-2.4,4.51-2.4,5.04,0,3.86,5.14,7.58,5.14,2.4,0,3.09-1.91,2.83-4.06-.29-2.35-2.61-7.3-5.55-7.3-.19,0-.57.15-1.38.3-.81.15-2.06.29-4.07.29h-7.4c-1.76,0-3.5-.19-7.46-.19-2.16,0-4.98.54-4.65,3.23.43,3.42,3.39.93,3.92,5.19"></path><path class="cls-2" d="M310.25,36.48c.35,2.94,3.43,3.62,11.61,3.62,2.54,0,9.22.15,8.77-3.48-.37-3.04-3.58-.88-4.06-4.85-.14-1.13-.07-2.16-.06-3.23l.25-13.52c.08-.93.21-1.91.25-2.84.12-2.94,4.14-.88,3.77-3.97-.31-2.59-2.99-3.23-11.07-3.23-10.09,0-9.23,2.55-9.16,3.19.37,2.93,3.6,1.37,3.89,3.76.13,1.03.01,1.72.06,2.45l-.03,16.16c0,5.29-4.61,2.69-4.21,5.93"></path><path class="cls-2" d="M336.7,12.34c.47,3.77.45,17.24-.34,19.98-.85,2.99-3.8,1.71-3.44,4.65.27,2.15,1.97,2.89,3.83,2.89,1.03,0,2.05-.05,2.83-.1.84,0,1.42-.04,1.56-.04h16.07c1.03,0,1.54.14,2.04.24.45.15.91.3,1.8.3,3.33,0,4.25-6.47,3.93-9.06-.24-2.01-1.24-3.38-3.35-3.38-3.57,0-1.76,5.98-7.98,5.98-1.03,0-3.51.2-4.2-1.08-.39-.84-.39-2.01-.39-2.89l-.59-14.35c-.31-8.08,4.76-3.08,4.22-7.49-.22-1.81-1.34-2.99-7.51-2.99-9.31,0-12.82.54-12.46,3.38.33,2.79,3.75,1.86,4.01,3.97"></path><path class="cls-2" d="M365.44,17.38c4.36,0,3.03-6.07,5.48-6.07.88,0,1.28.88,1.37,1.62.09.74.37,16.89-.43,20.03-.59,2.35-4.25.88-3.89,3.82.13,1.03.56,3.34,9.38,3.34,10.18,0,11.7-2.06,11.52-3.53-.37-2.94-3.82-.78-4.34-4.99-.51-4.16-.41-11.75-.47-14.69-.05-3.53-.25-5.58,1.32-5.58,2.16,0,2.27,6.07,5.99,6.07,2.79,0,3.78-2.3,3.46-4.9-.29-2.35-2.71-7.69-5.69-7.69-.64,0-.96.15-1.59.3-.61.15-1.52.29-3.43.29h-13.96c-.69,0-1.24-.15-1.8-.29-.51-.15-.97-.3-1.46-.3-3.62,0-5.74,5.83-5.37,8.91.26,2.1,1.68,3.67,3.92,3.67"></path><path class="cls-2" d="M395.8,37.26c.19,1.61,1.33,2.89,4.47,2.89,2.2,0,4.4-.44,6.6-.44h13.07c1.57,0,2.41.09,3.01.14.55.1.86.2,1.14.2,1.81,0,4.72-3.82,4.16-8.38-.24-2.01-1.06-3.92-3.43-3.92-3.96,0-1.41,6.32-9.05,6.32-3.23,0-3.27.09-3.65-2.99-.19-1.52-1.29-6.07.77-6.07,3.03,0,.8,4.95,4.42,4.95,3.43,0,3.53-6.37,3.2-8.96-.27-2.2-1.04-6.12-4.02-6.12s-.82,4.51-3.71,4.51c-1.62,0-1.27-.39-1.36-2.3-.1-5.19-.85-6.07,4.1-6.07,5.82,0,4.16,4.85,8.13,4.85,2.06,0,2.69-1.96,2.48-3.77-.57-4.6-3.35-7.3-5.02-7.3-.49,0-.92.15-1.63.3-.72.15-1.77.29-3.54.29h-7.68c-1.28,0-2.55,0-3.83-.05-1.28,0-2.51-.05-3.74-.1-2.36-.1-4.88.54-4.53,3.38.34,2.69,3.19,1.27,3.66,5.09.45,3.67.19,15.43-.52,18.85-.69,3.13-3.89,1.76-3.53,4.7"></path><path class="cls-2" d="M446.14,10.24c2.1,0,2.76,1.37,2.99,3.23.27,2.2.29,6.36-2.64,6.36-1.37,0-1.36-.64-1.39-1.72l-.08-5.43c.01-1.13-.3-2.45,1.12-2.45M431.75,10.68c.76.2,1.16.24,1.41,1.07,1.08,3.97.87,17.48-.07,20.61-.52,1.72-.5,1.91-2.01,2.45-.93.29-1.36.83-1.23,1.86.45,3.68,7.47,3.43,9.67,3.43s9.77.15,9.33-3.33c-.13-1.13-.86-1.47-1.84-1.91-1.31-.63-1.32-1.17-1.49-2.5l-.31-6.12c0-1.22.13-1.37,1.35-1.37s2.3.39,2.83,1.57c2.43,5.38.84,13.66,11.18,13.66,2.11,0,6.87-.74,6.51-3.58-.13-1.03-1.24-1.32-2.11-1.67-.72-.24-1.08-.49-1.44-1.27-.95-2.25-.99-5.73-2.21-8.43-.59-1.27-1.33-1.66-2.45-2.4-.54-.39-1.04-.59-1.14-1.27-.15-1.22,5.21-2.3,3.99-8.62-1.14-5.77-5.93-7.69-11.5-7.54h-16.11c-2.14.1-4.92.58-4.58,3.33.19,1.52.89,1.67,2.2,2.01Z"></path></g></svg>