<svg xmlns="http://www.w3.org/2000/svg" id="Capa_1" data-name="Capa 1" viewBox="0 0 478.32 270"><defs><style>      .cls-1 {        fill: #fff;        opacity: .7;        stroke-width: 0px;      }    </style></defs><path class="cls-1" d="M478.32,105.15c-.05-6.6-5.44-11.9-12.04-11.85l-109.91.96.69-9.79h-.03c.02-.2.02-.4.03-.61.1-6.6-5.16-12.03-11.76-12.13l-7.5-.14c-.06,0-.11,0-.17-.01-6.59-.39-12.26,4.65-12.65,11.24l-.44,7.02c-53.06-3.51-101.85-14.09-149.41-28.97C123.78,44.81,74.06,23.83,22.03,1.32,20.58.58,18.95.11,17.21.02,10.62-.34,4.98,4.71,4.61,11.31L0,91.32h.02c-.29,5.2,2.87,10.16,8.04,11.94,55.89,19.34,108.95,30.47,162.4,36.09,49.07,5.15,98.45,5.66,150.65,3.62l-.6,8.45h.02c-.01.14-.02.28-.02.42-.24,6.6,4.92,12.13,11.52,12.37l6.89.24c.1.01.21.02.32.03,6.6.49,12.34-4.46,12.83-11.06l1.07-14.26,83.43-.34,29.52-.12c6.51-.02,11.82-5.27,11.9-11.8l.32-21.52h0c0-.08,0-.16,0-.23M57.41,74.02c-3.17,3.15-7.37,4.88-11.84,4.88s-8.75-1.76-11.93-4.97c-3.16-3.19-4.9-7.41-4.88-11.9.01-4.49,1.78-8.7,4.97-11.87,3.17-3.15,7.37-4.88,11.84-4.88s8.74,1.76,11.92,4.96c6.53,6.57,6.49,17.24-.09,23.77M104.06,92.52c-3.17,3.15-7.38,4.88-11.84,4.88s-8.75-1.76-11.93-4.97c-3.16-3.18-4.89-7.41-4.88-11.9.02-4.49,1.78-8.7,4.96-11.87,3.17-3.15,7.37-4.88,11.84-4.88s8.74,1.76,11.93,4.96c3.16,3.19,4.89,7.41,4.88,11.9-.02,4.49-1.78,8.7-4.96,11.87M155.1,107.57c-3.17,3.15-7.37,4.88-11.84,4.88s-8.75-1.76-11.93-4.96c-6.53-6.58-6.49-17.24.09-23.77,3.17-3.15,7.38-4.88,11.84-4.88s8.75,1.76,11.92,4.97c3.16,3.19,4.9,7.41,4.88,11.9-.02,4.49-1.78,8.7-4.97,11.87M465.28,128.81c-1.46.78-3.28.24-4.06-1.22l-7.75-14.39-9.42,15.23-5.14-.06-9.13-15.64-9.44,15.77-5.08.11-10.16-15.45-10.87,15.62-5.03-.17-9.44-15.72-9.92,15.14-5.2-.33-9.33-19.19c-.72-1.49-.11-3.28,1.38-4.01,1.49-.72,3.28-.1,4.01,1.39l7.02,14.44,9.65-14.72,5.08.1,9.51,15.85,10.76-15.46,4.97.07,9.97,15.16,9.59-16.02,5.16.03,9.17,15.71,9.52-15.4,5.19.16,10.22,18.95c.78,1.46.24,3.27-1.22,4.06M319.62,230.77l-5.14-36.82h-23.99l-21.13,76.04h21.41l10.49-37.75,5.1,37.75h23.77l21.12-76.04h-21.41l-10.23,36.82ZM213.99,193.96h-26.52l-21.96,21.45,5.96-21.45h-22.79l-21.12,76.04h22.79l6.17-22.2,4.21-4.03,8.15,26.23h25.05l-14.48-42.21,34.56-33.84ZM277.18,193.96h-58.69l-4.88,17.57h17.95l-16.24,58.47h22.79l16.24-58.47h17.95l4.88-17.57Z"></path></svg>