<svg xmlns="http://www.w3.org/2000/svg" id="Capa_1" data-name="Capa 1" viewBox="0 0 480 207.01"><defs><style>      .cls-1 {        opacity: .7;      }      .cls-2 {        fill: #fff;        stroke-width: 0px;      }    </style></defs><g class="cls-1"><path class="cls-2" d="M0,101.51c.86-3.25,1.72-6.51,2.68-10.13h66.64c0,9.11-.81,18.18.19,27.06,1.51,13.49,9.91,19.81,23.45,20.73,16.21,1.1,29.01-6.27,41.46-15.05,1.3-.92,2.64-1.79,5.71-3.87-2.72,17.04-5.12,32.14-7.54,47.25-1.36,8.5-2.4,17.08-4.28,25.47-.58,2.57-3.04,5.93-5.37,6.7-24.97,8.22-50.65,11.21-75.08.11-25.23-11.47-41.16-31.81-46.21-59.75C1.44,138.79.57,137.68,0,136.51c0-11.67,0-23.33,0-35Z"></path><path class="cls-2" d="M124.26,0c7.99,2.68,16.1,5.07,23.88,8.26,1.9.78,4.06,4.35,3.82,6.38-1.76,15.13-4.1,30.18-6.34,45.87H13.12c4.68-7.32,8.14-14.53,13.21-20.35C43.82,20.11,64.45,4.93,91.81,1.3c.37-.05.63-.85.95-1.3,10.5,0,21,0,31.5,0Z"></path><path class="cls-2" d="M324.94,61.15c1.74-13.97,3.15-26.52,4.91-39.01.79-5.61.5-13.66,3.89-16.02,4.2-2.93,11.71-1.28,17.79-1.3,23.32-.08,46.66-.56,69.97.14,17.56.53,34.98,3.56,46.91,18.35,4.73,5.86,10.19,13.24,10.51,20.15.95,20.69,3.55,41.8-5.42,61.83-10.22,22.82-28.61,34.16-52.43,37.35-10.89,1.46-22.01,1.34-33.03,1.48-5.1.07-7.37,1.95-7.84,7-1.34,14.37-2.98,28.72-4.38,43.09-.44,4.53-1.55,7.71-7.17,7.66-19.79-.18-39.58-.07-60.64-.07,4.26-37.1,8.44-73.52,12.71-110.75,23.05,0,45.43.12,67.81-.08,5.72-.05,11.5-.78,17.14-1.81,6.23-1.13,12.04-10.19,10.88-16.81-1.36-7.73-6.66-11.14-14.15-11.17-23.03-.09-46.06-.03-69.1-.04-2.27,0-4.54,0-8.34,0Z"></path><path class="cls-2" d="M164.43,60.72c2.41-18.85,4.73-36.96,7.09-55.44h138.36c-2.28,18.75-4.48,36.92-6.73,55.44h-138.72Z"></path><path class="cls-2" d="M263.77,91.05c-4.55,37.63-8.93,73.81-13.34,110.24h-67.72c4.39-32.73,8.68-64.84,13.02-96.94,1.8-13.31,1.85-13.3,14.93-13.3,17.13,0,34.25,0,53.1,0Z"></path></g></svg>