<svg xmlns="http://www.w3.org/2000/svg" id="Capa_1" data-name="Capa 1" viewBox="0 0 451.44 270"><defs><style>      .cls-1 {        opacity: .7;      }      .cls-2 {        fill: #fff;        stroke-width: 0px;      }    </style></defs><g class="cls-1"><path class="cls-2" d="M355.89,188.35c-14.79,0-27.54.39-40.23-.27-3.24-.17-7.53-2.96-9.24-5.81-5.61-9.34-10.25-19.25-16.3-30.97-2.74,11.91-4.7,21.54-7.33,30.98-.64,2.32-3.4,5.65-5.32,5.74-11.25.54-22.54.27-35.39.27,3.32-14.18,6.27-26.83,9.23-39.46,4.8-20.44,9.87-40.83,14.23-61.36,1.2-5.65,3.51-7.25,8.91-7.2,22.1.24,44.21-.06,66.31.23,13.53.18,18.54,5.31,19.41,18.8.22,3.44.2,6.91.06,10.35-1.03,25.15-5.62,30.68-30.37,35.44,8.46,14.07,16.72,27.78,26.03,43.26ZM294.79,130.69c7.13,0,13.29.39,19.38-.1,8.39-.67,11.76-6.59,12.01-14.12.28-8.37-5.89-8.76-12.14-8.62-4.72.1-9.45.02-14.34.02-1.71,7.94-3.2,14.89-4.91,22.82Z"></path><path class="cls-2" d="M253.41,80.85c-.11,2.1-.01,3.15-.24,4.13-2.22,9.39-1.86,21.19-7.57,27.4-4.76,5.17-16.66,3.78-26.13,5.42-5.16,22.78-10.47,46.25-15.87,70.07h-40.28c5.22-23.9,10.32-47.24,15.65-71.63h-25.98c2.86-12.45,5.45-23.74,8.13-35.39h92.28Z"></path><path class="cls-2" d="M84.3,188.35c8.29-36.52,16.27-71.68,24.37-107.38h39.84c-2.91,12.43-5.7,24.29-8.46,36.15-4.93,21.14-10.1,42.23-14.6,63.46-1.25,5.89-3.42,8.16-9.5,7.89-9.94-.44-19.92-.12-31.64-.12Z"></path><path class="cls-2" d="M224.49,270c-41.3-.89-75.13-16.26-102.46-46.01-1.86-2.02-4.47-4.2-4.81-6.58-.5-3.55-.56-8.96,1.53-10.6,2.26-1.76,8.24-1.5,10.76.37,5.46,4.05,9.48,9.99,14.56,14.63,47.83,43.59,119.96,41.66,165.45-4.32,2.43-2.45,4.83-4.96,7.03-7.61,3.96-4.78,8.78-7.83,14.1-3.08,5.38,4.81,2.41,10.02-1.48,14.51-27.82,32.14-63.1,48.08-104.68,48.7Z"></path><path class="cls-2" d="M241.74,0c21.95.29,55.21,14.65,82.51,42.84,2.39,2.47,5.4,5.03,6.27,8.08.87,3.05.57,8.04-1.37,9.82-2.02,1.85-6.75,1.52-10.06.9-1.96-.37-3.53-3.09-5.19-4.84-51.2-54.17-128.97-53.9-179.35.71-4.29,4.65-8.78,9.06-14.77,3.73-6.05-5.38-1.98-10.59,2.01-15.24C146.47,17.19,184.78.03,241.74,0Z"></path><path class="cls-2" d="M43.65,140.98c-8.61,0-17.27.59-25.78-.31-3.1-.33-5.83-4.22-8.73-6.48,2.75-1.92,5.45-5.43,8.26-5.51,17.54-.51,35.11-.56,52.65.03,2.96.1,5.8,4.02,8.7,6.18-3.09,2.03-6.04,5.51-9.3,5.82-8.53.83-17.18.28-25.79.28Z"></path><path class="cls-2" d="M407.56,140.96c-8.95,0-17.95.51-26.83-.29-2.84-.26-5.36-3.98-8.03-6.12,2.62-2.05,5.2-5.79,7.88-5.87,17.89-.53,35.81-.53,53.7,0,2.74.08,5.37,3.78,8.05,5.81-2.63,2.15-5.12,5.91-7.93,6.16-8.88.8-17.88.3-26.83.3Z"></path><path class="cls-2" d="M403.08,161.96c-8.94,0-17.91.46-26.78-.27-2.89-.24-5.54-3.58-8.29-5.5,2.8-2.27,5.53-6.4,8.4-6.5,17.51-.61,35.05-.61,52.56,0,2.8.1,5.46,4.33,8.19,6.65-2.76,1.87-5.41,5.11-8.32,5.35-8.53.72-17.16.26-25.75.26Z"></path><path class="cls-2" d="M417.7,98c-8.63,0-17.3.51-25.86-.26-3.25-.29-6.23-3.54-9.34-5.44,2.84-2.3,5.62-6.49,8.54-6.59,17.58-.62,35.21-.57,52.79,0,2.6.08,5.08,4.12,7.61,6.33-2.62,1.99-5.11,5.44-7.88,5.69-8.56.75-17.23.27-25.86.27Z"></path><path class="cls-2" d="M38,161.95c-8.65,0-17.34.5-25.91-.3-2.66-.25-4.98-4.05-7.45-6.22,2.33-2,4.62-5.68,7-5.74,18.32-.48,36.66-.48,54.98.01,2.35.06,4.6,3.81,6.89,5.85-2.5,2.14-4.86,5.89-7.51,6.11-9.28.76-18.65.29-27.99.29Z"></path><path class="cls-2" d="M53.7,97.99c-8.62-.01-17.29.53-25.83-.3-3.07-.3-5.83-3.86-8.73-5.94,2.64-2.11,5.23-5.97,7.94-6.06,17.57-.55,35.17-.6,52.73.04,2.8.1,5.45,4.47,8.17,6.87-2.81,1.8-5.51,4.92-8.44,5.16-8.56.7-17.22.25-25.84.24Z"></path><path class="cls-2" d="M48.34,107.21c8.97,0,17.98-.46,26.9.27,2.87.24,5.48,3.64,8.21,5.6-2.59,2.18-5.13,6.18-7.78,6.26-17.93.57-35.89.57-53.82.01-2.57-.08-5.01-4.18-7.51-6.41,2.71-1.91,5.29-5.23,8.14-5.48,8.57-.73,17.23-.26,25.86-.26Z"></path><path class="cls-2" d="M412.54,107.22c8.96,0,17.95-.4,26.85.26,2.6.19,4.98,3.41,7.47,5.25-2.44,2.29-4.81,6.5-7.33,6.58-17.9.58-35.83.59-53.73.06-2.68-.08-5.24-3.94-7.86-6.05,2.57-2.03,5.02-5.59,7.74-5.82,8.9-.75,17.89-.28,26.85-.27Z"></path><path class="cls-2" d="M34.09,183.08c-8.63,0-17.29.47-25.86-.27-2.88-.25-5.5-3.57-8.24-5.49,2.78-2.27,5.5-6.41,8.36-6.52,17.23-.62,34.51-.63,51.74-.01,3.02.11,5.9,4.13,8.84,6.34-2.99,1.99-5.85,5.39-9,5.68-8.55.8-17.23.27-25.85.27Z"></path><path class="cls-2" d="M397.85,183.06c-8.96,0-17.97.49-26.87-.3-2.65-.23-4.98-4.03-7.46-6.19,2.35-2.01,4.65-5.71,7.04-5.77,18.26-.48,36.55-.53,54.8.07,2.4.08,4.65,4.55,6.97,6.98-2.53,1.74-4.97,4.79-7.61,4.97-8.92.63-17.91.24-26.88.24Z"></path></g></svg>