<svg xmlns="http://www.w3.org/2000/svg" id="Capa_1" data-name="Capa 1" viewBox="0 0 480 112.99"><defs><style>      .cls-1 {        opacity: .7;      }      .cls-2, .cls-3 {        fill: #fff;        stroke-width: 0px;      }      .cls-3 {        fill-rule: evenodd;      }    </style></defs><g class="cls-1"><g><path class="cls-3" d="M450.52,76.11h2.78l7.55,13.1v-13.1h1.93v15.4h-2.84l-7.48-13.13v13.13h-1.93v-15.4ZM438.04,74.79h0l2.03-3.28h2.74l-2.84,3.28h-1.93ZM434.55,83.79h0l.03.71.03.68.1.64.13.58.17.58.2.51.24.47.3.44.31.37.37.34.41.27.41.24.47.17.51.14.58.07.58.03.54-.03.54-.07.47-.1.47-.17.44-.24.37-.27.37-.31.34-.37.3-.41.27-.47.2-.54.17-.58.14-.64.1-.71.07-.74.03-.81-.03-.64-.07-.61-.07-.61-.14-.54-.17-.54-.2-.47-.24-.47-.3-.44-.3-.37-.34-.34-.41-.27-.41-.24-.47-.2-.51-.14-.54-.07-.58-.03-.58.03-.58.07-.51.14-.47.17-.44.2-.41.27-.37.34-.3.37-.3.41-.24.44-.24.51-.17.58-.13.61-.1.64-.03.71-.03.74ZM432.42,83.72h0l.03-.88.07-.88.17-.78.17-.78.14-.34.14-.37.14-.3.17-.34.17-.3.2-.3.2-.27.24-.27.24-.27.24-.24.24-.2.27-.24.3-.17.27-.17.3-.17.34-.14.3-.14.34-.1.37-.1.34-.07.41-.07.37-.03.41-.03h.41l.78.03.78.1.34.07.34.1.34.1.34.1.3.14.3.14.31.17.27.2.27.17.27.24.24.2.24.24.24.27.2.27.2.3.17.27.17.34.13.3.14.34.14.37.1.37.1.37.07.41.07.41.1.85.03.91-.03.95-.1.88-.14.81-.17.81-.14.37-.14.34-.14.34-.17.34-.17.34-.17.3-.2.3-.2.27-.24.27-.24.24-.27.24-.24.24-.3.2-.27.17-.3.17-.34.14-.3.14-.37.1-.34.1-.37.07-.41.07-.37.03-.44.03h-.81l-.41-.03-.37-.03-.41-.07-.34-.07-.37-.07-.34-.1-.3-.14-.34-.14-.3-.14-.27-.17-.3-.2-.27-.2-.24-.2-.24-.24-.24-.24-.24-.27-.2-.27-.2-.3-.17-.3-.17-.34-.14-.34-.14-.34-.14-.37-.1-.41-.07-.37-.1-.44-.07-.41-.07-.91-.03-.98ZM426.84,76.11h2.13v15.4h-2.13v-15.4ZM420.71,87.41h2.13v.41l-.07.41-.14.41-.17.41-.24.37-.24.37-.34.34-.37.37-.41.3-.44.27-.47.24-.54.17-.54.17-.61.1-.64.07h-.71l-.81-.03-.74-.07-.37-.1-.37-.07-.34-.1-.34-.14-.3-.14-.3-.14-.3-.17-.27-.17-.27-.2-.27-.24-.24-.2-.24-.27-.24-.24-.2-.3-.2-.27-.17-.3-.17-.34-.13-.34-.14-.34-.14-.37-.1-.37-.1-.41-.07-.41-.07-.44-.1-.91v-1.86l.1-.88.14-.81.2-.74.14-.37.14-.34.13-.34.17-.34.17-.3.2-.3.2-.27.24-.27.24-.27.24-.24.27-.2.27-.24.27-.17.3-.17.3-.17.34-.14.34-.14.34-.1.37-.1.37-.07.41-.07.41-.03.41-.03h.41l.68.03.64.07.58.1.58.14.51.17.47.24.44.24.41.3.34.34.34.34.27.37.2.41.17.37.14.44.07.44v.44h-2.13l-.03-.3-.07-.27-.07-.24-.14-.27-.14-.2-.17-.24-.2-.2-.24-.17-.24-.17-.27-.17-.3-.1-.3-.1-.34-.1-.37-.03-.41-.03-.41-.03-.58.03-.58.07-.51.14-.47.17-.47.2-.41.27-.37.3-.34.37-.3.41-.24.44-.24.51-.17.51-.14.58-.1.64-.07.64v1.52l.07.74.1.68.14.64.17.58.2.54.27.47.27.44.34.34.37.34.41.27.44.2.47.2.51.1.54.07.58.03h.34l.37-.03.3-.03.34-.07.27-.1.3-.1.27-.14.27-.14.27-.17.24-.2.2-.2.17-.24.14-.27.14-.27.1-.3.07-.34ZM398.78,85.69h5.69l-2.81-7.65-2.88,7.65ZM394.08,91.51h0l6.4-15.4h2.34l6.4,15.4h-2.3l-1.66-4.03h-7.21l-1.66,4.03h-2.3ZM381.18,82.81h3.69l.44-.03.41-.03.37-.03.34-.1.27-.1.27-.1.24-.14.17-.17.17-.2.14-.2.1-.2.1-.2.07-.24.07-.24.03-.24v-.54l-.03-.24-.07-.24-.1-.24-.1-.2-.1-.2-.17-.2-.17-.17-.2-.14-.24-.14-.27-.14-.27-.07-.34-.07-.37-.07-.37-.03h-4.06v4.91ZM379.05,91.51h0v-15.4h6.43l.68.07.64.07.58.14.47.17.44.2.41.24.3.27.3.27.24.3.2.34.14.34.14.37.1.37.07.41v.74l-.03.34-.07.3-.1.3-.1.3-.14.27-.17.27-.17.24-.2.24-.24.24-.27.2-.27.17-.34.14-.34.14-.34.14-.41.1.34.03.27.07.27.07.24.1.2.14.2.1.17.17.17.17.14.17.1.2.1.2.1.24.17.54.14.64.44,2.88.07.44.1.51.07.27.1.27.14.24.14.27h-2.3l-.07-.2-.07-.24-.07-.27-.1-.34-.07-.37-.07-.41-.07-.41-.07-.41-.2-1.42-.07-.44-.1-.37-.1-.34-.1-.3-.1-.27-.14-.24-.17-.2-.13-.14-.2-.14-.17-.1-.24-.1-.2-.07-.27-.07-.27-.03-.27-.03h-3.86v6.9h-2.13ZM364.06,76.11h12.62v1.79h-5.25v13.6h-2.13v-13.6h-5.25v-1.79ZM354.35,76.11h2.13v13.6h7.38v1.79h-9.51v-15.4ZM348.19,76.11h2.13v15.4h-2.13v-15.4ZM334.31,91.51h0v-15.4h9.51v1.79h-7.38v4.91h6.97v1.79h-6.97v6.9h-2.13ZM313,91.51h0v-15.4h9.51v1.79h-7.38v4.74h7.07v1.79h-7.07v5.28h7.61v1.79h-9.75ZM298.88,89.71h2.5l.88-.03.78-.07.71-.14.64-.17.27-.14.27-.1.27-.14.24-.17.2-.14.2-.17.17-.2.17-.2.27-.41.24-.47.2-.47.17-.54.14-.54.1-.58.07-.61v-1.29l-.07-.61-.1-.61-.14-.54-.2-.51-.2-.51-.27-.44-.3-.41-.17-.2-.2-.17-.2-.2-.2-.14-.24-.17-.27-.1-.27-.14-.27-.1-.61-.17-.71-.14-.74-.07-.81-.03h-2.5v11.81ZM296.72,91.51h0v-15.4h5.18l.54.03.51.03.51.07.47.07.47.1.41.1.41.1.41.17.37.14.34.17.34.2.27.2.3.24.24.24.24.27.24.27.2.27.17.3.2.3.14.3.17.34.14.34.1.34.2.71.14.78.1.81v1.62l-.1.78-.14.71-.17.71-.24.68-.3.61-.34.61-.37.58-.24.27-.24.24-.27.24-.3.2-.34.2-.34.17-.37.17-.37.17-.44.1-.44.14-.47.07-.47.1-.51.07-.54.03-.58.03h-5.21ZM274.82,86.9h2.13v.37l.07.37.07.34.1.3.14.27.17.27.2.24.24.2.24.17.3.17.27.1.34.13.34.07.37.07.41.03h.81l.37-.03.37-.07.34-.07.34-.1.34-.1.3-.17.27-.14.27-.2.2-.2.2-.2.17-.24.1-.27.1-.27.03-.3.03-.31-.03-.37-.07-.37-.17-.34-.17-.3-.14-.17-.14-.14-.17-.1-.2-.14-.2-.1-.24-.07-.24-.1-.27-.07-3.42-.88-.54-.14-.51-.17-.47-.17-.41-.2-.37-.2-.34-.2-.27-.24-.27-.24-.2-.24-.17-.27-.13-.27-.14-.3-.1-.3-.07-.34-.03-.34-.03-.37.03-.44.07-.47.14-.41.17-.41.2-.37.27-.37.34-.34.34-.34.41-.3.47-.27.47-.2.51-.17.58-.14.61-.1.61-.07.68-.03.54.03.51.03.51.07.44.1.44.14.44.17.37.2.37.24.34.24.3.3.27.37.24.37.17.44.14.47.14.51.03.58h-2.13v-.3l-.07-.27-.07-.24-.1-.24-.14-.24-.14-.17-.2-.2-.2-.17-.24-.14-.24-.14-.27-.1-.3-.1-.3-.07-.3-.03-.34-.03-.37-.03-.37.03-.37.03-.34.03-.31.07-.3.1-.3.1-.27.14-.27.17-.24.17-.2.17-.2.2-.14.2-.1.24-.1.24-.03.27v.54l.03.2.03.2.1.2.07.2.14.14.14.17.17.14.37.24.47.24.54.17.64.17,2.81.68.51.14.47.13.44.17.37.2.37.2.34.2.27.24.24.27.24.24.2.3.14.3.14.31.1.34.07.34.07.37v.41l-.03.51-.07.47-.1.44-.2.44-.2.41-.27.37-.34.37-.34.34-.44.3-.44.27-.47.2-.54.2-.58.14-.61.1-.64.07h-1.39l-.64-.07-.58-.1-.58-.14-.51-.17-.47-.2-.44-.24-.41-.27-.34-.3-.3-.37-.27-.41-.2-.44-.17-.51-.14-.51-.07-.58v-.61ZM260.3,91.51h0v-15.4h9.51v1.79h-7.38v4.74h7.04v1.79h-7.04v5.28h7.61v1.79h-9.75ZM243.93,76.11h2.78l7.55,13.1v-13.1h1.96v15.4h-2.88l-7.44-13.13v13.13h-1.96v-15.4ZM227.99,83.79h0v.71l.07.68.07.64.14.58.17.58.2.51.27.47.27.44.34.37.34.34.41.27.44.24.47.17.51.14.54.07.58.03.58-.03.51-.07.51-.1.44-.17.44-.24.41-.27.37-.31.3-.37.3-.41.27-.47.2-.54.2-.58.13-.64.1-.71.03-.74.03-.81-.03-.64-.03-.61-.1-.61-.13-.54-.17-.54-.2-.47-.24-.47-.27-.44-.34-.37-.34-.34-.37-.27-.44-.24-.47-.2-.51-.14-.54-.07-.54-.03-.61.03-.54.07-.51.14-.47.17-.44.2-.41.27-.37.34-.34.37-.3.41-.24.44-.2.51-.17.58-.14.61-.1.64-.07.71v.74ZM225.82,83.72h0l.03-.88.1-.88.14-.78.2-.78.1-.34.14-.37.17-.3.17-.34.17-.3.17-.3.24-.27.2-.27.24-.27.24-.24.27-.2.27-.24.27-.17.3-.17.3-.17.3-.14.34-.14.34-.1.34-.1.37-.07.37-.07.37-.03.41-.03h.41l.81.03.74.1.34.07.37.1.34.1.3.1.34.14.3.14.27.17.27.2.27.17.27.24.24.2.24.24.24.27.2.27.2.3.17.27.17.34.17.3.14.34.1.37.14.37.07.37.1.41.07.41.07.85.03.91-.03.95-.07.88-.14.81-.2.81-.1.37-.14.34-.17.34-.14.34-.17.34-.2.3-.2.3-.2.27-.24.27-.24.24-.24.24-.27.24-.27.2-.3.17-.3.17-.3.14-.34.14-.34.1-.37.1-.37.07-.37.07-.41.03-.41.03h-.85l-.41-.03-.37-.03-.37-.07-.37-.07-.34-.07-.34-.1-.34-.14-.3-.14-.3-.14-.3-.17-.27-.2-.27-.2-.27-.2-.24-.24-.24-.24-.2-.27-.24-.27-.17-.3-.17-.3-.17-.34-.17-.34-.14-.34-.1-.37-.1-.41-.1-.37-.07-.44-.07-.41-.1-.91-.03-.98ZM220.24,76.11h2.13v15.4h-2.13v-15.4ZM214.15,87.41h2.13l-.03.41-.07.41-.14.41-.17.41-.2.37-.27.37-.3.34-.37.37-.41.3-.44.27-.51.24-.51.17-.58.17-.61.1-.64.07h-.68l-.81-.03-.78-.07-.37-.1-.34-.07-.37-.1-.3-.14-.34-.14-.3-.14-.3-.17-.27-.17-.27-.2-.27-.24-.24-.2-.24-.27-.2-.24-.24-.3-.17-.27-.2-.3-.14-.34-.17-.34-.14-.34-.1-.37-.14-.37-.07-.41-.1-.41-.07-.44-.07-.91-.03-.95.03-.91.07-.88.17-.81.2-.74.1-.37.14-.34.17-.34.14-.34.2-.3.17-.3.24-.27.2-.27.24-.27.24-.24.27-.2.27-.24.31-.17.3-.17.3-.17.3-.14.34-.14.37-.1.37-.1.37-.07.37-.07.41-.03.41-.03h.44l.64.03.64.07.61.1.54.14.51.17.47.24.44.24.41.3.37.34.3.34.27.37.2.41.17.37.14.44.07.44.03.44h-2.13l-.03-.3-.07-.27-.1-.24-.1-.27-.17-.2-.17-.24-.2-.2-.2-.17-.27-.17-.27-.17-.27-.1-.34-.1-.34-.1-.37-.03-.37-.03-.44-.03-.58.03-.54.07-.54.14-.47.17-.44.2-.41.27-.37.3-.34.37-.3.41-.27.44-.2.51-.17.51-.17.58-.07.64-.07.64-.03.71.03.81.03.74.1.68.13.64.17.58.24.54.24.47.3.44.3.34.37.34.41.27.44.2.47.2.51.1.54.07.61.03h.34l.34-.03.34-.03.3-.07.3-.1.3-.1.27-.14.27-.14.24-.17.24-.2.2-.2.17-.24.17-.27.14-.27.07-.3.1-.34ZM187.48,76.11h2.13v9.44l.03.51.03.47.1.47.1.41.14.41.17.37.24.34.24.3.27.27.3.24.3.2.37.17.37.13.41.1.41.07h.95l.44-.07.41-.1.37-.1.37-.17.34-.2.3-.24.27-.24.27-.3.2-.37.2-.37.14-.41.14-.44.1-.51.03-.51.03-.54v-9.34h2.13v9.2l-.03.85-.07.74-.14.71-.2.64-.1.3-.14.31-.14.27-.14.24-.17.27-.2.2-.17.24-.2.2-.44.34-.47.34-.51.24-.54.24-.58.17-.61.1-.64.1h-1.35l-.64-.1-.61-.1-.58-.17-.54-.2-.51-.27-.47-.3-.44-.37-.2-.2-.2-.2-.17-.2-.17-.24-.13-.27-.14-.24-.14-.3-.1-.27-.2-.61-.14-.68-.07-.71-.03-.74v-9.51ZM174.92,76.11h2.13v13.6h7.38v1.79h-9.51v-15.4ZM158.95,83.79h0l.03.71.07.68.07.64.14.58.17.58.2.51.27.47.27.44.3.37.37.34.41.27.44.24.47.17.51.14.54.07.58.03.58-.03.51-.07.51-.1.44-.17.44-.24.41-.27.37-.31.3-.37.3-.41.27-.47.2-.54.2-.58.14-.64.1-.71.03-.74.03-.81-.03-.64-.03-.61-.1-.61-.14-.54-.17-.54-.2-.47-.24-.47-.27-.44-.34-.37-.34-.34-.41-.27-.41-.24-.47-.2-.51-.14-.54-.07-.58-.03-.58.03-.54.07-.51.14-.51.17-.44.2-.41.27-.34.34-.34.37-.31.41-.24.44-.2.51-.17.58-.14.61-.1.64-.07.71-.03.74ZM156.82,83.72h0l.03-.88.1-.88.14-.78.2-.78.1-.34.14-.37.17-.3.14-.34.2-.3.17-.3.2-.27.24-.27.24-.27.24-.24.27-.2.27-.24.27-.17.3-.17.3-.17.31-.14.34-.14.34-.1.34-.1.37-.07.37-.07.37-.03.41-.03h.41l.81.03.74.1.34.07.37.1.34.1.3.1.3.14.3.14.31.17.27.2.27.17.27.24.24.2.24.24.24.27.2.27.2.3.17.27.17.34.17.3.14.34.1.37.14.37.07.37.1.41.07.41.07.85.03.91-.03.95-.07.88-.14.81-.2.81-.1.37-.14.34-.17.34-.14.34-.17.34-.2.3-.2.3-.2.27-.24.27-.24.24-.24.24-.27.24-.27.2-.3.17-.3.17-.3.14-.34.14-.34.1-.37.1-.37.07-.37.07-.41.03-.41.03h-.85l-.41-.03-.37-.03-.37-.07-.37-.07-.34-.07-.34-.1-.34-.14-.31-.14-.3-.14-.3-.17-.27-.2-.27-.2-.27-.2-.24-.24-.24-.24-.24-.27-.2-.27-.17-.3-.2-.3-.14-.34-.17-.34-.14-.34-.1-.37-.1-.41-.1-.37-.1-.44-.03-.41-.1-.91-.03-.98ZM141.83,86.9h2.13v.37l.07.37.07.34.1.3.14.27.17.27.2.24.24.2.24.17.3.17.3.1.3.13.34.07.37.07.41.03h.81l.37-.03.37-.07.34-.07.34-.1.34-.1.3-.17.27-.14.27-.2.2-.2.2-.2.17-.24.1-.27.1-.27.03-.3.03-.31-.03-.37-.07-.37-.17-.34-.17-.3-.14-.17-.14-.14-.17-.1-.2-.14-.2-.1-.24-.07-.24-.1-.27-.07-3.42-.88-.54-.14-.51-.17-.47-.17-.41-.2-.37-.2-.34-.2-.27-.24-.27-.24-.2-.24-.17-.27-.14-.27-.14-.3-.1-.3-.07-.34-.03-.34-.03-.37.03-.44.07-.47.14-.41.17-.41.2-.37.27-.37.34-.34.34-.34.41-.3.47-.27.47-.2.51-.17.58-.14.61-.1.61-.07.68-.03.54.03.51.03.51.07.44.1.44.14.44.17.37.2.37.24.34.24.3.3.27.37.24.37.17.44.13.47.14.51.03.58h-2.13v-.3l-.07-.27-.07-.24-.1-.24-.14-.24-.14-.17-.2-.2-.2-.17-.24-.14-.24-.14-.27-.1-.3-.1-.3-.07-.3-.03-.34-.03-.37-.03-.37.03-.37.03-.34.03-.3.07-.3.1-.3.1-.27.14-.27.17-.24.17-.2.17-.2.2-.14.2-.1.24-.07.24-.07.27v.54l.03.2.03.2.1.2.1.2.1.14.14.17.17.14.37.24.47.24.54.17.64.17,2.81.68.51.14.47.13.44.17.37.2.37.2.34.2.27.24.24.27.24.24.2.3.14.3.14.31.1.34.07.34.07.37v.41l-.03.51-.07.47-.1.44-.2.44-.2.41-.27.37-.34.37-.34.34-.44.3-.44.27-.47.2-.54.2-.58.14-.61.1-.64.07h-1.39l-.61-.07-.61-.1-.58-.14-.51-.17-.47-.2-.44-.24-.41-.27-.34-.3-.3-.37-.27-.41-.2-.44-.17-.51-.14-.51-.07-.58v-.61Z"></path><path class="cls-3" d="M475.84,58.17h.37l.17-.07.14-.07.14-.1.07-.14.07-.17v-.34l-.03-.1-.03-.1-.03-.07-.14-.1-.17-.1-.41-.07h-1.62v1.42h1.49ZM477.63,61.12h0l-1.22-2.17.3-.03.27-.07.24-.1.2-.17.17-.17.1-.24.07-.27.03-.34-.03-.2v-.17l-.03-.2-.07-.17-.1-.17-.1-.14-.1-.14-.17-.14-.14-.07-.17-.07-.17-.03-.2-.03-.37-.03h-2.81v5.11h1.02v-2.17h.98l1.15,2.17h1.15ZM479.12,58.54h0l-.03-.41-.03-.37-.1-.37-.14-.34-.17-.34-.17-.34-.24-.27-.24-.27-.27-.27-.3-.2-.3-.2-.34-.17-.34-.1-.37-.1-.41-.07h-.78l-.37.07-.37.1-.37.1-.3.17-.34.2-.3.2-.27.27-.24.27-.2.27-.2.34-.17.34-.14.34-.07.37-.07.37-.03.41.03.37.07.41.07.37.14.34.17.34.2.3.2.3.24.27.27.24.3.24.34.2.3.14.37.14.37.1.37.07h.78l.41-.07.37-.1.34-.14.34-.14.3-.2.3-.24.27-.24.24-.27.24-.3.17-.3.17-.34.14-.34.1-.37.03-.41.03-.37ZM470.56,58.54l.03-.51.07-.44.1-.47.17-.41.2-.44.24-.37.27-.37.3-.34.34-.3.37-.27.37-.24.41-.2.44-.14.47-.14.47-.07.47-.03.47.03.47.07.44.14.44.14.41.2.41.24.34.27.34.3.3.34.27.37.24.37.2.44.17.41.1.47.1.44v.98l-.1.47-.1.44-.17.44-.2.41-.24.41-.27.37-.3.3-.34.3-.34.3-.41.24-.41.17-.44.17-.44.14-.47.07h-.95l-.47-.07-.47-.14-.44-.17-.41-.17-.37-.24-.37-.3-.34-.3-.3-.3-.27-.37-.24-.41-.2-.41-.17-.44-.1-.44-.07-.47-.03-.47Z"></path><path class="cls-3" d="M149.31,52.62h0v.58l.03.54.07.51.1.47.1.44.14.44.14.41.17.37.2.34.2.3.24.3.24.27.24.24.27.24.3.2.3.2.3.17.3.17.34.14.34.1.71.2.71.17.74.1.74.07.78.03h.74l1.62-.03,1.52-.1,1.49-.2,1.42-.27,1.35-.3,1.29-.41,1.22-.44,1.15-.51,1.12-.58,1.05-.61.98-.68.91-.71.88-.78.81-.81.74-.85.71-.88.68-.91.61-.98.54-.98.51-1.02.47-1.05.41-1.05.37-1.08.34-1.08.27-1.12.27-1.15.2-1.12.14-1.15.14-1.15.1-1.15.03-1.12.03-1.15-.03-1.42-.1-1.39-.14-1.35-.2-1.35-.24-1.29-.3-1.29-.34-1.22-.44-1.22-.44-1.18-.51-1.12-.58-1.12-.61-1.05-.68-1.02-.71-.98-.74-.95-.81-.88-.85-.88-.88-.78-.95-.78-.98-.71-1.02-.64-1.08-.61-1.12-.58-1.15-.47-1.18-.47-1.25-.37-1.25-.34-1.32-.27-1.35-.24-1.39-.14-1.42-.1-1.45-.03h-1.15l-1.02.03-.91.03-.78.07-.71.03-.64.07-.58.03-.54.03v44.33ZM141.32,14.42l-.03-.68-.03-.61-.03-.58-.07-.54-.1-.51-.1-.44-.14-.44-.17-.37-.14-.37-.2-.31-.2-.3-.2-.24-.2-.24-.24-.2-.27-.2-.24-.17-.27-.14-.3-.1-.27-.1-.3-.1-.61-.13-.64-.07-1.35-.07-1.39-.03v-2.1l1.22.03,1.18.07h1.22l1.18.03h1.22l1.22.03h2.37l1.35-.03h1.46l1.59-.03,1.69-.03,1.79-.03h1.96l2.06-.03h2.2l1.93.03,1.9.14,1.86.17,1.76.27,1.73.37,1.66.41,1.62.47,1.52.54,1.49.64,1.42.64,1.39.74,1.29.78,1.25.85,1.18.88,1.15.91,1.05.98,1.02,1.02.91,1.08.88,1.08.81,1.12.78,1.18.68,1.18.61,1.22.58,1.25.47,1.25.44,1.29.37,1.32.3,1.32.24,1.32.17,1.35.1,1.32.03,1.35-.03.81-.03.85-.1.91-.1.98-.17,1.02-.2,1.05-.24,1.08-.34,1.15-.34,1.15-.44,1.15-.47,1.18-.54,1.18-.64,1.18-.71,1.18-.74,1.18-.88,1.15-.91,1.12-1.05,1.08-1.12,1.08-1.22,1.02-1.32.98-1.39.91-1.52.85-1.66.81-1.73.71-1.86.64-2,.58-2.1.47-2.23.37-2.37.27-2.47.17-2.64.07h-1.56l-1.52-.03h-1.49l-1.45-.03-1.46-.03-1.46-.03-1.45-.03h-2.81l-1.35.03h-1.35l-1.35.03h-1.39l-1.35.03-1.35.03-1.39.03v-2.13l1.73-.17,1.49-.2.64-.14.61-.2.27-.1.27-.1.24-.14.27-.14.2-.17.2-.17.2-.17.2-.2.17-.24.14-.24.17-.27.1-.3.14-.3.1-.34.1-.37.07-.37.14-.88.07-.95V14.42Z"></path><path class="cls-3" d="M211.57,61.35h0l.74-.03.74-.1.68-.14.68-.17.64-.24.61-.27.58-.31.54-.34.54-.41.51-.44.47-.44.44-.51.44-.51.37-.54.37-.58.37-.61.34-.61.3-.64.27-.64.24-.68.24-.68.24-.68.17-.71.17-.68.17-.71.13-.71.1-.71.07-.68.07-.71.07-.68.03-.68v-1.32l-.03-.64-.07-.68-.07-.71-.1-.71-.13-.71-.14-.74-.17-.74-.17-.74-.2-.74-.24-.74-.27-.71-.27-.74-.34-.71-.3-.71-.37-.68-.37-.68-.41-.64-.44-.61-.47-.58-.47-.58-.51-.54-.54-.47-.58-.44-.61-.41-.61-.37-.64-.3-.68-.27-.71-.2-.74-.17-.78-.1-.78-.03-.74.03-.71.1-.68.14-.68.17-.64.24-.58.27-.58.3-.58.34-.51.41-.51.44-.47.44-.44.51-.41.51-.41.54-.37.58-.37.61-.3.61-.3.64-.27.64-.27.68-.24.68-.2.68-.2.71-.17.68-.14.71-.14.71-.1.71-.1.68-.07.71-.03.68-.03.68v1.32l.03.64.03.68.1.71.1.71.1.74.14.71.17.74.2.74.2.74.24.74.24.74.3.71.3.71.34.71.34.68.37.68.41.64.44.61.47.61.47.54.51.54.54.47.58.44.58.41.61.37.64.3.68.27.71.2.74.17.74.1.78.03ZM210.59,25.01l1.05.03,1.05.03,1.02.14,1.02.14.95.2.98.24.91.27.91.3.88.34.85.41.85.41.81.47.74.51.74.54.71.54.68.61.64.64.64.68.58.71.54.74.47.74.47.81.44.85.37.85.34.88.3.91.27.95.2.98.17.98.1,1.02.1,1.05v2.06l-.07.98-.14.95-.17.95-.2.91-.24.91-.3.91-.34.88-.37.85-.41.85-.44.81-.51.78-.51.74-.54.74-.61.71-.61.68-.64.64-.68.61-.71.61-.74.54-.74.51-.78.47-.81.44-.85.37-.85.37-.88.3-.88.27-.91.2-.91.17-.95.14-.98.07-.95.03h-1.02l-1.02-.07-.98-.14-.95-.13-.95-.2-.95-.24-.91-.27-.88-.3-.88-.34-.85-.41-.85-.41-.78-.47-.78-.51-.74-.54-.71-.54-.71-.61-.64-.64-.61-.68-.61-.71-.54-.74-.51-.74-.47-.81-.44-.85-.41-.85-.34-.88-.34-.91-.24-.95-.24-.98-.17-.98-.14-1.05-.07-1.02-.03-1.08.03-.98.07-.98.1-.95.17-.95.17-.91.24-.91.3-.91.3-.88.34-.85.41-.85.44-.81.44-.78.51-.74.54-.74.58-.71.61-.68.64-.64.64-.61.71-.61.71-.54.74-.51.81-.47.78-.44.85-.37.88-.37.88-.31.91-.27.91-.2.95-.17.98-.14.98-.07,1.02-.03Z"></path><polygon class="cls-3" points="233.84 35.84 233.84 35.3 233.81 34.82 233.74 34.35 233.64 33.94 233.54 33.57 233.37 33.23 233.16 32.89 232.93 32.59 232.62 32.32 232.28 32.05 231.91 31.78 231.47 31.54 230.96 31.27 230.42 31.03 229.81 30.76 229.14 30.46 229.14 28.93 230.42 28.49 231.74 28.05 233.03 27.61 234.35 27.17 235.67 26.7 237.02 26.19 238.44 25.62 239.86 25.01 239.97 25.01 240.07 25.04 240.14 25.08 240.2 25.18 240.27 25.28 240.34 25.41 240.34 25.58 240.37 25.82 240.37 31.1 242.06 29.88 243.76 28.76 244.6 28.22 245.41 27.72 246.26 27.24 247.11 26.8 247.95 26.4 248.83 26.06 249.71 25.75 250.59 25.48 251.54 25.28 252.49 25.14 253.43 25.04 254.45 25.01 255.09 25.01 255.7 25.08 256.28 25.14 256.85 25.25 257.39 25.35 257.9 25.52 258.38 25.69 258.85 25.89 259.29 26.13 259.7 26.36 260.1 26.63 260.47 26.94 260.81 27.24 261.15 27.58 261.46 27.95 261.73 28.33 262 28.73 262.23 29.14 262.47 29.58 262.67 30.02 262.88 30.46 263.05 30.96 263.21 31.44 263.35 31.95 263.45 32.45 263.55 33 263.62 33.54 263.72 34.11 263.79 35.23 263.82 36.41 263.82 57.43 263.86 57.9 263.89 58.31 263.99 58.68 264.13 58.98 264.3 59.26 264.5 59.46 264.74 59.63 265.01 59.76 265.28 59.9 265.62 59.97 265.96 60.03 266.29 60.07 267.07 60.1 267.88 60.1 269.37 60.1 269.37 62.23 268.29 62.23 267.21 62.2 266.16 62.2 265.08 62.17 263.99 62.13 262.91 62.1 261.83 62.06 260.74 62.06 259.63 62.06 258.54 62.1 257.43 62.1 256.31 62.13 255.23 62.13 254.15 62.17 253.03 62.2 251.95 62.23 251.95 60.1 253.4 60.1 254.21 60.1 254.96 60.07 255.3 60.03 255.63 59.97 255.94 59.9 256.21 59.76 256.45 59.63 256.68 59.46 256.85 59.26 257.02 58.98 257.12 58.68 257.22 58.31 257.29 57.9 257.29 57.43 257.29 36.31 257.29 35.91 257.26 35.5 257.22 35.09 257.16 34.69 257.09 34.31 257.02 33.98 256.92 33.6 256.78 33.3 256.65 32.96 256.51 32.66 256.34 32.39 256.14 32.08 255.97 31.84 255.77 31.57 255.53 31.34 255.3 31.13 255.06 30.93 254.79 30.73 254.52 30.52 254.21 30.36 253.91 30.22 253.6 30.08 253.27 29.95 252.93 29.85 252.22 29.64 251.47 29.51 250.66 29.44 249.81 29.41 249.31 29.44 248.76 29.51 248.19 29.61 247.61 29.78 247 29.95 246.4 30.19 245.75 30.42 245.11 30.69 243.86 31.3 242.61 31.95 241.42 32.62 240.37 33.3 240.37 57.43 240.37 57.9 240.44 58.31 240.54 58.68 240.68 58.98 240.85 59.26 241.05 59.46 241.29 59.63 241.56 59.76 241.83 59.9 242.13 59.97 242.47 60.03 242.84 60.07 243.62 60.1 244.43 60.1 245.89 60.1 245.89 62.23 244.84 62.23 243.76 62.2 242.71 62.2 241.62 62.17 240.54 62.13 239.46 62.1 238.38 62.06 237.26 62.06 236.18 62.06 235.06 62.1 233.98 62.1 232.86 62.13 231.78 62.13 230.66 62.17 229.58 62.2 228.46 62.23 228.46 60.1 229.95 60.1 230.76 60.1 231.51 60.07 231.84 60.03 232.18 59.97 232.49 59.9 232.76 59.76 233 59.63 233.2 59.46 233.4 59.26 233.57 58.98 233.67 58.68 233.77 58.31 233.84 57.9 233.84 57.43 233.84 35.84"></polygon><path class="cls-3" d="M291.3,44.16h0l-1.83.61-2.23.71-1.22.37-1.22.44-1.25.47-1.18.51-.61.27-.58.3-.54.31-.54.3-.51.34-.47.37-.44.34-.41.41-.37.41-.34.44-.3.44-.24.47-.2.47-.17.51-.07.54-.03.58.03.58.07.58.17.58.17.51.27.51.27.51.34.44.37.44.41.37.44.34.51.31.51.24.51.2.58.14.54.1.61.03.71-.03.64-.07.64-.14.64-.17.58-.2.58-.27.58-.27.54-.34.51-.34.54-.37.51-.37.51-.41.98-.88,1.02-.88v-10.73ZM304.5,59.05l-.88.81-.91.78-.44.37-.47.37-.47.34-.51.34-.51.3-.51.27-.51.24-.54.2-.58.17-.58.1-.58.07-.61.03h-.3l-.3-.03-.27-.03-.27-.07-.27-.07-.27-.1-.24-.1-.24-.1-.44-.3-.41-.3-.37-.37-.34-.41-.27-.47-.27-.47-.2-.47-.2-.54-.14-.51-.1-.54-.1-.58-.03-.54-.71.64-.71.61-.71.61-.74.58-.71.51-.74.51-.74.44-.74.44-.74.37-.81.34-.78.3-.85.24-.85.2-.88.14-.88.07-.95.03h-.47l-.47-.03-.47-.07-.44-.07-.44-.07-.44-.1-.41-.14-.41-.14-.41-.17-.37-.17-.37-.2-.37-.2-.34-.24-.31-.24-.34-.24-.27-.27-.3-.27-.27-.27-.24-.3-.24-.3-.2-.34-.2-.34-.2-.34-.17-.34-.14-.37-.14-.34-.1-.37-.1-.41-.07-.37-.03-.41-.03-.37-.03-.41.07-.61.03-.58.1-.54.1-.51.14-.47.14-.47.2-.44.2-.44.27-.41.3-.41.3-.41.37-.37.41-.37.47-.34.51-.37.54-.34.61-.37.64-.34.71-.34.78-.37,1.69-.74,1.96-.78,2.23-.81,2.54-.88,2.81-.98,3.15-1.08v-5.38l-.03-.85-.1-.78-.07-.37-.1-.34-.1-.34-.1-.34-.13-.34-.14-.3-.17-.3-.2-.27-.17-.27-.24-.24-.2-.24-.24-.24-.27-.2-.27-.2-.27-.2-.3-.17-.34-.17-.3-.14-.37-.14-.34-.14-.78-.2-.85-.14-.88-.07-.95-.03-.64.03-.64.07-.61.1-.54.17-.54.2-.51.27-.47.27-.41.37-.41.37-.34.41-.3.47-.24.51-.2.58-.17.58-.1.64-.07.64-.03.44-.07.37-.14.37-.2.34-.24.3-.24.27-.3.24-.34.24-.34.2-.37.17-.37.17-.37.1-.41.1-.37.07-.41.03h-.58l-.2-.03-.17-.07-.17-.07-.14-.07-.1-.1-.1-.14-.1-.1-.14-.27-.07-.27-.07-.27v-.61l.03-.41.07-.37.07-.34.1-.37.1-.34.13-.34.17-.3.17-.3.17-.3.24-.3.2-.3.51-.54.58-.54.64-.54.71-.51.78-.51.85-.51,1.83-1.02,2.03-1.05,1.02-.54.88-.47.85-.44.81-.41.44-.17.41-.14.44-.14.44-.1.47-.1.47-.07.54-.03h.54l.74.03.74.07.81.14.81.2.85.24.81.3.81.34.78.41.37.24.37.24.34.24.34.27.3.27.3.3.27.27.27.34.2.3.2.34.2.37.14.34.14.41.07.37.07.41v22.98l.03.61.03.54.07.51.07.47.14.41.14.41.14.34.2.3.2.24.2.24.24.17.27.17.27.1.3.07.3.07h.34l.41-.03.41-.07.41-.1.41-.14.37-.2.37-.24.34-.27.3-.34.74,1.39Z"></path><polygon class="cls-3" points="304.77 60.1 306.33 60.1 307.14 60.1 307.88 60.07 308.26 60.03 308.56 59.97 308.87 59.9 309.14 59.76 309.37 59.63 309.61 59.46 309.78 59.26 309.95 58.98 310.08 58.68 310.15 58.31 310.22 57.9 310.22 57.43 310.22 12.05 310.22 11.13 310.19 10.29 310.08 9.58 309.98 8.93 309.85 8.43 309.68 7.95 309.48 7.55 309.24 7.24 308.97 6.94 308.63 6.7 308.29 6.5 307.88 6.33 307 6.02 305.92 5.69 305.92 4.4 307.14 3.99 308.36 3.55 309.54 3.08 310.69 2.61 311.74 2.17 312.72 1.69 313.6 1.29 314.31 .88 314.92 .54 315.43 .27 315.84 .07 316.11 0 316.28 .03 316.41 .07 316.51 .17 316.62 .3 316.68 .47 316.72 .68 316.75 .91 316.75 1.15 316.75 57.43 316.78 57.9 316.82 58.31 316.92 58.68 317.06 58.98 317.22 59.26 317.43 59.46 317.67 59.63 317.94 59.76 318.21 59.9 318.55 59.97 318.88 60.03 319.22 60.07 320 60.1 320.81 60.1 322.2 60.1 322.2 62.23 321.15 62.23 320.1 62.2 319.05 62.2 318 62.17 316.92 62.13 315.84 62.1 314.75 62.06 313.67 62.06 312.56 62.06 311.44 62.1 310.36 62.1 309.24 62.13 308.12 62.13 307.04 62.17 305.89 62.2 304.77 62.23 304.77 60.1"></polygon><path class="cls-3" d="M349.85,35.09h0v-.54l-.03-.51-.07-.51-.1-.47-.14-.47-.14-.41-.17-.41-.2-.37-.2-.37-.2-.34-.27-.3-.24-.3-.3-.27-.27-.27-.3-.24-.3-.2-.34-.2-.34-.2-.34-.17-.34-.14-.74-.27-.71-.2-.74-.14-.71-.1-.71-.07h-1.25l-.54.03-.54.07-.54.1-.54.14-.54.14-.54.17-.54.2-.51.24-.54.24-.51.3-.47.3-.51.37-.47.37-.44.41-.44.44-.44.47-.41.51-.37.54-.37.58-.34.64-.34.64-.27.68-.27.71-.27.74-.2.78-.17.81-.17.88-.14.88-.07.95-.07.98v1.83l.03.81.1.81.1.78.14.78.17.74.2.74.2.71.27.71.27.68.3.64.3.64.34.61.37.58.41.58.44.54.44.51.44.47.47.47.51.41.54.41.54.37.54.34.58.3.61.27.58.24.64.2.64.17.64.14.68.07.68.07.68.03.47-.03.58-.07.58-.1.64-.14.64-.17.68-.24.64-.24.64-.3.61-.34.58-.34.24-.2.27-.2.24-.2.2-.24.2-.2.17-.24.17-.24.1-.27.1-.24.1-.27.03-.27v-18.95ZM356.38,55.23v.58l.03.54.07.44.07.37.1.34.17.27.17.2.2.17.24.14.27.14.34.07.37.03.88.07h2.47v1.62h-.1l-.47.1-.61.14-.64.2-.71.2-.78.2-.81.24-.88.27-.85.27-.95.3-.88.3-.78.27-.74.24-.61.2-.54.17-.41.1-.24.03h-.14l-.14-.03-.1-.07-.1-.1-.1-.1-.07-.14-.07-.14-.03-.17-.1-.34-.03-.37v-.37l-.03-.37v-3.76h-.14l-.58.58-.61.58-.64.54-.68.51-.71.54-.71.47-.78.47-.78.44-.81.37-.85.37-.85.3-.85.27-.91.24-.88.13-.91.1-.95.03-.88-.03-.88-.07-.88-.1-.81-.17-.81-.2-.74-.27-.74-.3-.74-.34-.68-.37-.68-.41-.61-.44-.61-.47-.58-.51-.58-.54-.51-.58-.51-.61-.47-.61-.44-.68-.41-.68-.37-.68-.34-.74-.34-.74-.27-.74-.27-.78-.24-.78-.2-.81-.17-.81-.14-.81-.1-.85-.1-.85-.03-.85v-1.89l.1-1.02.1-.98.17-1.02.24-.98.27-.98.3-.95.37-.91.41-.91.44-.91.47-.85.51-.85.58-.81.58-.81.64-.74.64-.74.71-.71.71-.64.78-.64.78-.61.81-.54.85-.51.88-.47.88-.44.91-.37.95-.34.95-.3.98-.24,1.02-.2,1.02-.14,1.02-.07,1.05-.03.98.03.98.07.98.1.98.17.95.2.95.24.95.3.88.34v-15.33l-.03-.85-.1-.71-.1-.64-.14-.51-.17-.47-.2-.41-.24-.3-.27-.3-.34-.24-.34-.2-.41-.17-.88-.3-1.08-.34v-1.29l1.22-.41,1.22-.44,1.18-.47,1.15-.47,1.05-.44.98-.47.88-.41.71-.41.61-.34.51-.27.41-.2.27-.07.17.03.14.03.1.1.1.14.07.17.03.2.03.24v54.31Z"></path><polygon class="cls-3" points="365.58 50.9 365.82 51.91 366.09 52.89 366.43 53.84 366.8 54.72 367.01 55.16 367.24 55.6 367.48 56.01 367.72 56.41 367.99 56.82 368.29 57.19 368.56 57.56 368.87 57.9 369.2 58.24 369.54 58.54 369.88 58.85 370.25 59.12 370.66 59.39 371.03 59.63 371.47 59.86 371.88 60.07 372.32 60.24 372.79 60.41 373.27 60.54 373.74 60.64 374.25 60.74 374.75 60.81 375.3 60.85 375.84 60.85 376.28 60.85 376.72 60.81 377.12 60.78 377.5 60.71 377.87 60.64 378.24 60.58 378.58 60.47 378.92 60.34 379.22 60.2 379.49 60.07 379.8 59.93 380.03 59.76 380.54 59.42 380.95 59.02 381.32 58.61 381.62 58.14 381.89 57.66 382.1 57.16 382.23 56.65 382.37 56.14 382.44 55.6 382.44 55.06 382.4 54.21 382.23 53.4 382 52.69 381.69 52.01 381.29 51.37 380.81 50.8 380.27 50.29 379.66 49.78 379.02 49.34 378.34 48.9 377.6 48.49 376.82 48.09 375.23 47.31 373.57 46.57 372.72 46.16 371.91 45.75 371.1 45.35 370.32 44.87 369.54 44.4 368.8 43.86 368.12 43.28 367.45 42.67 366.87 42.03 366.33 41.29 365.85 40.51 365.45 39.66 365.11 38.71 364.87 37.7 364.74 36.62 364.67 35.43 364.7 34.99 364.74 34.55 364.77 34.11 364.87 33.67 364.97 33.23 365.08 32.79 365.25 32.32 365.41 31.88 365.58 31.44 365.82 31 366.06 30.56 366.33 30.12 366.6 29.71 366.94 29.31 367.28 28.9 367.65 28.49 368.02 28.12 368.46 27.78 368.9 27.45 369.37 27.11 369.88 26.8 370.42 26.5 370.96 26.23 371.57 25.99 372.18 25.79 372.83 25.58 373.5 25.41 374.21 25.28 374.92 25.14 375.7 25.08 376.48 25.01 377.33 25.01 378.34 25.04 379.42 25.14 380.58 25.31 381.76 25.58 382.33 25.72 382.94 25.89 383.55 26.09 384.16 26.29 384.77 26.53 385.38 26.8 385.99 27.07 386.6 27.38 387.17 35.67 385.31 35.67 385.11 34.75 384.91 33.84 384.64 33.03 384.3 32.25 384.13 31.88 383.93 31.54 383.72 31.2 383.52 30.86 383.28 30.56 383.05 30.25 382.77 29.98 382.5 29.71 382.23 29.48 381.93 29.24 381.62 29 381.29 28.8 380.98 28.63 380.61 28.46 380.27 28.29 379.9 28.16 379.49 28.02 379.09 27.92 378.68 27.82 378.27 27.75 377.83 27.68 377.36 27.65 376.89 27.61 376.41 27.61 375.8 27.65 375.19 27.68 374.62 27.82 374.04 27.95 373.5 28.16 372.96 28.39 372.49 28.66 372.01 29 371.61 29.34 371.2 29.75 370.86 30.19 370.59 30.66 370.49 30.93 370.36 31.2 370.29 31.47 370.19 31.74 370.15 32.05 370.08 32.35 370.08 32.66 370.05 33 370.12 33.84 370.29 34.65 370.52 35.36 370.86 36.04 371.3 36.65 371.81 37.23 372.39 37.77 373.03 38.24 373.71 38.71 374.45 39.12 375.23 39.56 376.04 39.93 377.77 40.71 379.53 41.46 380.41 41.86 381.29 42.27 382.13 42.67 382.98 43.15 383.79 43.62 384.57 44.13 385.31 44.7 386.02 45.28 386.63 45.96 387.21 46.67 387.72 47.41 388.16 48.26 388.49 49.17 388.76 50.15 388.9 51.24 388.97 52.39 388.93 52.89 388.9 53.4 388.83 53.91 388.76 54.38 388.63 54.89 388.49 55.4 388.32 55.91 388.12 56.38 387.92 56.85 387.68 57.33 387.38 57.8 387.07 58.24 386.77 58.68 386.4 59.12 386.02 59.53 385.58 59.93 385.14 60.3 384.67 60.68 384.16 61.05 383.65 61.35 383.08 61.69 382.5 61.96 381.86 62.23 381.22 62.47 380.54 62.71 379.83 62.91 379.12 63.08 378.34 63.22 377.53 63.32 376.72 63.38 375.84 63.45 374.96 63.45 374.35 63.45 373.71 63.42 373.06 63.35 372.42 63.25 371.78 63.15 371.13 63.01 370.49 62.84 369.81 62.67 369.17 62.5 368.56 62.27 367.92 62.06 367.31 61.79 366.7 61.56 366.12 61.29 365.55 60.98 365.01 60.68 364.13 51.3 365.58 50.9"></polygon><path class="cls-3" d="M410.76,61.35h0l.74-.03.74-.1.68-.14.68-.17.61-.24.61-.27.61-.31.54-.34.54-.41.47-.44.51-.44.44-.51.41-.51.41-.54.37-.58.37-.61.3-.61.3-.64.3-.64.24-.68.24-.68.24-.68.17-.71.17-.68.17-.71.1-.71.14-.71.07-.68.07-.71.07-.68v-.68l.03-.68-.03-.64-.03-.64-.03-.68-.07-.71-.1-.71-.14-.71-.14-.74-.17-.74-.17-.74-.24-.74-.24-.74-.24-.71-.3-.74-.3-.71-.34-.71-.34-.68-.37-.68-.41-.64-.44-.61-.47-.58-.47-.58-.51-.54-.54-.47-.58-.44-.61-.41-.61-.37-.64-.3-.71-.27-.68-.2-.74-.17-.78-.1-.78-.03-.74.03-.71.1-.71.14-.64.17-.64.24-.58.27-.58.3-.58.34-.51.41-.51.44-.47.44-.44.51-.44.51-.37.54-.37.58-.37.61-.3.61-.3.64-.3.64-.24.68-.24.68-.2.68-.2.71-.17.68-.14.71-.14.71-.1.71-.1.68-.07.71-.03.68-.03.68v1.32l.03.64.03.68.1.71.07.71.14.74.14.71.17.74.2.74.2.74.24.74.24.74.3.71.3.71.34.71.34.68.37.68.41.64.44.61.47.61.47.54.51.54.54.47.58.44.58.41.61.37.64.3.68.27.71.2.74.17.74.1.78.03ZM409.78,25.01l1.05.03,1.05.03,1.02.14,1.02.14.95.2.98.24.91.27.91.3.88.34.85.41.85.41.78.47.78.51.74.54.71.54.68.61.64.64.61.68.58.71.54.74.51.74.47.81.44.85.37.85.34.88.3.91.27.95.2.98.17.98.1,1.02.1,1.05v2.06l-.1.98-.1.95-.17.95-.2.91-.24.91-.3.91-.34.88-.37.85-.41.85-.44.81-.51.78-.51.74-.54.74-.61.71-.61.68-.64.64-.68.61-.71.61-.74.54-.74.51-.78.47-.81.44-.85.37-.85.37-.88.3-.88.27-.91.2-.95.17-.91.14-.98.07-.95.03h-1.02l-1.02-.07-.98-.14-.95-.13-.95-.2-.95-.24-.91-.27-.88-.3-.88-.34-.85-.41-.85-.41-.78-.47-.78-.51-.74-.54-.71-.54-.71-.61-.64-.64-.61-.68-.61-.71-.54-.74-.51-.74-.47-.81-.44-.85-.41-.85-.34-.88-.34-.91-.27-.95-.2-.98-.17-.98-.14-1.05-.07-1.02-.03-1.08.03-.98.07-.98.1-.95.14-.95.2-.91.24-.91.27-.91.34-.88.34-.85.41-.85.44-.81.44-.78.51-.74.54-.74.58-.71.61-.68.61-.64.68-.61.71-.61.71-.54.74-.51.78-.47.81-.44.85-.37.88-.37.88-.31.88-.27.95-.2.95-.17.98-.14.98-.07,1.02-.03Z"></path><polygon class="cls-3" points="432.66 35.84 432.66 35.3 432.62 34.82 432.55 34.35 432.45 33.94 432.32 33.57 432.18 33.23 431.98 32.89 431.74 32.59 431.44 32.32 431.1 32.05 430.73 31.78 430.29 31.54 429.78 31.27 429.24 31.03 428.63 30.76 427.92 30.46 427.92 28.93 429.24 28.49 430.52 28.05 431.84 27.61 433.16 27.17 434.48 26.7 435.84 26.19 437.26 25.62 438.68 25.01 438.78 25.01 438.85 25.04 438.95 25.08 439.02 25.18 439.09 25.28 439.12 25.41 439.15 25.58 439.19 25.82 439.19 31.1 440.88 29.88 442.57 28.76 443.38 28.22 444.23 27.72 445.08 27.24 445.92 26.8 446.77 26.4 447.65 26.06 448.53 25.75 449.41 25.48 450.32 25.28 451.27 25.14 452.25 25.04 453.27 25.01 453.91 25.01 454.52 25.08 455.09 25.14 455.67 25.25 456.18 25.35 456.72 25.52 457.19 25.69 457.66 25.89 458.1 26.13 458.51 26.36 458.92 26.63 459.29 26.94 459.63 27.24 459.97 27.58 460.27 27.95 460.54 28.33 460.81 28.73 461.05 29.14 461.29 29.58 461.49 30.02 461.69 30.46 461.86 30.96 462 31.44 462.13 31.95 462.27 32.45 462.37 33 462.44 33.54 462.5 34.11 462.61 35.23 462.64 36.41 462.64 57.43 462.64 57.9 462.71 58.31 462.81 58.68 462.94 58.98 463.11 59.26 463.32 59.46 463.55 59.63 463.82 59.76 464.09 59.9 464.4 59.97 464.74 60.03 465.11 60.07 465.89 60.1 466.7 60.1 468.16 60.1 468.16 62.23 467.11 62.23 466.02 62.2 464.97 62.2 463.89 62.17 462.81 62.13 461.73 62.1 460.64 62.06 459.53 62.06 458.44 62.06 457.33 62.1 456.24 62.1 455.13 62.13 454.04 62.13 452.93 62.17 451.84 62.2 450.73 62.23 450.73 60.1 452.22 60.1 453.03 60.1 453.77 60.07 454.11 60.03 454.45 59.97 454.75 59.9 455.03 59.76 455.26 59.63 455.47 59.46 455.67 59.26 455.84 58.98 455.94 58.68 456.04 58.31 456.11 57.9 456.11 57.43 456.11 36.31 456.11 35.91 456.07 35.5 456.04 35.09 455.97 34.69 455.91 34.31 455.84 33.98 455.7 33.6 455.6 33.3 455.47 32.96 455.3 32.66 455.16 32.39 454.96 32.08 454.79 31.84 454.55 31.57 454.35 31.34 454.11 31.13 453.87 30.93 453.6 30.73 453.33 30.52 453.03 30.36 452.72 30.22 452.42 30.08 452.08 29.95 451.74 29.85 451.03 29.64 450.29 29.51 449.48 29.44 448.63 29.41 448.12 29.44 447.58 29.51 447 29.61 446.43 29.78 445.82 29.95 445.21 30.19 444.57 30.42 443.93 30.69 442.67 31.3 441.42 31.95 440.24 32.62 439.19 33.3 439.19 57.43 439.19 57.9 439.26 58.31 439.36 58.68 439.49 58.98 439.66 59.26 439.86 59.46 440.1 59.63 440.34 59.76 440.64 59.9 440.95 59.97 441.29 60.03 441.66 60.07 442.4 60.1 443.25 60.1 444.7 60.1 444.7 62.23 443.65 62.23 442.57 62.2 441.49 62.2 440.44 62.17 439.36 62.13 438.27 62.1 437.16 62.06 436.07 62.06 434.99 62.06 433.87 62.1 432.79 62.1 431.68 62.13 430.59 62.13 429.48 62.17 428.39 62.2 427.28 62.23 427.28 60.1 428.73 60.1 429.58 60.1 430.32 60.07 430.66 60.03 431 59.97 431.27 59.9 431.54 59.76 431.81 59.63 432.01 59.46 432.22 59.26 432.35 58.98 432.49 58.68 432.59 58.31 432.62 57.9 432.66 57.43 432.66 35.84"></polygon><rect class="cls-2" x="41.12" y="67.28" width="3.99" height="3.99"></rect><path class="cls-3" d="M67.65,76.31h0l-.3.98-.34.98-.37.95-.44.95-.44.91-.47.88-.54.88-.54.85-.61.85-.61.78-.68.78-.68.74-.71.74-.74.68-.74.68-.81.61-.81.61-.85.58-.85.54-.88.51-.91.44-.95.44-.95.41-.98.34-.98.34-.98.27-1.02.24-1.05.2-1.05.14-1.05.14-1.08.07h-2.27l-1.15-.1-1.12-.1-1.15-.2-1.08-.2-1.08-.27-1.08-.34-1.05-.37-1.02-.41-1.02-.44-.98-.51-.95-.51-.95-.58-.88-.61-.88-.64-.85-.68.51.85.54.88.58.81.58.85.64.78.64.78.64.78.71.71.71.71.71.71.78.68.78.64.78.61.85.58.81.58.88.54.85.54.91.47.91.47.91.41.95.41.95.37.98.37.98.3,1.02.27,1.02.24,1.02.24,1.05.17,1.05.17,1.08.1,1.05.07,1.08.07h1.18l1.15-.03,1.15-.07,1.12-.14,1.12-.14,1.12-.2,1.12-.24,1.08-.27,1.05-.3,1.05-.34,1.05-.37,1.02-.41,1.02-.44.98-.47.95-.54.95-.54.95-.58.88-.58.91-.64.85-.68.85-.68.81-.71.78-.78.74-.74.74-.81.71-.81.68-.85.64-.88.64-.88.58-.95.58-.91.54-.98.51-1.15.51-1.18.47-1.18.41-1.22.41-1.25.37-1.22.3-1.29.3-1.25.07-.51.07-.47.07-.51.03-.47h-18.51ZM53.57,109h0l-1.69-.07-1.69-.17-1.66-.24-1.62-.3-1.62-.37-1.56-.47-1.56-.51-1.52-.61-1.46-.64-1.46-.71-1.39-.78-1.39-.85-1.32-.91-1.25-.95-1.25-1.02-1.18-1.05-1.15-1.12-1.08-1.15-1.02-1.22-.98-1.25-.95-1.29-.88-1.35-.81-1.39-.74-1.42-.68-1.42-.64-1.49-.54-1.52-.51-1.56-.41-1.59-.34-1.59-.3-1.62-.2-1.66-.03-.2-.07-.2H0l.34,1.93.44,1.89.54,1.86.61,1.86.68,1.79.74,1.76.85,1.73.88,1.66.98,1.66,1.05,1.59,1.12,1.52,1.15,1.49,1.25,1.42,1.29,1.39,1.35,1.32,1.39,1.25,1.45,1.22,1.52,1.15,1.56,1.05,1.62,1.02,1.66.95,1.69.85,1.73.81,1.79.71,1.83.64,1.86.58,1.9.47,1.89.41,1.96.3,1.96.24,2.03.14,2.03.03,1.39-.03,1.39-.03,1.39-.14,1.39-.14,1.35-.2,1.32-.24,1.32-.27,1.32-.3,1.32-.37,1.25-.37,1.29-.44,1.25-.47,1.22-.51,1.22-.54,1.18-.58,1.15-.61-1.22.34-1.29.27-1.25.2-1.29.2-1.29.14-1.32.07-1.32.03h-1.35ZM18.61,62.3h0l.31-1.02.34-.98.37-.95.44-.95.44-.91.51-.88.51-.88.58-.85.58-.81.61-.81.68-.78.68-.74.71-.71.74-.71.74-.64.81-.64.81-.61.85-.58.85-.54.91-.47.91-.47.91-.44.95-.41.98-.34.98-.34,1.02-.27,1.02-.24,1.02-.2,1.05-.14,1.08-.14,1.05-.07h1.12l1.15.03,1.15.07,1.15.14,1.12.17,1.08.24,1.12.27,1.05.3,1.05.37,1.02.41,1.02.44.98.51.95.51.95.58.88.61.88.64.85.71-.51-.88-.54-.88-.58-.81-.58-.81-.61-.81-.64-.78-.68-.74-.68-.74-.74-.71-.71-.71-.78-.64-.78-.64-.78-.64-.81-.58-.85-.58-.85-.54-.88-.51-.91-.51-.91-.44-.91-.44-.95-.41-.95-.37-.98-.34-.98-.34-1.02-.27-1.02-.24-1.02-.24-1.05-.17-1.05-.17-1.05-.1-1.08-.07-1.08-.07h-1.18l-1.15.03-1.15.07-1.12.14-1.12.14-1.12.2-1.08.24-1.08.27-1.08.3-1.05.34-1.05.37-1.02.41-1.02.44-.98.51-.95.51-.95.54-.95.58-.88.61-.88.61-.88.68-.81.68-.81.74-.81.74-.74.78-.74.78-.71.81-.68.85-.64.88-.64.91-.58.91-.58.91-.51.98-.54,1.15-.51,1.18-.47,1.18-.41,1.22-.41,1.25-.37,1.25-.31,1.25-.3,1.29-.07.47-.07.47-.07.51-.03.51h18.51ZM67.92,5.62h0v27.68l-1.32-.88-1.39-.85-1.39-.78-1.46-.74-1.45-.71-1.49-.61-1.52-.58-1.56-.54-1.56-.47-1.62-.41-1.62-.34-1.62-.3-1.69-.2-1.66-.17-1.73-.1-1.69-.03-1.42.03-1.39.07-1.39.1-1.35.14-1.35.2-1.35.24-1.32.27-1.32.3-1.29.37-1.29.37-1.29.44-1.22.47-1.25.51-1.18.54-1.18.58-1.18.61,1.25-.31,1.25-.27,1.25-.24,1.29-.17,1.32-.14,1.29-.1,1.32-.03h1.35l1.69.07,1.69.17,1.66.24,1.62.3,1.62.41,1.56.44,1.56.51,1.52.61,1.46.64,1.46.74,1.39.78,1.39.81,1.32.91,1.29.95,1.22,1.02,1.18,1.05,1.15,1.12,1.08,1.15,1.05,1.22.98,1.25.91,1.32.88,1.32.81,1.39.74,1.42.68,1.46.64,1.49.54,1.49.51,1.56.41,1.59.37,1.59.27,1.66.2,1.62.07.24.03.2h18.61V5.62h-18.34ZM25.04,69.27l.03-.91.07-.91.1-.91.17-.88.2-.88.24-.88.27-.81.34-.85.37-.78.37-.78.44-.78.47-.71.51-.71.54-.71.58-.64.58-.64.64-.58.64-.58.71-.54.71-.51.71-.47.78-.44.78-.37.78-.37.85-.34.81-.27.88-.24.88-.2.88-.17.91-.1.91-.07.91-.03.95.03.91.07.91.1.88.17.88.2.85.24.85.27.81.34.81.37.78.37.74.44.74.47.71.51.68.54.64.58.64.58.61.64.54.64.54.71.51.71.47.71.44.78.41.78.34.78.34.85.27.81.27.88.17.88.17.88.14.91.07.91v1.86l-.07.91-.14.91-.17.88-.17.88-.27.85-.27.85-.34.81-.34.81-.41.78-.44.74-.47.74-.51.71-.54.68-.54.64-.61.64-.64.61-.64.54-.68.54-.71.51-.74.47-.74.44-.78.41-.81.34-.81.34-.85.27-.85.27-.88.2-.88.14-.91.14-.91.07h-1.86l-.91-.07-.91-.14-.88-.14-.88-.2-.88-.27-.81-.27-.85-.34-.78-.34-.78-.41-.78-.44-.71-.47-.71-.51-.71-.54-.64-.54-.64-.61-.58-.64-.58-.64-.54-.68-.51-.71-.47-.74-.44-.74-.37-.78-.37-.81-.34-.81-.27-.85-.24-.85-.2-.88-.17-.88-.1-.91-.07-.91-.03-.95Z"></path><polygon class="cls-3" points="65.25 108.9 68.29 108.9 68.29 109.34 67.04 109.34 67.04 112.62 66.53 112.62 66.53 109.34 65.25 109.34 65.25 108.9"></polygon><polygon class="cls-3" points="71.71 112.62 71.71 110.42 71.71 110.05 71.71 109.48 70.66 112.62 70.15 112.62 69.1 109.51 69.1 110.05 69.1 110.42 69.1 112.62 68.63 112.62 68.63 108.9 69.34 108.9 70.39 112.05 70.42 112.05 71.47 108.9 72.18 108.9 72.18 112.62 71.71 112.62"></polygon></g></g></svg>