<svg xmlns="http://www.w3.org/2000/svg" id="Capa_1" data-name="Capa 1" viewBox="0 0 480 125.27"><defs><style>      .cls-1 {        opacity: .7;      }      .cls-2 {        fill: #fff;        stroke-width: 0px;      }    </style></defs><g class="cls-1"><path class="cls-2" d="M37.38,66.5c27.76,1.76,42.74,21.16,35.34,44.69-2.03,6.47-5.09,9.44-12.32,9.24-17.42-.49-34.88-.41-52.31-.03C1.8,120.54-.06,118.58.01,112.3.33,85.63.38,58.95,0,32.29c-.1-7.43,3.8-9.51,9.76-10.33,19.48-2.68,36.98,19.12,30.45,37.93-.77,2.21-1.83,4.31-2.83,6.61Z"></path><path class="cls-2" d="M101.14,121.7c12.67-21.98,12.07-41.3-.11-57.11-10.8-14.01-22.61-16.52-47.3-9.35,5.86-10.56,8.91-21.08,5.22-32.02C55.1,11.8,46.16,5.2,32.81.05,60.15.05,85.06.11,109.97,0c4.4-.02,4.91,2.33,4.9,5.86-.06,36.23,0,72.46-.06,108.69-.02,10.28-7.98,3.67-13.66,7.15Z"></path><path class="cls-2" d="M184.45,59.54c11.17,7,14.34,13.85,11.11,24.25-3.16,10.14-10.64,14.46-20.99,14.47-10.61,0-21.24-.08-31.84.25-4.92.15-7.22-.66-7.1-6.55.41-19.85.3-39.72.06-59.58-.06-5.02.73-7.57,6.6-7.25,9.9.54,19.85.44,29.78.44,8.9,0,15.94,2.8,19.71,11.61,3.91,9.15-.33,15.7-7.31,22.36ZM164.09,85.9c6.59-.79,16.48,2.8,17.07-8.66.63-12.05-9.66-9.68-17-10.65-1.01-.13-2.07.09-3.06-.07-8.04-1.35-10.57,1.3-11.04,10.06-.68,12.8,7.53,8.69,14.03,9.33ZM161.74,37.45c-2.78,1.56-8.93-3.56-11.15,3.11-3.28,9.89.22,14.24,10.71,14.08,3.07-.05,6.19,0,9.2-.54,4.7-.83,8.52-2.97,8.43-8.58-.1-5.7-4.13-7.41-8.84-8.02-2.35-.31-4.78-.05-8.35-.05Z"></path><path class="cls-2" d="M283.95,70.5c0-6.5-.22-13.02.1-19.5.13-2.7-2.02-6.87,2.39-7.78,3.18-.66,9.01-.8,9.64.61,2.5,5.61,4.48,2.81,7.76,1.14,7.38-3.78,15.28-4.58,22.02,1.11,3.37,2.85,5.3,2.59,8.46.16,6.91-5.31,14.67-5.32,22.15-1.6,7.17,3.56,7.83,10.43,7.67,17.61-.23,10.26-.43,20.55.08,30.79.3,6.18-2.76,6.35-7.42,6.35-4.74,0-7.67-.39-7.33-6.51.54-9.55.19-19.16.1-28.74-.05-5.08.72-11.09-6.75-11.54-7.9-.48-11,4.84-11.32,11.66-.44,9.22-.51,18.49-.05,27.71.29,5.92-1.73,7.48-7.48,7.51-5.89.03-7.64-1.79-7.36-7.59.46-9.56.14-19.16.12-28.74,0-4.85.43-10.09-6.54-10.59-6.7-.48-10.75,3.34-11.25,9.38-.81,9.86-.93,19.84-.42,29.73.34,6.66-2.05,8.14-8.16,7.78-4.62-.28-6.81-1.17-6.52-6.36.42-7.51.11-15.05.11-22.58Z"></path><path class="cls-2" d="M464.93,91.76c-10.77,7.58-20.79,9.35-30.35,1.73-10.8-8.6-10.84-20.94-8.34-32.82,2.06-9.76,9.39-15.52,19.49-16.99,2.3-.33,4.76-.26,7.04.16,6.21,1.16,11.44,7.13,19,1.23,3.52-2.74,8.42-.66,8.22,6.73-.58,21.83-.48,43.69-.04,65.52.13,6.44-1.7,7.99-7.96,7.94-5.98-.05-7.49-1.94-7.18-7.57.45-8.16.12-16.37.12-25.94ZM465.42,70.74c.17-9.86-4.19-15.95-11.69-16.34-8.06-.42-13.25,5.66-13.49,15.81-.24,10.22,4.6,17.07,12.13,17.16,7.44.09,12.88-6.85,13.05-16.63Z"></path><path class="cls-2" d="M422.1,99.64c-6.95-1.32-13.26,2.52-16.76-5.05-.98-2.12-2.78.2-4.18.81-2.47,1.08-4.92,2.38-7.51,2.95-12.73,2.79-22.52-1.97-24.72-11.78-2.06-9.2,3.6-15.46,17.04-18.67,4.3-1.02,8.66-1.78,13.01-2.58,2.44-.45,4.92-.83,4.71-4.1-.18-2.86-1.07-5.54-4.37-6.11-4.72-.82-9.55-1.68-13.41,2.39-.69.73-.97,2.13-1.75,2.45-4.48,1.85-10.17,3-13.29-.12-2.32-2.33,1.63-6.75,4.08-9.49,5.58-6.24,23.82-8.54,33.96-4.79,10.47,3.87,9.87,12.83,9.99,21.32.14,10.51-1.31,21.11,3.21,32.76ZM403.66,79.59c-.34-2.33,1.67-6.87-2.88-5.64-5.94,1.61-14.53-.41-16.57,8.27-1,4.28,2.89,7.08,6.74,7.22,6.56.23,11.91-2.17,12.71-9.85Z"></path><path class="cls-2" d="M263.2,91.83c-6.24,5.42-12.51,7.51-19.69,6.97-9.87-.75-14.98-5.54-15.32-15.55-.39-11.63.12-23.29-.39-34.9-.26-5.84,2.73-5.69,6.87-5.68,4.49,0,7.94-.1,7.66,6.23-.43,9.56.08,19.16.05,28.74-.02,6.09,1.31,11.34,8.63,11.26,6.67-.07,11.06-3.84,11.41-10.73.48-9.56.71-19.16.45-28.72-.15-5.28,1.29-7.02,6.79-6.9,5.41.12,7.99.96,7.78,7.24-.46,13.68-.03,27.38-.23,41.07-.05,3.2,2.25,8.23-4.2,8.35-4.82.09-10.8,1.81-9.8-7.39Z"></path><path class="cls-2" d="M203.15,62.69c0-10.22.27-20.45-.11-30.65-.2-5.33,1.37-7.3,6.84-6.91,4.39.31,7.73-.04,7.62,6.29-.37,20.77-.34,41.55-.02,62.32.09,6.09-2.93,6.12-7.54,6.38-5.44.31-7.08-1.44-6.89-6.78.36-10.2.11-20.43.11-30.65Z"></path></g></svg>