<svg xmlns="http://www.w3.org/2000/svg" id="Capa_1" data-name="Capa 1" viewBox="0 0 480 184.24"><defs><style>      .cls-1 {        opacity: .7;      }      .cls-2, .cls-3 {        fill: #fff;        stroke-width: 0px;      }      .cls-3 {        fill-rule: evenodd;      }    </style></defs><g class="cls-1"><polygon class="cls-3" points="262.37 2.05 5.2 2.05 0 24.72 36.54 24.72 14.72 122.49 45.1 122.49 66.92 24.72 257.18 24.72 262.37 2.05"></polygon><path class="cls-3" d="M145.95,34.07l-14.49,62.66c-3.52,1.89-6.78,3.33-9.8,4.33-3.02,1-5.68,1.5-7.99,1.5-4.67,0-7.84-.77-9.52-2.32-1.68-1.55-2.52-4.05-2.52-7.52,0-1.68.19-3.73.59-6.14.39-2.41.98-5.3,1.77-8.66l10.13-43.85h-28.6l-13.3,57.55c-.47,2.05-.81,3.92-1.02,5.63-.21,1.71-.31,3.56-.31,5.55,0,7.3,2.24,12.81,6.73,16.53,4.48,3.72,10.61,5.59,18.37,5.59,2.47,0,4.96-.22,7.47-.67,2.52-.45,5.3-1.3,8.34-2.56,2.41-.95,4.97-2.22,7.67-3.82,2.7-1.6,5.47-3.32,8.3-5.16l-2.26,9.76h28.52l20.44-88.41h-28.52Z"></path><path class="cls-3" d="M255.73,34.09c-.94-.11-2.03-.18-3.26-.24-1.23-.05-2.35-.08-3.34-.08-5.4,0-10.76,1.24-16.08,3.7-5.32,2.47-10.66,5.67-16,9.6l3.01-12.99h-28.53l-20.5,88.4h28.53l13.73-59.2c3.67-1.21,7.23-2.08,10.69-2.64,3.46-.55,7.05-.83,10.77-.83,2.25,0,4.53.11,6.84.31,2.3.21,4.09.53,5.34.94h2.52s6.29-27,6.29-27Z"></path><path class="cls-3" d="M352.4,62.35h0c0-9.6-2.35-17.12-7.04-22.55-4.7-5.43-11.61-8.15-20.74-8.15-5.67,0-10.79,1.06-15.39,3.19-4.59,2.12-9.43,4.95-14.52,8.46L304.69,0h-28.52l-28.23,122.49h27.38l2.07-4.41c3.04,2.1,6.52,3.65,10.43,4.64,3.91,1,8.33,1.5,13.26,1.5,7.5,0,14.35-1.69,20.54-5.08,6.19-3.38,11.6-7.94,16.21-13.66,4.51-5.62,8.07-12.2,10.66-19.76,2.6-7.56,3.9-15.35,3.9-23.38h0ZM322.41,67.62c0,10.86-2.57,19.75-7.71,26.65-5.14,6.9-12.08,10.35-20.83,10.35-2.57,0-4.87-.22-6.92-.67-2.05-.45-3.98-1.03-5.82-1.77l10.15-44.4c3-1.57,5.83-2.85,8.51-3.82,2.68-.97,5.41-1.46,8.19-1.46,5.3,0,9.03,1.29,11.19,3.86,2.15,2.57,3.23,6.33,3.23,11.26h0Z"></path><path class="cls-3" d="M458.31,66.44h0c0-10.97-3.5-19.56-10.51-25.78-7.01-6.22-17.12-9.33-30.35-9.33-9.03,0-17.17,1.54-24.44,4.61-7.27,3.07-13.4,7.26-18.38,12.56-5.15,5.41-9.03,11.65-11.65,18.74-2.63,7.08-3.94,14.56-3.94,22.44,0,11.13,3.52,19.84,10.55,26.14,7.03,6.3,17.13,9.45,30.31,9.45,9.24,0,17.32-1.46,24.25-4.37,6.93-2.91,13.01-7.07,18.26-12.48,5.04-5.2,8.95-11.41,11.73-18.66,2.78-7.24,4.17-15.01,4.17-23.3M428.79,67.46c0,6.25-.62,11.55-1.85,15.9-1.23,4.36-3.06,8.37-5.47,12.04-2.2,3.31-4.88,5.89-8.03,7.75-3.15,1.86-6.43,2.79-9.84,2.79-4.67,0-8.35-1.3-11.02-3.9-2.68-2.6-4.01-6.91-4.01-12.95,0-5.14.62-10.16,1.85-15.04,1.23-4.88,2.92-8.98,5.08-12.28,2.31-3.57,4.97-6.32,7.99-8.26,3.02-1.94,6.52-2.91,10.51-2.91,5.14,0,8.9,1.46,11.26,4.37,2.36,2.91,3.54,7.07,3.54,12.48Z"></path><polygon class="cls-3" points="159.52 183.68 164 183.68 164 167.94 177.16 167.94 177.16 164.23 164 164.23 164 152.67 178.24 152.67 178.24 148.9 159.52 148.9 159.52 183.68"></polygon><rect class="cls-2" x="200.12" y="148.9" width="4.49" height="34.77"></rect><polygon class="cls-3" points="227.93 183.68 247.27 183.68 247.27 179.91 232.41 179.91 232.41 148.9 227.93 148.9 227.93 183.68"></polygon><polygon class="cls-3" points="271.91 183.68 276.45 183.68 276.45 152.72 287.08 152.72 287.08 148.9 261.33 148.9 261.33 152.72 271.91 152.72 271.91 183.68"></polygon><path class="cls-3" d="M310.91,152.52h0c.72-.21,2.27-.41,4.44-.41,4.75.05,8,2.01,8,6.5,0,3.97-3.04,6.6-7.84,6.6h-4.59v-12.69ZM306.42,183.68h4.49v-15.07h4.23c4.08.16,5.93,1.96,6.96,6.76.98,4.33,1.75,7.27,2.32,8.31h4.64c-.72-1.34-1.55-4.7-2.68-9.54-.83-3.61-2.42-6.09-5.11-7.02v-.15c3.66-1.24,6.55-4.28,6.55-8.87,0-2.68-.98-5.06-2.73-6.6-2.17-1.96-5.26-2.84-10.06-2.84-3.1,0-6.35.26-8.62.72v34.31Z"></path><path class="cls-3" d="M363.54,152h0c7.48,0,11.09,7.22,11.09,14.14,0,7.89-4.02,14.45-11.14,14.45-7.07,0-11.09-6.66-11.09-14.08s3.71-14.5,11.14-14.5h0ZM363.74,148.34c-9.29,0-16.15,7.22-16.15,18.26s6.45,17.64,15.63,17.64,16.15-6.35,16.15-18.31c0-10.32-6.14-17.59-15.63-17.59Z"></path><path class="cls-3" d="M398.93,181.97c1.86,1.24,5.52,2.27,8.87,2.27,8.2,0,12.18-4.69,12.18-10.06s-2.99-7.95-8.87-10.22c-4.8-1.86-6.91-3.46-6.91-6.71,0-2.37,1.81-5.21,6.55-5.21,3.15,0,5.47,1.03,6.6,1.65l1.24-3.66c-1.55-.88-4.13-1.7-7.69-1.7-6.76,0-11.25,4.02-11.25,9.44,0,4.9,3.51,7.84,9.18,9.85,4.69,1.81,6.55,3.66,6.55,6.91,0,3.51-2.68,5.93-7.27,5.93-3.1,0-6.04-1.03-8.05-2.27l-1.14,3.77Z"></path><path class="cls-3" d="M468.53,3.15h0c4.98,0,8.6,4.03,8.6,8.95,0,4.98-3.62,9.02-8.54,8.95-5.05,0-8.74-3.96-8.74-8.95,0-4.92,3.69-8.95,8.61-8.95h.07ZM468.53.9h0c-6.42,0-11.54,4.99-11.54,11.2,0,6.35,5.12,11.27,11.54,11.27,6.49,0,11.47-4.92,11.47-11.27s-4.99-11.2-11.41-11.2h-.07ZM466.82,8.41h0c.27-.07.75-.14,1.43-.14,1.64,0,2.39.68,2.39,1.71,0,1.16-1.16,1.64-2.59,1.64h-1.23v-3.21ZM466.75,13.46h1.23c1.43,0,2.12.55,2.32,1.78.34,1.3.55,2.25.89,2.66h2.8c-.27-.34-.48-1.02-.82-2.73-.34-1.5-.96-2.39-2.05-2.73v-.14c1.37-.41,2.32-1.37,2.32-2.66,0-1.03-.48-1.91-1.09-2.39-.82-.55-1.78-.89-3.89-.89-1.84,0-3.28.21-4.3.41v11.13h2.6v-4.44Z"></path></g></svg>