<svg xmlns="http://www.w3.org/2000/svg" id="Capa_1" data-name="Capa 1" viewBox="0 0 425.25 270"><defs><style>      .cls-1 {        opacity: .7;      }      .cls-2 {        fill: #fff;        stroke-width: 0px;      }    </style></defs><g class="cls-1"><path class="cls-2" d="M321.4,153.84c-4.48,0-7.44,3.58-7.44,7.4v81.96h-67.12v-81.25c-.03-4.09-1.61-8.16-7.45-8.16-4.49,0-8.03,3.55-8.07,6.99v82.42h-66.73V109.27h67.01v12.63s2.51-10.17,13.03-12.08c0,0,15.5-.06,31.48-.06h25.28c5.35,1.9,11.11,4.87,12.62,12.69,2.14-5.41,5.33-11.51,13.65-12.63,0,0,16.03-.06,25-.06,7.19,0,29.81.05,29.81.05,5.23.27,14.03,6.19,14.03,15.69v117.71h-66.95v-80.79c.21-4.13-2.31-8.57-8.15-8.57M67.52,243.2H0V109.74h67.51v133.46Z"></path><rect class="cls-2" y="109.74" width="67.51" height="133.46"></rect><path class="cls-2" d="M396.5,243.21v-117.71c0-9.5-8.8-15.43-14.02-15.7,0,0-22.64-.05-29.82-.05-8.98,0-25.01.07-25.01.07-8.32,1.11-11.52,7.22-13.63,12.62-1.51-7.82-7.26-10.79-12.63-12.69h-25.27c-15.98,0-31.49.07-31.49.07-10.51,1.91-13.02,12.07-13.02,12.07v-12.62h-67.01v133.94h66.73v-82.43c.05-3.44,3.59-6.99,8.07-6.99,5.84,0,7.41,4.07,7.45,8.16v81.26h67.12v-81.97c0-3.82,2.96-7.4,7.44-7.4,5.84,0,8.37,4.46,8.15,8.57v80.81h66.95Z"></path><g><path class="cls-2" d="M230.17,26.98H0v16.55h54.18c4.31,0,8.14,2.03,10.61,5.18,1.8,2.29,2.88,5.16,2.88,8.3h0v6.75c0,.47-.02.92-.07,1.38-.69,6.79-6.43,12.1-13.41,12.1H0v16.6h82.41l.2,149.38h66.7l-.19-149.38h81.05V26.98Z"></path><path class="cls-2" d="M54.18,77.23h0c6.98,0,12.72-5.31,13.41-12.1-.69,6.79-6.43,12.1-13.42,12.1Z"></path><path class="cls-2" d="M67.66,57c0-3.13-1.08-6.01-2.88-8.3,1.8,2.29,2.88,5.17,2.88,8.31h0Z"></path></g><path class="cls-2" d="M386.5,0H0v10.11h386.5c15.79,0,28.64,12.85,28.64,28.64v192.5c0,15.8-12.85,28.65-28.64,28.65H0v10.1h386.5c21.37,0,38.75-17.38,38.75-38.75V38.75c0-21.37-17.38-38.75-38.75-38.75"></path></g></svg>