<svg xmlns="http://www.w3.org/2000/svg" xmlns:xlink="http://www.w3.org/1999/xlink" id="Capa_1" data-name="Capa 1" viewBox="0 0 480 78.37"><defs><style>      .cls-1 {        filter: url(#drop-shadow-1);        opacity: .7;      }      .cls-2 {        fill: #fff;        stroke-width: 0px;      }    </style><filter id="drop-shadow-1" filterUnits="userSpaceOnUse"><feGaussianBlur stdDeviation="5"></feGaussianBlur></filter></defs><g class="cls-1"><path class="cls-2" d="M54.01.43c-2.86,3.01-5.35,5.69-9.01,7.35-8.69,3.93-16.19,9.47-21,17.98-5.59,9.88-4.69,19.49,1.31,28.94,5.02,7.91,12.38,12.87,20.65,16.57,3.37,1.51,5.21,4.36,8.23,6.84-3.98-.15-7.37-.62-10.75-1.26-11.14-2.1-21.49-6.02-30.43-13.18-5.75-4.61-10-10.36-11.97-17.48-2.73-9.86.03-18.53,6.6-26.11,5.99-6.91,13.67-11.35,22.09-14.58,7.67-2.94,15.66-4.47,24.27-5.07Z"></path><path class="cls-2" d="M99.58,35.75c0,.74,0,1.41,0,2.08,0,6.24-.04,12.48.03,18.72.02,1.35-.36,1.78-1.72,1.71-2.31-.11-4.63-.07-6.95,0-1.06.03-1.46-.24-1.45-1.38.04-11.71.04-23.42,0-35.12,0-1.26.47-1.49,1.58-1.47,3.41.06,6.82.07,10.23,0,1.16-.03,1.68.43,2.14,1.42,2.9,6.22,5.87,12.41,8.82,18.61.24.51.53,1.01.84,1.61.53-.55.32-1.15.32-1.66.02-6.11.04-12.22-.01-18.33-.01-1.22.27-1.72,1.6-1.66,2.38.11,4.76.07,7.14.01,1.03-.03,1.3.34,1.3,1.34-.03,11.77-.03,23.54,0,35.32,0,.99-.26,1.35-1.29,1.33-3.41-.06-6.82-.08-10.23.01-1.16.03-1.59-.55-1.95-1.43-2.92-7.13-6.65-13.89-9.84-20.89-.03-.08-.21-.08-.55-.2Z"></path><path class="cls-2" d="M205.54,39.33c0-5.79,0-11.59,0-17.38,0-.71-.29-1.67.99-1.64,6.24.13,12.53-.61,18.7.37,10.19,1.63,16.08,9.77,15.1,20.12-.63,6.66-3.52,11.74-9.52,15.12-2.75,1.55-5.57,2.19-8.56,2.28-5.02.15-10.04-.01-15.06.07-1.41.02-1.7-.46-1.68-1.76.06-5.73.03-11.46.03-17.19ZM216.09,39.02c0,1.67,0,3.34,0,5.01q0,4.28,4.26,4.27c6.29,0,9.49-3.31,9.28-9.58-.19-5.71-2.99-8.61-8.65-8.94-1.09-.06-2.19.05-3.27-.04-1.22-.11-1.7.25-1.65,1.57.11,2.56.03,5.14.03,7.7Z"></path><path class="cls-2" d="M201.46,58.24c-3.73,0-7.24-.02-10.75.01-.85,0-1.1-.55-1.32-1.16-1.25-3.38-3.22-6.42-4.63-9.72-.5-1.18-1.18-1.74-2.48-1.53-.57.09-1.17.08-1.73,0-1.34-.18-1.76.3-1.72,1.68.11,3.02-.04,6.05.07,9.08.05,1.41-.44,1.73-1.75,1.67-2.44-.1-4.89-.08-7.34,0-1.1.03-1.44-.33-1.43-1.42.03-11.72.03-23.44,0-35.15,0-1.12.37-1.42,1.45-1.41,6.05.08,12.1,0,18.15.16,6.03.17,10.46,3.29,11.94,8.1,1.73,5.64.04,10.77-4.91,14.46-1,.75-.67,1.23-.27,2.02,2.19,4.33,4.82,8.45,6.73,13.22ZM183,37.39c1.09,0,2.18.06,3.27-.01,2.16-.15,3.6-1.67,3.63-3.73.03-2.04-1.18-3.47-3.36-3.73-1.39-.17-2.81-.13-4.22-.14-3.46-.02-3.46,0-3.46,3.39q0,4.24,4.14,4.23Z"></path><path class="cls-2" d="M260.13,40.82c.04-12.22,5.65-19.2,15.31-20.97,7.66-1.4,15.2,1.92,19.33,8.44.68,1.07.81,1.69-.51,2.35-1.96.96-3.84,2.09-5.71,3.23-.92.57-1.38.44-1.93-.51-1.33-2.33-3.27-3.99-6.01-4.42-4.11-.64-7.34,1.25-8.87,5.16-1.3,3.32-1.25,6.68.05,9.97,1.21,3.04,3.39,5,6.77,5.24,3.3.24,5.82-1.27,7.28-4.11.94-1.83,1.78-1.96,3.42-1,1.77,1.03,3.69,1.83,5.56,2.67.86.38.95.81.49,1.61-5.43,9.51-14.63,13.38-24.82,8.56-7.28-3.44-10.48-10.05-10.37-16.22Z"></path><path class="cls-2" d="M60.75,78.22c-.88.28-1.55.2-2.18-.44-5.96-6.06-11.34-12.58-14.95-20.35-6.76-14.54-5.4-28.54,3.1-41.99,3.34-5.28,7.36-10.01,11.69-14.49.18-.18.38-.35.58-.51.49-.37,1.11-.66,1.58-.22.45.43-.09.95-.33,1.35-2.59,4.3-4.62,8.86-6.19,13.63-3.61,10.99-4.41,22.25-3.11,33.7,1.15,10.15,4.2,19.67,9.48,28.45.15.26.22.56.34.87Z"></path><path class="cls-2" d="M370.44,38.54c2.32,0,4.64.03,6.95-.01.89-.01,1.39.1,1.45,1.21.32,6.46-1.61,11.86-6.91,15.9-5.77,4.4-11.91,4.21-18.06,1.34-2.61-1.22-4.72-3.42-6.4-5.92-5.14-7.67-4.29-19.93,1.89-26.41,6.98-7.32,20.09-6.56,26.12,1.48.57.76.76,1.24-.2,1.81-.99.59-1.84,1.7-2.87,1.87-1.08.17-1.47-1.37-2.23-2.1-5.36-5.12-14.61-3.89-18.41,2.47-3.75,6.3-2.76,16.04,2.24,20.56,3.52,3.18,7.7,3.63,12.1,2.27,4.03-1.25,6.44-4.03,7.38-8.16.28-1.25.11-1.73-1.32-1.68-2.89.1-5.79-.03-8.69.06-1.24.04-1.84-.29-1.62-1.59.01-.06,0-.13,0-.19q-.03-2.89,2.78-2.89c1.93,0,3.86,0,5.79,0Z"></path><path class="cls-2" d="M384.83,39.28c0-5.73.05-11.46-.03-17.18-.02-1.41.3-1.88,1.79-1.83,3.4.1,3.41.01,3.41,3.47,0,3.48.04,6.95-.02,10.43-.02,1.12.35,1.41,1.43,1.4,5.6-.05,11.2-.06,16.8,0,1.23.01,1.51-.42,1.49-1.56-.06-3.99.03-7.98-.05-11.97-.03-1.3.27-1.79,1.68-1.77,3.62.05,3.62-.03,3.62,3.66,0,10.81-.03,21.62.03,32.44,0,1.51-.36,1.97-1.91,1.92-3.39-.11-3.4-.02-3.4-3.49,0-4.18-.05-8.37.03-12.55.03-1.38-.26-1.92-1.78-1.89-5.4.09-10.81.08-16.22,0-1.34-.02-1.75.35-1.73,1.71.08,4.89,0,9.78.06,14.67.01,1.16-.28,1.54-1.49,1.54-3.7,0-3.7.06-3.7-3.55,0-5.15,0-10.3,0-15.45Z"></path><path class="cls-2" d="M464.73,19.64c5.97.03,10.3,1.76,13.75,5.56.71.78.91,1.34-.17,1.89-.23.12-.45.26-.63.45-1.41,1.48-2.44,1.57-4.11-.08-3.17-3.12-7.25-3.69-11.5-2.64-2.46.61-3.9,2.37-4.05,4.58-.15,2.27.99,3.88,3.53,4.94,2.21.92,4.56,1.31,6.86,1.93,1.93.52,3.84,1.07,5.65,1.92,6.7,3.19,7.93,11.4,2.68,16.7-2.72,2.75-5.97,3.82-9.61,4.03-6.11.36-11.12-1.83-14.98-6.63-.86-1.07-1.09-1.84.38-2.46.17-.07.34-.18.48-.31,1.49-1.36,2.46-1.44,4.05.36,3.52,3.99,8.22,4.78,13.23,3.32,2.81-.82,4.34-3.02,4.34-5.7,0-2.49-1.18-4.08-4.2-5.07-2.74-.89-5.59-1.47-8.37-2.25-1.23-.35-2.46-.76-3.62-1.3-3.57-1.67-5.62-4.37-5.61-8.46.01-4.1,1.68-7.2,5.35-9.12,2.32-1.22,4.81-1.76,6.55-1.67Z"></path><path class="cls-2" d="M255.3,39.17c0,5.85-.05,11.71.03,17.56.02,1.37-.5,1.57-1.67,1.54-2.31-.07-4.64-.12-6.95.01-1.47.08-1.84-.38-1.83-1.81.06-9.59.03-19.17.03-28.76,0-1.99.05-3.99-.02-5.98-.04-1.06.26-1.48,1.4-1.45,2.51.08,5.02.09,7.53,0,1.22-.05,1.51.36,1.5,1.53-.06,5.79-.03,11.58-.03,17.37Z"></path><path class="cls-2" d="M432.31,41.68c0-4.96-.04-9.91.03-14.87.02-1.27-.38-1.68-1.65-1.65-3.02.08-6.05-.03-9.08.05-1.26.04-1.65-.33-1.64-1.61.02-3.31-.05-3.31,3.17-3.31,8.3,0,16.61.04,24.91-.03,1.47-.01,2.17.31,1.9,1.88-.06.38-.06.78,0,1.16.23,1.47-.27,2-1.85,1.93-2.89-.14-5.8.04-8.69-.07-1.49-.06-1.98.34-1.96,1.91.07,9.66,0,19.31.08,28.97.01,1.7-.33,2.55-2.18,2.22-.44-.08-.91-.07-1.35,0-1.36.2-1.74-.35-1.72-1.7.08-4.96.03-9.91.03-14.87Z"></path><path class="cls-2" d="M301.5,39.29c0-5.72.04-11.45-.03-17.17-.02-1.39.28-1.9,1.78-1.86,3.37.08,3.37,0,3.37,3.29,0,9.19.04,18.39-.04,27.58-.01,1.48.41,1.82,1.83,1.8,5.66-.08,11.32,0,16.97-.06,1.26-.01,1.63.32,1.62,1.6-.03,3.77.03,3.77-3.67,3.77-6.69,0-13.37-.04-20.06.04-1.45.02-1.84-.37-1.82-1.82.09-5.72.04-11.44.04-17.17Z"></path><path class="cls-2" d="M337.78,39.26c0,5.73-.05,11.45.03,17.18.02,1.43-.33,1.88-1.81,1.84-3.43-.09-3.44,0-3.44-3.46,0-10.81.04-21.62-.04-32.42-.01-1.67.36-2.23,2.11-2.14,3.14.15,3.14.04,3.14,3.18,0,5.28,0,10.55,0,15.83Z"></path><path class="cls-2" d="M57.89,65.12c-.74-.67-.42-1.35-.07-2.08,6.01-12.5,7.28-25.42,3.48-38.81-.85-2.98-2.02-5.82-3.4-8.58-.36-.73-.74-1.37-.12-2.11,4.48,3.4,9.62,14.1,10.45,21.6,1.34,12.13-4.75,24.83-10.34,29.99Z"></path><path class="cls-2" d="M146.04,19.68c-11.27,0-19.18,8.06-19.06,19.49.12,11.37,8.26,19.81,19.1,19.84,10.95.03,19.27-8.94,19.16-19.97-.12-11.48-7.82-19.35-19.19-19.35ZM145.45,48.7c-3.07-.13-5.23-1.71-6.49-4.42-1.64-3.52-1.59-7.12.12-10.61,1.4-2.86,3.85-4.33,7-4.31,3.21.02,5.68,1.48,7.13,4.43.83,1.7,1.26,3.5,1.16,5.29-.02,6.16-3.47,9.85-8.91,9.61Z"></path></g></svg>