<svg xmlns="http://www.w3.org/2000/svg" id="Capa_1" data-name="Capa 1" viewBox="0 0 452.12 270"><defs><style>      .cls-1 {        opacity: .7;      }      .cls-2, .cls-3 {        fill: #fff;        stroke-width: 0px;      }      .cls-3 {        fill-rule: evenodd;      }    </style></defs><g class="cls-1"><path class="cls-2" d="M404.34,270c-13.82,0-206.19-.7-322.29-1.12l-82.05-.29,1.41-8.76c5.46-34.01,18.39-114.46,20.44-126.86,1.88-11.35,18.22-106.1,22.36-127.29l1.11-5.68,406.8,1.6-1.06,7.9c-2.3,17.19-15.03,99-25.26,164.74-6.33,40.69-11.8,75.84-13.89,89.8l-.89,5.91-5.98.05c-.12,0-.35,0-.71,0ZM16.42,254.65l65.68.24c101.19.37,281.67,1.02,316.88,1.11,2.53-16.6,7.43-48.11,13-83.91,9.09-58.42,20.16-129.56,24.1-156.55l-379.2-1.49c-5.33,28.66-19.47,110.71-21.21,121.21-1.91,11.54-13.29,82.35-19.24,119.39Z"></path><path class="cls-3" d="M252.52,230.54l-50.06.7c3.55-31.57,9.91-65.07,14.82-96.71l15.45-96.01,50.75.19-30.95,191.84Z"></path><path class="cls-2" d="M201.79,231.84l.08-.67c2.43-21.59,6.21-44.29,9.86-66.24,1.68-10.07,3.41-20.48,4.96-30.5l15.53-96.51h.51s51.44.2,51.44.2l-.11.68-31.03,192.33-51.23.71ZM233.22,39.11l-15.36,95.51c-1.55,10.02-3.29,20.44-4.96,30.51-3.62,21.71-7.35,44.15-9.78,65.51l48.89-.68,30.76-190.66-49.55-.19Z"></path><path class="cls-3" d="M154.74,231.27l-34.47.04-3.64-112.89c-4.6,8.57-21.84,99.5-26.57,111.32l-49.54.21L77.43,36.46l77.76-.4,1.2,107.15c9.26-12.79,56.23-87.68,66.42-104.62-.51,4.24-11.56,79.84-15.65,102.75-33.59,58.09-34.44,60.95-52.43,89.93Z"></path><path class="cls-2" d="M119.7,231.91l-.02-.57-3.55-110.04c-2.82,8.54-8.05,32.72-13.14,56.19-5.22,24.1-10.14,46.87-12.39,52.48l-.15.37-50.66.21.14-.71L76.94,35.87h.49s78.35-.41,78.35-.41l1.19,105.91c11.2-16.09,55.12-86.1,65.34-103.09l1.42-2.37-.33,2.74c-.5,4.19-11.5,79.52-15.65,102.78l-.07.19c-11.81,20.43-19.7,34.24-25.46,44.33-10.83,18.97-15.32,26.82-26.98,45.62l-.17.28-35.37.05ZM117.15,116.2l3.69,114.52,33.57-.04c11.52-18.58,16.01-26.44,26.78-45.31,5.75-10.07,13.63-23.86,25.41-44.24,3.78-21.23,13.18-85.17,15.24-99.79-12.87,21.16-56.19,90.1-64.96,102.22l-1.05,1.45-1.22-108.36-76.69.4-36.69,192.31,48.42-.2c2.27-6.1,7.09-28.37,12.19-51.92,5.8-26.79,11.79-54.48,14.27-59.1l1.04-1.94Z"></path><path class="cls-3" d="M287.91,79.3l7.27-41.15c22-.09,44.57-.77,66.4-.36,38.92.72,51.74,53.11,14.74,88.27-9.17,8.71-27.04,13.08-41.77,19.17,16.29,26.32,35.38,54.11,39.84,85.63l-63.13.96c-1.55-23.9-10.36-66.62-35.15-76.99l7.36-42.86c6.58-.55,12.57-.07,18.4.13,54.91,1.89,40.71-30.76,22.23-32.81-11.57-1.29-26.67-.2-36.18.03Z"></path><path class="cls-2" d="M310.71,232.42l-.04-.56c-.42-6.52-4.98-64.01-34.78-76.48l-.44-.18,7.51-43.78.46-.04c5.28-.44,10.17-.23,14.91-.02,1.2.05,2.38.1,3.56.14,23.1.79,37.34-4.79,38.08-14.93.55-7.61-7.19-15.73-15.94-16.71-8.96-1-20.11-.56-29.06-.21-2.56.1-4.94.19-7.04.24l-.72.02,7.49-42.35h.49c7.71-.03,15.63-.14,23.28-.24,14.23-.19,28.94-.39,43.13-.12,15.68.29,28.46,9.24,34.17,23.94,8.15,20.97.68,46.62-19.04,65.35-6.74,6.4-18.22,10.53-29.33,14.53-3.99,1.44-8.11,2.92-11.97,4.49,1.51,2.44,3.05,4.89,4.59,7.36,15.21,24.29,30.93,49.41,34.96,77.9l.09.67-64.37.98ZM276.78,154.46c29.35,12.8,34.42,68,35.04,76.75l61.9-.94c-4.15-27.97-19.68-52.78-34.7-76.78-1.67-2.67-3.33-5.32-4.96-7.96l-.37-.59.64-.27c4.07-1.68,8.44-3.25,12.67-4.77,11-3.96,22.37-8.05,28.92-14.27,19.36-18.4,26.72-43.55,18.75-64.06-5.61-14.45-17.67-22.9-33.09-23.19-14.17-.26-28.87-.07-43.09.13-7.49.1-15.24.2-22.8.24l-7.06,39.95c1.92-.05,4.04-.14,6.3-.23,8.99-.35,20.18-.79,29.24.22,9.5,1.06,17.59,9.62,16.99,17.97-.38,5.21-4.98,17.22-39.3,16.03-1.18-.04-2.37-.09-3.57-.14-4.55-.2-9.26-.41-14.3-.02l-7.2,41.95Z"></path></g></svg>