<svg xmlns="http://www.w3.org/2000/svg" xmlns:xlink="http://www.w3.org/1999/xlink" id="Capa_1" x="0px" y="0px" viewBox="0 0 480 270" style="enable-background:new 0 0 480 270;" xml:space="preserve"><style type="text/css">	.st0{opacity:0.7;}	.st1{fill:#FFFFFF;}</style><g id="XMLID_00000006700862889268629770000000070437961703639976_" class="st0">	<g>		<path id="XMLID_00000129891544770319519390000011166451768887181481_" class="st1" d="M54.01,96.25   c-2.86,3.01-5.35,5.69-9.01,7.35c-8.69,3.93-16.19,9.47-21,17.98c-5.59,9.88-4.69,19.49,1.31,28.94   c5.02,7.91,12.38,12.87,20.65,16.57c3.37,1.51,5.21,4.36,8.23,6.84c-3.98-0.15-7.37-0.62-10.75-1.26   c-11.14-2.1-21.49-6.02-30.43-13.18c-5.75-4.61-10-10.36-11.97-17.48c-2.73-9.86,0.03-18.53,6.6-26.11   c5.99-6.91,13.67-11.35,22.09-14.58C37.41,98.38,45.4,96.85,54.01,96.25z"></path>		<path id="XMLID_00000087403441602722587170000006492503924195349648_" class="st1" d="M99.58,131.57c0,0.74,0,1.41,0,2.08   c0,6.24-0.04,12.48,0.03,18.72c0.02,1.35-0.36,1.78-1.72,1.71c-2.31-0.11-4.63-0.07-6.95-0.01c-1.06,0.03-1.46-0.24-1.45-1.38   c0.04-11.71,0.04-23.42,0-35.12c0-1.26,0.47-1.49,1.58-1.47c3.41,0.06,6.82,0.07,10.23-0.01c1.16-0.03,1.68,0.43,2.14,1.42   c2.9,6.22,5.87,12.41,8.82,18.61c0.24,0.51,0.53,1.01,0.84,1.61c0.53-0.55,0.32-1.15,0.32-1.66c0.02-6.11,0.04-12.22-0.01-18.33   c-0.01-1.22,0.27-1.72,1.6-1.66c2.38,0.11,4.76,0.07,7.14,0.01c1.03-0.03,1.3,0.34,1.3,1.34c-0.03,11.77-0.03,23.54,0,35.32   c0,0.99-0.26,1.35-1.29,1.33c-3.41-0.06-6.82-0.08-10.23,0.01c-1.16,0.03-1.59-0.55-1.95-1.43c-2.92-7.13-6.65-13.89-9.84-20.89   C100.09,131.69,99.91,131.69,99.58,131.57z"></path>		<path id="XMLID_00000162318836347046098080000007357026224794410413_" class="st1" d="M205.54,135.14   c0-5.79-0.01-11.59,0.01-17.38c0-0.71-0.29-1.67,0.99-1.64c6.24,0.13,12.53-0.61,18.7,0.37c10.19,1.63,16.08,9.77,15.1,20.12   c-0.63,6.66-3.52,11.74-9.52,15.12c-2.75,1.55-5.57,2.19-8.56,2.28c-5.02,0.15-10.04-0.01-15.06,0.07   c-1.41,0.02-1.7-0.46-1.68-1.76C205.58,146.6,205.55,140.87,205.54,135.14z M216.09,134.83c0,1.67,0,3.34,0,5.01   c0,4.28,0,4.28,4.26,4.27c6.29,0,9.49-3.31,9.28-9.58c-0.19-5.71-2.99-8.61-8.65-8.94c-1.09-0.06-2.19,0.05-3.27-0.04   c-1.22-0.11-1.7,0.25-1.65,1.57C216.17,129.69,216.09,132.27,216.09,134.83z"></path>		<path id="XMLID_00000082326204535467775800000006408648009232253854_" class="st1" d="M201.46,154.05   c-3.73,0-7.24-0.02-10.75,0.01c-0.85,0.01-1.1-0.55-1.32-1.16c-1.25-3.38-3.22-6.42-4.63-9.72c-0.5-1.18-1.18-1.74-2.48-1.53   c-0.57,0.09-1.17,0.08-1.73,0c-1.34-0.18-1.76,0.3-1.72,1.68c0.11,3.02-0.04,6.05,0.07,9.08c0.05,1.41-0.44,1.73-1.75,1.67   c-2.44-0.1-4.89-0.08-7.34,0c-1.1,0.03-1.44-0.33-1.43-1.42c0.03-11.72,0.03-23.44,0-35.15c0-1.12,0.37-1.42,1.45-1.41   c6.05,0.08,12.1-0.01,18.15,0.16c6.03,0.17,10.46,3.29,11.94,8.1c1.73,5.64,0.04,10.77-4.91,14.46c-1,0.75-0.67,1.23-0.27,2.02   C196.92,145.16,199.55,149.28,201.46,154.05z M183,133.2c1.09,0,2.18,0.06,3.27-0.01c2.16-0.15,3.6-1.67,3.63-3.73   c0.03-2.04-1.18-3.47-3.36-3.73c-1.39-0.17-2.81-0.13-4.22-0.14c-3.46-0.02-3.46-0.01-3.46,3.39   C178.86,133.21,178.86,133.21,183,133.2z"></path>		<path id="XMLID_00000020391922928968715500000006175265534337322375_" class="st1" d="M260.13,136.63   c0.04-12.22,5.65-19.2,15.31-20.97c7.66-1.4,15.2,1.92,19.33,8.44c0.68,1.07,0.81,1.69-0.51,2.35c-1.96,0.96-3.84,2.09-5.71,3.23   c-0.92,0.57-1.38,0.44-1.93-0.51c-1.33-2.33-3.27-3.99-6.01-4.42c-4.11-0.64-7.34,1.25-8.87,5.16c-1.3,3.32-1.25,6.68,0.05,9.97   c1.21,3.04,3.39,5,6.77,5.24c3.3,0.24,5.82-1.27,7.28-4.11c0.94-1.83,1.78-1.96,3.42-1c1.77,1.03,3.69,1.83,5.56,2.67   c0.86,0.38,0.95,0.81,0.49,1.61c-5.43,9.51-14.63,13.38-24.82,8.56C263.23,149.41,260.02,142.79,260.13,136.63z"></path>		<path id="XMLID_00000021101114052348251540000006166812685908576136_" class="st1" d="M60.75,174.03   c-0.88,0.28-1.55,0.2-2.18-0.44c-5.96-6.06-11.34-12.58-14.95-20.35c-6.76-14.54-5.4-28.54,3.1-41.99   c3.34-5.28,7.36-10.01,11.69-14.49c0.18-0.18,0.38-0.35,0.58-0.51c0.49-0.37,1.11-0.66,1.58-0.22c0.45,0.43-0.09,0.95-0.33,1.35   c-2.59,4.3-4.62,8.86-6.19,13.63c-3.61,10.99-4.41,22.25-3.11,33.7c1.15,10.15,4.2,19.67,9.48,28.45   C60.57,173.42,60.63,173.72,60.75,174.03z"></path>		<path id="XMLID_00000127732339204697508180000010185211710217584513_" class="st1" d="M370.44,134.35c2.32,0,4.64,0.03,6.95-0.01   c0.89-0.01,1.39,0.1,1.45,1.21c0.32,6.46-1.61,11.86-6.91,15.9c-5.77,4.4-11.91,4.21-18.06,1.34c-2.61-1.22-4.72-3.42-6.4-5.92   c-5.14-7.67-4.29-19.93,1.89-26.41c6.98-7.32,20.09-6.56,26.12,1.48c0.57,0.76,0.76,1.24-0.2,1.81c-0.99,0.59-1.84,1.7-2.87,1.87   c-1.08,0.17-1.47-1.37-2.23-2.1c-5.36-5.12-14.61-3.89-18.41,2.47c-3.75,6.3-2.76,16.04,2.24,20.56c3.52,3.18,7.7,3.63,12.1,2.27   c4.03-1.25,6.44-4.03,7.38-8.16c0.28-1.25,0.11-1.73-1.32-1.68c-2.89,0.1-5.79-0.03-8.69,0.06c-1.24,0.04-1.84-0.29-1.62-1.59   c0.01-0.06,0-0.13,0-0.19c-0.03-2.89-0.03-2.89,2.78-2.89C366.58,134.35,368.51,134.35,370.44,134.35z"></path>		<path id="XMLID_00000004531034702653087850000010107853258453111954_" class="st1" d="M384.83,135.09   c0-5.73,0.05-11.46-0.03-17.18c-0.02-1.41,0.3-1.88,1.79-1.83c3.4,0.1,3.41,0.01,3.41,3.47c0,3.48,0.04,6.95-0.02,10.43   c-0.02,1.12,0.35,1.41,1.43,1.4c5.6-0.05,11.2-0.06,16.8,0c1.23,0.01,1.51-0.42,1.49-1.56c-0.06-3.99,0.03-7.98-0.05-11.97   c-0.03-1.3,0.27-1.79,1.68-1.77c3.62,0.05,3.62-0.03,3.62,3.66c0,10.81-0.03,21.62,0.03,32.44c0.01,1.51-0.36,1.97-1.91,1.92   c-3.39-0.11-3.4-0.02-3.4-3.49c0-4.18-0.05-8.37,0.03-12.55c0.03-1.38-0.26-1.92-1.78-1.89c-5.4,0.09-10.81,0.08-16.22,0.01   c-1.34-0.02-1.75,0.35-1.73,1.71c0.08,4.89,0,9.78,0.06,14.67c0.01,1.16-0.28,1.54-1.49,1.54c-3.7,0-3.7,0.06-3.7-3.55   C384.83,145.39,384.83,140.24,384.83,135.09z"></path>		<path id="XMLID_00000181774923458511993800000016119722156023826071_" class="st1" d="M464.73,115.45   c5.97,0.03,10.3,1.76,13.75,5.56c0.71,0.78,0.91,1.34-0.17,1.89c-0.23,0.12-0.45,0.26-0.63,0.45c-1.41,1.48-2.44,1.57-4.11-0.08   c-3.17-3.12-7.25-3.69-11.5-2.64c-2.46,0.61-3.9,2.37-4.05,4.58c-0.15,2.27,0.99,3.88,3.53,4.94c2.21,0.92,4.56,1.31,6.86,1.93   c1.93,0.52,3.84,1.07,5.65,1.92c6.7,3.19,7.93,11.4,2.68,16.7c-2.72,2.75-5.97,3.82-9.61,4.03c-6.11,0.36-11.12-1.83-14.98-6.63   c-0.86-1.07-1.09-1.84,0.38-2.46c0.17-0.07,0.34-0.18,0.48-0.31c1.49-1.36,2.46-1.44,4.05,0.36c3.52,3.99,8.22,4.78,13.23,3.32   c2.81-0.82,4.34-3.02,4.34-5.7c0-2.49-1.18-4.08-4.2-5.07c-2.74-0.89-5.59-1.47-8.37-2.25c-1.23-0.35-2.46-0.76-3.62-1.3   c-3.57-1.67-5.62-4.37-5.61-8.46c0.01-4.1,1.68-7.2,5.35-9.12C460.5,115.9,462.99,115.36,464.73,115.45z"></path>		<path id="XMLID_00000044139381219188705680000012088490948906065337_" class="st1" d="M255.3,134.98c0,5.85-0.05,11.71,0.03,17.56   c0.02,1.37-0.5,1.57-1.67,1.54c-2.31-0.07-4.64-0.12-6.95,0.01c-1.47,0.08-1.84-0.38-1.83-1.81c0.06-9.59,0.03-19.17,0.03-28.76   c0-1.99,0.05-3.99-0.02-5.98c-0.04-1.06,0.26-1.48,1.4-1.45c2.51,0.08,5.02,0.09,7.53-0.01c1.22-0.05,1.51,0.36,1.5,1.53   C255.27,123.4,255.3,129.19,255.3,134.98z"></path>		<path id="XMLID_00000030451213487797392600000015331540176758770622_" class="st1" d="M432.31,137.49c0-4.96-0.04-9.91,0.03-14.87   c0.02-1.27-0.38-1.68-1.65-1.65c-3.02,0.08-6.05-0.03-9.08,0.05c-1.26,0.04-1.65-0.33-1.64-1.61c0.02-3.31-0.05-3.31,3.17-3.31   c8.3,0,16.61,0.04,24.91-0.03c1.47-0.01,2.17,0.31,1.9,1.88c-0.06,0.38-0.06,0.78,0,1.16c0.23,1.47-0.27,2-1.85,1.93   c-2.89-0.14-5.8,0.04-8.69-0.07c-1.49-0.06-1.98,0.34-1.96,1.91c0.07,9.66,0,19.31,0.08,28.97c0.01,1.7-0.33,2.55-2.18,2.22   c-0.44-0.08-0.91-0.07-1.35,0c-1.36,0.2-1.74-0.35-1.72-1.7C432.35,147.41,432.31,142.45,432.31,137.49z"></path>		<path id="XMLID_00000072990722412797675710000000829030305241763771_" class="st1" d="M301.5,135.1c0-5.72,0.04-11.45-0.03-17.17   c-0.02-1.39,0.28-1.9,1.78-1.86c3.37,0.08,3.37,0,3.37,3.29c0,9.19,0.04,18.39-0.04,27.58c-0.01,1.48,0.41,1.82,1.83,1.8   c5.66-0.08,11.32,0,16.97-0.06c1.26-0.01,1.63,0.32,1.62,1.6c-0.03,3.77,0.03,3.77-3.67,3.77c-6.69,0-13.37-0.04-20.06,0.04   c-1.45,0.02-1.84-0.37-1.82-1.82C301.56,146.55,301.5,140.83,301.5,135.1z"></path>		<path id="XMLID_00000056424699521409741610000005993377532546938500_" class="st1" d="M337.78,135.08   c0,5.73-0.05,11.45,0.03,17.18c0.02,1.43-0.33,1.88-1.81,1.84c-3.43-0.09-3.44-0.01-3.44-3.46c0-10.81,0.04-21.62-0.04-32.42   c-0.01-1.67,0.36-2.23,2.11-2.14c3.14,0.15,3.14,0.04,3.14,3.18C337.78,124.53,337.78,129.8,337.78,135.08z"></path>		<path id="XMLID_00000050663480750290170370000000650033662315736466_" class="st1" d="M57.89,160.93   c-0.74-0.67-0.42-1.35-0.07-2.08c6.01-12.5,7.28-25.42,3.48-38.81c-0.85-2.98-2.02-5.82-3.4-8.58c-0.36-0.73-0.74-1.37-0.12-2.11   c4.48,3.4,9.62,14.1,10.45,21.6C69.58,143.08,63.48,155.78,57.89,160.93z"></path>		<path id="XMLID_00000080176090075525014560000002877108045499051920_" class="st1" d="M146.04,115.49   c-11.27,0-19.18,8.06-19.06,19.49c0.12,11.37,8.26,19.81,19.1,19.84c10.95,0.03,19.27-8.94,19.16-19.97   C165.11,123.36,157.41,115.49,146.04,115.49z M145.45,144.52c-3.07-0.13-5.23-1.71-6.49-4.42c-1.64-3.52-1.59-7.12,0.12-10.61   c1.4-2.86,3.85-4.33,7-4.31c3.21,0.02,5.68,1.48,7.13,4.43c0.83,1.7,1.26,3.5,1.16,5.29   C154.35,141.06,150.89,144.75,145.45,144.52z"></path>	</g></g></svg>