<?xml version="1.0" encoding="UTF-8"?>
<svg id="Layer_1" data-name="Layer 1" xmlns="http://www.w3.org/2000/svg" viewBox="0 0 210 36">
  <defs>
    <style>
      .cls-1 {
        fill: #0052ff;
        stroke-width: 0px;
      }
    </style>
  </defs>
  <path class="cls-1" d="m122.58,9.99c0,.54.09.98.28,1.36s.43.69.75.93c.32.24.7.42,1.12.52.42.11.87.16,1.37.16.54,0,.98-.07,1.36-.19s.69-.28.91-.48c.24-.19.4-.42.5-.67s.15-.51.15-.77c0-.54-.12-.93-.36-1.18s-.5-.43-.79-.54c-.5-.19-1.06-.36-1.72-.51-.66-.16-1.47-.36-2.42-.63-.59-.15-1.09-.36-1.48-.62-.39-.24-.71-.52-.94-.83-.24-.31-.4-.65-.5-1-.11-.35-.15-.71-.15-1.06,0-.7.15-1.3.44-1.83.3-.51.67-.94,1.16-1.26.48-.34,1.02-.58,1.64-.75.62-.16,1.22-.24,1.86-.24.73,0,1.41.09,2.04.28s1.21.47,1.69.85c.5.38.87.83,1.16,1.4.28.55.43,1.18.43,1.91h-2.43c-.07-.89-.36-1.52-.91-1.9-.54-.36-1.24-.55-2.08-.55-.28,0-.58.03-.87.09s-.58.15-.82.3c-.26.11-.46.3-.62.54-.16.24-.24.52-.24.87,0,.5.15.87.46,1.16.31.28.71.5,1.2.63.05.01.26.07.62.16.36.09.75.2,1.2.32.44.11.87.24,1.29.34.42.11.73.19.9.24.46.15.85.34,1.18.58.34.24.62.54.85.85.23.32.4.66.5,1.02.11.36.16.73.16,1.09,0,.78-.16,1.44-.48,2-.32.55-.74,1.01-1.26,1.36-.52.35-1.1.61-1.77.77-.67.16-1.33.24-2.03.24-.79,0-1.53-.11-2.25-.3-.71-.19-1.26-.48-1.79-.89s-.93-.93-1.25-1.55c-.31-.62-.47-1.37-.5-2.23h2.47Z"/>
  <path class="cls-1" d="m141.16,8.7c-.03-.35-.11-.69-.23-1.01-.12-.32-.3-.61-.5-.85-.2-.24-.47-.43-.78-.58s-.65-.23-1.02-.23-.75.07-1.06.2c-.32.13-.59.32-.82.56-.23.24-.4.52-.54.85s-.22.67-.23,1.05h5.18Zm-5.18,1.47c0,.39.05.77.16,1.13.11.36.28.69.5.95.23.28.5.5.83.66.34.16.74.24,1.21.24.65,0,1.17-.15,1.57-.42.4-.28.69-.7.87-1.26h2.1c-.11.54-.32,1.04-.61,1.47-.28.43-.62.79-1.04,1.08-.4.3-.85.51-1.36.67-.5.15-1.02.23-1.57.23-.79,0-1.49-.13-2.1-.39-.62-.26-1.13-.62-1.55-1.09-.42-.47-.74-1.02-.95-1.67-.22-.65-.32-1.36-.32-2.14,0-.71.11-1.4.34-2.04.23-.65.55-1.21.97-1.69.42-.48.93-.87,1.52-1.16.59-.28,1.26-.43,2.03-.43s1.51.16,2.12.5c.62.32,1.14.77,1.57,1.3.42.54.71,1.17.9,1.87.19.71.24,1.44.15,2.19.03,0-7.35,0-7.35,0Z"/>
  <path class="cls-1" d="m146.04,4.56h2.08v1.95h.04c.07-.28.19-.54.38-.79.19-.26.42-.5.69-.71.27-.22.56-.39.87-.51.32-.12.66-.19.99-.19.26,0,.44.01.54.03.09.01.19.03.3.04v2.14c-.15-.03-.32-.05-.48-.07-.16-.03-.32-.03-.48-.03-.38,0-.73.07-1.06.23-.32.15-.62.36-.87.67-.24.28-.44.66-.58,1.08-.15.43-.22.93-.22,1.48v4.79h-2.22V4.56h.03Z"/>
  <polygon class="cls-1" points="152.87 4.56 155.29 4.56 157.85 12.27 157.89 12.27 160.34 4.56 162.64 4.56 159.03 14.61 156.55 14.61 152.87 4.56"/>
  <path class="cls-1" d="m165,4.56h2.22v10.06h-2.22V4.56Zm0-3.83h2.22v2.1h-2.22V.72Z"/>
  <path class="cls-1" d="m177.39,7.92c-.09-.62-.34-1.09-.75-1.41-.4-.32-.93-.48-1.55-.48-.28,0-.59.05-.91.15-.32.09-.62.28-.89.54-.28.27-.5.63-.69,1.1-.19.47-.28,1.09-.28,1.86,0,.42.05.83.15,1.25s.26.79.47,1.1c.22.32.5.58.83.79.34.2.75.3,1.22.3.65,0,1.18-.2,1.61-.61.42-.4.69-.97.79-1.69h2.22c-.2,1.3-.71,2.31-1.48,3.01-.79.7-1.83,1.05-3.12,1.05-.79,0-1.48-.13-2.08-.4s-1.12-.62-1.52-1.09c-.4-.46-.73-1.01-.94-1.65-.22-.65-.32-1.32-.32-2.06s.11-1.45.31-2.12.52-1.24.93-1.72c.4-.48.93-.87,1.55-1.14.62-.28,1.34-.42,2.16-.42.58,0,1.14.07,1.65.23.52.15.99.36,1.4.67.4.31.75.67,1.01,1.13.26.46.42,1,.47,1.61,0,.01-2.25.01-2.25.01Z"/>
  <path class="cls-1" d="m182.46,4.56h2.22v10.06h-2.22V4.56Zm0-3.83h2.22v2.1h-2.22V.72Z"/>
  <path class="cls-1" d="m192.67,13.13c.5,0,.93-.11,1.28-.31.36-.2.67-.48.89-.82.24-.34.4-.71.51-1.14.11-.42.16-.85.16-1.29s-.05-.86-.16-1.28-.28-.81-.51-1.14c-.24-.32-.54-.61-.89-.81-.36-.2-.79-.31-1.28-.31s-.93.11-1.28.31c-.36.2-.67.48-.89.81-.24.32-.4.71-.51,1.14-.11.43-.16.86-.16,1.28,0,.44.05.87.16,1.29.11.42.28.79.51,1.14.24.34.54.62.89.82.35.2.77.31,1.28.31Zm0,1.75c-.81,0-1.52-.13-2.15-.4-.63-.27-1.16-.63-1.6-1.09-.43-.47-.77-1.02-1-1.67-.23-.65-.34-1.36-.34-2.14s.11-1.48.34-2.12c.23-.65.55-1.21,1-1.67.43-.47.97-.83,1.6-1.09.62-.27,1.34-.4,2.15-.4s1.52.13,2.15.4c.62.27,1.16.63,1.6,1.09.43.47.77,1.02.99,1.67.23.65.34,1.36.34,2.12s-.11,1.49-.34,2.14c-.23.65-.55,1.21-.99,1.67-.43.47-.97.83-1.6,1.09-.65.27-1.36.4-2.15.4Z"/>
  <path class="cls-1" d="m202.23,11.39c.07.65.31,1.1.74,1.36s.94.39,1.53.39c.2,0,.44-.03.71-.05.27-.03.51-.09.75-.19.24-.09.43-.23.58-.4.15-.17.22-.4.2-.69-.01-.28-.11-.52-.31-.7-.19-.19-.44-.32-.75-.44-.31-.11-.66-.2-1.05-.28s-.79-.16-1.18-.26c-.42-.09-.81-.2-1.2-.32-.38-.13-.73-.31-1.04-.52-.31-.23-.55-.5-.73-.85-.19-.35-.28-.77-.28-1.26,0-.54.13-1.01.4-1.37.27-.36.61-.67,1.01-.89s.86-.39,1.36-.48c.5-.09.97-.13,1.44-.13.52,0,1.01.05,1.48.16.47.11.9.28,1.28.54.38.24.7.56.95.97s.4.87.48,1.44h-2.31c-.11-.54-.35-.89-.73-1.06-.38-.19-.82-.28-1.3-.28-.15,0-.34.01-.55.04-.22.03-.42.07-.61.15-.19.07-.35.17-.48.31s-.19.32-.19.54c0,.28.09.5.28.67.19.17.43.31.74.42.31.11.66.2,1.05.28.39.08.79.16,1.21.26.4.09.79.2,1.18.32.39.13.74.31,1.05.52s.55.5.74.83.28.75.28,1.25c0,.59-.13,1.1-.4,1.52-.28.42-.62.75-1.06,1.01-.43.26-.93.46-1.45.56-.54.11-1.05.17-1.57.17-.63,0-1.22-.07-1.76-.22s-1.01-.36-1.4-.66c-.4-.28-.71-.66-.93-1.09-.23-.43-.35-.95-.36-1.55h2.19Z"/>
  <polygon class="cls-1" points="119.41 21.2 121.94 21.2 125.42 32.19 125.46 32.19 129.02 21.2 131.5 21.2 126.75 35.09 124.05 35.09 119.41 21.2"/>
  <path class="cls-1" d="m133.78,25.03h2.22v10.06h-2.22v-10.06Zm0-3.83h2.22v2.1h-2.22v-2.1Z"/>
  <path class="cls-1" d="m145.6,30.06c-.34.23-.75.36-1.25.4-.5.04-.98.11-1.48.2-.24.04-.46.09-.69.16s-.42.16-.58.28c-.17.12-.3.28-.4.5-.11.2-.15.44-.15.73,0,.24.07.46.22.62.15.17.32.3.51.4.19.11.42.16.67.2s.46.07.66.07c.24,0,.51-.03.79-.11.28-.07.55-.17.81-.32.26-.15.46-.36.63-.59.16-.24.26-.54.26-.87v-1.67Zm2.22,2.8c0,.28.03.47.11.58.07.11.22.17.42.17h.24c.09,0,.19-.01.31-.04v1.53c-.08.03-.17.05-.3.08-.12.03-.24.07-.38.09-.13.03-.26.04-.39.07-.13.01-.24.03-.32.03-.46,0-.83-.09-1.13-.28-.3-.19-.5-.5-.58-.95-.44.43-.98.74-1.63.93-.65.19-1.26.3-1.86.3-.46,0-.89-.07-1.3-.19-.42-.12-.78-.31-1.09-.54-.32-.24-.58-.54-.75-.91-.17-.38-.28-.79-.28-1.29,0-.62.11-1.13.34-1.52s.52-.7.89-.91c.36-.23.79-.38,1.25-.48.46-.11.93-.17,1.4-.23.4-.08.79-.13,1.14-.16.35-.03.69-.09.97-.16.28-.08.5-.19.67-.36.16-.16.24-.4.24-.73,0-.28-.07-.52-.2-.7-.13-.19-.31-.32-.5-.42-.2-.09-.43-.16-.67-.19-.24-.03-.48-.05-.7-.05-.62,0-1.14.13-1.53.39-.4.26-.62.67-.69,1.21h-2.22c.04-.65.19-1.18.47-1.61.28-.43.62-.77,1.05-1.04.42-.26.9-.44,1.44-.54.54-.11,1.08-.15,1.64-.15.5,0,.98.05,1.45.15.47.11.91.28,1.29.5.38.24.69.54.93.9s.35.82.35,1.36l-.08,5.18Z"/>
  <rect class="cls-1" x="151.25" y="21.2" width="2.22" height="13.89"/>
  <path class="cls-1" d="m163.75,29.18c-.03-.35-.11-.69-.23-1.01-.12-.32-.3-.61-.5-.85-.2-.24-.47-.43-.78-.58s-.65-.23-1.02-.23-.75.07-1.06.2c-.32.13-.59.32-.82.56-.23.24-.4.52-.54.85-.13.32-.22.67-.23,1.05h5.18Zm-5.18,1.47c0,.39.05.77.16,1.13.11.36.28.69.5.95.23.28.5.5.83.66.34.16.74.24,1.21.24.65,0,1.17-.15,1.57-.42.4-.28.69-.7.87-1.26h2.1c-.11.54-.32,1.04-.61,1.47-.28.43-.62.79-1.04,1.08-.4.3-.85.51-1.36.67-.5.15-1.02.23-1.57.23-.79,0-1.49-.13-2.1-.39-.62-.26-1.13-.62-1.55-1.09-.42-.47-.74-1.02-.95-1.67-.22-.65-.32-1.36-.32-2.14,0-.71.11-1.4.34-2.04.23-.65.55-1.21.97-1.69.42-.5.93-.87,1.52-1.16.59-.28,1.26-.43,2.03-.43s1.51.16,2.12.5c.62.32,1.14.77,1.57,1.3.42.54.71,1.17.9,1.87.19.7.24,1.44.15,2.19h-7.35Z"/>
  <path class="cls-1" d="m170.31,31.86c.07.65.31,1.1.74,1.36.43.26.94.39,1.53.39.2,0,.44-.03.71-.05.27-.03.51-.09.75-.19.24-.09.43-.23.58-.4.15-.17.22-.4.2-.69s-.11-.52-.31-.7c-.19-.19-.44-.32-.75-.44-.31-.11-.66-.2-1.05-.28-.39-.08-.79-.16-1.18-.26-.42-.09-.82-.2-1.2-.32-.38-.13-.73-.31-1.04-.52s-.55-.5-.73-.85c-.19-.35-.28-.77-.28-1.26,0-.54.13-1.01.4-1.37.27-.36.61-.67,1.01-.89.4-.23.86-.39,1.36-.48.5-.09.97-.13,1.44-.13.52,0,1.01.05,1.48.16.47.11.9.28,1.28.54.38.24.7.56.95.97.26.4.4.87.48,1.44h-2.31c-.11-.54-.35-.89-.73-1.06-.38-.19-.82-.28-1.3-.28-.15,0-.34.01-.55.04-.22.03-.42.07-.61.15-.19.07-.35.17-.48.31-.13.13-.19.32-.19.54,0,.28.09.5.28.67.19.17.43.31.74.42.31.11.66.2,1.05.28s.79.16,1.21.26c.4.09.79.2,1.18.32.39.12.74.31,1.05.52.31.23.55.5.74.83.19.34.28.75.28,1.25,0,.59-.13,1.1-.4,1.52-.28.42-.62.75-1.06,1.01-.43.26-.93.46-1.45.56-.54.11-1.05.17-1.57.17-.63,0-1.22-.07-1.76-.22s-1.01-.36-1.4-.66c-.4-.3-.71-.66-.93-1.09-.23-.43-.35-.95-.36-1.55h2.19Z"/>
  <path class="cls-1" d="m78.03,30.01c-4.44,3.4-8.49,5.14-14.18,5.52-2.54.18-4.86.05-6.09-.28-1.06-.3-2.15-1.54-2.18-3.53l.27-25.52h-25.86c-2.4-.08-4.43.12-6.1.6-1.66.47-2.81,1.19-3.44,2.14-.46.72-.27,1.38.57,2,.83.62,2.44,1.27,4.86,1.92l11.03,3.04c6.87,1.91,11.21,3.67,12.99,5.26,1.8,1.61,1.95,3.55.47,5.86-2.08,3.23-6.05,5.55-11.9,6.93-5.86,1.39-13.88,1.71-23.94,1.62H1.02l.99-5.59h23.18c3.06.09,5.59-.35,7.71-.88,2.14-.53,3.53-1.33,4.21-2.37.57-.89.39-1.66-.53-2.33-.91-.66-2.95-1.45-6.09-2.34l-10.49-2.87c-6.17-1.68-10.15-3.33-11.87-4.91-1.72-1.58-1.83-3.53-.34-5.83,1.83-2.86,5.02-4.97,10.08-6.35,5.05-1.38,11.21-1.57,19.23-1.49h29.64l.2,28.3,12.69-8.44h10.26l-11.87,9.54Z"/>
  <polygon class="cls-1" points="93.99 16.96 84.14 16.96 93.35 9.74 102.39 9.74 93.99 16.96"/>
  <polygon class="cls-1" points="105.42 7.13 96.68 7.13 104.95 .63 113.02 .63 105.42 7.13"/>
</svg>