<svg xmlns="http://www.w3.org/2000/svg" id="Capa_1" data-name="Capa 1" viewBox="0 0 686.01 305.36"><defs><style>      .cls-1 {        fill: #231f20;        stroke-width: 0px;      }    </style></defs><polygon class="cls-1" points="618.98 189.23 79.12 189.14 117.06 116.24 144.83 116.24 110.75 183.56 618.98 183.56 618.98 189.23"></polygon><path class="cls-1" d="M612.01,117.13c2.95,0,5.36,2.41,5.36,5.36s-2.41,5.36-5.36,5.36-5.36-2.41-5.36-5.36,2.39-5.36,5.36-5.36M612.01,128.6c3.37,0,6.11-2.73,6.11-6.11s-2.73-6.11-6.11-6.11-6.11,2.73-6.11,6.11,2.73,6.11,6.11,6.11Z"></path><path class="cls-1" d="M610.29,119.82h1.71c.82,0,1.56.07,1.56,1.1,0,1.11-.92,1.13-1.8,1.13h-1.46v-2.24ZM610.29,122.95h1.49c.78,0,1.53.07,1.63.98.07.78.07,1.58.63,2.05h1.12v-.3h-.14c-.38,0-.46-.77-.51-1.77,0-.9-.38-1.35-1.34-1.4v-.03c1.01-.16,1.5-.75,1.5-1.77,0-1.72-1.39-1.87-2.74-1.87h-2.76v7.14h1.11v-3.04Z"></path><path class="cls-1" d="M234.56,154.64c-.92.43-1.74,1.14-1.74,2.28,0,3.69,7.56,3.91,10.05,3.91s10.54-.22,10.54-4.03c0-3.53-3.37-.54-3.37-7.98,0-4.89-.7-5.11,6.9-5.11,2.72,0,3.37-.11,3.37,2.83,0,11.04-4.02,6.41-3.8,10.6,0,3.64,6.96,3.69,9.35,3.69,10.71,0,10.81-2.72,10.81-4.03s-.76-1.68-1.84-2.28c-1.47-.81-1.68-1.63-1.68-3.26v-14.13c0-8.64.59-8.48,2.22-9.19,1.09-.54,1.68-1.36,1.68-2.55,0-3.8-7.22-3.86-9.78-3.86-10.81,0-10.6,3.04-10.6,4.08,0,1.41.98,1.9,2.02,2.5.7.38,1.62.76,1.62,6.68,0,1.69.11,2.22-3.48,2.22h-2.77c-2.61,0-4.02.38-4.02-2.66,0-4.84.33-5.49,1.69-6.25,1.24-.76,2.17-1.36,2.17-3.04,0-3.26-6.3-3.53-8.58-3.53-3.05,0-12.12.44-12.12,4.62,0,1.09.98,1.58,1.79,2.01,2.01,1.09,2.23-.11,2.23,14.35,0,11.36-.7,11.19-2.67,12.12"></path><path class="cls-1" d="M283.3,129.26c.6.76,1.14,2.34,1.14,9.24v5.38c0,7.61-.54,9.62-1.19,10.38-.87,1.03-2.72,1.3-2.72,3.05,0,3.47,6.85,3.53,9.13,3.53,11.91,0,12.39-2.45,12.39-4.07s-1.31-1.96-2.67-2.78c-1.09-.65-1.74-.44-1.74-10.1v-5.38c0-3.81.05-8.7,1.09-9.9,1.25-1.41,3.32-1.3,3.32-3.26,0-3.69-6.69-3.81-9.95-3.81-1.09,0-12.17,0-12.17,3.91,0,2.07,2.12,2.23,3.37,3.81"></path><path class="cls-1" d="M309.7,145.56c0,1.79-.16,5.65-.71,7.17-1.14,2.88-4.08,1.47-4.08,4.51,0,2.33,1.41,3.59,10.11,3.59,13.21,0,12.72-2.39,12.72-3.64,0-4.12-5.49.33-5.27-7.72.05-5.59-.28-6.03,2.11-6.03,5.81,0,2.23,6.14,5.71,6.14,3.69,0,3.97-6.58,3.97-9.13,0-2.12-.22-8.04-3.31-8.04-3.8,0-1.14,5-5.33,5-3.14,0-3.2-.92-3.2-1.9,0-7.88,1.41-7.61,4.73-7.61,10.43,0,8.48,5.59,12.23,5.59,2.06,0,2.93-1.9,2.93-3.75,0-3.7-2.23-7.99-4.35-7.99-.76,0-11.68.54-12.77.54-4.51,0-14.29-.54-15.7-.54-1.74,0-4.13.87-4.13,2.93,0,2.99,3.53.81,4.18,5.49.27,2.12.22,5.6.16,7.83v7.55Z"></path><path class="cls-1" d="M347.41,129.26c.6.76,1.14,2.34,1.14,9.24v5.38c0,7.61-.54,9.62-1.2,10.38-.88,1.03-2.71,1.3-2.71,3.05,0,3.47,6.85,3.53,9.13,3.53,11.9,0,12.38-2.45,12.38-4.07s-1.29-1.96-2.66-2.78c-1.09-.65-1.74-.44-1.74-10.1v-5.38c0-3.81.06-8.7,1.09-9.9,1.26-1.41,3.31-1.3,3.31-3.26,0-3.69-6.67-3.81-9.94-3.81-1.09,0-12.17,0-12.17,3.91,0,2.07,2.12,2.23,3.37,3.81"></path><polygon class="cls-1" points="618.98 173.87 156.84 173.9 185.46 116.13 211.63 116.13 186.94 168.16 618.98 168.38 618.98 173.87"></polygon><polygon class="cls-1" points="618.98 181.63 119.03 181.63 152.18 116.21 176.56 116.21 147.35 175.83 618.98 175.86 618.98 181.63"></polygon><path class="cls-1" d="M396.7,131.44c.52,4.3.37,17.9-.76,21.7-.66,2.7-3.88,1.11-3.51,4.19.39,3.14,3.34,3.91,11.88,3.91,2.82,0,11.1.22,10.59-3.97-.34-2.8-3.92-.99-4.35-4.46-1.03-8.43.04-8.26,1.08-8.26,3.09,0,.72,5.78,4.79,5.78,4.47,0,3.91-8.15,3.52-11.24-.26-2.15-1.33-5.89-4.14-5.89-4.08,0-1.15,5.01-4.83,5.01-.61,0-1.15.06-1.24-.66-.17-1.38,0-4.9.11-6.33.02-2.04.11-2.7,5.07-2.7,5.66,0,4.34,5.79,8.52,5.79,2.7,0,3.48-2.15,3.19-4.57-.33-2.65-2.93-8.21-6.25-8.21-.22,0-.64.17-1.56.33-.91.16-2.32.33-4.58.33h-8.32c-1.98,0-3.94-.22-8.39-.22-2.42,0-5.6.6-5.23,3.63.48,3.85,3.82,1.04,4.41,5.84"></path><path class="cls-1" d="M428.06,157.16c.4,3.31,3.86,4.08,13.06,4.08,2.86,0,10.37.16,9.86-3.92-.41-3.41-4.03-.99-4.57-5.45-.16-1.27-.08-2.42-.07-3.63l.28-15.2c.09-1.05.24-2.15.28-3.19.13-3.31,4.66-.99,4.24-4.46-.35-2.91-3.36-3.63-12.45-3.63-11.34,0-10.39,2.87-10.3,3.59.41,3.3,4.05,1.54,4.38,4.23.14,1.16.02,1.93.07,2.76l-.03,18.17c0,5.94-5.18,3.03-4.74,6.67"></path><path class="cls-1" d="M457.81,130.01c.52,4.24.51,19.39-.38,22.47-.96,3.36-4.27,1.93-3.87,5.23.3,2.42,2.22,3.25,4.31,3.25,1.16,0,2.3-.06,3.18-.11.94,0,1.59-.05,1.75-.05h18.07c1.16,0,1.73.16,2.3.27.51.17,1.03.33,2.02.33,3.74,0,4.78-7.27,4.42-10.19-.27-2.26-1.4-3.8-3.77-3.8-4.02,0-1.98,6.72-8.97,6.72-1.16,0-3.94.22-4.73-1.21-.44-.94-.43-2.26-.44-3.25l-.67-16.14c-.34-9.09,5.36-3.47,4.74-8.43-.25-2.04-1.51-3.36-8.45-3.36-10.47,0-14.42.61-14.01,3.8.37,3.14,4.22,2.09,4.5,4.46"></path><path class="cls-1" d="M490.13,135.68c4.91,0,3.41-6.83,6.17-6.83.99,0,1.44.99,1.54,1.82.1.83.41,19-.49,22.53-.67,2.65-4.77.99-4.38,4.29.15,1.16.63,3.75,10.55,3.75,11.46,0,13.15-2.32,12.95-3.97-.41-3.3-4.29-.88-4.89-5.61-.57-4.68-.46-13.22-.53-16.52-.05-3.97-.28-6.28,1.48-6.28,2.42,0,2.55,6.83,6.73,6.83,3.13,0,4.25-2.59,3.89-5.51-.32-2.64-3.05-8.65-6.4-8.65-.72,0-1.08.17-1.79.33-.69.16-1.71.33-3.86.33h-15.7c-.77,0-1.4-.17-2.02-.33-.58-.17-1.09-.33-1.65-.33-4.07,0-6.46,6.56-6.04,10.03.29,2.37,1.89,4.13,4.41,4.13"></path><path class="cls-1" d="M524.28,158.04c.22,1.82,1.5,3.25,5.03,3.25,2.48,0,4.95-.49,7.42-.49h14.7c1.77,0,2.71.1,3.38.16.62.11.96.22,1.29.22,2.03,0,5.31-4.3,4.68-9.42-.27-2.26-1.2-4.41-3.85-4.41-4.45,0-1.59,7.11-10.18,7.11-3.64,0-3.67.11-4.1-3.36-.22-1.7-1.45-6.83.87-6.83,3.41,0,.9,5.56,4.98,5.56,3.85,0,3.97-7.16,3.6-10.08-.3-2.48-1.17-6.89-4.53-6.89s-.92,5.07-4.17,5.07c-1.82,0-1.43-.44-1.53-2.59-.11-5.84-.95-6.83,4.62-6.83,6.55,0,4.68,5.45,9.14,5.45,2.31,0,3.03-2.2,2.79-4.24-.64-5.18-3.76-8.21-5.64-8.21-.55,0-1.03.17-1.83.33-.81.16-1.99.33-3.98.33h-8.63c-1.44,0-2.87,0-4.31-.05-1.44,0-2.82-.06-4.2-.11-2.66-.11-5.48.61-5.1,3.8.38,3.03,3.59,1.43,4.12,5.73.51,4.13.21,17.35-.58,21.2-.78,3.52-4.38,1.98-3.97,5.29"></path><path class="cls-1" d="M580.9,127.64c2.36,0,3.1,1.54,3.36,3.64.31,2.47.33,7.16-2.97,7.16-1.54,0-1.53-.72-1.56-1.93l-.09-6.11c.02-1.27-.34-2.75,1.26-2.75M564.71,128.14c.85.22,1.3.27,1.59,1.21,1.21,4.46.98,19.66-.07,23.19-.58,1.93-.56,2.15-2.26,2.75-1.05.33-1.53.94-1.38,2.09.51,4.13,8.4,3.86,10.88,3.86s10.98.17,10.5-3.75c-.15-1.27-.97-1.65-2.07-2.15-1.47-.71-1.49-1.32-1.68-2.81l-.34-6.88c0-1.37.14-1.54,1.52-1.54s2.59.44,3.19,1.77c2.73,6.05.95,15.37,12.57,15.37,2.37,0,7.73-.83,7.33-4.02-.14-1.16-1.39-1.49-2.37-1.87-.81-.27-1.22-.55-1.62-1.43-1.07-2.53-1.12-6.45-2.48-9.48-.67-1.43-1.5-1.87-2.75-2.7-.61-.44-1.17-.66-1.28-1.43-.16-1.38,5.86-2.59,4.48-9.69-1.29-6.49-6.67-8.64-12.93-8.48h-18.12c-2.41.11-5.54.66-5.16,3.74.21,1.71,1,1.87,2.48,2.26Z"></path></svg>