<svg xmlns="http://www.w3.org/2000/svg" id="Capa_1" data-name="Capa 1" viewBox="0 0 686.01 305.36"><defs><style>      .cls-1 {        fill: #231f20;        stroke-width: 0px;      }    </style></defs><path class="cls-1" d="M197.52,151.47c.52-1.97,1.04-3.94,1.63-6.14h40.4c0,5.52-.49,11.02.11,16.4.92,8.18,6.01,12.01,14.22,12.57,9.83.67,17.58-3.8,25.13-9.12.79-.56,1.6-1.08,3.46-2.35-1.65,10.33-3.11,19.49-4.57,28.64-.82,5.16-1.46,10.35-2.6,15.44-.35,1.56-1.84,3.6-3.25,4.06-15.13,4.99-30.71,6.8-45.51.07-15.29-6.95-24.95-19.28-28.01-36.22-.14-.75-.66-1.42-1.01-2.13,0-7.07,0-14.15,0-21.22Z"></path><path class="cls-1" d="M272.84,89.93c4.84,1.63,9.76,3.07,14.48,5.01,1.15.47,2.46,2.64,2.32,3.87-1.07,9.17-2.49,18.3-3.85,27.81h-80.32c2.84-4.44,4.94-8.81,8.01-12.34,10.6-12.16,23.11-21.36,39.69-23.56.22-.03.38-.52.57-.79,6.37,0,12.73,0,19.1,0Z"></path><path class="cls-1" d="M394.5,127c1.05-8.47,1.91-16.08,2.98-23.65.48-3.4.3-8.28,2.36-9.71,2.54-1.77,7.1-.77,10.78-.79,14.14-.05,28.29-.34,42.41.09,10.65.32,21.2,2.16,28.44,11.12,2.87,3.55,6.18,8.03,6.37,12.22.57,12.54,2.15,25.34-3.29,37.48-6.2,13.83-17.34,20.71-31.78,22.64-6.6.89-13.34.81-20.03.9-3.09.04-4.47,1.18-4.75,4.24-.81,8.71-1.81,17.41-2.66,26.12-.27,2.75-.94,4.68-4.35,4.65-12-.11-24-.04-36.76-.04,2.58-22.49,5.12-44.57,7.71-67.14,13.97,0,27.54.07,41.1-.05,3.47-.03,6.97-.47,10.39-1.09,3.78-.69,7.3-6.18,6.59-10.19-.82-4.68-4.03-6.75-8.58-6.77-13.96-.05-27.92-.02-41.89-.02-1.38,0-2.75,0-5.06,0Z"></path><path class="cls-1" d="M297.19,126.74c1.46-11.43,2.86-22.41,4.3-33.61h83.88c-1.38,11.37-2.72,22.38-4.08,33.61h-84.09Z"></path><path class="cls-1" d="M357.42,145.13c-2.76,22.81-5.41,44.74-8.09,66.83h-41.05c2.66-19.84,5.26-39.31,7.9-58.77,1.09-8.07,1.12-8.06,9.05-8.06,10.38,0,20.76,0,32.19,0Z"></path></svg>