<svg xmlns="http://www.w3.org/2000/svg" id="Capa_1" data-name="Capa 1" viewBox="0 0 686.01 305.36"><defs><style>      .cls-1 {        fill-rule: evenodd;      }      .cls-1, .cls-2, .cls-3 {        stroke-width: 0px;      }      .cls-1, .cls-3 {        fill: #231f20;      }      .cls-2 {        fill: gray;      }    </style></defs><polygon class="cls-2" points="184.76 80.46 151.26 235.67 445.71 236.07 448.36 223.45 214.74 223.98 246.31 80.47 184.76 80.46"></polygon><polygon class="cls-1" points="366.22 91.17 192.81 91.17 189.31 106.46 213.95 106.46 199.24 172.38 219.72 172.38 234.43 106.46 362.72 106.46 366.22 91.17"></polygon><path class="cls-1" d="M287.72,112.77l-9.77,42.25c-2.37,1.27-4.57,2.25-6.61,2.92-2.03.67-3.83,1.01-5.39,1.01-3.15,0-5.29-.52-6.42-1.57-1.13-1.04-1.7-2.73-1.7-5.07,0-1.13.13-2.51.4-4.14.26-1.63.66-3.57,1.19-5.84l6.83-29.57h-19.29l-8.97,38.8c-.32,1.38-.55,2.65-.69,3.8-.14,1.15-.21,2.4-.21,3.74,0,4.92,1.51,8.63,4.54,11.15,3.02,2.51,7.15,3.77,12.39,3.77,1.66,0,3.34-.15,5.04-.45,1.7-.3,3.57-.88,5.62-1.72,1.63-.64,3.35-1.49,5.17-2.57,1.82-1.08,3.69-2.24,5.6-3.48l-1.52,6.58h19.23l13.78-59.61h-19.23Z"></path><path class="cls-1" d="M361.74,112.78c-.64-.07-1.37-.12-2.2-.16-.83-.04-1.58-.05-2.25-.05-3.64,0-7.26.83-10.84,2.5-3.59,1.66-7.18,3.82-10.79,6.48l2.03-8.76h-19.24l-13.83,59.61h19.23l9.26-39.91c2.47-.81,4.87-1.41,7.21-1.78,2.33-.37,4.75-.56,7.26-.56,1.52,0,3.05.07,4.61.21,1.55.14,2.76.35,3.6.64h1.7s4.24-18.21,4.24-18.21Z"></path><path class="cls-1" d="M426.92,131.83h0c0-6.47-1.58-11.54-4.75-15.21-3.17-3.66-7.83-5.49-13.99-5.49-3.82,0-7.28.72-10.37,2.15-3.1,1.43-6.36,3.34-9.79,5.71l6.73-29.19h-19.23l-19.04,82.59h18.46l1.39-2.97c2.05,1.41,4.4,2.46,7.03,3.13,2.64.67,5.62,1.01,8.94,1.01,5.06,0,9.68-1.14,13.85-3.42,4.17-2.28,7.82-5.35,10.93-9.21,3.04-3.79,5.44-8.23,7.19-13.32,1.75-5.1,2.63-10.35,2.63-15.76h0ZM406.7,135.39c0,7.32-1.73,13.32-5.2,17.97-3.46,4.65-8.15,6.98-14.05,6.98-1.73,0-3.29-.15-4.66-.45-1.38-.3-2.69-.7-3.92-1.19l6.85-29.94c2.02-1.06,3.93-1.92,5.74-2.57,1.8-.65,3.65-.98,5.52-.98,3.58,0,6.09.87,7.54,2.6,1.45,1.73,2.18,4.26,2.18,7.59h0Z"></path><path class="cls-1" d="M498.33,134.59h0c0-7.39-2.36-13.19-7.09-17.38-4.72-4.19-11.54-6.29-20.46-6.29-6.09,0-11.58,1.04-16.48,3.11-4.9,2.07-9.03,4.89-12.39,8.47-3.47,3.64-6.09,7.86-7.86,12.63-1.77,4.78-2.65,9.82-2.65,15.13,0,7.5,2.37,13.37,7.11,17.62,4.74,4.25,11.55,6.37,20.43,6.37,6.23,0,11.68-.98,16.35-2.95,4.67-1.96,8.78-4.77,12.31-8.41,3.4-3.5,6.03-7.7,7.91-12.58,1.87-4.88,2.81-10.12,2.81-15.71M478.43,135.28c0,4.21-.42,7.79-1.25,10.72-.83,2.94-2.06,5.64-3.69,8.12-1.49,2.23-3.29,3.97-5.41,5.23-2.12,1.26-4.34,1.88-6.63,1.88-3.15,0-5.63-.88-7.43-2.63-1.8-1.75-2.71-4.66-2.71-8.73,0-3.47.42-6.85,1.25-10.14.83-3.29,1.97-6.05,3.42-8.28,1.56-2.41,3.35-4.26,5.39-5.57,2.04-1.31,4.4-1.96,7.09-1.96,3.47,0,6,.98,7.59,2.95,1.59,1.96,2.39,4.77,2.39,8.41Z"></path><polygon class="cls-1" points="296.87 213.64 299.89 213.64 299.89 203.03 308.76 203.03 308.76 200.52 299.89 200.52 299.89 192.73 309.49 192.73 309.49 190.19 296.87 190.19 296.87 213.64"></polygon><rect class="cls-3" x="324.24" y="190.19" width="3.03" height="23.45"></rect><polygon class="cls-1" points="342.99 213.64 356.04 213.64 356.04 211.1 346.02 211.1 346.02 190.19 342.99 190.19 342.99 213.64"></polygon><polygon class="cls-1" points="372.65 213.64 375.71 213.64 375.71 192.77 382.88 192.77 382.88 190.19 365.52 190.19 365.52 192.77 372.65 192.77 372.65 213.64"></polygon><path class="cls-1" d="M398.95,192.63h0c.49-.14,1.53-.28,2.99-.28,3.2.03,5.39,1.36,5.39,4.38,0,2.68-2.05,4.45-5.29,4.45h-3.1v-8.56ZM395.92,213.64h3.03v-10.16h2.85c2.75.1,4,1.32,4.7,4.56.66,2.92,1.18,4.9,1.57,5.6h3.13c-.49-.9-1.04-3.17-1.81-6.44-.56-2.44-1.63-4.1-3.44-4.73v-.1c2.47-.83,4.42-2.89,4.42-5.98,0-1.81-.66-3.41-1.84-4.45-1.46-1.32-3.55-1.91-6.78-1.91-2.09,0-4.28.17-5.81.49v23.13Z"></path><path class="cls-1" d="M434.43,192.28h0c5.04,0,7.48,4.87,7.48,9.53,0,5.32-2.71,9.74-7.51,9.74-4.77,0-7.48-4.49-7.48-9.5s2.5-9.78,7.51-9.78h0ZM434.57,189.81c-6.26,0-10.89,4.87-10.89,12.31s4.35,11.9,10.54,11.9,10.89-4.28,10.89-12.35c0-6.96-4.14-11.86-10.54-11.86Z"></path><path class="cls-1" d="M458.29,212.49c1.25.84,3.72,1.53,5.98,1.53,5.53,0,8.21-3.17,8.21-6.78s-2.02-5.36-5.98-6.89c-3.23-1.25-4.66-2.33-4.66-4.52,0-1.6,1.22-3.51,4.42-3.51,2.12,0,3.69.7,4.45,1.11l.83-2.47c-1.04-.59-2.78-1.15-5.18-1.15-4.56,0-7.58,2.71-7.58,6.37,0,3.3,2.37,5.29,6.19,6.64,3.17,1.22,4.42,2.47,4.42,4.66,0,2.37-1.81,4-4.9,4-2.09,0-4.07-.7-5.43-1.53l-.77,2.54Z"></path><path class="cls-1" d="M505.22,91.92h0c3.36,0,5.8,2.72,5.8,6.03,0,3.36-2.44,6.08-5.76,6.03-3.41,0-5.89-2.67-5.89-6.03,0-3.32,2.49-6.03,5.8-6.03h.05ZM505.22,90.4h0c-4.33,0-7.78,3.36-7.78,7.55,0,4.28,3.45,7.6,7.78,7.6,4.37,0,7.74-3.32,7.74-7.6s-3.36-7.55-7.69-7.55h-.05ZM504.07,95.46h0c.18-.05.51-.09.97-.09,1.11,0,1.61.46,1.61,1.15,0,.78-.78,1.11-1.75,1.11h-.83v-2.16ZM504.02,98.87h.83c.97,0,1.43.37,1.57,1.2.23.88.37,1.52.6,1.8h1.89c-.18-.23-.32-.69-.55-1.84-.23-1.01-.64-1.61-1.38-1.84v-.09c.92-.28,1.57-.92,1.57-1.8,0-.69-.32-1.29-.74-1.61-.55-.37-1.2-.6-2.62-.6-1.24,0-2.21.14-2.9.28v7.51h1.75v-2.99Z"></path></svg>