<svg xmlns="http://www.w3.org/2000/svg" id="Capa_1" data-name="Capa 1" viewBox="0 0 686.01 305.36"><defs><style>      .cls-1 {        fill-rule: evenodd;      }      .cls-1, .cls-2 {        fill: #231f20;        stroke-width: 0px;      }    </style></defs><path class="cls-1" d="M581.54,187.11h3.14l8.55,14.84v-14.84h2.19v17.45h-3.22l-8.47-14.88v14.88h-2.19v-17.45ZM567.39,185.62h0l2.3-3.72h3.11l-3.22,3.72h-2.19ZM563.44,195.82h0l.04.81.04.77.12.73.15.65.19.65.23.58.27.54.34.5.35.42.42.38.46.31.46.27.54.19.58.15.65.08.65.04.61-.04.61-.08.54-.12.54-.19.5-.27.42-.31.42-.35.38-.42.34-.46.31-.54.23-.61.19-.65.15-.73.11-.81.08-.84.04-.92-.04-.73-.08-.69-.08-.69-.15-.61-.19-.61-.23-.54-.27-.54-.34-.5-.35-.42-.38-.38-.46-.31-.46-.27-.54-.23-.58-.15-.61-.08-.65-.04-.65.04-.65.08-.58.15-.54.19-.5.23-.46.31-.42.38-.35.42-.35.46-.27.5-.27.58-.19.65-.15.69-.12.73-.04.81-.04.84ZM561.03,195.74h0l.04-1,.08-1,.19-.88.19-.88.15-.38.15-.42.15-.35.19-.38.19-.34.23-.35.23-.31.27-.31.27-.31.27-.27.27-.23.31-.27.35-.19.31-.19.35-.19.38-.15.35-.15.38-.12.42-.11.38-.08.46-.08.42-.04.46-.04h.46l.88.04.88.12.38.08.38.11.38.12.38.11.34.15.34.15.35.19.31.23.31.19.31.27.27.23.27.27.27.31.23.31.23.34.19.31.19.38.15.35.15.38.15.42.12.42.11.42.08.46.08.46.11.96.04,1.03-.04,1.07-.11,1-.15.92-.19.92-.15.42-.15.38-.15.38-.19.38-.19.38-.19.35-.23.34-.23.31-.27.31-.27.27-.31.27-.27.27-.34.23-.31.19-.34.19-.38.15-.34.15-.42.12-.38.11-.42.08-.46.08-.42.04-.5.04h-.92l-.46-.04-.42-.04-.46-.08-.38-.08-.42-.08-.38-.11-.35-.15-.38-.15-.35-.15-.31-.19-.35-.23-.31-.23-.27-.23-.27-.27-.27-.27-.27-.31-.23-.31-.23-.35-.19-.35-.19-.38-.15-.38-.15-.38-.15-.42-.11-.46-.08-.42-.11-.5-.08-.46-.08-1.04-.04-1.11ZM554.7,187.11h2.42v17.45h-2.42v-17.45ZM547.76,199.92h2.42v.46l-.08.46-.15.46-.19.46-.27.42-.27.42-.38.38-.42.42-.46.35-.5.31-.54.27-.61.19-.61.19-.69.11-.73.08h-.81l-.92-.04-.84-.08-.42-.12-.42-.08-.38-.11-.38-.15-.35-.15-.35-.15-.35-.19-.31-.19-.31-.23-.31-.27-.27-.23-.27-.31-.27-.27-.23-.34-.23-.31-.19-.35-.19-.38-.15-.38-.15-.38-.15-.42-.12-.42-.11-.46-.08-.46-.08-.5-.12-1.04v-2.11l.12-1,.15-.92.23-.84.15-.42.15-.38.15-.38.19-.38.19-.34.23-.35.23-.31.27-.31.27-.31.27-.27.31-.23.31-.27.31-.19.35-.19.35-.19.38-.15.38-.15.38-.12.42-.11.42-.08.46-.08.46-.04.46-.04h.46l.77.04.73.08.65.12.65.15.58.19.54.27.5.27.46.34.38.38.38.38.31.42.23.46.19.42.15.5.08.5v.5h-2.42l-.04-.34-.08-.31-.08-.27-.15-.31-.15-.23-.19-.27-.23-.23-.27-.19-.27-.19-.31-.19-.34-.11-.35-.12-.38-.11-.42-.04-.46-.04-.46-.04-.65.04-.65.08-.57.15-.54.19-.54.23-.46.31-.42.35-.38.42-.34.46-.27.5-.27.57-.19.58-.15.65-.12.73-.08.73v1.73l.08.84.12.77.15.73.19.65.23.61.31.54.31.5.38.38.42.38.46.31.5.23.54.23.58.12.61.08.65.04h.38l.42-.04.34-.04.38-.08.31-.11.35-.12.31-.15.31-.15.31-.19.27-.23.23-.23.19-.27.15-.31.15-.31.12-.35.08-.38ZM522.91,197.96h6.44l-3.18-8.67-3.26,8.67ZM517.58,204.56h0l7.25-17.45h2.65l7.25,17.45h-2.61l-1.88-4.56h-8.17l-1.88,4.56h-2.61ZM502.98,194.71h4.18l.5-.04.46-.04.42-.04.38-.11.31-.11.31-.12.27-.15.19-.19.19-.23.15-.23.12-.23.12-.23.08-.27.08-.27.04-.27v-.61l-.04-.27-.08-.27-.11-.27-.11-.23-.12-.23-.19-.23-.19-.19-.23-.15-.27-.15-.31-.15-.31-.08-.38-.08-.42-.08-.42-.04h-4.6v5.56ZM500.56,204.56h0v-17.45h7.29l.77.08.73.08.65.15.54.19.5.23.46.27.34.31.35.31.27.34.23.38.15.38.15.42.12.42.08.46v.84l-.04.38-.08.34-.11.35-.12.35-.15.31-.19.31-.19.27-.23.27-.27.27-.31.23-.31.19-.38.15-.38.15-.38.15-.46.12.38.04.31.08.31.08.27.11.23.15.23.12.19.19.19.19.15.19.12.23.11.23.11.27.19.61.15.73.5,3.26.08.5.11.58.08.31.12.31.15.27.15.31h-2.61l-.08-.23-.08-.27-.08-.31-.11-.38-.08-.42-.08-.46-.08-.46-.08-.46-.23-1.61-.08-.5-.11-.42-.12-.38-.11-.35-.11-.31-.15-.27-.19-.23-.15-.15-.23-.15-.19-.12-.27-.11-.23-.08-.31-.08-.31-.04-.31-.04h-4.37v7.82h-2.42ZM483.57,187.11h14.3v2.03h-5.94v15.41h-2.42v-15.41h-5.94v-2.03ZM472.57,187.11h2.42v15.41h8.36v2.03h-10.77v-17.45ZM465.59,187.11h2.42v17.45h-2.42v-17.45ZM449.87,204.56h0v-17.45h10.77v2.03h-8.36v5.56h7.9v2.03h-7.9v7.82h-2.42ZM425.71,204.56h0v-17.45h10.77v2.03h-8.36v5.37h8.01v2.03h-8.01v5.98h8.63v2.03h-11.04ZM409.72,202.53h2.84l1-.04.88-.08.81-.15.73-.19.31-.15.31-.11.31-.15.27-.19.23-.15.23-.19.19-.23.19-.23.31-.46.27-.54.23-.54.19-.61.15-.61.11-.65.08-.69v-1.46l-.08-.69-.11-.69-.15-.61-.23-.57-.23-.58-.31-.5-.34-.46-.19-.23-.23-.19-.23-.23-.23-.15-.27-.19-.31-.11-.31-.15-.31-.11-.69-.19-.81-.15-.84-.08-.92-.04h-2.84v13.38ZM407.27,204.56h0v-17.45h5.87l.61.04.57.04.57.08.54.08.54.11.46.11.46.12.46.19.42.15.38.19.38.23.31.23.34.27.27.27.27.31.27.31.23.31.19.35.23.35.15.35.19.38.15.38.12.38.23.81.15.88.11.92v1.84l-.11.88-.15.81-.19.81-.27.77-.34.69-.38.69-.42.65-.27.31-.27.27-.31.27-.34.23-.38.23-.38.19-.42.19-.42.19-.5.12-.5.15-.54.08-.54.12-.58.08-.61.04-.65.04h-5.9ZM382.46,199.34h2.42v.42l.08.42.08.38.12.35.15.31.19.31.23.27.27.23.27.19.34.19.31.12.38.15.38.08.42.08.46.04h.92l.42-.04.42-.08.38-.08.38-.11.38-.11.34-.19.31-.15.31-.23.23-.23.23-.23.19-.27.11-.31.12-.31.04-.34.04-.35-.04-.42-.08-.42-.19-.38-.19-.35-.15-.19-.15-.15-.19-.12-.23-.15-.23-.11-.27-.08-.27-.11-.31-.08-3.87-1-.61-.15-.57-.19-.54-.19-.46-.23-.42-.23-.38-.23-.31-.27-.31-.27-.23-.27-.19-.31-.15-.31-.15-.35-.12-.35-.08-.38-.04-.38-.04-.42.04-.5.08-.54.15-.46.19-.46.23-.42.31-.42.38-.38.38-.38.46-.34.54-.31.54-.23.58-.19.65-.15.69-.12.69-.08.77-.04.61.04.58.04.58.08.5.11.5.15.5.19.42.23.42.27.38.27.35.34.31.42.27.42.19.5.15.54.15.58.04.65h-2.42v-.35l-.08-.31-.08-.27-.12-.27-.15-.27-.15-.19-.23-.23-.23-.19-.27-.15-.27-.15-.31-.11-.35-.11-.34-.08-.35-.04-.38-.04-.42-.04-.42.04-.42.04-.38.04-.35.08-.34.11-.35.11-.31.15-.31.19-.27.19-.23.19-.23.23-.15.23-.11.27-.12.27-.04.31v.61l.04.23.04.23.11.23.08.23.15.15.15.19.19.15.42.27.54.27.61.19.73.19,3.18.77.58.15.54.15.5.19.42.23.42.23.38.23.31.27.27.31.27.27.23.34.15.35.15.35.12.38.08.38.08.42v.46l-.04.58-.08.54-.11.5-.23.5-.23.46-.31.42-.38.42-.38.38-.5.35-.5.31-.54.23-.61.23-.65.15-.69.11-.73.08h-1.57l-.73-.08-.65-.11-.65-.15-.57-.19-.54-.23-.5-.27-.46-.31-.38-.34-.35-.42-.31-.46-.23-.5-.19-.57-.15-.58-.08-.65v-.69ZM366.01,204.56h0v-17.45h10.77v2.03h-8.36v5.37h7.98v2.03h-7.98v5.98h8.63v2.03h-11.04ZM347.45,187.11h3.14l8.55,14.84v-14.84h2.22v17.45h-3.26l-8.44-14.88v14.88h-2.22v-17.45ZM329.4,195.82h0v.81l.08.77.08.73.15.65.19.65.23.58.31.54.31.5.38.42.38.38.46.31.5.27.54.19.58.15.61.08.65.04.65-.04.57-.08.58-.12.5-.19.5-.27.46-.31.42-.35.35-.42.34-.46.31-.54.23-.61.23-.65.15-.73.12-.81.04-.84.04-.92-.04-.73-.04-.69-.12-.69-.15-.61-.19-.61-.23-.54-.27-.54-.31-.5-.38-.42-.38-.38-.42-.31-.5-.27-.54-.23-.58-.15-.61-.08-.61-.04-.69.04-.61.08-.58.15-.54.19-.5.23-.46.31-.42.38-.38.42-.35.46-.27.5-.23.58-.19.65-.15.69-.12.73-.08.81v.84ZM326.94,195.74h0l.04-1,.11-1,.15-.88.23-.88.11-.38.15-.42.19-.35.19-.38.19-.34.19-.35.27-.31.23-.31.27-.31.27-.27.31-.23.31-.27.31-.19.34-.19.35-.19.35-.15.38-.15.38-.12.38-.11.42-.08.42-.08.42-.04.46-.04h.46l.92.04.84.12.38.08.42.11.38.12.35.11.38.15.35.15.31.19.31.23.31.19.31.27.27.23.27.27.27.31.23.31.23.34.19.31.19.38.19.35.15.38.11.42.15.42.08.42.11.46.08.46.08.96.04,1.03-.04,1.07-.08,1-.15.92-.23.92-.11.42-.15.38-.19.38-.15.38-.19.38-.23.35-.23.34-.23.31-.27.31-.27.27-.27.27-.31.27-.31.23-.35.19-.34.19-.34.15-.38.15-.38.12-.42.11-.42.08-.42.08-.46.04-.46.04h-.96l-.46-.04-.42-.04-.42-.08-.42-.08-.38-.08-.38-.11-.38-.15-.35-.15-.35-.15-.34-.19-.31-.23-.31-.23-.31-.23-.27-.27-.27-.27-.23-.31-.27-.31-.19-.35-.19-.35-.19-.38-.19-.38-.15-.38-.11-.42-.12-.46-.11-.42-.08-.5-.08-.46-.11-1.04-.04-1.11ZM320.61,187.11h2.42v17.45h-2.42v-17.45ZM313.71,199.92h2.42l-.04.46-.08.46-.15.46-.19.46-.23.42-.31.42-.35.38-.42.42-.46.35-.5.31-.58.27-.58.19-.65.19-.69.11-.73.08h-.77l-.92-.04-.88-.08-.42-.12-.38-.08-.42-.11-.35-.15-.38-.15-.35-.15-.35-.19-.31-.19-.31-.23-.31-.27-.27-.23-.27-.31-.23-.27-.27-.34-.19-.31-.23-.35-.15-.38-.19-.38-.15-.38-.12-.42-.15-.42-.08-.46-.11-.46-.08-.5-.08-1.04-.04-1.07.04-1.04.08-1,.19-.92.23-.84.12-.42.15-.38.19-.38.15-.38.23-.34.19-.35.27-.31.23-.31.27-.31.27-.27.31-.23.31-.27.35-.19.34-.19.34-.19.35-.15.38-.15.42-.12.42-.11.42-.08.42-.08.46-.04.46-.04h.5l.73.04.73.08.69.12.61.15.58.19.54.27.5.27.46.34.42.38.35.38.31.42.23.46.19.42.15.5.08.5.04.5h-2.42l-.04-.34-.08-.31-.12-.27-.11-.31-.19-.23-.19-.27-.23-.23-.23-.19-.31-.19-.31-.19-.31-.11-.38-.12-.38-.11-.42-.04-.42-.04-.5-.04-.65.04-.61.08-.61.15-.54.19-.5.23-.46.31-.42.35-.38.42-.35.46-.31.5-.23.57-.19.58-.19.65-.08.73-.08.73-.04.81.04.92.04.84.12.77.15.73.19.65.27.61.27.54.35.5.34.38.42.38.46.31.5.23.54.23.58.12.61.08.69.04h.38l.38-.04.38-.04.35-.08.34-.11.34-.12.31-.15.31-.15.27-.19.27-.23.23-.23.19-.27.19-.31.15-.31.08-.35.12-.38ZM283.5,187.11h2.42v10.7l.04.58.04.54.12.54.11.46.15.46.19.42.27.38.27.35.31.31.35.27.34.23.42.19.42.15.46.12.46.08h1.07l.5-.08.46-.12.42-.11.42-.19.38-.23.35-.27.31-.27.31-.34.23-.42.23-.42.15-.46.15-.5.11-.58.04-.58.04-.61v-10.58h2.42v10.43l-.04.96-.08.84-.15.81-.23.73-.12.34-.15.35-.15.31-.15.27-.19.31-.23.23-.19.27-.23.23-.5.38-.54.38-.58.27-.61.27-.65.19-.69.12-.73.11h-1.53l-.73-.11-.69-.12-.65-.19-.61-.23-.58-.31-.54-.35-.5-.42-.23-.23-.23-.23-.19-.23-.19-.27-.15-.31-.15-.27-.15-.35-.12-.31-.23-.69-.15-.77-.08-.81-.04-.84v-10.77ZM269.27,187.11h2.42v15.41h8.36v2.03h-10.77v-17.45ZM251.17,195.82h0l.04.81.08.77.08.73.15.65.19.65.23.58.31.54.31.5.35.42.42.38.46.31.5.27.54.19.58.15.61.08.65.04.65-.04.57-.08.58-.12.5-.19.5-.27.46-.31.42-.35.35-.42.34-.46.31-.54.23-.61.23-.65.15-.73.12-.81.04-.84.04-.92-.04-.73-.04-.69-.12-.69-.15-.61-.19-.61-.23-.54-.27-.54-.31-.5-.38-.42-.38-.38-.46-.31-.46-.27-.54-.23-.58-.15-.61-.08-.65-.04-.65.04-.61.08-.58.15-.58.19-.5.23-.46.31-.38.38-.38.42-.35.46-.27.5-.23.58-.19.65-.15.69-.12.73-.08.81-.04.84ZM248.76,195.74h0l.04-1,.11-1,.15-.88.23-.88.11-.38.15-.42.19-.35.15-.38.23-.34.19-.35.23-.31.27-.31.27-.31.27-.27.31-.23.31-.27.31-.19.34-.19.35-.19.35-.15.38-.15.38-.12.38-.11.42-.08.42-.08.42-.04.46-.04h.46l.92.04.84.12.38.08.42.11.38.12.35.11.34.15.34.15.35.19.31.23.31.19.31.27.27.23.27.27.27.31.23.31.23.34.19.31.19.38.19.35.15.38.11.42.15.42.08.42.11.46.08.46.08.96.04,1.03-.04,1.07-.08,1-.15.92-.23.92-.12.42-.15.38-.19.38-.15.38-.19.38-.23.35-.23.34-.23.31-.27.31-.27.27-.27.27-.31.27-.31.23-.35.19-.34.19-.34.15-.38.15-.38.12-.42.11-.42.08-.42.08-.46.04-.46.04h-.96l-.46-.04-.42-.04-.42-.08-.42-.08-.38-.08-.38-.11-.38-.15-.35-.15-.35-.15-.34-.19-.31-.23-.31-.23-.31-.23-.27-.27-.27-.27-.27-.31-.23-.31-.19-.35-.23-.35-.15-.38-.19-.38-.15-.38-.11-.42-.12-.46-.11-.42-.12-.5-.04-.46-.11-1.04-.04-1.11ZM231.77,199.34h2.42v.42l.08.42.08.38.11.35.15.31.19.31.23.27.27.23.27.19.34.19.35.12.35.15.38.08.42.08.46.04h.92l.42-.04.42-.08.38-.08.38-.11.38-.11.35-.19.31-.15.31-.23.23-.23.23-.23.19-.27.12-.31.11-.31.04-.34.04-.35-.04-.42-.08-.42-.19-.38-.19-.35-.15-.19-.15-.15-.19-.12-.23-.15-.23-.11-.27-.08-.27-.11-.31-.08-3.87-1-.61-.15-.58-.19-.54-.19-.46-.23-.42-.23-.38-.23-.31-.27-.31-.27-.23-.27-.19-.31-.15-.31-.15-.35-.11-.35-.08-.38-.04-.38-.04-.42.04-.5.08-.54.15-.46.19-.46.23-.42.31-.42.38-.38.38-.38.46-.34.54-.31.54-.23.58-.19.65-.15.69-.12.69-.08.77-.04.61.04.58.04.57.08.5.11.5.15.5.19.42.23.42.27.38.27.34.34.31.42.27.42.19.5.15.54.15.58.04.65h-2.42v-.35l-.08-.31-.08-.27-.11-.27-.15-.27-.15-.19-.23-.23-.23-.19-.27-.15-.27-.15-.31-.11-.35-.11-.34-.08-.35-.04-.38-.04-.42-.04-.42.04-.42.04-.38.04-.35.08-.35.11-.34.11-.31.15-.31.19-.27.19-.23.19-.23.23-.15.23-.11.27-.08.27-.08.31v.61l.04.23.04.23.12.23.12.23.11.15.15.19.19.15.42.27.54.27.61.19.73.19,3.18.77.58.15.54.15.5.19.42.23.42.23.38.23.31.27.27.31.27.27.23.34.15.35.15.35.11.38.08.38.08.42v.46l-.04.58-.08.54-.12.5-.23.5-.23.46-.31.42-.38.42-.38.38-.5.35-.5.31-.54.23-.61.23-.65.15-.69.11-.73.08h-1.57l-.69-.08-.69-.11-.65-.15-.58-.19-.54-.23-.5-.27-.46-.31-.38-.34-.34-.42-.31-.46-.23-.5-.19-.57-.15-.58-.08-.65v-.69Z"></path><path class="cls-1" d="M610.22,166.79h.42l.19-.08.15-.08.15-.11.08-.15.08-.19v-.38l-.04-.12-.04-.11-.04-.08-.15-.11-.19-.12-.46-.08h-1.84v1.61h1.69ZM612.25,170.13h0l-1.38-2.45.35-.04.31-.08.27-.12.23-.19.19-.19.11-.27.08-.31.04-.38-.04-.23v-.19l-.04-.23-.08-.19-.12-.19-.12-.15-.11-.15-.19-.15-.15-.08-.19-.08-.19-.04-.23-.04-.42-.04h-3.18v5.79h1.15v-2.45h1.11l1.3,2.45h1.3ZM613.94,167.21h0l-.04-.46-.04-.42-.11-.42-.15-.38-.19-.38-.19-.38-.27-.31-.27-.31-.31-.31-.35-.23-.35-.23-.38-.19-.38-.12-.42-.11-.46-.08h-.88l-.42.08-.42.11-.42.12-.35.19-.38.23-.34.23-.31.31-.27.31-.23.31-.23.38-.19.38-.15.38-.08.42-.08.42-.04.46.04.42.08.46.08.42.15.38.19.38.23.35.23.35.27.31.31.27.34.27.38.23.35.15.42.15.42.11.42.08h.88l.46-.08.42-.11.38-.15.38-.15.35-.23.35-.27.31-.27.27-.31.27-.35.19-.35.19-.38.15-.38.11-.42.04-.46.04-.42ZM604.24,167.21l.04-.57.08-.5.11-.54.19-.46.23-.5.27-.42.31-.42.35-.38.38-.34.42-.31.42-.27.46-.23.5-.15.54-.15.54-.08.54-.04.54.04.54.08.5.15.5.15.46.23.46.27.38.31.38.34.35.38.31.42.27.42.23.5.19.46.11.54.12.5v1.11l-.12.54-.11.5-.19.5-.23.46-.27.46-.31.42-.35.34-.38.35-.38.35-.46.27-.46.19-.5.19-.5.15-.54.08h-1.07l-.54-.08-.54-.15-.5-.19-.46-.19-.42-.27-.42-.35-.38-.35-.35-.34-.31-.42-.27-.46-.23-.46-.19-.5-.11-.5-.08-.54-.04-.54Z"></path><path class="cls-1" d="M240.25,160.5h0v.65l.04.61.08.58.12.54.12.5.15.5.15.46.19.42.23.38.23.34.27.35.27.31.27.27.31.27.34.23.35.23.35.19.35.19.38.15.38.12.81.23.81.19.84.11.84.08.88.04h.84l1.84-.04,1.73-.11,1.69-.23,1.61-.31,1.53-.35,1.46-.46,1.38-.5,1.3-.58,1.27-.65,1.19-.69,1.11-.77,1.04-.81,1-.88.92-.92.84-.96.81-1,.77-1.04.69-1.11.61-1.11.58-1.15.54-1.19.46-1.19.42-1.23.38-1.23.31-1.27.31-1.3.23-1.27.15-1.3.15-1.3.12-1.3.04-1.27.04-1.3-.04-1.61-.11-1.57-.15-1.53-.23-1.53-.27-1.46-.35-1.46-.38-1.38-.5-1.38-.5-1.34-.58-1.27-.65-1.26-.69-1.19-.77-1.15-.81-1.11-.84-1.07-.92-1-.96-1-1-.88-1.07-.88-1.11-.81-1.15-.73-1.23-.69-1.27-.65-1.3-.54-1.34-.54-1.42-.42-1.42-.38-1.5-.31-1.53-.27-1.57-.15-1.61-.11-1.65-.04h-1.3l-1.15.04-1.04.04-.88.08-.81.04-.73.08-.65.04-.61.04v50.23ZM231.2,117.21l-.04-.77-.04-.69-.04-.65-.08-.61-.11-.58-.12-.5-.15-.5-.19-.42-.15-.42-.23-.35-.23-.34-.23-.27-.23-.27-.27-.23-.31-.23-.27-.19-.31-.15-.35-.12-.31-.11-.35-.12-.69-.15-.73-.08-1.53-.08-1.57-.04v-2.38l1.38.04,1.34.08h1.38l1.34.04h1.38l1.38.04h2.68l1.53-.04h1.65l1.8-.04,1.92-.04,2.03-.04h2.22l2.34-.04h2.49l2.19.04,2.15.15,2.11.19,1.99.31,1.96.42,1.88.46,1.84.54,1.73.61,1.69.73,1.61.73,1.57.84,1.46.88,1.42.96,1.34,1,1.3,1.04,1.19,1.11,1.15,1.15,1.04,1.23,1,1.23.92,1.27.88,1.34.77,1.34.69,1.38.65,1.42.54,1.42.5,1.46.42,1.5.35,1.5.27,1.5.19,1.53.12,1.5.04,1.53-.04.92-.04.96-.11,1.04-.12,1.11-.19,1.15-.23,1.19-.27,1.23-.38,1.3-.38,1.3-.5,1.3-.54,1.34-.61,1.34-.73,1.34-.81,1.34-.84,1.34-1,1.3-1.04,1.27-1.19,1.23-1.27,1.23-1.38,1.15-1.5,1.11-1.57,1.04-1.73.96-1.88.92-1.96.81-2.11.73-2.26.65-2.38.54-2.53.42-2.68.31-2.8.19-2.99.08h-1.76l-1.73-.04h-1.69l-1.65-.04-1.65-.04-1.65-.04-1.65-.04h-3.18l-1.53.04h-1.53l-1.53.04h-1.57l-1.53.04-1.53.04-1.57.04v-2.42l1.96-.19,1.69-.23.73-.15.69-.23.31-.11.31-.12.27-.15.31-.15.23-.19.23-.19.23-.19.23-.23.19-.27.15-.27.19-.31.11-.34.15-.35.11-.38.12-.42.08-.42.15-1,.08-1.07v-44.79Z"></path><path class="cls-1" d="M310.8,170.4h0l.84-.04.84-.11.77-.15.77-.19.73-.27.69-.31.65-.35.61-.38.61-.46.58-.5.54-.5.5-.58.5-.58.42-.61.42-.65.42-.69.38-.69.35-.73.31-.73.27-.77.27-.77.27-.77.19-.81.19-.77.19-.81.15-.8.12-.81.08-.77.08-.81.08-.77.04-.77v-1.5l-.04-.73-.08-.77-.08-.81-.12-.81-.15-.81-.15-.84-.19-.84-.19-.84-.23-.84-.27-.84-.31-.81-.31-.84-.38-.81-.35-.81-.42-.77-.42-.77-.46-.73-.5-.69-.54-.65-.54-.65-.58-.61-.61-.54-.65-.5-.69-.46-.69-.42-.73-.35-.77-.31-.81-.23-.84-.19-.88-.11-.88-.04-.84.04-.8.11-.77.15-.77.19-.73.27-.65.31-.65.35-.65.38-.57.46-.58.5-.54.5-.5.58-.46.57-.46.61-.42.65-.42.69-.35.69-.34.73-.31.73-.31.77-.27.77-.23.77-.23.81-.19.77-.15.81-.15.81-.11.8-.12.77-.08.81-.04.77-.04.77v1.5l.04.73.04.77.12.81.11.81.11.84.15.8.19.84.23.84.23.84.27.84.27.84.35.81.35.81.38.81.38.77.42.77.46.73.5.69.54.69.54.61.58.61.61.54.65.5.65.46.69.42.73.35.77.31.81.23.84.19.84.11.88.04ZM309.69,129.21l1.19.04,1.19.04,1.15.15,1.15.15,1.07.23,1.11.27,1.04.31,1.04.34,1,.38.96.46.96.46.92.54.84.58.84.61.81.61.77.69.73.73.73.77.65.81.61.84.54.84.54.92.5.96.42.96.38,1,.35,1.03.31,1.07.23,1.11.19,1.11.12,1.15.11,1.19v2.34l-.08,1.11-.15,1.07-.19,1.07-.23,1.04-.27,1.04-.34,1.04-.38,1-.42.96-.46.96-.5.92-.58.88-.58.84-.61.84-.69.81-.69.77-.73.73-.77.69-.81.69-.84.61-.84.58-.88.54-.92.5-.96.42-.96.42-1,.35-1,.31-1.04.23-1.04.19-1.07.15-1.11.08-1.07.04h-1.15l-1.15-.08-1.11-.15-1.07-.15-1.07-.23-1.07-.27-1.04-.31-1-.35-1-.38-.96-.46-.96-.46-.88-.54-.88-.58-.84-.61-.81-.61-.81-.69-.73-.73-.69-.77-.69-.81-.61-.84-.58-.84-.54-.92-.5-.96-.46-.96-.38-1-.38-1.04-.27-1.07-.27-1.11-.19-1.11-.15-1.19-.08-1.15-.04-1.23.04-1.11.08-1.11.12-1.07.19-1.07.19-1.04.27-1.04.34-1.04.35-1,.38-.96.46-.96.5-.92.5-.88.58-.84.61-.84.65-.81.69-.77.73-.73.73-.69.81-.69.81-.61.84-.58.92-.54.88-.5.96-.42,1-.42,1-.35,1.03-.31,1.04-.23,1.07-.19,1.11-.15,1.11-.08,1.15-.04Z"></path><polygon class="cls-1" points="336.03 141.48 336.03 140.87 335.99 140.33 335.91 139.8 335.8 139.34 335.68 138.92 335.49 138.53 335.26 138.15 334.99 137.8 334.65 137.5 334.27 137.19 333.84 136.88 333.34 136.61 332.77 136.31 332.16 136.04 331.47 135.73 330.7 135.39 330.7 133.66 332.16 133.16 333.65 132.67 335.11 132.17 336.6 131.67 338.1 131.13 339.63 130.56 341.24 129.9 342.85 129.21 342.97 129.21 343.08 129.25 343.16 129.29 343.24 129.41 343.31 129.52 343.39 129.67 343.39 129.87 343.43 130.13 343.43 136.12 345.35 134.74 347.26 133.47 348.22 132.86 349.14 132.28 350.1 131.75 351.06 131.25 352.02 130.79 353.01 130.4 354.01 130.06 355.01 129.75 356.08 129.52 357.16 129.37 358.23 129.25 359.38 129.21 360.11 129.21 360.8 129.29 361.45 129.37 362.1 129.48 362.72 129.6 363.29 129.79 363.83 129.98 364.36 130.21 364.86 130.48 365.32 130.75 365.78 131.06 366.2 131.4 366.59 131.75 366.97 132.13 367.32 132.55 367.62 132.97 367.93 133.43 368.2 133.89 368.47 134.39 368.7 134.89 368.93 135.39 369.12 135.96 369.31 136.5 369.46 137.07 369.58 137.65 369.69 138.26 369.77 138.88 369.89 139.53 369.96 140.79 370 142.14 370 165.95 370.04 166.48 370.08 166.94 370.19 167.37 370.35 167.71 370.54 168.02 370.77 168.25 371.04 168.44 371.34 168.59 371.65 168.75 372.03 168.82 372.42 168.9 372.8 168.94 373.68 168.98 374.6 168.98 376.29 168.98 376.29 171.39 375.06 171.39 373.83 171.35 372.65 171.35 371.42 171.32 370.19 171.28 368.97 171.24 367.74 171.2 366.51 171.2 365.25 171.2 364.02 171.24 362.75 171.24 361.49 171.28 360.26 171.28 359.03 171.32 357.77 171.35 356.54 171.39 356.54 168.98 358.19 168.98 359.11 168.98 359.95 168.94 360.34 168.9 360.72 168.82 361.07 168.75 361.37 168.59 361.64 168.44 361.91 168.25 362.1 168.02 362.29 167.71 362.41 167.37 362.52 166.94 362.6 166.48 362.6 165.95 362.6 142.02 362.6 141.56 362.56 141.1 362.52 140.64 362.45 140.18 362.37 139.76 362.29 139.38 362.18 138.95 362.02 138.61 361.87 138.23 361.72 137.88 361.53 137.57 361.3 137.23 361.1 136.96 360.87 136.65 360.61 136.38 360.34 136.15 360.07 135.92 359.76 135.69 359.46 135.46 359.11 135.27 358.77 135.12 358.42 134.97 358.04 134.81 357.65 134.7 356.85 134.47 356.01 134.31 355.08 134.24 354.13 134.2 353.55 134.24 352.94 134.31 352.29 134.43 351.63 134.62 350.94 134.81 350.25 135.08 349.52 135.35 348.8 135.66 347.38 136.35 345.96 137.07 344.62 137.84 343.43 138.61 343.43 165.95 343.43 166.48 343.51 166.94 343.62 167.37 343.77 167.71 343.97 168.02 344.2 168.25 344.46 168.44 344.77 168.59 345.08 168.75 345.42 168.82 345.81 168.9 346.23 168.94 347.11 168.98 348.03 168.98 349.68 168.98 349.68 171.39 348.49 171.39 347.26 171.35 346.07 171.35 344.85 171.32 343.62 171.28 342.39 171.24 341.17 171.2 339.9 171.2 338.67 171.2 337.41 171.24 336.18 171.24 334.92 171.28 333.69 171.28 332.42 171.32 331.2 171.35 329.93 171.39 329.93 168.98 331.62 168.98 332.54 168.98 333.38 168.94 333.77 168.9 334.15 168.82 334.5 168.75 334.8 168.59 335.07 168.44 335.3 168.25 335.53 168.02 335.72 167.71 335.84 167.37 335.95 166.94 336.03 166.48 336.03 165.95 336.03 141.48"></polygon><path class="cls-1" d="M401.14,150.92h0l-2.07.69-2.53.81-1.38.42-1.38.5-1.42.54-1.34.57-.69.31-.65.34-.61.35-.61.34-.57.38-.54.42-.5.38-.46.46-.42.46-.38.5-.35.5-.27.54-.23.54-.19.58-.08.61-.04.65.04.65.08.65.19.65.19.58.31.58.31.57.38.5.42.5.46.42.5.38.58.35.57.27.58.23.65.15.61.11.69.04.81-.04.73-.08.73-.15.73-.19.65-.23.65-.31.65-.31.61-.38.58-.38.61-.42.58-.42.58-.46,1.11-1,1.15-1v-12.15ZM416.09,167.79l-1,.92-1.04.88-.5.42-.54.42-.54.38-.57.38-.57.34-.58.31-.58.27-.61.23-.65.19-.65.12-.65.08-.69.04h-.34l-.34-.04-.31-.04-.31-.08-.31-.08-.31-.11-.27-.11-.27-.12-.5-.35-.46-.35-.42-.42-.38-.46-.31-.54-.31-.54-.23-.54-.23-.61-.15-.58-.12-.61-.12-.65-.04-.61-.81.73-.81.69-.81.69-.84.65-.81.58-.84.58-.84.5-.84.5-.84.42-.92.38-.88.35-.96.27-.96.23-1,.15-1,.08-1.07.04h-.54l-.54-.04-.54-.08-.5-.08-.5-.08-.5-.12-.46-.15-.46-.15-.46-.19-.42-.19-.42-.23-.42-.23-.38-.27-.35-.27-.38-.27-.31-.31-.35-.31-.31-.31-.27-.35-.27-.35-.23-.38-.23-.38-.23-.38-.19-.38-.15-.42-.15-.38-.11-.42-.12-.46-.08-.42-.04-.46-.04-.42-.04-.46.08-.69.04-.65.12-.61.11-.58.15-.54.15-.54.23-.5.23-.5.31-.46.35-.46.34-.46.42-.42.46-.42.54-.38.58-.42.61-.38.69-.42.73-.38.81-.38.88-.42,1.92-.84,2.22-.88,2.53-.92,2.88-1,3.18-1.11,3.57-1.23v-6.1l-.04-.96-.11-.88-.08-.42-.12-.38-.11-.38-.12-.38-.15-.38-.15-.35-.19-.35-.23-.31-.19-.31-.27-.27-.23-.27-.27-.27-.31-.23-.31-.23-.31-.23-.34-.19-.38-.19-.34-.15-.42-.15-.38-.15-.88-.23-.96-.15-1-.08-1.07-.04-.73.04-.73.08-.69.12-.61.19-.61.23-.58.31-.54.31-.46.42-.46.42-.38.46-.35.54-.27.58-.23.65-.19.65-.11.73-.08.73-.04.5-.08.42-.15.42-.23.38-.27.34-.27.31-.35.27-.38.27-.38.23-.42.19-.42.19-.42.12-.46.12-.42.08-.46.04h-.65l-.23-.04-.19-.08-.19-.08-.15-.08-.11-.11-.12-.15-.12-.12-.15-.31-.08-.31-.08-.31v-.69l.04-.46.08-.42.08-.38.12-.42.12-.38.15-.38.19-.35.19-.35.19-.34.27-.34.23-.35.58-.61.65-.61.73-.61.81-.58.88-.58.96-.58,2.07-1.15,2.3-1.19,1.15-.61,1-.54.96-.5.92-.46.5-.19.46-.15.5-.15.5-.11.54-.12.54-.08.61-.04h.61l.84.04.84.08.92.15.92.23.96.27.92.35.92.38.88.46.42.27.42.27.38.27.38.31.35.31.35.34.31.31.31.38.23.35.23.38.23.42.15.38.15.46.08.42.08.46v26.04l.04.69.04.61.08.58.08.54.15.46.15.46.15.38.23.35.23.27.23.27.27.19.31.19.31.12.34.08.35.08h.38l.46-.04.46-.08.46-.11.46-.15.42-.23.42-.27.38-.31.34-.38.84,1.57Z"></path><polygon class="cls-1" points="416.4 168.98 418.16 168.98 419.08 168.98 419.92 168.94 420.35 168.9 420.69 168.82 421.04 168.75 421.34 168.59 421.61 168.44 421.88 168.25 422.07 168.02 422.26 167.71 422.42 167.37 422.49 166.94 422.57 166.48 422.57 165.95 422.57 114.53 422.57 113.49 422.53 112.54 422.42 111.73 422.3 111 422.15 110.43 421.96 109.89 421.73 109.43 421.46 109.08 421.15 108.74 420.77 108.47 420.38 108.24 419.92 108.05 418.93 107.7 417.7 107.32 417.7 105.86 419.08 105.4 420.46 104.9 421.8 104.37 423.11 103.83 424.29 103.33 425.41 102.8 426.4 102.34 427.21 101.88 427.9 101.49 428.47 101.19 428.93 100.96 429.24 100.88 429.43 100.92 429.59 100.96 429.7 101.07 429.82 101.22 429.89 101.42 429.93 101.65 429.97 101.91 429.97 102.18 429.97 165.95 430.01 166.48 430.05 166.94 430.16 167.37 430.31 167.71 430.51 168.02 430.74 168.25 431.01 168.44 431.31 168.59 431.62 168.75 432 168.82 432.39 168.9 432.77 168.94 433.65 168.98 434.57 168.98 436.14 168.98 436.14 171.39 434.95 171.39 433.77 171.35 432.58 171.35 431.39 171.32 430.16 171.28 428.93 171.24 427.71 171.2 426.48 171.2 425.22 171.2 423.95 171.24 422.72 171.24 421.46 171.28 420.19 171.28 418.96 171.32 417.66 171.35 416.4 171.39 416.4 168.98"></polygon><path class="cls-1" d="M467.47,140.64h0v-.61l-.04-.58-.08-.58-.12-.54-.15-.54-.15-.46-.19-.46-.23-.42-.23-.42-.23-.38-.31-.35-.27-.35-.34-.31-.31-.31-.34-.27-.35-.23-.38-.23-.38-.23-.38-.19-.38-.15-.84-.31-.81-.23-.84-.15-.81-.11-.81-.08h-1.42l-.61.04-.61.08-.61.11-.61.15-.61.15-.61.19-.61.23-.57.27-.61.27-.58.35-.54.35-.58.42-.54.42-.5.46-.5.5-.5.54-.46.58-.42.61-.42.65-.38.73-.38.73-.31.77-.31.81-.31.84-.23.88-.19.92-.19,1-.15,1-.08,1.07-.08,1.11v2.07l.04.92.12.92.11.88.15.88.19.84.23.84.23.81.31.8.31.77.34.73.34.73.38.69.42.65.46.65.5.61.5.58.5.54.54.54.58.46.61.46.61.42.61.38.65.35.69.31.65.27.73.23.73.19.73.15.77.08.77.08.77.04.54-.04.65-.08.65-.12.73-.15.73-.19.77-.27.73-.27.73-.34.69-.38.65-.38.27-.23.31-.23.27-.23.23-.27.23-.23.19-.27.19-.27.12-.31.11-.27.11-.31.04-.31v-21.47ZM474.87,163.46v.65l.04.61.08.5.08.42.11.38.19.31.19.23.23.19.27.15.31.15.38.08.42.04,1,.08h2.8v1.84h-.11l-.54.12-.69.15-.73.23-.81.23-.88.23-.92.27-1,.31-.96.31-1.07.35-1,.35-.88.31-.84.27-.69.23-.61.19-.46.12-.27.04h-.15l-.15-.04-.12-.08-.12-.12-.11-.11-.08-.15-.08-.15-.04-.19-.11-.38-.04-.42v-.42l-.04-.42v-4.26h-.15l-.65.65-.69.65-.73.61-.77.58-.81.61-.81.54-.88.54-.88.5-.92.42-.96.42-.96.35-.96.31-1.04.27-1,.15-1.04.12-1.07.04-1-.04-1-.08-1-.12-.92-.19-.92-.23-.84-.31-.84-.34-.84-.38-.77-.42-.77-.46-.69-.5-.69-.54-.65-.58-.65-.61-.58-.65-.58-.69-.54-.69-.5-.77-.46-.77-.42-.77-.38-.84-.38-.84-.31-.84-.31-.88-.27-.88-.23-.92-.19-.92-.15-.92-.12-.96-.11-.96-.04-.96v-2.15l.11-1.15.12-1.11.19-1.15.27-1.11.31-1.11.34-1.07.42-1.04.46-1.04.5-1.04.54-.96.58-.96.65-.92.65-.92.73-.84.73-.84.81-.8.81-.73.88-.73.88-.69.92-.61.96-.58,1-.54,1-.5,1.04-.42,1.07-.38,1.07-.35,1.11-.27,1.15-.23,1.15-.15,1.15-.08,1.19-.04,1.11.04,1.11.08,1.11.12,1.11.19,1.07.23,1.07.27,1.07.35,1,.38v-17.37l-.04-.96-.11-.81-.11-.73-.15-.57-.19-.54-.23-.46-.27-.35-.31-.35-.38-.27-.38-.23-.46-.19-1-.35-1.23-.38v-1.46l1.38-.46,1.38-.5,1.34-.54,1.3-.54,1.19-.5,1.11-.54,1-.46.81-.46.69-.38.58-.31.46-.23.31-.08.19.04.15.04.11.12.12.15.08.19.04.23.04.27v61.54Z"></path><polygon class="cls-1" points="485.3 158.55 485.57 159.7 485.87 160.81 486.26 161.88 486.68 162.88 486.91 163.38 487.18 163.88 487.45 164.34 487.71 164.8 488.02 165.26 488.37 165.68 488.67 166.1 489.02 166.48 489.4 166.87 489.79 167.21 490.17 167.56 490.59 167.86 491.05 168.17 491.47 168.44 491.97 168.71 492.43 168.94 492.93 169.13 493.47 169.32 494 169.47 494.54 169.59 495.11 169.7 495.69 169.78 496.3 169.82 496.92 169.82 497.42 169.82 497.91 169.78 498.37 169.74 498.8 169.67 499.22 169.59 499.64 169.51 500.02 169.4 500.41 169.25 500.75 169.09 501.06 168.94 501.4 168.79 501.67 168.59 502.25 168.21 502.71 167.75 503.13 167.29 503.47 166.75 503.78 166.22 504.01 165.64 504.16 165.07 504.32 164.49 504.39 163.88 504.39 163.26 504.36 162.31 504.16 161.38 503.9 160.58 503.55 159.81 503.09 159.08 502.55 158.43 501.94 157.86 501.25 157.28 500.52 156.78 499.75 156.28 498.91 155.82 498.03 155.36 496.23 154.48 494.35 153.64 493.39 153.18 492.47 152.72 491.55 152.26 490.67 151.72 489.79 151.19 488.94 150.57 488.17 149.92 487.41 149.23 486.76 148.5 486.14 147.66 485.61 146.78 485.15 145.82 484.76 144.74 484.49 143.59 484.34 142.37 484.26 141.02 484.3 140.53 484.34 140.03 484.38 139.53 484.49 139.03 484.61 138.53 484.72 138.03 484.92 137.5 485.11 137 485.3 136.5 485.57 136 485.84 135.5 486.14 135 486.45 134.54 486.83 134.08 487.22 133.62 487.64 133.16 488.06 132.74 488.56 132.36 489.06 131.98 489.59 131.59 490.17 131.25 490.78 130.9 491.4 130.59 492.09 130.33 492.78 130.1 493.5 129.87 494.27 129.67 495.08 129.52 495.88 129.37 496.76 129.29 497.65 129.21 498.6 129.21 499.75 129.25 500.98 129.37 502.29 129.56 503.63 129.87 504.28 130.02 504.97 130.21 505.66 130.44 506.35 130.67 507.04 130.94 507.73 131.25 508.42 131.55 509.11 131.9 509.76 141.29 507.65 141.29 507.42 140.26 507.19 139.22 506.89 138.3 506.5 137.42 506.31 137 506.08 136.61 505.85 136.23 505.62 135.85 505.35 135.5 505.08 135.16 504.78 134.85 504.47 134.54 504.16 134.28 503.82 134.01 503.47 133.74 503.09 133.51 502.75 133.32 502.32 133.13 501.94 132.93 501.52 132.78 501.06 132.63 500.6 132.51 500.14 132.4 499.68 132.32 499.18 132.24 498.64 132.21 498.11 132.17 497.57 132.17 496.88 132.21 496.19 132.24 495.54 132.4 494.88 132.55 494.27 132.78 493.66 133.05 493.12 133.36 492.58 133.74 492.12 134.12 491.66 134.58 491.28 135.08 490.97 135.62 490.86 135.92 490.71 136.23 490.63 136.54 490.51 136.84 490.48 137.19 490.4 137.54 490.4 137.88 490.36 138.26 490.44 139.22 490.63 140.14 490.9 140.95 491.28 141.71 491.78 142.4 492.35 143.06 493.01 143.67 493.73 144.21 494.5 144.74 495.35 145.2 496.23 145.7 497.15 146.12 499.1 147.01 501.1 147.85 502.09 148.31 503.09 148.77 504.05 149.23 505.01 149.77 505.93 150.3 506.81 150.88 507.65 151.53 508.46 152.18 509.15 152.95 509.8 153.75 510.38 154.6 510.87 155.56 511.26 156.59 511.56 157.7 511.72 158.93 511.79 160.23 511.76 160.81 511.72 161.38 511.64 161.96 511.56 162.5 511.41 163.07 511.26 163.65 511.07 164.22 510.84 164.76 510.61 165.3 510.34 165.83 509.99 166.37 509.65 166.87 509.3 167.37 508.88 167.86 508.46 168.32 507.96 168.79 507.46 169.21 506.92 169.63 506.35 170.05 505.77 170.4 505.12 170.78 504.47 171.09 503.74 171.39 503.01 171.66 502.25 171.93 501.44 172.16 500.64 172.35 499.75 172.5 498.83 172.62 497.91 172.7 496.92 172.77 495.92 172.77 495.23 172.77 494.5 172.73 493.77 172.66 493.04 172.54 492.32 172.43 491.59 172.27 490.86 172.08 490.09 171.89 489.36 171.7 488.67 171.43 487.94 171.2 487.25 170.89 486.56 170.63 485.91 170.32 485.26 169.97 484.65 169.63 483.65 159.01 485.3 158.55"></polygon><path class="cls-1" d="M536.49,170.4h0l.84-.04.84-.11.77-.15.77-.19.69-.27.69-.31.69-.35.61-.38.61-.46.54-.5.58-.5.5-.58.46-.58.46-.61.42-.65.42-.69.34-.69.34-.73.35-.73.27-.77.27-.77.27-.77.19-.81.19-.77.19-.81.11-.8.15-.81.08-.77.08-.81.08-.77v-.77l.04-.77-.04-.73-.04-.73-.04-.77-.08-.81-.11-.81-.15-.81-.15-.84-.19-.84-.19-.84-.27-.84-.27-.84-.27-.81-.34-.84-.35-.81-.38-.81-.38-.77-.42-.77-.46-.73-.5-.69-.54-.65-.54-.65-.58-.61-.61-.54-.65-.5-.69-.46-.69-.42-.73-.35-.81-.31-.77-.23-.84-.19-.88-.11-.88-.04-.84.04-.81.11-.81.15-.73.19-.73.27-.65.31-.65.35-.65.38-.58.46-.58.5-.54.5-.5.58-.5.57-.42.61-.42.65-.42.69-.35.69-.34.73-.34.73-.27.77-.27.77-.23.77-.23.81-.19.77-.15.81-.15.81-.11.8-.12.77-.08.81-.04.77-.04.77v1.5l.04.73.04.77.12.81.08.81.15.84.15.8.19.84.23.84.23.84.27.84.27.84.35.81.35.81.38.81.38.77.42.77.46.73.5.69.54.69.54.61.58.61.61.54.65.5.65.46.69.42.73.35.77.31.81.23.84.19.84.11.88.04ZM535.38,129.21l1.19.04,1.19.04,1.15.15,1.15.15,1.07.23,1.11.27,1.03.31,1.04.34,1,.38.96.46.96.46.88.54.88.58.84.61.81.61.77.69.73.73.69.77.65.81.61.84.58.84.54.92.5.96.42.96.38,1,.35,1.03.31,1.07.23,1.11.19,1.11.12,1.15.11,1.19v2.34l-.11,1.11-.12,1.07-.19,1.07-.23,1.04-.27,1.04-.35,1.04-.38,1-.42.96-.46.96-.5.92-.58.88-.58.84-.61.84-.69.81-.69.77-.73.73-.77.69-.8.69-.84.61-.84.58-.88.54-.92.5-.96.42-.96.42-1,.35-1,.31-1.04.23-1.07.19-1.04.15-1.11.08-1.07.04h-1.15l-1.15-.08-1.11-.15-1.07-.15-1.07-.23-1.07-.27-1.04-.31-1-.35-1-.38-.96-.46-.96-.46-.88-.54-.88-.58-.84-.61-.81-.61-.81-.69-.73-.73-.69-.77-.69-.81-.61-.84-.58-.84-.54-.92-.5-.96-.46-.96-.38-1-.38-1.04-.31-1.07-.23-1.11-.19-1.11-.15-1.19-.08-1.15-.04-1.23.04-1.11.08-1.11.12-1.07.15-1.07.23-1.04.27-1.04.31-1.04.38-1,.38-.96.46-.96.5-.92.5-.88.58-.84.61-.84.65-.81.69-.77.69-.73.77-.69.81-.69.81-.61.84-.58.88-.54.92-.5.96-.42,1-.42,1-.35,1-.31,1.07-.23,1.07-.19,1.11-.15,1.11-.08,1.15-.04Z"></path><polygon class="cls-1" points="561.3 141.48 561.3 140.87 561.26 140.33 561.18 139.8 561.07 139.34 560.91 138.92 560.76 138.53 560.53 138.15 560.26 137.8 559.92 137.5 559.53 137.19 559.11 136.88 558.61 136.61 558.04 136.31 557.42 136.04 556.73 135.73 555.93 135.39 555.93 133.66 557.42 133.16 558.88 132.67 560.38 132.17 561.87 131.67 563.37 131.13 564.9 130.56 566.51 129.9 568.12 129.21 568.24 129.21 568.31 129.25 568.43 129.29 568.5 129.41 568.58 129.52 568.62 129.67 568.66 129.87 568.7 130.13 568.7 136.12 570.61 134.74 572.53 133.47 573.45 132.86 574.41 132.28 575.37 131.75 576.33 131.25 577.29 130.79 578.28 130.4 579.28 130.06 580.28 129.75 581.31 129.52 582.38 129.37 583.5 129.25 584.65 129.21 585.38 129.21 586.07 129.29 586.72 129.37 587.37 129.48 587.94 129.6 588.56 129.79 589.09 129.98 589.63 130.21 590.13 130.48 590.59 130.75 591.05 131.06 591.47 131.4 591.86 131.75 592.24 132.13 592.58 132.55 592.89 132.97 593.2 133.43 593.47 133.89 593.73 134.39 593.96 134.89 594.19 135.39 594.39 135.96 594.54 136.5 594.69 137.07 594.85 137.65 594.96 138.26 595.04 138.88 595.11 139.53 595.23 140.79 595.27 142.14 595.27 165.95 595.27 166.48 595.34 166.94 595.46 167.37 595.61 167.71 595.8 168.02 596.03 168.25 596.3 168.44 596.61 168.59 596.92 168.75 597.26 168.82 597.65 168.9 598.07 168.94 598.95 168.98 599.87 168.98 601.52 168.98 601.52 171.39 600.33 171.39 599.1 171.35 597.91 171.35 596.69 171.32 595.46 171.28 594.23 171.24 593.01 171.2 591.74 171.2 590.51 171.2 589.25 171.24 588.02 171.24 586.76 171.28 585.53 171.28 584.26 171.32 583.04 171.35 581.77 171.39 581.77 168.98 583.46 168.98 584.38 168.98 585.22 168.94 585.61 168.9 585.99 168.82 586.33 168.75 586.64 168.59 586.91 168.44 587.14 168.25 587.37 168.02 587.56 167.71 587.68 167.37 587.79 166.94 587.87 166.48 587.87 165.95 587.87 142.02 587.87 141.56 587.83 141.1 587.79 140.64 587.71 140.18 587.64 139.76 587.56 139.38 587.41 138.95 587.29 138.61 587.14 138.23 586.95 137.88 586.79 137.57 586.56 137.23 586.37 136.96 586.1 136.65 585.87 136.38 585.61 136.15 585.34 135.92 585.03 135.69 584.72 135.46 584.38 135.27 584.03 135.12 583.69 134.97 583.3 134.81 582.92 134.7 582.12 134.47 581.27 134.31 580.35 134.24 579.39 134.2 578.82 134.24 578.21 134.31 577.55 134.43 576.9 134.62 576.21 134.81 575.52 135.08 574.79 135.35 574.06 135.66 572.65 136.35 571.23 137.07 569.88 137.84 568.7 138.61 568.7 165.95 568.7 166.48 568.77 166.94 568.89 167.37 569.04 167.71 569.23 168.02 569.46 168.25 569.73 168.44 570 168.59 570.35 168.75 570.69 168.82 571.07 168.9 571.5 168.94 572.34 168.98 573.3 168.98 574.95 168.98 574.95 171.39 573.76 171.39 572.53 171.35 571.3 171.35 570.12 171.32 568.89 171.28 567.66 171.24 566.4 171.2 565.17 171.2 563.94 171.2 562.68 171.24 561.45 171.24 560.18 171.28 558.96 171.28 557.69 171.32 556.46 171.35 555.2 171.39 555.2 168.98 556.85 168.98 557.81 168.98 558.65 168.94 559.03 168.9 559.42 168.82 559.72 168.75 560.03 168.59 560.34 168.44 560.57 168.25 560.8 168.02 560.95 167.71 561.1 167.37 561.22 166.94 561.26 166.48 561.3 165.95 561.3 141.48"></polygon><rect class="cls-2" x="117.66" y="177.11" width="4.52" height="4.52"></rect><path class="cls-1" d="M147.72,187.34h0l-.34,1.11-.38,1.11-.42,1.07-.5,1.07-.5,1.04-.54,1-.61,1-.61.96-.69.96-.69.88-.77.88-.77.84-.81.84-.84.77-.84.77-.92.69-.92.69-.96.65-.96.61-1,.58-1.04.5-1.07.5-1.07.46-1.11.38-1.11.38-1.11.31-1.15.27-1.19.23-1.19.15-1.19.15-1.23.08h-2.57l-1.3-.12-1.27-.11-1.3-.23-1.23-.23-1.23-.31-1.23-.38-1.19-.42-1.15-.46-1.15-.5-1.11-.58-1.07-.58-1.07-.65-1-.69-1-.73-.96-.77.58.96.61,1,.65.92.65.96.73.88.73.88.73.88.81.81.81.8.81.81.88.77.88.73.88.69.96.65.92.65,1,.61.96.61,1.04.54,1.04.54,1.04.46,1.07.46,1.07.42,1.11.42,1.11.34,1.15.31,1.15.27,1.15.27,1.19.19,1.19.19,1.23.12,1.19.08,1.23.08h1.34l1.3-.04,1.3-.08,1.27-.15,1.26-.15,1.27-.23,1.27-.27,1.23-.31,1.19-.35,1.19-.38,1.19-.42,1.15-.46,1.15-.5,1.11-.54,1.07-.61,1.07-.61,1.07-.65,1-.65,1.03-.73.96-.77.96-.77.92-.81.88-.88.84-.84.84-.92.81-.92.77-.96.73-1,.73-1,.65-1.07.65-1.04.61-1.11.58-1.3.58-1.34.54-1.34.46-1.38.46-1.42.42-1.38.35-1.46.35-1.42.08-.58.08-.54.08-.57.04-.54h-20.97ZM131.77,224.38h0l-1.92-.08-1.92-.19-1.88-.27-1.84-.35-1.84-.42-1.76-.54-1.76-.58-1.73-.69-1.65-.73-1.65-.8-1.57-.88-1.57-.96-1.5-1.04-1.42-1.07-1.42-1.15-1.34-1.19-1.3-1.27-1.23-1.3-1.15-1.38-1.11-1.42-1.07-1.46-1-1.53-.92-1.57-.84-1.61-.77-1.61-.73-1.69-.61-1.73-.58-1.76-.46-1.8-.38-1.8-.34-1.84-.23-1.88-.04-.23-.08-.23h-21.09l.38,2.19.5,2.15.61,2.11.69,2.11.77,2.03.84,1.99.96,1.96,1,1.88,1.11,1.88,1.19,1.8,1.27,1.73,1.3,1.69,1.42,1.61,1.46,1.57,1.53,1.5,1.57,1.42,1.65,1.38,1.73,1.3,1.76,1.19,1.84,1.15,1.88,1.07,1.92.96,1.96.92,2.03.81,2.07.73,2.11.65,2.15.54,2.15.46,2.22.35,2.22.27,2.3.15,2.3.04,1.57-.04,1.57-.04,1.57-.15,1.57-.15,1.53-.23,1.5-.27,1.5-.31,1.5-.35,1.5-.42,1.42-.42,1.46-.5,1.42-.54,1.38-.58,1.38-.61,1.34-.65,1.3-.69-1.38.38-1.46.31-1.42.23-1.46.23-1.46.15-1.5.08-1.49.04h-1.53ZM92.16,171.47h0l.35-1.15.38-1.11.42-1.07.5-1.07.5-1.04.57-1,.58-1,.65-.96.65-.92.69-.92.77-.88.77-.84.81-.81.84-.81.84-.73.92-.73.92-.69.96-.65.96-.61,1.04-.54,1.04-.54,1.04-.5,1.07-.46,1.11-.38,1.11-.38,1.15-.31,1.15-.27,1.15-.23,1.19-.15,1.23-.15,1.19-.08h1.27l1.3.04,1.3.08,1.3.15,1.27.19,1.23.27,1.26.31,1.19.35,1.19.42,1.15.46,1.15.5,1.11.58,1.07.58,1.07.65,1,.69,1,.73.96.81-.58-1-.61-1-.65-.92-.65-.92-.69-.92-.73-.88-.77-.84-.77-.84-.84-.81-.81-.81-.88-.73-.88-.73-.88-.73-.92-.65-.96-.65-.96-.61-1-.58-1.04-.58-1.03-.5-1.04-.5-1.07-.46-1.07-.42-1.11-.38-1.11-.38-1.15-.31-1.15-.27-1.15-.27-1.19-.19-1.19-.19-1.19-.12-1.23-.08-1.23-.08h-1.34l-1.3.04-1.3.08-1.26.15-1.27.15-1.27.23-1.23.27-1.23.31-1.23.35-1.19.38-1.19.42-1.15.46-1.15.5-1.11.57-1.07.58-1.07.61-1.07.65-1,.69-1,.69-1,.77-.92.77-.92.84-.92.84-.84.88-.84.88-.81.92-.77.96-.73,1-.73,1.04-.65,1.04-.65,1.04-.58,1.11-.61,1.3-.58,1.34-.54,1.34-.46,1.38-.46,1.42-.42,1.42-.35,1.42-.34,1.46-.08.54-.08.54-.08.58-.04.58h20.97ZM148.03,107.24h0v31.36l-1.49-1-1.57-.96-1.57-.88-1.65-.84-1.65-.81-1.69-.69-1.73-.65-1.76-.61-1.76-.54-1.84-.46-1.84-.38-1.84-.35-1.92-.23-1.88-.19-1.96-.12-1.92-.04-1.61.04-1.57.08-1.57.12-1.53.15-1.53.23-1.53.27-1.5.31-1.5.35-1.46.42-1.46.42-1.46.5-1.38.54-1.42.57-1.34.61-1.34.65-1.34.69,1.42-.35,1.42-.31,1.42-.27,1.46-.19,1.5-.15,1.46-.12,1.5-.04h1.53l1.92.08,1.92.19,1.88.27,1.84.35,1.84.46,1.76.5,1.76.58,1.73.69,1.65.73,1.65.84,1.57.88,1.57.92,1.49,1.04,1.46,1.07,1.38,1.15,1.34,1.19,1.3,1.27,1.23,1.3,1.19,1.38,1.11,1.42,1.04,1.49,1,1.5.92,1.57.84,1.61.77,1.65.73,1.69.61,1.69.58,1.76.46,1.8.42,1.8.31,1.88.23,1.84.08.27.04.23h21.09v-64.23h-20.78ZM99.45,179.37l.04-1.04.08-1.04.11-1.03.19-1,.23-1,.27-1,.31-.92.38-.96.42-.88.42-.88.5-.88.54-.81.57-.8.61-.81.65-.73.65-.73.73-.65.73-.65.81-.61.81-.58.8-.54.88-.5.88-.42.88-.42.96-.38.92-.31,1-.27,1-.23,1-.19,1.04-.12,1.04-.08,1.04-.04,1.07.04,1.04.08,1.04.12,1,.19,1,.23.96.27.96.31.92.38.92.42.88.42.84.5.84.54.81.58.77.61.73.65.73.65.69.73.61.73.61.81.57.8.54.81.5.88.46.88.38.88.38.96.31.92.31,1,.19,1,.19,1,.15,1.03.08,1.04v2.11l-.08,1.04-.15,1.04-.19,1-.19,1-.31.96-.31.96-.38.92-.38.92-.46.88-.5.84-.54.84-.57.81-.61.77-.61.73-.69.73-.73.69-.73.61-.77.61-.81.58-.84.54-.84.5-.88.46-.92.38-.92.38-.96.31-.96.31-1,.23-1,.15-1.04.15-1.04.08h-2.11l-1.04-.08-1.04-.15-1-.15-1-.23-1-.31-.92-.31-.96-.38-.88-.38-.88-.46-.88-.5-.8-.54-.81-.58-.81-.61-.73-.61-.73-.69-.65-.73-.65-.73-.61-.77-.57-.81-.54-.84-.5-.84-.42-.88-.42-.92-.38-.92-.31-.96-.27-.96-.23-1-.19-1-.11-1.04-.08-1.04-.04-1.07Z"></path><polygon class="cls-1" points="145 224.27 148.45 224.27 148.45 224.77 147.03 224.77 147.03 228.49 146.46 228.49 146.46 224.77 145 224.77 145 224.27"></polygon><polygon class="cls-1" points="152.32 228.49 152.32 225.99 152.32 225.57 152.32 224.92 151.14 228.49 150.56 228.49 149.37 224.96 149.37 225.57 149.37 225.99 149.37 228.49 148.84 228.49 148.84 224.27 149.64 224.27 150.83 227.83 150.87 227.83 152.06 224.27 152.86 224.27 152.86 228.49 152.32 228.49"></polygon></svg>