<svg xmlns="http://www.w3.org/2000/svg" id="Capa_1" data-name="Capa 1" viewBox="0 0 686.01 305.36"><defs><style>      .cls-1 {        fill: #231f20;        stroke-width: 0px;      }    </style></defs><path class="cls-1" d="M439.6,192.27c-10.97,0-20.43.29-29.85-.2-2.41-.13-5.59-2.2-6.86-4.31-4.16-6.93-7.6-14.29-12.1-22.98-2.04,8.84-3.49,15.98-5.44,22.99-.48,1.72-2.52,4.19-3.95,4.26-8.35.4-16.73.2-26.26.2,2.46-10.52,4.65-19.91,6.85-29.28,3.56-15.17,7.33-30.3,10.56-45.53.89-4.19,2.6-5.38,6.61-5.34,16.4.18,32.81-.05,49.21.17,10.04.13,13.76,3.94,14.41,13.95.17,2.55.15,5.13.04,7.68-.76,18.66-4.17,22.76-22.54,26.3,6.28,10.44,12.4,20.62,19.31,32.1ZM394.26,149.48c5.29,0,9.86.29,14.38-.07,6.23-.5,8.73-4.89,8.91-10.48.21-6.21-4.37-6.5-9.01-6.4-3.5.07-7.01.01-10.64.01-1.27,5.89-2.37,11.05-3.64,16.93Z"></path><path class="cls-1" d="M363.56,112.5c-.08,1.56,0,2.34-.18,3.07-1.65,6.97-1.38,15.72-5.62,20.33-3.53,3.84-12.36,2.8-19.39,4.02-3.83,16.9-7.77,34.32-11.77,52h-29.89c3.88-17.74,7.66-35.05,11.61-53.16h-19.28c2.12-9.24,4.05-17.62,6.03-26.26h68.48Z"></path><path class="cls-1" d="M238.07,192.27c6.15-27.1,12.07-53.19,18.08-79.68h29.56c-2.16,9.22-4.23,18.02-6.28,26.82-3.66,15.69-7.49,31.33-10.83,47.09-.93,4.37-2.54,6.06-7.05,5.86-7.38-.32-14.78-.09-23.48-.09Z"></path><path class="cls-1" d="M342.09,252.86c-30.64-.66-55.75-12.07-76.03-34.14-1.38-1.5-3.32-3.12-3.57-4.88-.37-2.64-.42-6.65,1.13-7.86,1.67-1.31,6.12-1.11,7.98.27,4.05,3.01,7.03,7.41,10.81,10.85,35.49,32.35,89.02,30.91,122.77-3.21,1.8-1.82,3.58-3.68,5.21-5.65,2.94-3.55,6.51-5.81,10.46-2.28,3.99,3.57,1.79,7.43-1.1,10.77-20.65,23.85-46.82,35.68-77.67,36.14Z"></path><path class="cls-1" d="M354.9,52.5c16.29.22,40.97,10.87,61.22,31.79,1.77,1.83,4.01,3.74,4.65,6,.64,2.26.42,5.97-1.02,7.29-1.5,1.37-5.01,1.13-7.47.67-1.46-.27-2.62-2.29-3.85-3.59-37.99-40.2-95.7-40-133.09.53-3.18,3.45-6.52,6.72-10.96,2.77-4.49-3.99-1.47-7.86,1.49-11.31,18.32-21.37,35.26-34.13,89.02-34.13Z"></path><path class="cls-1" d="M207.9,157.12c-6.39,0-12.82.44-19.13-.23-2.3-.24-4.33-3.13-6.48-4.81,2.04-1.43,4.05-4.03,6.13-4.09,13.02-.38,26.06-.42,39.07.02,2.2.07,4.3,2.99,6.45,4.59-2.29,1.51-4.48,4.09-6.9,4.32-6.33.61-12.75.21-19.14.2Z"></path><path class="cls-1" d="M477.94,157.11c-6.64,0-13.32.38-19.91-.22-2.11-.19-3.98-2.95-5.96-4.54,1.95-1.52,3.86-4.3,5.85-4.36,13.28-.39,26.57-.39,39.85,0,2.03.06,3.98,2.81,5.97,4.31-1.95,1.6-3.8,4.39-5.88,4.57-6.59.6-13.27.22-19.91.22Z"></path><path class="cls-1" d="M474.62,172.69c-6.63,0-13.29.34-19.88-.2-2.15-.18-4.11-2.65-6.15-4.08,2.08-1.68,4.1-4.75,6.23-4.82,12.99-.45,26.01-.45,39,0,2.08.07,4.05,3.21,6.07,4.93-2.05,1.39-4.02,3.79-6.17,3.97-6.33.54-12.73.19-19.11.19Z"></path><path class="cls-1" d="M485.46,125.22c-6.4,0-12.84.38-19.19-.19-2.41-.22-4.62-2.63-6.93-4.04,2.11-1.71,4.17-4.82,6.34-4.89,13.05-.46,26.12-.42,39.17,0,1.93.06,3.77,3.06,5.65,4.7-1.94,1.47-3.79,4.04-5.85,4.22-6.35.56-12.79.2-19.19.2Z"></path><path class="cls-1" d="M203.71,172.68c-6.42,0-12.87.37-19.23-.23-1.97-.18-3.69-3-5.53-4.62,1.73-1.49,3.43-4.21,5.19-4.26,13.59-.36,27.21-.36,40.8,0,1.74.05,3.41,2.83,5.11,4.34-1.85,1.58-3.61,4.37-5.58,4.53-6.88.56-13.84.22-20.77.21Z"></path><path class="cls-1" d="M215.36,125.21c-6.4,0-12.83.39-19.17-.22-2.28-.22-4.33-2.87-6.48-4.41,1.96-1.57,3.88-4.43,5.89-4.5,13.04-.41,26.1-.44,39.13.03,2.08.08,4.05,3.32,6.07,5.1-2.08,1.34-4.09,3.65-6.26,3.83-6.35.52-12.78.18-19.17.18Z"></path><path class="cls-1" d="M211.38,132.06c6.66,0,13.35-.34,19.96.2,2.13.18,4.07,2.7,6.1,4.15-1.92,1.62-3.8,4.58-5.78,4.65-13.3.42-26.63.42-39.94,0-1.91-.06-3.72-3.1-5.58-4.76,2.01-1.42,3.93-3.88,6.04-4.06,6.36-.54,12.79-.2,19.19-.19Z"></path><path class="cls-1" d="M481.64,132.07c6.65,0,13.32-.3,19.93.19,1.93.14,3.7,2.53,5.54,3.89-1.81,1.7-3.57,4.82-5.44,4.88-13.28.43-26.59.44-39.87.04-1.99-.06-3.89-2.92-5.83-4.49,1.91-1.51,3.72-4.15,5.74-4.32,6.6-.55,13.28-.21,19.92-.2Z"></path><path class="cls-1" d="M200.81,188.36c-6.4,0-12.83.35-19.19-.2-2.14-.18-4.08-2.65-6.11-4.08,2.07-1.69,4.08-4.76,6.2-4.84,12.79-.46,25.6-.46,38.39,0,2.24.08,4.38,3.06,6.56,4.7-2.22,1.47-4.34,4-6.67,4.22-6.35.59-12.78.2-19.18.2Z"></path><path class="cls-1" d="M470.73,188.34c-6.65,0-13.34.36-19.94-.22-1.97-.17-3.7-2.99-5.54-4.59,1.74-1.49,3.45-4.23,5.23-4.28,13.55-.36,27.12-.39,40.67.05,1.78.06,3.45,3.37,5.17,5.18-1.88,1.29-3.69,3.55-5.64,3.69-6.62.47-13.29.18-19.94.18Z"></path></svg>