<svg xmlns="http://www.w3.org/2000/svg" id="Capa_1" data-name="Capa 1" viewBox="0 0 686.01 305.36"><defs><style>      .cls-1 {        fill-rule: evenodd;      }      .cls-1, .cls-2 {        fill: #231f20;        stroke-width: 0px;      }    </style></defs><path class="cls-2" d="M446.27,230.09c-7.93,0-118.23-.4-184.81-.64l-47.05-.17.81-5.03c3.13-19.5,10.54-65.63,11.72-72.74,1.08-6.51,10.45-60.84,12.82-72.99l.64-3.26,233.26.92-.61,4.53c-1.32,9.86-8.62,56.77-14.48,94.46-3.63,23.33-6.77,43.49-7.97,51.49l-.51,3.39-3.43.03c-.07,0-.2,0-.4,0ZM223.83,221.29l37.66.14c58.02.21,161.51.58,181.7.63,1.45-9.52,4.26-27.59,7.45-48.11,5.21-33.5,11.56-74.29,13.82-89.77l-217.44-.86c-3.06,16.44-11.17,63.48-12.16,69.5-1.1,6.62-7.62,47.22-11.03,68.46Z"></path><path class="cls-1" d="M359.21,207.47l-28.71.4c2.03-18.1,5.69-37.31,8.5-55.46l8.86-55.05,29.1.11-17.75,110Z"></path><path class="cls-2" d="M330.12,208.21l.04-.38c1.39-12.38,3.56-25.4,5.65-37.98.96-5.77,1.95-11.74,2.84-17.49l8.9-55.34h.29s29.5.11,29.5.11l-.06.39-17.79,110.28-29.38.41ZM348.15,97.7l-8.81,54.77c-.89,5.75-1.88,11.72-2.85,17.49-2.07,12.45-4.21,25.32-5.61,37.56l28.04-.39,17.64-109.33-28.41-.11Z"></path><path class="cls-1" d="M303.14,207.88l-19.77.03-2.09-64.74c-2.64,4.91-12.52,57.05-15.24,63.83l-28.41.12,21.17-110.95,44.59-.23.69,61.44c5.31-7.33,32.24-50.28,38.08-59.99-.29,2.43-6.63,45.78-8.97,58.92-19.26,33.31-19.75,34.95-30.06,51.57Z"></path><path class="cls-2" d="M283.05,208.25v-.33s-2.04-63.1-2.04-63.1c-1.62,4.9-4.62,18.76-7.53,32.22-2.99,13.82-5.82,26.87-7.1,30.09l-.08.21-29.05.12.08-.4,21.22-111.22h.28s44.93-.24,44.93-.24l.68,60.73c6.42-9.23,31.6-49.37,37.46-59.11l.82-1.36-.19,1.57c-.29,2.4-6.59,45.6-8.98,58.94l-.04.11c-6.77,11.71-11.3,19.63-14.6,25.42-6.21,10.88-8.78,15.38-15.47,26.16l-.1.16-20.28.03ZM281.59,141.9l2.12,65.67,19.25-.02c6.61-10.65,9.18-15.16,15.36-25.98,3.3-5.78,7.81-13.68,14.57-25.37,2.17-12.18,7.56-48.84,8.74-57.22-7.38,12.13-32.22,51.66-37.25,58.61l-.6.83-.7-62.13-43.97.23-21.04,110.27,27.76-.12c1.3-3.5,4.07-16.27,6.99-29.77,3.32-15.36,6.76-31.24,8.18-33.89l.6-1.11Z"></path><path class="cls-1" d="M379.51,120.74l4.17-23.6c12.62-.05,25.56-.44,38.07-.21,22.32.41,29.67,30.45,8.45,50.61-5.26,5-15.5,7.5-23.95,10.99,9.34,15.09,20.29,31.03,22.85,49.1l-36.2.55c-.89-13.71-5.94-38.2-20.15-44.15l4.22-24.58c3.77-.31,7.21-.04,10.55.07,31.49,1.08,23.34-17.64,12.75-18.82-6.63-.74-15.3-.12-20.75.02Z"></path><path class="cls-2" d="M392.58,208.54l-.02-.32c-.24-3.74-2.86-36.7-19.95-43.86l-.25-.1,4.31-25.1.26-.02c3.03-.25,5.83-.13,8.55-.01.69.03,1.37.06,2.04.08,13.24.45,21.41-2.75,21.83-8.56.32-4.37-4.12-9.02-9.14-9.58-5.14-.57-11.53-.32-16.66-.12-1.47.06-2.83.11-4.04.14h-.41s4.29-24.27,4.29-24.27h.28c4.42-.02,8.96-.08,13.35-.14,8.16-.11,16.59-.22,24.73-.07,8.99.17,16.32,5.3,19.59,13.73,4.67,12.02.39,26.73-10.92,37.47-3.86,3.67-10.45,6.04-16.82,8.33-2.29.82-4.65,1.67-6.86,2.57.87,1.4,1.75,2.81,2.63,4.22,8.72,13.93,17.74,28.33,20.05,44.67l.05.38-36.91.56ZM373.12,163.84c16.83,7.34,19.73,38.99,20.09,44.01l35.49-.54c-2.38-16.04-11.28-30.26-19.9-44.03-.96-1.53-1.91-3.05-2.85-4.57l-.21-.34.37-.15c2.33-.96,4.84-1.87,7.26-2.74,6.31-2.27,12.82-4.62,16.58-8.19,11.1-10.55,15.32-24.97,10.75-36.73-3.22-8.28-10.14-13.13-18.97-13.29-8.12-.15-16.56-.04-24.71.07-4.3.06-8.74.12-13.07.14l-4.05,22.91c1.1-.03,2.32-.08,3.61-.13,5.16-.2,11.57-.45,16.77.13,5.45.61,10.09,5.52,9.74,10.3-.22,2.99-2.85,9.87-22.54,9.19-.68-.02-1.36-.05-2.05-.08-2.61-.11-5.31-.23-8.2-.01l-4.13,24.05Z"></path></svg>