<svg xmlns="http://www.w3.org/2000/svg" id="Capa_1" data-name="Capa 1" viewBox="0 0 686.01 305.36"><defs><style>      .cls-1 {        fill: #231f20;        stroke-width: 0px;      }    </style></defs><path class="cls-1" d="M143.56,156.68c28.77,1.82,44.28,21.92,36.61,46.31-2.11,6.71-5.27,9.78-12.76,9.57-18.05-.51-36.14-.43-54.2-.03-6.53.14-8.45-1.88-8.37-8.4.33-27.63.37-55.27-.01-82.9-.11-7.7,3.93-9.85,10.11-10.7,20.18-2.77,38.32,19.81,31.55,39.3-.79,2.29-1.9,4.46-2.93,6.85Z"></path><path class="cls-1" d="M209.63,213.88c13.13-22.78,12.51-42.79-.11-59.17-11.19-14.52-23.43-17.12-49.01-9.69,6.07-10.94,9.23-21.84,5.41-33.17-3.99-11.83-13.26-18.67-27.08-24,28.32,0,54.13.06,79.94-.05,4.56-.02,5.08,2.42,5.08,6.07-.06,37.54,0,75.08-.06,112.61-.02,10.65-8.27,3.8-14.15,7.41Z"></path><path class="cls-1" d="M295.94,149.47c11.57,7.25,14.86,14.35,11.51,25.13-3.27,10.51-11.03,14.98-21.75,14.99-11,0-22-.08-32.99.26-5.1.16-7.48-.68-7.36-6.78.43-20.57.31-41.15.06-61.73-.06-5.2.76-7.84,6.83-7.51,10.26.56,20.56.45,30.85.46,9.22,0,16.52,2.9,20.42,12.03,4.06,9.48-.34,16.26-7.57,23.16ZM274.85,176.78c6.83-.81,17.07,2.9,17.69-8.98.65-12.49-10.01-10.03-17.62-11.03-1.04-.14-2.14.1-3.17-.08-8.33-1.4-10.95,1.35-11.43,10.42-.71,13.27,7.8,9,14.53,9.66ZM272.41,126.59c-2.88,1.62-9.26-3.69-11.55,3.23-3.4,10.24.23,14.75,11.09,14.59,3.18-.05,6.42,0,9.53-.56,4.87-.86,8.83-3.08,8.73-8.89-.1-5.91-4.28-7.68-9.16-8.31-2.44-.32-4.95-.06-8.65-.06Z"></path><path class="cls-1" d="M399.03,160.83c0-6.74-.22-13.49.11-20.21.14-2.8-2.1-7.11,2.48-8.06,3.3-.68,9.34-.83,9.99.64,2.59,5.81,4.64,2.92,8.04,1.18,7.65-3.91,15.83-4.75,22.82,1.15,3.49,2.95,5.49,2.68,8.76.17,7.16-5.5,15.2-5.51,22.95-1.66,7.43,3.69,8.12,10.8,7.95,18.25-.24,10.63-.44,21.29.08,31.9.32,6.4-2.86,6.58-7.69,6.58-4.91,0-7.95-.4-7.6-6.74.55-9.9.2-19.85.1-29.78-.05-5.26.74-11.49-7-11.96-8.18-.49-11.39,5.01-11.73,12.08-.45,9.55-.52,19.16-.05,28.71.31,6.14-1.79,7.75-7.75,7.78-6.1.03-7.91-1.86-7.62-7.87.48-9.9.14-19.85.12-29.78-.01-5.03.44-10.45-6.77-10.97-6.94-.5-11.14,3.46-11.66,9.72-.84,10.22-.96,20.56-.43,30.8.36,6.9-2.13,8.44-8.46,8.06-4.79-.29-7.06-1.21-6.76-6.59.43-7.78.11-15.6.11-23.4Z"></path><path class="cls-1" d="M586.54,182.85c-11.16,7.86-21.54,9.68-31.44,1.8-11.19-8.91-11.24-21.7-8.64-34,2.13-10.11,9.73-16.08,20.19-17.6,2.38-.35,4.93-.27,7.3.17,6.44,1.2,11.86,7.38,19.69,1.28,3.65-2.84,8.72-.68,8.52,6.98-.6,22.62-.49,45.26-.04,67.89.13,6.67-1.76,8.28-8.25,8.22-6.2-.06-7.76-2.01-7.44-7.85.47-8.46.12-16.96.12-26.88ZM587.05,161.07c.18-10.22-4.34-16.53-12.12-16.93-8.35-.43-13.73,5.87-13.97,16.38-.25,10.59,4.76,17.68,12.57,17.78,7.7.09,13.34-7.09,13.52-17.23Z"></path><path class="cls-1" d="M542.17,191.02c-7.2-1.37-13.74,2.61-17.36-5.23-1.01-2.19-2.88.21-4.34.84-2.56,1.12-5.09,2.47-7.79,3.06-13.19,2.89-23.34-2.05-25.61-12.21-2.13-9.53,3.73-16.02,17.65-19.34,4.45-1.06,8.97-1.85,13.48-2.67,2.52-.46,5.1-.86,4.88-4.25-.19-2.97-1.11-5.74-4.53-6.33-4.89-.85-9.9-1.74-13.9,2.48-.72.76-1,2.21-1.81,2.54-4.64,1.91-10.54,3.1-13.77-.13-2.41-2.41,1.69-6.99,4.23-9.83,5.78-6.47,24.68-8.85,35.19-4.96,10.85,4.01,10.23,13.29,10.35,22.08.15,10.89-1.35,21.87,3.32,33.95ZM523.06,170.25c-.36-2.42,1.73-7.12-2.98-5.84-6.15,1.67-15.06-.43-17.16,8.56-1.04,4.44,2.99,7.34,6.98,7.48,6.79.24,12.34-2.25,13.17-10.2Z"></path><path class="cls-1" d="M377.53,182.93c-6.47,5.61-12.97,7.78-20.4,7.22-10.23-.78-15.52-5.74-15.87-16.11-.4-12.05.13-24.13-.4-36.16-.27-6.05,2.83-5.89,7.12-5.89,4.66,0,8.23-.1,7.93,6.46-.44,9.91.08,19.85.05,29.78-.02,6.31,1.35,11.75,8.94,11.67,6.91-.07,11.46-3.97,11.82-11.11.5-9.91.74-19.85.47-29.76-.15-5.47,1.34-7.27,7.03-7.15,5.6.12,8.28.99,8.06,7.5-.48,14.17-.03,28.37-.24,42.55-.05,3.32,2.33,8.53-4.35,8.65-4.99.09-11.19,1.88-10.16-7.66Z"></path><path class="cls-1" d="M315.31,152.73c0-10.59.28-21.18-.12-31.75-.21-5.52,1.42-7.57,7.08-7.16,4.55.32,8.01-.04,7.89,6.52-.39,21.52-.35,43.05-.02,64.57.1,6.31-3.04,6.34-7.81,6.61-5.64.32-7.33-1.49-7.13-7.03.38-10.57.11-21.17.11-31.76Z"></path></svg>