<svg xmlns="http://www.w3.org/2000/svg" id="Capa_1" data-name="Capa 1" viewBox="0 0 686.01 305.36"><defs><style>      .cls-1 {        fill: #231f20;        stroke-width: 0px;      }    </style></defs><path class="cls-1" d="M403.69,163.19c-2.5,0-4.15,2-4.15,4.13v45.73h-37.45v-45.33c-.02-2.28-.9-4.55-4.16-4.55-2.5,0-4.48,1.98-4.5,3.9v45.99h-37.23v-74.73h37.39v7.04s1.4-5.67,7.27-6.74c0,0,8.65-.03,17.56-.03h14.11c2.99,1.06,6.2,2.72,7.04,7.08,1.19-3.02,2.98-6.42,7.62-7.05,0,0,8.94-.03,13.95-.03,4.01,0,16.63.03,16.63.03,2.92.15,7.83,3.45,7.83,8.75v65.68h-37.35v-45.08c.12-2.31-1.29-4.78-4.55-4.78M262.04,213.05h-37.67v-74.46h37.67v74.46Z"></path><rect class="cls-1" x="224.37" y="138.59" width="37.67" height="74.46"></rect><path class="cls-1" d="M445.6,213.06v-65.68c0-5.3-4.91-8.61-7.82-8.76,0,0-12.63-.03-16.64-.03-5.01,0-13.95.04-13.95.04-4.64.62-6.43,4.03-7.61,7.04-.84-4.36-4.05-6.02-7.05-7.08h-14.1c-8.92,0-17.57.04-17.57.04-5.86,1.07-7.26,6.73-7.26,6.73v-7.04h-37.39v74.73h37.23v-45.99c.03-1.92,2-3.9,4.5-3.9,3.26,0,4.13,2.27,4.16,4.55v45.34h37.45v-45.74c0-2.13,1.65-4.13,4.15-4.13,3.26,0,4.67,2.49,4.55,4.78v45.09h37.35Z"></path><g><path class="cls-1" d="M352.79,92.41h-128.42v9.23h30.23c2.41,0,4.54,1.13,5.92,2.89,1,1.28,1.61,2.88,1.61,4.63h0v3.76c0,.26-.01.52-.04.77-.39,3.79-3.59,6.75-7.48,6.75h-30.23v9.26h45.98l.11,83.35h37.22l-.11-83.35h45.22v-37.3Z"></path><path class="cls-1" d="M254.6,120.45h0c3.89,0,7.1-2.96,7.48-6.75-.39,3.79-3.59,6.75-7.49,6.75Z"></path><path class="cls-1" d="M262.12,109.16c0-1.75-.6-3.35-1.61-4.63,1,1.28,1.61,2.89,1.61,4.63h0Z"></path></g><path class="cls-1" d="M440.02,77.36h-215.65v5.64h215.65c8.81,0,15.98,7.17,15.98,15.98v107.4c0,8.81-7.17,15.98-15.98,15.98h-215.65v5.64h215.65c11.93,0,21.62-9.7,21.62-21.62v-107.4c0-11.93-9.7-21.62-21.62-21.62"></path></svg>