<svg xmlns="http://www.w3.org/2000/svg" id="Capa_1" data-name="Capa 1" viewBox="0 0 686.01 305.36"><defs><style>      .cls-1 {        fill-rule: evenodd;      }      .cls-1, .cls-2 {        fill: #231f20;        stroke-width: 0px;      }    </style></defs><polyline class="cls-1" points="387.09 59.64 387.32 58.57 387.56 57.61 387.74 56.72 387.92 55.88 388.1 55.16 388.28 54.51 388.4 53.85 388.57 53.26 388.69 52.66 388.81 52.07 388.93 51.53 389.05 50.94 389.23 50.33 389.35 49.67 389.53 49.02 389.65 48.31 389.82 47.47 390.06 46.58 390.3 45.63 390.54 44.54 389.53 43.95 388.57 43.41 387.8 42.94 387.03 42.52 386.31 42.1 385.72 41.75 385.12 41.39 384.53 41.09 383.99 40.74 383.46 40.44 382.92 40.14 382.38 39.84 381.85 39.54 381.25 39.19 380.6 38.83 379.94 38.4 379.17 37.99 378.34 37.51 377.44 36.97 376.43 36.38 375.6 37.15 374.83 37.87 374.17 38.46 373.58 39.07 372.98 39.6 372.44 40.08 371.97 40.56 371.49 40.97 371.08 41.39 370.6 41.75 370.18 42.16 369.71 42.58 369.29 43 368.75 43.47 368.28 43.95 367.68 44.48 367.09 45.09 366.37 45.69 365.66 46.4 364.83 47.17 364.35 47 363.93 46.88 363.46 46.7 363.04 46.58 362.56 46.46 362.09 46.28 361.67 46.16 361.2 46.04 360.78 45.92 360.3 45.81 359.89 45.69 359.41 45.57 358.99 45.45 358.52 45.33 358.04 45.21 357.63 45.09 357.15 45.03 356.67 44.91 356.26 44.85 355.78 44.73 355.48 43.65 355.13 42.64 354.89 41.81 354.65 40.97 354.41 40.26 354.17 39.54 353.99 38.89 353.82 38.28 353.64 37.75 353.46 37.15 353.28 36.56 353.1 36.02 352.92 35.43 352.69 34.77 352.51 34.06 352.27 33.34 352.03 32.5 351.73 31.66 351.44 30.65 351.08 29.58 349.95 29.58 348.88 29.58 347.92 29.58 347.09 29.58 346.26 29.58 345.54 29.58 344.83 29.58 344.23 29.58 343.58 29.58 342.98 29.58 342.39 29.58 341.73 29.58 341.08 29.58 340.42 29.58 339.65 29.58 338.88 29.58 337.98 29.58 337.03 29.58 336.02 29.58 334.83 29.58 334.53 30.65 334.23 31.61 333.94 32.5 333.7 33.34 333.46 34.06 333.22 34.71 333.04 35.37 332.87 35.96 332.69 36.56 332.51 37.09 332.33 37.69 332.15 38.22 331.97 38.83 331.79 39.49 331.56 40.14 331.32 40.91 331.08 41.69 330.84 42.58 330.54 43.53 330.19 44.6 329.71 44.73 329.24 44.79 328.76 44.91 328.34 45.03 327.87 45.09 327.39 45.21 326.91 45.33 326.5 45.45 326.02 45.57 325.55 45.69 325.07 45.81 324.65 45.92 324.18 46.04 323.7 46.16 323.28 46.34 322.81 46.46 322.39 46.58 321.91 46.76 321.44 46.88 321.02 47.06 320.19 46.28 319.47 45.57 318.76 44.97 318.17 44.37 317.57 43.89 317.09 43.41 316.62 42.94 316.14 42.52 315.67 42.1 315.25 41.69 314.83 41.33 314.42 40.91 313.94 40.5 313.46 40.02 312.93 39.54 312.39 39.01 311.74 38.46 311.08 37.81 310.31 37.15 309.54 36.38 308.52 36.97 307.57 37.51 306.8 37.99 306.02 38.4 305.31 38.83 304.71 39.19 304.12 39.54 303.52 39.84 302.99 40.14 302.45 40.44 301.92 40.74 301.38 41.09 300.85 41.39 300.25 41.75 299.6 42.1 298.94 42.52 298.17 42.94 297.33 43.41 296.44 43.95 295.43 44.54 295.67 45.63 295.91 46.58 296.08 47.47 296.26 48.25 296.44 49.02 296.62 49.67 296.74 50.33 296.86 50.94 297.04 51.53 297.16 52.07 297.27 52.66 297.39 53.2 297.51 53.79 297.69 54.45 297.81 55.1 297.99 55.88 298.17 56.65 298.41 57.55 298.58 58.51 298.82 59.64 299.48 59.64 301.32 59.64 304.18 59.64 307.99 59.64 312.63 59.64 317.87 59.64 323.7 59.64 329.89 59.64 336.38 59.64 342.98 59.64 349.59 59.64 356.02 59.64 362.21 59.64 368.04 59.64 373.28 59.64 377.92 59.64 381.73 59.64 384.65 59.64 386.43 59.64 387.09 59.64"></polyline><polyline class="cls-1" points="291.26 66.36 290.25 66.13 289.3 65.89 288.47 65.71 287.69 65.53 287.04 65.41 286.38 65.23 285.73 65.11 285.19 64.99 284.66 64.82 284.06 64.7 283.53 64.58 282.99 64.46 282.4 64.34 281.8 64.22 281.15 64.04 280.49 63.92 279.72 63.74 278.88 63.51 277.93 63.33 276.92 63.09 276.32 64.1 275.79 64.99 275.31 65.83 274.9 66.6 274.48 67.26 274.12 67.91 273.77 68.51 273.47 69.04 273.11 69.58 272.81 70.11 272.52 70.65 272.22 71.18 271.92 71.78 271.56 72.37 271.21 72.96 270.79 73.67 270.37 74.45 269.9 75.22 269.36 76.17 268.77 77.18 269.48 77.96 270.19 78.67 270.79 79.33 271.32 79.92 271.8 80.46 272.28 80.93 272.69 81.41 273.11 81.89 273.53 82.3 273.88 82.72 274.3 83.14 274.66 83.55 275.07 84.03 275.55 84.44 275.97 84.98 276.5 85.52 277.04 86.11 277.63 86.77 278.29 87.48 279.06 88.25 278.88 88.73 278.71 89.21 278.53 89.74 278.35 90.22 278.23 90.69 278.05 91.17 277.93 91.65 277.75 92.11 277.63 92.65 277.51 93.12 277.34 93.6 277.22 94.07 277.1 94.61 276.98 95.09 276.86 95.56 276.74 96.04 276.62 96.57 276.56 97.05 276.44 97.53 276.32 98 275.31 98.36 274.36 98.66 273.53 98.9 272.75 99.13 272.1 99.37 271.44 99.55 270.85 99.73 270.25 99.91 269.72 100.09 269.18 100.26 268.65 100.44 268.05 100.62 267.52 100.8 266.86 100.98 266.27 101.16 265.55 101.4 264.78 101.63 263.94 101.87 262.99 102.17 261.98 102.47 261.98 103.66 261.98 104.67 261.98 105.62 261.98 106.51 261.98 107.29 261.98 108.06 261.98 108.72 261.98 109.37 261.98 110.03 261.98 110.62 261.98 111.2 261.98 111.86 261.98 112.51 261.98 113.17 261.98 113.88 261.98 114.71 261.98 115.55 261.98 116.5 261.98 117.57 261.98 118.7 262.99 119.06 263.89 119.36 264.72 119.6 265.49 119.83 266.21 120.01 266.8 120.25 267.4 120.43 267.99 120.61 268.53 120.79 269.06 120.9 269.6 121.08 270.13 121.26 270.73 121.44 271.32 121.62 271.92 121.8 272.63 122.04 273.41 122.27 274.24 122.51 275.13 122.81 276.15 123.11 276.26 123.64 276.32 124.18 276.44 124.65 276.56 125.19 276.68 125.67 276.8 126.2 276.92 126.68 277.04 127.21 277.16 127.69 277.28 128.23 277.4 128.7 277.57 129.24 277.69 129.71 277.87 130.24 277.99 130.71 278.17 131.19 278.29 131.73 278.47 132.2 278.65 132.74 278.82 133.21 278.11 133.99 277.46 134.7 276.86 135.3 276.32 135.89 275.85 136.43 275.37 136.9 274.96 137.38 274.54 137.8 274.18 138.21 273.77 138.63 273.41 139.05 273.05 139.46 272.63 139.88 272.22 140.36 271.74 140.83 271.27 141.37 270.73 141.96 270.13 142.56 269.48 143.27 268.77 144.05 269.36 145.06 269.9 145.95 270.37 146.78 270.79 147.56 271.21 148.21 271.56 148.85 271.92 149.45 272.22 149.98 272.52 150.52 272.81 151.06 273.11 151.59 273.47 152.13 273.77 152.72 274.12 153.32 274.48 153.91 274.9 154.63 275.31 155.4 275.79 156.23 276.32 157.13 276.92 158.14 277.93 157.9 278.82 157.66 279.66 157.48 280.43 157.31 281.15 157.19 281.8 157.01 282.4 156.89 282.93 156.77 283.53 156.65 284.06 156.53 284.6 156.35 285.13 156.23 285.67 156.12 286.26 156 286.92 155.82 287.63 155.7 288.41 155.52 289.24 155.34 290.13 155.1 291.14 154.87 291.2 154.27 291.2 152.43 291.2 149.51 291.2 145.71 291.2 141.07 291.2 135.77 291.2 129.94 291.2 123.76 291.2 117.27 291.26 110.62 291.26 104.01 291.26 97.53 291.26 91.29 291.26 85.46 291.26 80.16 291.26 75.58 291.26 71.72 291.26 68.8 291.26 67.02 291.26 66.36"></polyline><polyline class="cls-1" points="298.58 162.66 298.41 163.67 298.17 164.57 297.99 165.4 297.81 166.13 297.69 166.84 297.51 167.49 297.39 168.09 297.27 168.63 297.16 169.16 297.04 169.7 296.92 170.23 296.8 170.77 296.68 171.3 296.5 171.91 296.38 172.57 296.2 173.22 296.02 173.99 295.85 174.83 295.67 175.72 295.43 176.73 296.44 177.28 297.33 177.82 298.17 178.29 298.94 178.77 299.6 179.12 300.25 179.48 300.85 179.84 301.38 180.2 301.92 180.49 302.45 180.79 302.99 181.09 303.52 181.39 304.12 181.74 304.71 182.1 305.31 182.46 306.02 182.81 306.8 183.3 307.57 183.78 308.52 184.26 309.54 184.85 310.25 184.14 310.96 183.54 311.62 182.93 312.15 182.4 312.69 181.92 313.17 181.45 313.64 181.03 314.06 180.67 314.47 180.26 314.89 179.9 315.31 179.54 315.67 179.12 316.14 178.71 316.56 178.29 317.03 177.87 317.57 177.4 318.17 176.85 318.76 176.26 319.47 175.6 320.25 174.89 320.72 175.07 321.26 175.24 321.8 175.42 322.27 175.6 322.81 175.78 323.28 175.9 323.82 176.08 324.3 176.2 324.83 176.37 325.37 176.49 325.84 176.61 326.38 176.73 326.91 176.91 327.39 177.03 327.93 177.15 328.46 177.28 328.94 177.34 329.47 177.46 330.01 177.58 330.49 177.64 330.84 178.65 331.08 179.54 331.38 180.37 331.56 181.15 331.79 181.8 331.97 182.46 332.15 183.06 332.33 183.6 332.51 184.14 332.69 184.67 332.87 185.21 332.98 185.74 333.16 186.28 333.34 186.87 333.58 187.53 333.76 188.18 334 188.97 334.23 189.74 334.53 190.69 334.83 191.65 336.02 191.65 337.03 191.65 337.98 191.65 338.88 191.65 339.65 191.65 340.42 191.65 341.08 191.65 341.73 191.65 342.39 191.65 342.98 191.65 343.58 191.65 344.23 191.65 344.83 191.65 345.54 191.65 346.26 191.65 347.09 191.65 347.92 191.65 348.88 191.65 349.95 191.65 351.08 191.65 351.44 190.64 351.67 189.74 351.97 188.91 352.21 188.12 352.39 187.47 352.63 186.81 352.8 186.22 352.98 185.68 353.1 185.15 353.28 184.61 353.46 184.08 353.64 183.54 353.82 182.93 353.99 182.34 354.17 181.74 354.41 181.03 354.65 180.26 354.89 179.42 355.18 178.53 355.48 177.52 356.02 177.4 356.49 177.34 357.03 177.22 357.51 177.09 358.04 176.97 358.52 176.85 359.05 176.73 359.53 176.61 360.07 176.49 360.54 176.32 361.08 176.2 361.55 176.08 362.09 175.9 362.56 175.78 363.04 175.6 363.58 175.42 364.05 175.3 364.53 175.13 365.06 174.95 365.54 174.77 366.31 175.48 367.03 176.14 367.68 176.73 368.22 177.28 368.75 177.76 369.29 178.23 369.71 178.65 370.18 179.07 370.6 179.42 371.02 179.84 371.37 180.2 371.79 180.55 372.27 180.97 372.68 181.39 373.22 181.86 373.75 182.34 374.29 182.87 374.94 183.48 375.66 184.14 376.43 184.85 377.44 184.26 378.34 183.78 379.17 183.3 379.94 182.81 380.6 182.46 381.25 182.1 381.85 181.74 382.38 181.39 382.92 181.09 383.46 180.79 383.99 180.49 384.53 180.2 385.12 179.84 385.72 179.48 386.31 179.12 387.03 178.77 387.8 178.29 388.57 177.82 389.53 177.28 390.54 176.73 390.3 175.72 390.06 174.83 389.88 173.99 389.7 173.22 389.59 172.57 389.41 171.91 389.29 171.3 389.17 170.77 389.05 170.23 388.93 169.7 388.81 169.16 388.69 168.63 388.57 168.09 388.45 167.49 388.28 166.84 388.16 166.13 387.98 165.4 387.8 164.57 387.56 163.67 387.32 162.66 381.02 162.66 375.3 162.66 370.06 162.66 365.36 162.66 361.02 162.66 356.97 162.66 353.28 162.66 349.71 162.66 346.32 162.66 342.98 162.66 339.65 162.66 336.26 162.66 332.69 162.66 328.94 162.66 324.95 162.66 320.61 162.66 315.9 162.66 310.67 162.66 304.95 162.66 298.58 162.66"></polyline><polyline class="cls-1" points="423.99 118.7 423.99 117.57 423.99 116.5 423.99 115.55 423.99 114.71 423.99 113.88 423.99 113.17 423.99 112.45 423.99 111.86 423.99 111.2 423.99 110.62 423.99 110.03 423.99 109.37 423.99 108.72 423.99 108.06 423.99 107.29 423.99 106.51 423.99 105.62 423.99 104.67 423.99 103.66 423.99 102.47 422.92 102.17 421.96 101.87 421.07 101.57 420.3 101.34 419.58 101.1 418.87 100.92 418.27 100.68 417.68 100.5 417.08 100.32 416.55 100.15 415.95 99.97 415.36 99.79 414.76 99.61 414.17 99.43 413.51 99.19 412.74 99.01 411.96 98.72 411.07 98.48 410.12 98.18 409.05 97.82 408.93 97.35 408.87 96.93 408.75 96.46 408.63 95.98 408.51 95.5 408.45 95.09 408.33 94.61 408.21 94.13 408.1 93.66 407.98 93.24 407.8 92.77 407.68 92.29 407.56 91.87 407.44 91.41 407.26 90.93 407.14 90.52 406.96 90.04 406.85 89.62 406.67 89.15 406.55 88.73 407.32 87.9 407.98 87.12 408.63 86.47 409.17 85.81 409.7 85.28 410.18 84.74 410.65 84.27 411.07 83.79 411.49 83.37 411.9 82.96 412.26 82.48 412.68 82.06 413.1 81.59 413.57 81.11 414.05 80.58 414.58 80.04 415.12 79.39 415.77 78.73 416.43 77.96 417.2 77.18 416.61 76.17 416.13 75.22 415.65 74.45 415.18 73.67 414.82 72.96 414.46 72.37 414.11 71.78 413.75 71.18 413.45 70.65 413.15 70.11 412.86 69.58 412.56 69.04 412.2 68.51 411.85 67.91 411.49 67.26 411.07 66.6 410.65 65.83 410.18 64.99 409.64 64.1 409.11 63.09 408.04 63.33 407.08 63.57 406.19 63.74 405.42 63.92 404.7 64.1 404.05 64.22 403.45 64.4 402.86 64.52 402.26 64.64 401.73 64.76 401.13 64.88 400.6 64.99 400 65.17 399.41 65.29 398.75 65.41 397.98 65.59 397.2 65.77 396.37 65.95 395.42 66.18 394.35 66.42 394.35 72.72 394.35 78.43 394.35 83.61 394.35 88.37 394.35 92.65 394.35 96.63 394.35 100.38 394.35 103.89 394.35 107.29 394.35 110.62 394.35 113.94 394.35 117.33 394.35 120.85 394.35 124.59 394.35 128.58 394.35 132.86 394.35 137.56 394.35 142.8 394.35 148.51 394.35 154.81 395.42 155.04 396.37 155.22 397.2 155.4 397.98 155.58 398.75 155.76 399.41 155.94 400 156.06 400.6 156.17 401.13 156.29 401.73 156.47 402.26 156.59 402.86 156.71 403.45 156.83 404.05 156.95 404.7 157.13 405.42 157.31 406.19 157.48 407.08 157.66 408.04 157.9 409.11 158.14 409.64 157.13 410.18 156.17 410.65 155.4 411.07 154.63 411.49 153.91 411.85 153.32 412.2 152.72 412.56 152.13 412.86 151.59 413.15 151.06 413.45 150.52 413.75 149.98 414.11 149.45 414.46 148.85 414.82 148.21 415.18 147.56 415.65 146.78 416.13 145.95 416.61 145.06 417.2 144.05 416.49 143.27 415.77 142.5 415.18 141.84 414.64 141.25 414.11 140.71 413.63 140.18 413.21 139.7 412.8 139.28 412.38 138.87 412.02 138.39 411.61 137.97 411.19 137.56 410.77 137.08 410.36 136.66 409.88 136.13 409.41 135.59 408.81 135 408.21 134.34 407.56 133.57 406.79 132.8 406.96 132.32 407.08 131.84 407.26 131.37 407.38 130.89 407.56 130.42 407.68 129.94 407.8 129.48 407.98 129 408.1 128.52 408.21 128.05 408.33 127.57 408.45 127.09 408.57 126.62 408.69 126.14 408.75 125.67 408.87 125.19 408.99 124.71 409.11 124.24 409.17 123.76 409.29 123.29 410.3 122.99 411.25 122.69 412.14 122.39 412.92 122.15 413.63 121.92 414.29 121.74 414.94 121.56 415.54 121.38 416.07 121.2 416.61 121.02 417.2 120.85 417.74 120.67 418.33 120.49 418.99 120.31 419.64 120.07 420.36 119.83 421.13 119.6 422.02 119.36 422.97 119.06 423.99 118.7"></polyline><polyline class="cls-1" points="205.86 262.04 205.86 262.46 205.86 262.88 205.92 263.29 205.92 263.65 205.97 263.95 205.97 264.25 206.03 264.55 206.15 264.78 206.21 265.02 206.33 265.2 206.51 265.38 206.63 265.56 206.87 265.68 207.05 265.8 207.28 265.86 207.58 265.97 207.88 265.97 208.24 266.03 208.59 266.03 209.01 266.09 209.07 266.09 209.19 266.09 209.25 266.09 209.37 266.09 209.43 266.09 209.49 266.09 209.55 266.09 209.61 266.09 209.67 266.09 209.72 266.09 209.78 266.09 209.84 266.09 209.9 266.09 209.96 266.09 210.02 266.09 210.14 266.09 210.2 266.09 210.26 266.09 210.38 266.09 210.8 266.03 211.15 266.03 211.51 265.97 211.81 265.97 212.11 265.86 212.34 265.8 212.52 265.68 212.76 265.56 212.88 265.38 213.06 265.2 213.18 265.02 213.24 264.78 213.3 264.55 213.41 264.25 213.41 263.95 213.47 263.65 213.47 263.29 213.53 262.88 213.53 262.46 213.53 262.04 213.53 261.27 213.53 260.55 213.53 259.9 213.53 259.3 213.53 258.77 213.53 258.23 213.53 257.75 213.53 257.34 213.53 256.92 213.53 256.5 213.53 256.09 213.53 255.67 213.53 255.19 213.53 254.71 213.53 254.24 213.53 253.7 213.53 253.11 213.53 252.45 213.53 251.74 213.53 250.96 214.19 250.96 214.78 250.96 215.32 250.96 215.8 250.96 216.27 250.96 216.69 250.96 217.05 250.96 217.4 250.96 217.76 250.96 218.12 250.96 218.47 250.96 218.83 250.96 219.19 250.96 219.6 250.96 220.02 250.96 220.44 250.96 220.97 250.96 221.51 250.96 222.1 250.96 222.76 250.96 222.76 251.85 222.76 252.63 222.76 253.34 222.76 254 222.76 254.59 222.76 255.13 222.76 255.67 222.76 256.14 222.76 256.62 222.76 257.1 222.76 257.57 222.76 257.99 222.76 258.53 222.76 259 222.76 259.6 222.76 260.2 222.76 260.85 222.76 261.57 222.76 262.34 222.76 263.23 222.7 264.49 222.7 265.68 222.58 266.75 222.46 267.76 222.22 268.66 222.04 269.49 221.75 270.26 221.39 270.92 220.97 271.58 220.5 272.11 219.96 272.59 219.37 273.01 218.71 273.36 217.94 273.66 217.1 273.96 216.21 274.14 215.2 274.26 214.13 274.38 212.94 274.44 211.69 274.44 211.39 274.44 211.09 274.44 210.8 274.44 210.56 274.44 210.38 274.44 210.14 274.44 209.96 274.44 209.78 274.44 209.61 274.44 209.43 274.44 209.25 274.44 209.07 274.44 208.89 274.44 208.71 274.44 208.53 274.44 208.3 274.44 208.06 274.44 207.76 274.44 207.52 274.44 207.17 274.44 205.92 274.44 204.73 274.38 203.59 274.26 202.58 274.14 201.69 273.96 200.86 273.66 200.08 273.36 199.43 273.01 198.83 272.59 198.3 272.11 197.82 271.58 197.4 270.92 197.05 270.26 196.75 269.49 196.51 268.66 196.33 267.76 196.21 266.75 196.1 265.68 196.04 264.49 196.04 263.23 196.04 260.79 196.04 258.65 196.04 256.68 196.04 254.83 196.04 253.22 196.04 251.68 196.04 250.25 196.04 248.93 196.04 247.62 196.04 246.37 196.04 245.06 196.04 243.81 196.04 242.44 196.04 241.01 196.04 239.52 196.04 237.86 196.04 236.07 196.04 234.09 196.04 231.89 196.04 229.51 196.04 228.26 196.1 227.07 196.21 226 196.33 224.99 196.51 224.1 196.75 223.19 197.05 222.48 197.4 221.76 197.82 221.17 198.3 220.63 198.83 220.1 199.43 219.68 200.08 219.32 200.86 219.02 201.69 218.79 202.58 218.61 203.59 218.43 204.73 218.31 205.92 218.25 207.17 218.25 207.52 218.25 207.76 218.25 208.06 218.25 208.3 218.25 208.53 218.25 208.71 218.25 208.89 218.25 209.07 218.25 209.25 218.25 209.43 218.25 209.61 218.25 209.78 218.25 209.96 218.25 210.14 218.25 210.38 218.25 210.56 218.25 210.8 218.25 211.09 218.25 211.39 218.25 211.69 218.25 212.94 218.25 214.13 218.31 215.2 218.43 216.21 218.61 217.1 218.79 217.94 219.02 218.71 219.32 219.37 219.68 219.96 220.1 220.5 220.63 220.97 221.17 221.39 221.76 221.75 222.48 222.04 223.19 222.22 224.1 222.46 224.99 222.58 226 222.7 227.07 222.7 228.26 222.76 229.51 222.76 230.23 222.76 230.82 222.76 231.42 222.76 231.95 222.76 232.43 222.76 232.9 222.76 233.26 222.76 233.68 222.76 234.04 222.76 234.45 222.76 234.81 222.76 235.17 222.76 235.59 222.76 236.01 222.76 236.43 222.76 236.96 222.76 237.44 222.76 238.03 222.76 238.69 222.76 239.4 222.1 239.4 221.51 239.4 220.97 239.4 220.44 239.4 220.02 239.4 219.6 239.4 219.19 239.4 218.83 239.4 218.47 239.4 218.12 239.4 217.76 239.4 217.4 239.4 217.05 239.4 216.69 239.4 216.27 239.4 215.8 239.4 215.32 239.4 214.78 239.4 214.19 239.4 213.53 239.4 213.53 238.75 213.53 238.21 213.53 237.68 213.53 237.26 213.53 236.78 213.53 236.43 213.53 236.07 213.53 235.71 213.53 235.36 213.53 235.05 213.53 234.69 213.53 234.39 213.53 234.04 213.53 233.68 213.53 233.26 213.53 232.84 213.53 232.37 213.53 231.89 213.53 231.3 213.53 230.7 213.53 230.23 213.53 229.81 213.47 229.45 213.47 229.1 213.41 228.74 213.41 228.44 213.3 228.2 213.24 227.9 213.18 227.73 213.06 227.49 212.88 227.31 212.76 227.19 212.52 227.07 212.34 226.95 212.11 226.83 211.81 226.77 211.51 226.71 211.15 226.66 210.8 226.66 210.38 226.66 210.26 226.66 210.2 226.66 210.14 226.66 210.02 226.66 209.96 226.66 209.9 226.66 209.84 226.66 209.78 226.66 209.72 226.66 209.67 226.66 209.61 226.66 209.55 226.66 209.49 226.66 209.43 226.66 209.37 226.66 209.25 226.66 209.19 226.66 209.07 226.66 209.01 226.66 208.59 226.66 208.24 226.66 207.88 226.71 207.58 226.77 207.28 226.83 207.05 226.95 206.87 227.07 206.63 227.19 206.51 227.31 206.33 227.49 206.21 227.73 206.15 227.9 206.03 228.2 205.97 228.44 205.97 228.74 205.92 229.1 205.92 229.45 205.86 229.81 205.86 230.23 205.86 230.7 205.86 232.9 205.86 234.93 205.86 236.78 205.86 238.45 205.86 240 205.86 241.43 205.86 242.74 205.86 243.99 205.86 245.18 205.86 246.37 205.86 247.56 205.86 248.76 205.86 250.01 205.86 251.32 205.86 252.75 205.86 254.24 205.86 255.91 205.86 257.75 205.86 259.78 205.86 262.04"></polyline><polyline class="cls-1" points="241.15 242.56 242.1 242.56 242.94 242.56 243.71 242.56 244.42 242.56 245.08 242.56 245.61 242.56 246.21 242.56 246.68 242.56 247.22 242.56 247.7 242.56 248.17 242.56 248.71 242.56 249.24 242.56 249.78 242.56 250.37 242.56 250.97 242.56 251.68 242.56 252.46 242.56 253.29 242.56 254.24 242.56 254.24 244.05 254.24 245.36 254.24 246.55 254.24 247.68 254.24 248.7 254.24 249.65 254.24 250.48 254.24 251.32 254.24 252.09 254.24 252.87 254.24 253.64 254.24 254.48 254.24 255.31 254.24 256.14 254.24 257.1 254.24 258.11 254.24 259.18 254.24 260.43 254.24 261.75 254.24 263.23 254.18 264.49 254.18 265.68 254.06 266.75 253.95 267.76 253.71 268.66 253.53 269.49 253.23 270.26 252.87 270.92 252.46 271.58 251.98 272.11 251.45 272.59 250.85 273.01 250.2 273.36 249.42 273.66 248.59 273.96 247.7 274.14 246.68 274.26 245.61 274.38 244.42 274.44 243.17 274.44 242.88 274.44 242.58 274.44 242.28 274.44 242.04 274.44 241.86 274.44 241.63 274.44 241.45 274.44 241.27 274.44 241.09 274.44 240.91 274.44 240.73 274.44 240.55 274.44 240.38 274.44 240.2 274.44 240.02 274.44 239.78 274.44 239.54 274.44 239.25 274.44 239.01 274.44 238.65 274.44 237.4 274.44 236.21 274.38 235.08 274.26 234.07 274.14 233.17 273.96 232.34 273.66 231.57 273.36 230.91 273.01 230.32 272.59 229.78 272.11 229.31 271.58 228.89 270.92 228.53 270.26 228.23 269.49 228 268.66 227.82 267.76 227.7 266.75 227.58 265.68 227.52 264.49 227.52 263.23 227.52 260.79 227.52 258.65 227.52 256.68 227.52 254.83 227.52 253.22 227.52 251.68 227.52 250.25 227.52 248.93 227.52 247.62 227.52 246.37 227.52 245.06 227.52 243.81 227.52 242.44 227.52 241.01 227.52 239.52 227.52 237.86 227.52 236.07 227.52 234.09 227.52 231.89 227.52 229.51 227.52 228.26 227.58 227.07 227.7 226 227.82 224.99 228 224.1 228.23 223.19 228.53 222.48 228.89 221.76 229.31 221.17 229.78 220.63 230.32 220.1 230.91 219.68 231.57 219.32 232.34 219.02 233.17 218.79 234.07 218.61 235.08 218.43 236.21 218.31 237.4 218.25 238.65 218.25 239.01 218.25 239.25 218.25 239.54 218.25 239.78 218.25 240.02 218.25 240.2 218.25 240.38 218.25 240.55 218.25 240.73 218.25 240.91 218.25 241.09 218.25 241.27 218.25 241.45 218.25 241.63 218.25 241.86 218.25 242.04 218.25 242.28 218.25 242.58 218.25 242.88 218.25 243.17 218.25 244.42 218.25 245.61 218.31 246.68 218.43 247.7 218.61 248.59 218.79 249.42 219.02 250.2 219.32 250.85 219.68 251.45 220.1 251.98 220.63 252.46 221.17 252.87 221.76 253.23 222.48 253.53 223.19 253.71 224.1 253.95 224.99 254.06 226 254.18 227.07 254.18 228.26 254.24 229.51 254.24 230.11 254.24 230.64 254.24 231.12 254.24 231.6 254.24 232.01 254.24 232.37 254.24 232.73 254.24 233.08 254.24 233.38 254.24 233.74 254.24 234.04 254.24 234.39 254.24 234.69 254.24 235.05 254.24 235.48 254.24 235.89 254.24 236.31 254.24 236.84 254.24 237.38 254.24 237.98 253.59 237.98 252.99 237.98 252.46 237.98 251.92 237.98 251.51 237.98 251.09 237.98 250.67 237.98 250.32 237.98 249.96 237.98 249.6 237.98 249.24 237.98 248.89 237.98 248.53 237.98 248.17 237.98 247.76 237.98 247.28 237.98 246.8 237.98 246.27 237.98 245.67 237.98 245.02 237.98 245.02 237.44 245.02 236.96 245.02 236.55 245.02 236.19 245.02 235.83 245.02 235.48 245.02 235.17 245.02 234.87 245.02 234.57 245.02 234.33 245.02 234.04 245.02 233.74 245.02 233.5 245.02 233.14 245.02 232.84 245.02 232.49 245.02 232.07 245.02 231.65 245.02 231.18 245.02 230.7 245.02 230.23 245.02 229.81 244.96 229.45 244.96 229.1 244.9 228.74 244.9 228.44 244.78 228.2 244.72 227.9 244.66 227.73 244.54 227.49 244.36 227.31 244.24 227.19 244.01 227.07 243.83 226.95 243.59 226.83 243.29 226.77 242.99 226.71 242.64 226.66 242.28 226.66 241.86 226.66 241.8 226.66 241.69 226.66 241.63 226.66 241.51 226.66 241.45 226.66 241.39 226.66 241.33 226.66 241.27 226.66 241.21 226.66 241.15 226.66 241.09 226.66 241.03 226.66 240.97 226.66 240.91 226.66 240.85 226.66 240.73 226.66 240.67 226.66 240.55 226.66 240.49 226.66 240.08 226.66 239.72 226.66 239.36 226.71 239.07 226.77 238.77 226.83 238.53 226.95 238.35 227.07 238.11 227.19 238 227.31 237.82 227.49 237.7 227.73 237.64 227.9 237.52 228.2 237.46 228.44 237.46 228.74 237.4 229.1 237.4 229.45 237.34 229.81 237.34 230.23 237.34 230.7 237.34 232.9 237.34 234.93 237.34 236.78 237.34 238.45 237.34 240 237.34 241.43 237.34 242.74 237.34 243.99 237.34 245.18 237.34 246.37 237.34 247.56 237.34 248.76 237.34 250.01 237.34 251.32 237.34 252.75 237.34 254.24 237.34 255.91 237.34 257.75 237.34 259.78 237.34 262.04 237.34 262.46 237.34 262.88 237.4 263.29 237.4 263.65 237.46 263.95 237.46 264.25 237.52 264.55 237.64 264.78 237.7 265.02 237.82 265.2 238 265.38 238.11 265.56 238.35 265.68 238.53 265.8 238.77 265.86 239.07 265.97 239.36 265.97 239.72 266.03 240.08 266.03 240.49 266.09 240.55 266.09 240.67 266.09 240.73 266.09 240.85 266.09 240.91 266.09 240.97 266.09 241.03 266.09 241.09 266.09 241.15 266.09 241.21 266.09 241.27 266.09 241.33 266.09 241.39 266.09 241.45 266.09 241.51 266.09 241.63 266.09 241.69 266.09 241.8 266.09 241.86 266.09 242.28 266.03 242.64 266.03 242.99 265.97 243.29 265.97 243.59 265.86 243.83 265.8 244.01 265.68 244.24 265.56 244.36 265.38 244.54 265.2 244.66 265.02 244.72 264.78 244.78 264.55 244.9 264.25 244.9 263.95 244.96 263.65 244.96 263.29 245.02 262.88 245.02 262.46 245.02 262.04 245.02 261.27 245.02 260.55 245.02 259.9 245.02 259.3 245.02 258.77 245.02 258.23 245.02 257.75 245.02 257.34 245.02 256.92 245.02 256.5 245.02 256.09 245.02 255.67 245.02 255.19 245.02 254.71 245.02 254.24 245.02 253.7 245.02 253.11 245.02 252.45 245.02 251.74 245.02 250.96 244.72 250.96 244.48 250.96 244.24 250.96 244.07 250.96 243.89 250.96 243.71 250.96 243.53 250.96 243.41 250.96 243.23 250.96 243.11 250.96 242.94 250.96 242.82 250.96 242.64 250.96 242.46 250.96 242.34 250.96 242.1 250.96 241.92 250.96 241.69 250.96 241.45 250.96 241.15 250.96 241.15 250.36 241.15 249.83 241.15 249.29 241.15 248.88 241.15 248.46 241.15 248.1 241.15 247.74 241.15 247.39 241.15 247.09 241.15 246.73 241.15 246.43 241.15 246.14 241.15 245.78 241.15 245.42 241.15 245.06 241.15 244.64 241.15 244.17 241.15 243.69 241.15 243.16 241.15 242.56"></polyline><polyline class="cls-1" points="310.64 243.99 311.42 243.99 312.13 243.99 312.78 243.99 313.38 243.99 313.92 243.99 314.45 243.99 314.93 243.99 315.36 243.99 315.77 243.99 316.19 243.99 316.67 243.99 317.08 243.99 317.5 243.99 317.97 243.99 318.45 243.99 319.05 243.99 319.65 243.99 320.31 243.99 321.02 243.99 321.8 243.99 321.8 245.48 321.8 246.85 321.8 248.1 321.8 249.23 321.8 250.25 321.8 251.2 321.8 252.09 321.8 252.93 321.8 253.7 321.8 254.54 321.8 255.31 321.8 256.09 321.8 256.98 321.8 257.81 321.8 258.77 321.8 259.84 321.8 260.97 321.8 262.16 321.8 263.53 321.8 265.02 321.8 266.09 321.74 267.05 321.68 268 321.56 268.84 321.38 269.61 321.2 270.26 320.96 270.92 320.66 271.52 320.31 272.05 319.89 272.47 319.46 272.89 318.93 273.24 318.33 273.54 317.74 273.78 317.02 274.02 316.25 274.2 315.42 274.32 314.45 274.38 313.44 274.44 312.37 274.44 312.13 274.44 311.89 274.44 311.65 274.44 311.48 274.44 311.3 274.44 311.12 274.44 310.94 274.44 310.82 274.44 310.64 274.44 310.52 274.44 310.33 274.44 310.21 274.44 310.03 274.44 309.92 274.44 309.74 274.44 309.56 274.44 309.38 274.44 309.14 274.44 308.9 274.44 308.61 274.44 307.54 274.44 306.52 274.38 305.62 274.32 304.73 274.2 303.95 274.02 303.24 273.78 302.64 273.54 302.05 273.24 301.51 272.89 301.08 272.47 300.67 272.05 300.31 271.52 300.01 270.92 299.77 270.26 299.54 269.61 299.42 268.84 299.24 268 299.18 267.05 299.12 266.09 299.12 265.02 299.12 262.4 299.12 259.96 299.12 257.75 299.12 255.79 299.12 253.94 299.12 252.27 299.12 250.66 299.12 249.17 299.12 247.74 299.12 246.37 299.12 244.94 299.12 243.51 299.12 242.02 299.12 240.48 299.12 238.75 299.12 236.96 299.12 234.93 299.12 232.73 299.12 230.35 299.12 227.67 299.12 226.6 299.18 225.64 299.24 224.75 299.42 223.91 299.54 223.13 299.77 222.42 300.01 221.76 300.31 221.23 300.67 220.69 301.08 220.22 301.51 219.8 302.05 219.44 302.64 219.14 303.24 218.91 303.95 218.73 304.73 218.55 305.62 218.43 306.52 218.31 307.54 218.25 308.61 218.25 308.9 218.25 309.14 218.25 309.38 218.25 309.56 218.25 309.74 218.25 309.92 218.25 310.03 218.25 310.21 218.25 310.33 218.25 310.52 218.25 310.64 218.25 310.82 218.25 310.94 218.25 311.12 218.25 311.3 218.25 311.48 218.25 311.65 218.25 311.89 218.25 312.13 218.25 312.37 218.25 313.44 218.25 314.45 218.31 315.42 218.43 316.25 218.55 317.02 218.73 317.74 218.91 318.33 219.14 318.93 219.44 319.46 219.8 319.89 220.22 320.31 220.69 320.66 221.23 320.96 221.76 321.2 222.42 321.38 223.13 321.56 223.91 321.68 224.75 321.74 225.64 321.8 226.6 321.8 227.67 321.8 228.38 321.8 229.04 321.8 229.69 321.8 230.23 321.8 230.7 321.8 231.18 321.8 231.6 321.8 232.01 321.8 232.37 321.8 232.79 321.8 233.14 321.8 233.56 321.8 233.98 321.8 234.39 321.8 234.87 321.8 235.36 321.8 235.89 321.8 236.49 321.8 237.14 321.8 237.92 321.38 237.92 321.08 237.92 320.72 237.92 320.43 237.92 320.19 237.92 319.95 237.92 319.71 237.92 319.46 237.92 319.22 237.92 319.05 237.92 318.87 237.92 318.63 237.92 318.39 237.92 318.15 237.92 317.92 237.92 317.68 237.92 317.38 237.92 317.02 237.92 316.72 237.92 316.31 237.92 316.31 237.26 316.31 236.67 316.31 236.13 316.31 235.59 316.31 235.17 316.31 234.75 316.31 234.33 316.31 233.98 316.31 233.62 316.31 233.26 316.31 232.96 316.31 232.61 316.31 232.25 316.31 231.83 316.31 231.42 316.31 231 316.31 230.46 316.31 229.93 316.31 229.33 316.31 228.68 316.31 228.08 316.31 227.49 316.25 226.95 316.25 226.48 316.19 226 316.13 225.58 316.07 225.23 315.95 224.87 315.83 224.57 315.65 224.27 315.47 224.04 315.24 223.85 314.93 223.67 314.63 223.49 314.27 223.37 313.86 223.25 313.44 223.19 312.9 223.13 312.37 223.07 311.77 223.07 311.59 223.07 311.48 223.07 311.36 223.07 311.24 223.07 311.12 223.07 311 223.07 310.88 223.07 310.82 223.07 310.7 223.07 310.64 223.07 310.58 223.07 310.45 223.07 310.39 223.07 310.27 223.07 310.15 223.07 310.03 223.07 309.92 223.07 309.8 223.07 309.68 223.07 309.5 223.07 308.9 223.07 308.31 223.13 307.83 223.19 307.42 223.25 307 223.37 306.64 223.49 306.34 223.67 306.05 223.85 305.8 224.04 305.62 224.27 305.44 224.57 305.32 224.87 305.2 225.23 305.14 225.58 305.08 226 305.02 226.48 304.96 226.95 304.96 227.49 304.96 228.08 304.96 228.68 304.96 231.24 304.96 233.5 304.96 235.59 304.96 237.44 304.96 239.17 304.96 240.77 304.96 242.26 304.96 243.69 304.96 245 304.96 246.37 304.96 247.68 304.96 249.05 304.96 250.43 304.96 251.91 304.96 253.52 304.96 255.25 304.96 257.16 304.96 259.18 304.96 261.51 304.96 264.01 304.96 264.6 304.96 265.2 304.96 265.74 305.02 266.21 305.08 266.69 305.14 267.11 305.2 267.46 305.32 267.82 305.44 268.12 305.62 268.42 305.8 268.66 306.05 268.89 306.34 269.07 306.64 269.25 307 269.37 307.42 269.43 307.83 269.55 308.31 269.61 308.9 269.61 309.5 269.61 309.68 269.61 309.8 269.61 309.92 269.61 310.03 269.61 310.15 269.61 310.27 269.61 310.39 269.61 310.45 269.61 310.58 269.61 310.64 269.61 310.7 269.61 310.82 269.61 310.88 269.61 311 269.61 311.12 269.61 311.24 269.61 311.36 269.61 311.48 269.61 311.59 269.61 311.77 269.61 312.37 269.61 312.9 269.61 313.44 269.55 313.86 269.43 314.27 269.37 314.63 269.25 314.93 269.07 315.24 268.89 315.47 268.66 315.65 268.42 315.83 268.12 315.95 267.82 316.07 267.46 316.13 267.11 316.19 266.69 316.25 266.21 316.25 265.74 316.31 265.2 316.31 264.6 316.31 264.01 316.31 262.94 316.31 261.92 316.31 261.03 316.31 260.25 316.31 259.48 316.31 258.83 316.31 258.17 316.31 257.57 316.31 256.98 316.31 256.44 316.31 255.85 316.31 255.25 316.31 254.65 316.31 254 316.31 253.34 316.31 252.57 316.31 251.8 316.31 250.9 316.31 249.89 316.31 248.82 315.89 248.82 315.53 248.82 315.18 248.82 314.87 248.82 314.63 248.82 314.33 248.82 314.09 248.82 313.92 248.82 313.68 248.82 313.44 248.82 313.26 248.82 313.02 248.82 312.78 248.82 312.55 248.82 312.31 248.82 312.07 248.82 311.71 248.82 311.42 248.82 311.06 248.82 310.64 248.82 310.64 248.46 310.64 248.16 310.64 247.86 310.64 247.62 310.64 247.39 310.64 247.15 310.64 246.97 310.64 246.79 310.64 246.55 310.64 246.37 310.64 246.19 310.64 246.02 310.64 245.84 310.64 245.66 310.64 245.42 310.64 245.18 310.64 244.94 310.64 244.64 310.64 244.35 310.64 243.99"></polyline><polygon class="cls-1" points="328.58 274.02 328.58 218.67 334.29 218.67 334.29 242.65 345.72 242.65 345.72 218.67 351.44 218.67 351.44 274.02 345.72 274.02 345.72 247.36 334.29 247.36 334.29 274.02 328.58 274.02"></polygon><rect class="cls-2" x="359.25" y="218.67" width="5.92" height="55.35"></rect><polyline class="cls-1" points="378.8 237.59 378.68 237.06 378.56 236.58 378.44 236.11 378.33 235.63 378.21 235.09 378.09 234.62 377.97 234.14 377.85 233.67 377.79 233.19 377.67 232.77 377.55 232.3 377.49 231.82 377.37 231.35 377.31 230.87 377.19 230.45 377.13 229.98 377.02 229.5 376.96 229.08 376.9 228.61 376.78 228.13 376.84 228.61 376.84 229.08 376.84 229.5 376.84 229.98 376.84 230.45 376.9 230.87 376.9 231.35 376.9 231.82 376.9 232.3 376.9 232.77 376.96 233.25 376.96 233.73 376.96 234.2 376.96 234.68 376.96 235.21 376.96 235.69 376.96 236.17 376.96 236.7 376.96 237.24 376.96 237.71 376.96 240.33 376.96 242.65 376.96 244.8 376.96 246.76 376.96 248.49 376.96 250.15 376.96 251.7 376.96 253.13 376.96 254.5 376.96 255.87 376.96 257.24 376.96 258.66 376.96 260.09 376.96 261.64 376.96 263.25 376.96 265.03 376.96 266.94 376.96 269.08 376.96 271.46 376.96 274.02 376.6 274.02 376.3 274.02 376 274.02 375.77 274.02 375.53 274.02 375.29 274.02 375.05 274.02 374.87 274.02 374.69 274.02 374.52 274.02 374.34 274.02 374.11 274.02 373.93 274.02 373.69 274.02 373.52 274.02 373.28 274.02 372.98 274.02 372.68 274.02 372.39 274.02 372.03 274.02 372.03 270.09 372.03 266.52 372.03 263.25 372.03 260.27 372.03 257.59 372.03 255.09 372.03 252.77 372.03 250.57 372.03 248.43 372.03 246.34 372.03 244.26 372.03 242.12 372.03 239.92 372.03 237.59 372.03 235.09 372.03 232.42 372.03 229.44 372.03 226.23 372.03 222.6 372.03 218.67 372.56 218.67 373.04 218.67 373.46 218.67 373.87 218.67 374.23 218.67 374.52 218.67 374.87 218.67 375.17 218.67 375.41 218.67 375.71 218.67 376 218.67 376.3 218.67 376.6 218.67 376.9 218.67 377.19 218.67 377.55 218.67 377.97 218.67 378.38 218.67 378.86 218.67 379.38 218.67 380.04 221.11 380.57 223.31 381.11 225.27 381.59 227.12 382 228.79 382.42 230.33 382.78 231.76 383.13 233.13 383.43 234.44 383.78 235.69 384.13 237 384.43 238.31 384.79 239.68 385.15 241.11 385.56 242.65 385.98 244.32 386.46 246.11 386.99 248.13 387.53 250.33 388.17 252.77 388.29 253.25 388.41 253.78 388.53 254.26 388.65 254.74 388.76 255.27 388.88 255.75 389 256.22 389.06 256.7 389.18 257.18 389.3 257.65 389.36 258.13 389.48 258.6 389.6 259.02 389.66 259.5 389.78 259.97 389.84 260.45 389.9 260.87 390.01 261.34 390.07 261.82 390.13 262.23 390.13 261.82 390.13 261.34 390.13 260.87 390.07 260.45 390.07 259.97 390.07 259.5 390.07 259.02 390.01 258.6 390.01 258.13 390.01 257.65 389.95 257.18 389.95 256.7 389.95 256.22 389.95 255.69 389.95 255.21 389.9 254.74 389.9 254.2 389.9 253.72 389.9 253.19 389.9 252.65 389.9 250.27 389.9 248.07 389.9 246.05 389.9 244.26 389.9 242.59 389.9 241.05 389.9 239.62 389.9 238.25 389.9 236.94 389.9 235.69 389.9 234.38 389.9 233.07 389.9 231.7 389.9 230.27 389.9 228.79 389.9 227.12 389.9 225.27 389.9 223.31 389.9 221.11 389.9 218.67 390.25 218.67 390.61 218.67 390.91 218.67 391.15 218.67 391.38 218.67 391.62 218.67 391.86 218.67 392.04 218.67 392.22 218.67 392.39 218.67 392.62 218.67 392.8 218.67 392.98 218.67 393.22 218.67 393.45 218.67 393.69 218.67 393.93 218.67 394.23 218.67 394.59 218.67 394.94 218.67 394.94 222.6 394.94 226.23 394.94 229.44 394.94 232.42 394.94 235.09 394.94 237.59 394.94 239.92 394.94 242.12 394.94 244.26 394.94 246.34 394.94 248.43 394.94 250.57 394.94 252.77 394.94 255.09 394.94 257.59 394.94 260.27 394.94 263.25 394.94 266.52 394.94 270.09 394.94 274.02 394.47 274.02 394.05 274.02 393.69 274.02 393.34 274.02 393.04 274.02 392.74 274.02 392.45 274.02 392.22 274.02 391.98 274.02 391.74 274.02 391.5 274.02 391.26 274.02 390.97 274.02 390.73 274.02 390.43 274.02 390.13 274.02 389.78 274.02 389.36 274.02 388.94 274.02 388.53 274.02 387.82 271.4 387.17 269.08 386.63 266.94 386.1 264.97 385.62 263.19 385.21 261.58 384.79 260.03 384.37 258.54 384.01 257.18 383.66 255.81 383.31 254.44 382.9 253.01 382.54 251.58 382.12 250.03 381.71 248.37 381.23 246.64 380.69 244.68 380.1 242.53 379.5 240.15 378.8 237.59"></polyline><polyline class="cls-1" points="444.88 259.36 444.88 258.59 444.88 257.87 444.82 257.22 444.76 256.56 444.64 255.96 444.52 255.43 444.34 254.89 444.1 254.36 443.87 253.82 443.57 253.34 443.27 252.81 442.85 252.27 442.44 251.8 441.96 251.2 441.37 250.66 440.77 250.07 440.06 249.41 439.34 248.76 438.51 248.04 437.62 247.33 436.54 246.37 435.53 245.54 434.64 244.77 433.87 243.99 433.09 243.27 432.44 242.56 431.84 241.85 431.31 241.19 430.83 240.53 430.41 239.88 430.06 239.23 429.76 238.57 429.52 237.92 429.28 237.2 429.16 236.43 428.99 235.65 428.93 234.81 428.87 233.98 428.81 233.02 428.81 232.01 428.81 231.71 428.81 231.42 428.81 231.18 428.81 230.94 428.81 230.76 428.81 230.52 428.81 230.35 428.81 230.17 428.81 229.99 428.81 229.87 428.81 229.69 428.81 229.51 428.81 229.33 428.81 229.15 428.81 228.98 428.81 228.74 428.81 228.5 428.81 228.26 428.81 227.96 428.81 227.67 428.81 226.6 428.87 225.64 428.93 224.75 429.05 223.91 429.22 223.13 429.46 222.42 429.7 221.76 430 221.23 430.36 220.69 430.71 220.22 431.19 219.8 431.72 219.44 432.26 219.14 432.91 218.91 433.63 218.73 434.4 218.55 435.24 218.43 436.13 218.31 437.14 218.25 438.21 218.25 438.45 218.25 438.63 218.25 438.81 218.25 438.99 218.25 439.1 218.25 439.28 218.25 439.4 218.25 439.52 218.25 439.64 218.25 439.76 218.25 439.88 218.25 440 218.25 440.12 218.25 440.23 218.25 440.41 218.25 440.53 218.25 440.71 218.25 440.89 218.25 441.13 218.25 441.31 218.25 442.38 218.25 443.39 218.31 444.28 218.43 445.12 218.55 445.89 218.73 446.6 218.91 447.26 219.14 447.79 219.44 448.33 219.8 448.75 220.22 449.16 220.69 449.52 221.23 449.76 221.76 450.06 222.42 450.23 223.13 450.41 223.91 450.47 224.75 450.59 225.64 450.65 226.6 450.65 227.67 450.65 228.32 450.65 228.98 450.65 229.51 450.65 229.99 450.65 230.46 450.65 230.88 450.65 231.3 450.65 231.65 450.65 232.01 450.65 232.37 450.65 232.73 450.65 233.08 450.65 233.5 450.65 233.86 450.65 234.27 450.65 234.75 450.65 235.24 450.65 235.83 450.65 236.43 450.65 237.08 450.23 237.08 449.94 237.08 449.58 237.08 449.28 237.08 449.04 237.08 448.81 237.08 448.57 237.08 448.33 237.08 448.15 237.08 447.97 237.08 447.73 237.08 447.56 237.08 447.32 237.08 447.08 237.08 446.84 237.08 446.6 237.08 446.31 237.08 446.01 237.08 445.65 237.08 445.23 237.08 445.23 236.49 445.23 235.95 445.23 235.48 445.23 234.99 445.23 234.57 445.23 234.21 445.23 233.86 445.23 233.56 445.23 233.2 445.23 232.9 445.23 232.61 445.23 232.25 445.23 231.95 445.23 231.6 445.23 231.18 445.23 230.76 445.23 230.35 445.23 229.87 445.23 229.27 445.23 228.68 445.23 228.08 445.23 227.49 445.23 226.95 445.17 226.48 445.12 226 445.06 225.58 445 225.23 444.88 224.87 444.7 224.57 444.58 224.27 444.34 224.04 444.1 223.85 443.87 223.67 443.57 223.49 443.21 223.37 442.79 223.25 442.38 223.19 441.84 223.13 441.31 223.07 440.71 223.07 440.59 223.07 440.47 223.07 440.41 223.07 440.29 223.07 440.23 223.07 440.18 223.07 440.12 223.07 440 223.07 439.94 223.07 439.88 223.07 439.82 223.07 439.76 223.07 439.7 223.07 439.64 223.07 439.58 223.07 439.46 223.07 439.4 223.07 439.28 223.07 439.16 223.07 439.04 223.07 438.45 223.07 437.91 223.13 437.44 223.19 437.02 223.25 436.6 223.37 436.25 223.49 435.95 223.61 435.65 223.85 435.41 224.04 435.24 224.27 435.06 224.57 434.94 224.87 434.82 225.23 434.76 225.58 434.64 226 434.64 226.42 434.58 226.95 434.58 227.43 434.58 228.02 434.52 228.62 434.52 228.86 434.52 229.1 434.52 229.27 434.52 229.45 434.52 229.63 434.52 229.75 434.52 229.93 434.52 230.05 434.52 230.17 434.52 230.29 434.52 230.4 434.52 230.52 434.52 230.64 434.52 230.82 434.52 230.94 434.52 231.12 434.52 231.3 434.52 231.48 434.52 231.71 434.52 231.95 434.58 232.67 434.58 233.38 434.64 234.04 434.7 234.69 434.82 235.3 434.94 235.83 435.12 236.37 435.3 236.9 435.59 237.44 435.83 237.92 436.19 238.45 436.6 238.99 437.02 239.52 437.5 240.06 438.09 240.59 438.69 241.19 439.4 241.85 440.12 242.5 440.95 243.22 441.84 243.99 442.91 244.88 443.93 245.72 444.82 246.55 445.59 247.27 446.37 247.98 447.02 248.7 447.62 249.41 448.15 250.07 448.63 250.72 449.04 251.38 449.4 252.03 449.7 252.69 449.94 253.4 450.11 254.12 450.29 254.83 450.41 255.61 450.53 256.44 450.59 257.34 450.65 258.29 450.65 259.24 450.65 259.66 450.65 260.08 450.65 260.37 450.65 260.67 450.65 260.97 450.65 261.27 450.65 261.51 450.65 261.69 450.65 261.92 450.65 262.16 450.65 262.34 450.65 262.58 450.65 262.82 450.65 263.06 450.65 263.35 450.65 263.59 450.65 263.89 450.65 264.25 450.65 264.6 450.65 265.02 450.65 266.09 450.59 267.05 450.47 268 450.41 268.84 450.23 269.61 450.06 270.26 449.76 270.92 449.52 271.52 449.16 272.05 448.75 272.47 448.33 272.89 447.79 273.24 447.26 273.54 446.6 273.78 445.89 274.02 445.12 274.2 444.28 274.32 443.39 274.38 442.38 274.44 441.31 274.44 441.13 274.44 440.89 274.44 440.71 274.44 440.53 274.44 440.41 274.44 440.23 274.44 440.12 274.44 440 274.44 439.88 274.44 439.76 274.44 439.64 274.44 439.52 274.44 439.4 274.44 439.28 274.44 439.1 274.44 438.99 274.44 438.81 274.44 438.63 274.44 438.45 274.44 438.21 274.44 437.14 274.44 436.13 274.38 435.24 274.32 434.4 274.2 433.63 274.02 432.91 273.78 432.26 273.54 431.72 273.24 431.19 272.89 430.71 272.47 430.36 272.05 430 271.52 429.7 270.92 429.46 270.26 429.22 269.61 429.05 268.84 428.93 268 428.87 267.05 428.81 266.09 428.81 265.02 428.81 264.25 428.81 263.53 428.81 262.88 428.81 262.34 428.81 261.8 428.81 261.27 428.81 260.79 428.81 260.37 428.81 259.96 428.81 259.54 428.81 259.12 428.81 258.71 428.81 258.29 428.81 257.81 428.81 257.28 428.81 256.74 428.81 256.2 428.81 255.55 428.81 254.83 428.81 254.06 429.16 254.06 429.52 254.06 429.88 254.06 430.12 254.06 430.41 254.06 430.65 254.06 430.89 254.06 431.07 254.06 431.31 254.06 431.49 254.06 431.72 254.06 431.9 254.06 432.14 254.06 432.38 254.06 432.62 254.06 432.85 254.06 433.15 254.06 433.45 254.06 433.81 254.06 434.22 254.06 434.22 254.77 434.22 255.37 434.22 255.96 434.22 256.5 434.22 256.98 434.22 257.46 434.22 257.87 434.22 258.29 434.22 258.65 434.22 259 434.22 259.42 434.22 259.78 434.22 260.2 434.22 260.61 434.22 261.03 434.22 261.57 434.22 262.04 434.22 262.64 434.22 263.29 434.22 264.01 434.22 264.6 434.22 265.2 434.22 265.74 434.28 266.21 434.34 266.69 434.4 267.11 434.46 267.46 434.58 267.82 434.7 268.12 434.88 268.42 435.12 268.66 435.35 268.89 435.59 269.07 435.89 269.25 436.25 269.37 436.66 269.43 437.08 269.55 437.56 269.61 438.15 269.61 438.75 269.61 438.87 269.61 438.93 269.61 439.04 269.61 439.1 269.61 439.22 269.61 439.28 269.61 439.34 269.61 439.4 269.61 439.46 269.61 439.52 269.61 439.64 269.61 439.7 269.61 439.76 269.61 439.82 269.61 439.88 269.61 439.94 269.61 440.06 269.61 440.18 269.61 440.23 269.61 440.35 269.61 440.95 269.61 441.54 269.61 442.02 269.55 442.44 269.43 442.85 269.37 443.21 269.25 443.51 269.07 443.75 268.89 443.98 268.66 444.22 268.42 444.4 268.12 444.52 267.82 444.64 267.46 444.7 267.11 444.76 266.69 444.82 266.21 444.88 265.74 444.88 265.2 444.88 264.6 444.88 264.01 444.88 263.65 444.88 263.35 444.88 263.12 444.88 262.88 444.88 262.64 444.88 262.4 444.88 262.22 444.88 262.04 444.88 261.86 444.88 261.69 444.88 261.51 444.88 261.33 444.88 261.15 444.88 260.91 444.88 260.73 444.88 260.49 444.88 260.25 444.88 259.96 444.88 259.66 444.88 259.36"></polyline><polyline class="cls-1" points="472.39 259.36 472.39 258.59 472.39 257.87 472.33 257.22 472.27 256.56 472.15 255.96 472.03 255.43 471.85 254.89 471.62 254.36 471.39 253.82 471.09 253.34 470.79 252.81 470.37 252.27 469.96 251.8 469.48 251.2 468.89 250.66 468.29 250.07 467.58 249.41 466.87 248.76 466.04 248.04 465.15 247.33 464.08 246.37 463.07 245.54 462.18 244.77 461.41 243.99 460.64 243.27 459.98 242.56 459.39 241.85 458.85 241.19 458.39 240.53 457.97 239.88 457.61 239.23 457.32 238.57 457.08 237.92 456.84 237.2 456.72 236.43 456.54 235.65 456.48 234.81 456.42 233.98 456.36 233.02 456.36 232.01 456.36 231.71 456.36 231.42 456.36 231.18 456.36 230.94 456.36 230.76 456.36 230.52 456.36 230.35 456.36 230.17 456.36 229.99 456.36 229.87 456.36 229.69 456.36 229.51 456.36 229.33 456.36 229.15 456.36 228.98 456.36 228.74 456.36 228.5 456.36 228.26 456.36 227.96 456.36 227.67 456.36 226.6 456.42 225.64 456.48 224.75 456.6 223.91 456.78 223.13 457.02 222.42 457.26 221.76 457.55 221.23 457.91 220.69 458.27 220.22 458.73 219.8 459.27 219.44 459.8 219.14 460.46 218.91 461.17 218.73 461.95 218.55 462.78 218.43 463.66 218.31 464.67 218.25 465.74 218.25 465.98 218.25 466.16 218.25 466.34 218.25 466.52 218.25 466.64 218.25 466.82 218.25 466.93 218.25 467.05 218.25 467.17 218.25 467.28 218.25 467.4 218.25 467.52 218.25 467.64 218.25 467.76 218.25 467.93 218.25 468.05 218.25 468.23 218.25 468.41 218.25 468.65 218.25 468.83 218.25 469.9 218.25 470.91 218.31 471.79 218.43 472.62 218.55 473.4 218.73 474.11 218.91 474.77 219.14 475.3 219.44 475.84 219.8 476.24 220.22 476.66 220.69 477.02 221.23 477.25 221.76 477.55 222.42 477.73 223.13 477.91 223.91 477.97 224.75 478.09 225.64 478.15 226.6 478.15 227.67 478.15 228.32 478.15 228.98 478.15 229.51 478.15 229.99 478.15 230.46 478.15 230.88 478.15 231.3 478.15 231.65 478.15 232.01 478.15 232.37 478.15 232.73 478.15 233.08 478.15 233.5 478.15 233.86 478.15 234.27 478.15 234.75 478.15 235.24 478.15 235.83 478.15 236.43 478.15 237.08 477.73 237.08 477.43 237.08 477.08 237.08 476.78 237.08 476.54 237.08 476.3 237.08 476.06 237.08 475.84 237.08 475.66 237.08 475.48 237.08 475.24 237.08 475.06 237.08 474.83 237.08 474.59 237.08 474.35 237.08 474.11 237.08 473.81 237.08 473.52 237.08 473.16 237.08 472.74 237.08 472.74 236.49 472.74 235.95 472.74 235.48 472.74 234.99 472.74 234.57 472.74 234.21 472.74 233.86 472.74 233.56 472.74 233.2 472.74 232.9 472.74 232.61 472.74 232.25 472.74 231.95 472.74 231.6 472.74 231.18 472.74 230.76 472.74 230.35 472.74 229.87 472.74 229.27 472.74 228.68 472.74 228.08 472.74 227.49 472.74 226.95 472.68 226.48 472.62 226 472.56 225.58 472.51 225.23 472.39 224.87 472.21 224.57 472.09 224.27 471.85 224.04 471.62 223.85 471.39 223.67 471.09 223.49 470.73 223.37 470.32 223.25 469.9 223.19 469.36 223.13 468.83 223.07 468.23 223.07 468.11 223.07 467.99 223.07 467.93 223.07 467.82 223.07 467.76 223.07 467.7 223.07 467.64 223.07 467.52 223.07 467.46 223.07 467.4 223.07 467.34 223.07 467.28 223.07 467.23 223.07 467.17 223.07 467.11 223.07 466.99 223.07 466.93 223.07 466.82 223.07 466.7 223.07 466.58 223.07 465.98 223.07 465.45 223.13 464.97 223.19 464.55 223.25 464.14 223.37 463.78 223.49 463.48 223.61 463.18 223.85 462.95 224.04 462.78 224.27 462.6 224.57 462.48 224.87 462.36 225.23 462.3 225.58 462.18 226 462.18 226.42 462.13 226.95 462.13 227.43 462.13 228.02 462.07 228.62 462.07 228.86 462.07 229.1 462.07 229.27 462.07 229.45 462.07 229.63 462.07 229.75 462.07 229.93 462.07 230.05 462.07 230.17 462.07 230.29 462.07 230.4 462.07 230.52 462.07 230.64 462.07 230.82 462.07 230.94 462.07 231.12 462.07 231.3 462.07 231.48 462.07 231.71 462.07 231.95 462.13 232.67 462.13 233.38 462.18 234.04 462.24 234.69 462.36 235.3 462.48 235.83 462.66 236.37 462.84 236.9 463.13 237.44 463.36 237.92 463.72 238.45 464.14 238.99 464.55 239.52 465.03 240.06 465.63 240.59 466.22 241.19 466.93 241.85 467.64 242.5 468.47 243.22 469.36 243.99 470.43 244.88 471.45 245.72 472.33 246.55 473.1 247.27 473.87 247.98 474.53 248.7 475.12 249.41 475.66 250.07 476.12 250.72 476.54 251.38 476.9 252.03 477.2 252.69 477.43 253.4 477.61 254.12 477.79 254.83 477.91 255.61 478.03 256.44 478.09 257.34 478.15 258.29 478.15 259.24 478.15 259.66 478.15 260.08 478.15 260.37 478.15 260.67 478.15 260.97 478.15 261.27 478.15 261.51 478.15 261.69 478.15 261.92 478.15 262.16 478.15 262.34 478.15 262.58 478.15 262.82 478.15 263.06 478.15 263.35 478.15 263.59 478.15 263.89 478.15 264.25 478.15 264.6 478.15 265.02 478.15 266.09 478.09 267.05 477.97 268 477.91 268.84 477.73 269.61 477.55 270.26 477.25 270.92 477.02 271.52 476.66 272.05 476.24 272.47 475.84 272.89 475.3 273.24 474.77 273.54 474.11 273.78 473.4 274.02 472.62 274.2 471.79 274.32 470.91 274.38 469.9 274.44 468.83 274.44 468.65 274.44 468.41 274.44 468.23 274.44 468.05 274.44 467.93 274.44 467.76 274.44 467.64 274.44 467.52 274.44 467.4 274.44 467.28 274.44 467.17 274.44 467.05 274.44 466.93 274.44 466.82 274.44 466.64 274.44 466.52 274.44 466.34 274.44 466.16 274.44 465.98 274.44 465.74 274.44 464.67 274.44 463.66 274.38 462.78 274.32 461.95 274.2 461.17 274.02 460.46 273.78 459.8 273.54 459.27 273.24 458.73 272.89 458.27 272.47 457.91 272.05 457.55 271.52 457.26 270.92 457.02 270.26 456.78 269.61 456.6 268.84 456.48 268 456.42 267.05 456.36 266.09 456.36 265.02 456.36 264.25 456.36 263.53 456.36 262.88 456.36 262.34 456.36 261.8 456.36 261.27 456.36 260.79 456.36 260.37 456.36 259.96 456.36 259.54 456.36 259.12 456.36 258.71 456.36 258.29 456.36 257.81 456.36 257.28 456.36 256.74 456.36 256.2 456.36 255.55 456.36 254.83 456.36 254.06 456.72 254.06 457.08 254.06 457.44 254.06 457.67 254.06 457.97 254.06 458.21 254.06 458.45 254.06 458.61 254.06 458.85 254.06 459.03 254.06 459.27 254.06 459.45 254.06 459.69 254.06 459.92 254.06 460.16 254.06 460.4 254.06 460.7 254.06 460.99 254.06 461.35 254.06 461.77 254.06 461.77 254.77 461.77 255.37 461.77 255.96 461.77 256.5 461.77 256.98 461.77 257.46 461.77 257.87 461.77 258.29 461.77 258.65 461.77 259 461.77 259.42 461.77 259.78 461.77 260.2 461.77 260.61 461.77 261.03 461.77 261.57 461.77 262.04 461.77 262.64 461.77 263.29 461.77 264.01 461.77 264.6 461.77 265.2 461.77 265.74 461.83 266.21 461.89 266.69 461.95 267.11 462.01 267.46 462.13 267.82 462.24 268.12 462.42 268.42 462.66 268.66 462.9 268.89 463.13 269.07 463.42 269.25 463.78 269.37 464.2 269.43 464.61 269.55 465.09 269.61 465.68 269.61 466.28 269.61 466.4 269.61 466.46 269.61 466.58 269.61 466.64 269.61 466.76 269.61 466.82 269.61 466.87 269.61 466.93 269.61 466.99 269.61 467.05 269.61 467.17 269.61 467.23 269.61 467.28 269.61 467.34 269.61 467.4 269.61 467.46 269.61 467.58 269.61 467.7 269.61 467.76 269.61 467.87 269.61 468.47 269.61 469.07 269.61 469.54 269.55 469.96 269.43 470.37 269.37 470.73 269.25 471.03 269.07 471.27 268.89 471.51 268.66 471.73 268.42 471.91 268.12 472.03 267.82 472.15 267.46 472.21 267.11 472.27 266.69 472.33 266.21 472.39 265.74 472.39 265.2 472.39 264.6 472.39 264.01 472.39 263.65 472.39 263.35 472.39 263.12 472.39 262.88 472.39 262.64 472.39 262.4 472.39 262.22 472.39 262.04 472.39 261.86 472.39 261.69 472.39 261.51 472.39 261.33 472.39 261.15 472.39 260.91 472.39 260.73 472.39 260.49 472.39 260.25 472.39 259.96 472.39 259.66 472.39 259.36"></polyline><rect class="cls-2" x="484.05" y="218.67" width="5.92" height="55.35"></rect><path class="cls-2" d="M260.01,220.41c7.48,0,14.29-.24,21.08.1,3.41.17,5.92,2.73,6.16,6.08.37,5.3.22,10.67-.22,15.97-.15,1.82-1.83,3.51-2.85,5.34,7.23,7.68,1.12,18.06,5.28,27.72-3.72,0-6.56.46-9.1-.2-1.18-.31-2.41-2.76-2.53-4.32-.35-4.74.02-9.52-.29-14.27-.1-1.52-1.03-3.55-2.24-4.34-2.98-1.94-5.1-.64-5.15,2.93-.1,6.52-.03,13.04-.03,19.45-.84.35-1.22.62-1.63.65-8.53.66-8.5.65-8.49-7.93.02-13.99,0-27.97,0-41.96,0-1.62,0-3.24,0-5.23ZM270.43,242.94c6,.96,7.14.09,7.23-5.22.02-1.04,0-2.07,0-3.11-.06-5.92-.92-6.61-7.22-5.48v13.8Z"></path><path class="cls-1" d="M343.48,120.73c-5.01-.1-4.76,3.21-4.52,5.74,0,7.45.4,8.06,4.84,8.03,5.45-.03,9.26-2.9,9.22-6.93-.04-3.57-4.6-6.74-9.54-6.84Z"></path><path class="cls-1" d="M301.02,69.4v83.5h83.5v-83.5h-83.5ZM331.63,111.6l-.65.24-.65.18-.64.18-.71.12-.71.12-.65.06-.71.06h-.77l-1.31-.06-1.36-.18-1.25-.24-1.31-.36-1.19-.48-1.19-.54-1.06-.65-1.07-.71-1.01-.77-.89-.89-.89-.89-.77-1.01-.7-1.07-.65-1.13-.54-1.13-.48-1.19-.36-1.31-.24-1.25-.18-1.37-.06-1.37.06-1.31.18-1.37.24-1.25.36-1.31.48-1.19.54-1.13.65-1.13.7-1.07.77-1.01.89-.89.89-.89,1.01-.77,1.07-.71,1.06-.65,1.19-.54,1.19-.48,1.31-.36,1.25-.24,1.36-.18,1.31-.06h.71l.65.06.65.06.65.12.65.12.64.12.6.18.65.18.6.24.6.24.6.24.54.3.6.3.54.3.54.36.52.36.48.36.48.42.48.42.48.42-.18.18-.18.24-.18.18-.24.18-.18.18-.12.18-.18.24-.18.18-.18.18-.18.18-.18.18-.18.24-.17.18-.18.18-.18.18-.18.18-.18.24-.18.18-.18.18-.18.18-.36-.3-.3-.3-.36-.24-.3-.3-.36-.24-.42-.24-.36-.24-.42-.18-.36-.24-.42-.18-.42-.18-.42-.12-.4-.12-.42-.12-.48-.12-.42-.06-.48-.12h-.48l-.48-.06h-.48l-.89.06-.89.06-.88.24-.89.24-.83.3-.77.36-.77.48-.71.48-.65.54-.64.59-.6.65-.54.65-.48.71-.48.77-.36.77-.3.83-.24.89-.24.89-.06.89-.06.89.06.95.06.89.24.89.24.89.3.83.36.77.48.77.48.71.54.65.6.65.64.6.65.54.71.48.77.48.77.36.83.3.89.24.88.18.89.12.89.06h.54l.54-.06.48-.06.48-.06.48-.12.48-.12.48-.12.46-.18.48-.18.42-.18.42-.24.42-.24.42-.24.42-.24.42-.3.36-.3.36-.3.36-.36.3-.3.36-.36.18.18.18.12.18.18.18.18.17.18.18.18.18.18.18.18.18.18.18.18.18.18.18.18.18.18.18.18.18.24.18.18.18.24.18.18.24.24.18.24-.48.54-.48.42-.48.48-.54.42-.54.42-.58.42-.54.36-.6.3-.6.36-.6.3-.65.24-.65.24ZM356.73,135.38c-.95,1.11-2.06,2.08-3.24,3.27,2.38,3.29,3.83,6.44-2.54,8.02-1.69-5.8-6.27-6.28-11.58-5.91-.26,2-.54,4.09-.85,6.45-3.84-1.07-6.27-2.63-6.08-7.02.27-6.22-.12-12.47.23-18.68.09-1.64,1.52-3.9,2.96-4.65,6.64-3.46,13.24-2.62,19.26,1.62,5.5,3.88,6.25,11.78,1.85,16.89ZM378.16,95.23v.71l-.06,1.37-.18,1.37-.24,1.25-.36,1.25-.48,1.25-.54,1.13-.65,1.13-.71,1.07-.77,1.01-.89.89-.89.89-1.01.77-1.07.71-1.13.65-1.13.54-1.19.48-1.31.36-1.25.24-1.37.18-1.31.06-1.37-.06-1.37-.18-1.25-.24-1.31-.36-1.19-.48-1.13-.54-1.13-.65-1.07-.71-1.01-.77-.89-.89-.89-.89-.77-1.01-.71-1.07-.65-1.13-.54-1.13-.48-1.25-.36-1.25-.24-1.25-.18-1.37-.06-1.37.06-1.31.18-1.37.24-1.25.36-1.31.48-1.19.54-1.19.65-1.07.71-1.07.77-1.01.89-.89.89-.89,1.01-.77,1.07-.71,1.13-.65,1.13-.54,1.19-.48,1.31-.36,1.25-.24,1.37-.18,1.37-.06h.48l.48.06h.54l.48.06.48.06.48.12.48.06.48.12.48.12.48.12.48.18.42.12.48.18.42.18.42.24.48.18.42.24.36.24.42.24.42.24-.18.24-.12.18-.18.24-.12.24-.12.18-.18.24-.12.24-.12.24-.12.24-.18.18-.12.24-.12.24-.12.24-.18.24-.12.24-.12.18-.18.24-.12.24-.18.18-.12.24-.3-.18-.24-.18-.3-.18-.3-.18-.3-.12-.3-.12-.3-.18-.3-.12-.36-.12-.3-.06-.3-.12-.36-.06-.3-.12-.36-.06-.3-.06-.36-.06h-.36l-.36-.06h-.65l-.95.06-.89.06-.89.24-.89.24-.83.3-.77.36-.77.48-.71.48-.65.54-.65.59-.6.65-.54.65-.48.71-.48.77-.36.77-.3.83-.24.89-.18.89-.12.89-.06.89.06.95.12.89.18.89.24.89.3.83.36.77.48.77.48.71.54.65.6.65.65.6.65.54.71.48.77.48.77.36.83.3.89.24.89.18.89.12.95.06h.71l.71-.12.71-.12.65-.12.71-.18.65-.24.6-.3.65-.3.6-.36.54-.42.54-.42.54-.42.48-.48.48-.54.42-.54.42-.54.36-.59.3-.59.3-.6.3-.65h-.71l-.36-.06h-3.15l-.3-.06h-.71v-.36l-.06-.42v-4.4l-.06-.42h11.13v.12l.06.06v.77l.06.06v.12Z"></path><path class="cls-2" d="M400.96,275.02c2.79-18.14,5.57-36.23,8.34-54.22,7.44-1.85,8.09-1.49,9.26,5.87,2.32,14.64,4.56,29.29,6.8,43.95.22,1.44.23,2.92.37,4.71h-5.47c-.22-.72-.46-1.4-.62-2.1-1.5-6.61-3.1-7.86-9.79-6.28-1.33.32-2.78,3.16-2.91,4.93-.29,4.09-2.32,4.16-5.98,3.14ZM417.65,261.32c-1.47-10.74-2.87-20.98-4.27-31.21-.12-.01-.25-.02-.37-.03-1.45,10.32-2.9,20.64-4.38,31.24h9.03Z"></path></svg>