<svg xmlns="http://www.w3.org/2000/svg" xmlns:xlink="http://www.w3.org/1999/xlink" id="Capa_1" x="0px" y="0px" viewBox="0 0 686 305.4" style="enable-background:new 0 0 686 305.4;" xml:space="preserve"><style type="text/css">	.st0{fill:#231F20;}</style><path class="st0" d="M111.2,104.4c-3.6,3.8-6.7,7.1-11.2,9.2c-10.8,4.9-20.2,11.8-26.2,22.4c-7,12.3-5.8,24.3,1.6,36.1 c6.3,9.9,15.4,16.1,25.8,20.7c4.2,1.9,6.5,5.4,10.3,8.5c-5-0.2-9.2-0.8-13.4-1.6c-13.9-2.6-26.8-7.5-37.9-16.4 c-7.2-5.7-12.5-12.9-14.9-21.8c-3.4-12.3,0-23.1,8.2-32.5c7.5-8.6,17-14.2,27.5-18.2C90.5,107.1,100.5,105.2,111.2,104.4 L111.2,104.4z"></path><path class="st0" d="M168,148.4c0,0.9,0,1.8,0,2.6c0,7.8-0.1,15.6,0,23.3c0,1.7-0.4,2.2-2.1,2.1c-2.9-0.1-5.8-0.1-8.7,0 c-1.3,0-1.8-0.3-1.8-1.7c0.1-14.6,0.1-29.2,0-43.8c0-1.6,0.6-1.9,2-1.8c4.2,0.1,8.5,0.1,12.8,0c1.4,0,2.1,0.5,2.7,1.8 c3.6,7.8,7.3,15.5,11,23.2c0.3,0.6,0.7,1.3,1.1,2c0.7-0.7,0.4-1.4,0.4-2.1c0-7.6,0.1-15.2,0-22.9c0-1.5,0.3-2.1,2-2.1 c3,0.1,5.9,0.1,8.9,0c1.3,0,1.6,0.4,1.6,1.7c0,14.7,0,29.4,0,44c0,1.2-0.3,1.7-1.6,1.7c-4.2-0.1-8.5-0.1-12.8,0 c-1.4,0-2-0.7-2.4-1.8c-3.6-8.9-8.3-17.3-12.3-26C168.6,148.6,168.4,148.5,168,148.4L168,148.4z"></path><path class="st0" d="M300.1,152.9c0-7.2,0-14.4,0-21.7c0-0.9-0.4-2.1,1.2-2.1c7.8,0.2,15.6-0.8,23.3,0.5c12.7,2,20,12.2,18.8,25.1 c-0.8,8.3-4.4,14.6-11.9,18.9c-3.4,1.9-7,2.7-10.7,2.8c-6.2,0.2-12.5,0-18.8,0.1c-1.8,0-2.1-0.6-2.1-2.2 C300.1,167.1,300.1,160,300.1,152.9L300.1,152.9z M313.2,152.5c0,2.1,0,4.2,0,6.2c0,3.6,1.8,5.3,5.3,5.3c7.9,0,11.8-4.1,11.6-11.9 c-0.2-7.1-3.7-10.7-10.8-11.1c-1.4-0.1-2.7,0.1-4.1-0.1c-1.5-0.1-2.1,0.3-2,2C313.3,146.1,313.2,149.3,313.2,152.5L313.2,152.5z"></path><path class="st0" d="M295,176.4c-4.6,0-9,0-13.4,0c-1,0-1.4-0.7-1.6-1.4c-1.6-4.2-4-8-5.8-12.1c-0.6-1.5-1.5-2.2-3.1-1.9 c-0.7,0.1-1.5,0.1-2.2,0c-1.7-0.2-2.2,0.4-2.1,2.1c0.1,3.8,0,7.6,0.1,11.3c0.1,1.8-0.5,2.1-2.2,2.1c-3-0.1-6.1-0.1-9.1,0 c-1.4,0-1.8-0.4-1.8-1.8c0-14.6,0-29.2,0-43.8c0-1.4,0.5-1.8,1.8-1.8c7.5,0.1,15.1,0,22.6,0.2c7.5,0.2,13,4.1,14.9,10.1 c2.1,7,0,13.4-6.1,18c-1.2,0.9-0.8,1.5-0.3,2.5C289.3,165.3,292.6,170.5,295,176.4L295,176.4z M272,150.4c1.4,0,2.7,0.1,4.1,0 c2.7-0.2,4.5-2.1,4.5-4.6c0-2.5-1.5-4.3-4.2-4.6c-1.7-0.2-3.5-0.2-5.3-0.2c-4.3,0-4.3,0-4.3,4.2C266.8,148.7,268.5,150.4,272,150.4 L272,150.4z"></path><path class="st0" d="M368.1,154.7c0-15.2,7-23.9,19.1-26.1c9.5-1.8,19,2.4,24.1,10.5c0.8,1.3,1,2.1-0.6,2.9c-2.4,1.2-4.8,2.6-7.1,4 c-1.1,0.7-1.7,0.6-2.4-0.6c-1.7-2.9-4.1-5-7.5-5.5c-5.1-0.8-9.1,1.6-11.1,6.4c-1.6,4.1-1.6,8.3,0.1,12.4c1.5,3.8,4.2,6.2,8.4,6.5 c4.1,0.3,7.2-1.6,9.1-5.1c1.2-2.3,2.2-2.4,4.3-1.2c2.2,1.3,4.6,2.3,6.9,3.3c1.1,0.5,1.2,1,0.6,2c-6.8,11.9-18.2,16.7-30.9,10.7 C372,170.6,368,162.4,368.1,154.7L368.1,154.7z"></path><path class="st0" d="M119.6,201.3c-1.1,0.4-1.9,0.2-2.7-0.6c-7.4-7.6-14.1-15.7-18.6-25.4c-8.4-18.1-6.7-35.6,3.9-52.3 c4.2-6.6,9.2-12.5,14.6-18.1c0.2-0.2,0.5-0.4,0.7-0.6c0.6-0.5,1.4-0.8,2-0.3c0.6,0.5-0.1,1.2-0.4,1.7c-3.2,5.4-5.8,11.1-7.7,17 c-4.5,13.7-5.5,27.7-3.9,42c1.4,12.7,5.2,24.5,11.8,35.5C119.3,200.6,119.4,201,119.6,201.3L119.6,201.3z"></path><path class="st0" d="M505.6,151.9c2.9,0,5.8,0,8.7,0c1.1,0,1.7,0.1,1.8,1.5c0.4,8.1-2,14.8-8.6,19.8c-7.2,5.5-14.9,5.2-22.5,1.7 c-3.3-1.5-5.9-4.3-8-7.4c-6.4-9.6-5.4-24.8,2.4-32.9c8.7-9.1,25-8.2,32.6,1.8c0.7,0.9,1,1.5-0.2,2.2c-1.2,0.7-2.3,2.1-3.6,2.3 c-1.4,0.2-1.8-1.7-2.8-2.6c-6.7-6.4-18.2-4.9-22.9,3.1c-4.7,7.9-3.4,20,2.8,25.6c4.4,4,9.6,4.5,15.1,2.8c5-1.6,8-5,9.2-10.2 c0.4-1.6,0.1-2.2-1.6-2.1c-3.6,0.1-7.2,0-10.8,0.1c-1.5,0-2.3-0.4-2-2c0-0.1,0-0.2,0-0.2c0-2.4,1.1-3.6,3.5-3.6 C500.8,151.8,503.2,151.8,505.6,151.9L505.6,151.9z"></path><path class="st0" d="M523.5,152.8c0-7.1,0.1-14.3,0-21.4c0-1.8,0.4-2.3,2.2-2.3c4.2,0.1,4.2,0,4.2,4.3c0,4.3,0,8.7,0,13 c0,1.4,0.4,1.8,1.8,1.8c7-0.1,14-0.1,20.9,0c1.5,0,1.9-0.5,1.9-1.9c-0.1-5,0-9.9-0.1-14.9c0-1.6,0.3-2.2,2.1-2.2 c4.5,0.1,4.5,0,4.5,4.6c0,13.5,0,26.9,0,40.4c0,1.9-0.5,2.5-2.4,2.4c-4.2-0.1-4.2,0-4.2-4.4c0-5.2-0.1-10.4,0-15.6 c0-1.7-0.3-2.4-2.2-2.4c-6.7,0.1-13.5,0.1-20.2,0c-1.7,0-2.2,0.4-2.2,2.1c0.1,6.1,0,12.2,0.1,18.3c0,1.4-0.3,1.9-1.9,1.9 c-4.6,0-4.6,0.1-4.6-4.4C523.6,165.6,523.6,159.2,523.5,152.8L523.5,152.8z"></path><path class="st0" d="M623.1,128.3c7.4,0,12.8,2.2,17.1,6.9c0.9,1,1.1,1.7-0.2,2.4c-0.3,0.1-0.6,0.3-0.8,0.6c-1.8,1.9-3,2-5.1-0.1 c-4-3.9-9-4.6-14.3-3.3c-3.1,0.8-4.9,2.9-5,5.7c-0.2,2.8,1.2,4.8,4.4,6.2c2.8,1.1,5.7,1.6,8.5,2.4c2.4,0.6,4.8,1.3,7,2.4 c8.3,4,9.9,14.2,3.3,20.8c-3.4,3.4-7.4,4.8-12,5c-7.6,0.4-13.9-2.3-18.7-8.3c-1.1-1.3-1.3-2.3,0.5-3.1c0.2-0.1,0.4-0.2,0.6-0.4 c1.8-1.7,3.1-1.8,5,0.4c4.4,5,10.2,5.9,16.5,4.1c3.5-1,5.4-3.8,5.4-7.1c0-3.1-1.5-5.1-5.2-6.3c-3.4-1.1-7-1.8-10.4-2.8 c-1.5-0.4-3.1-0.9-4.5-1.6c-4.5-2.1-7-5.4-7-10.5c0-5.1,2.1-9,6.7-11.4C617.9,128.9,621,128.2,623.1,128.3L623.1,128.3z"></path><path class="st0" d="M362.1,152.6c0,7.3-0.1,14.6,0,21.9c0,1.7-0.6,2-2.1,1.9c-2.9-0.1-5.8-0.1-8.7,0c-1.8,0.1-2.3-0.5-2.3-2.3 c0.1-11.9,0-23.9,0-35.8c0-2.5,0.1-5,0-7.5c0-1.3,0.3-1.9,1.7-1.8c3.1,0.1,6.3,0.1,9.4,0c1.5-0.1,1.9,0.4,1.9,1.9 C362,138.2,362.1,145.4,362.1,152.6L362.1,152.6z"></path><path class="st0" d="M582.7,155.8c0-6.2,0-12.4,0-18.5c0-1.6-0.5-2.1-2-2.1c-3.8,0.1-7.5,0-11.3,0.1c-1.6,0.1-2.1-0.4-2-2 c0-4.1-0.1-4.1,4-4.1c10.3,0,20.7,0,31,0c1.8,0,2.7,0.4,2.4,2.3c-0.1,0.5-0.1,1,0,1.4c0.3,1.8-0.3,2.5-2.3,2.4 c-3.6-0.2-7.2,0.1-10.8-0.1c-1.9-0.1-2.5,0.4-2.5,2.4c0.1,12,0,24.1,0.1,36.1c0,2.1-0.4,3.2-2.7,2.8c-0.5-0.1-1.1-0.1-1.7,0 c-1.7,0.2-2.2-0.4-2.1-2.1C582.8,168.2,582.7,162,582.7,155.8L582.7,155.8z"></path><path class="st0" d="M419.7,152.8c0-7.1,0.1-14.3,0-21.4c0-1.7,0.4-2.4,2.2-2.3c4.2,0.1,4.2,0,4.2,4.1c0,11.5,0,22.9,0,34.4 c0,1.8,0.5,2.3,2.3,2.2c7-0.1,14.1,0,21.2-0.1c1.6,0,2,0.4,2,2c0,4.7,0,4.7-4.6,4.7c-8.3,0-16.7-0.1-25,0c-1.8,0-2.3-0.5-2.3-2.3 C419.7,167.1,419.7,159.9,419.7,152.8L419.7,152.8z"></path><path class="st0" d="M464.9,152.8c0,7.1-0.1,14.3,0,21.4c0,1.8-0.4,2.3-2.2,2.3c-4.3-0.1-4.3,0-4.3-4.3c0-13.5,0-26.9,0-40.4 c0-2.1,0.5-2.8,2.6-2.7c3.9,0.2,3.9,0,3.9,4C464.9,139.6,464.9,146.2,464.9,152.8L464.9,152.8z"></path><path class="st0" d="M116,185c-0.9-0.8-0.5-1.7-0.1-2.6c7.5-15.6,9.1-31.7,4.3-48.4c-1.1-3.7-2.5-7.2-4.2-10.7 c-0.4-0.9-0.9-1.7-0.2-2.6c5.6,4.2,12,17.6,13,26.9C130.6,162.8,123,178.6,116,185L116,185z"></path><path class="st0" d="M225.9,128.4c-14.1,0-23.9,10-23.8,24.3c0.1,14.2,10.3,24.7,23.8,24.7c13.6,0,24-11.1,23.9-24.9 C249.7,138.2,240.1,128.4,225.9,128.4L225.9,128.4z M225.1,164.5c-3.8-0.2-6.5-2.1-8.1-5.5c-2.1-4.4-2-8.9,0.1-13.2 c1.8-3.6,4.8-5.4,8.7-5.4c4,0,7.1,1.8,8.9,5.5c1,2.1,1.6,4.4,1.4,6.6C236.2,160.2,231.9,164.8,225.1,164.5L225.1,164.5z"></path></svg>