<?xml version="1.0" encoding="UTF-8"?>
<svg id="Capa_1" data-name="Capa 1" xmlns="http://www.w3.org/2000/svg" viewBox="0 0 1000 166.85">
  <defs>
    <style>
      .cls-1 {
        fill: #0052ff;
        stroke-width: 0px;
      }
    </style>
  </defs>
  <g>
    <polygon class="cls-1" points="420.5 78.02 467.62 78.02 516.84 43.55 473.59 43.55 420.5 78.02"/>
    <path class="cls-1" d="M323.44,135.05L357.92.09h-141.74c-38.25-.44-67.94.54-93.78,7.08-25.88,6.54-43.78,16.61-56.14,30.23-9.99,11-11.85,20.27-5.57,27.85,6.25,7.58,23.13,15.41,50.55,23.45l46.54,13.7c13.88,4.3,22.64,8.02,26.16,11.2,3.55,3.16,3.46,6.86-.37,11.06-4.52,4.97-12.21,8.77-23.07,11.28-10.83,2.53-23.48,4.71-37.97,4.15l-110.89.08L0,166.84l64.57-.03c47.91.35,86.73-1.1,116.45-7.75,29.69-6.62,51.54-17.64,65.55-33.08,9.98-11,11.69-20.32,5.12-27.96-6.58-7.64-25.08-16.01-55.55-25.12l-48.98-14.52c-10.67-3.2-17.59-6.28-20.77-9.21-3.2-2.93-3.25-6.11-.17-9.5,4.13-4.55,10.49-7.94,19.08-10.2,8.62-2.24,18.55-3.17,29.9-2.75l123.66-.09-33.23,121.68c-2.39,9.44,1.28,15.43,5.94,16.84,5.45,1.66,16.32,2.15,28.76,1.35,27.69-1.82,49.22-10.09,74.72-26.34l68.66-45.37-49.04.03-71.23,40.26Z"/>
    <polygon class="cls-1" points="540.45 .09 492.77 31.09 534.63 31.09 579.04 .09 540.45 .09"/>
  </g>
  <g>
    <path class="cls-1" d="M650.34,69.09c-3.5,0-6.82-.3-9.97-.91-3.15-.6-6.05-1.49-8.69-2.67s-4.98-2.59-7.01-4.25l3.15-7.83c2.17,1.59,4.39,2.93,6.68,4.01,2.29,1.08,4.74,1.89,7.35,2.43,2.6.54,5.44.81,8.49.81,5.41,0,9.4-.97,11.98-2.91,2.58-1.94,3.87-4.47,3.87-7.59,0-1.72-.4-3.18-1.19-4.39s-2.08-2.24-3.87-3.1c-1.78-.86-4.1-1.58-6.97-2.15l-10.21-2.1c-6.05-1.27-10.55-3.37-13.51-6.3-2.96-2.93-4.44-6.87-4.44-11.84,0-4.07,1.08-7.63,3.25-10.69,2.16-3.05,5.14-5.41,8.92-7.06s8.16-2.48,13.12-2.48c3.05,0,5.96.3,8.73.91s5.34,1.51,7.73,2.72c2.38,1.21,4.47,2.67,6.25,4.39l-3.24,7.54c-2.74-2.42-5.69-4.21-8.88-5.39-3.18-1.17-6.75-1.76-10.69-1.76-3.12,0-5.84.48-8.16,1.43-2.32.95-4.1,2.29-5.34,4.01-1.24,1.72-1.86,3.76-1.86,6.11,0,2.67.86,4.81,2.58,6.4,1.72,1.59,4.58,2.8,8.59,3.63l10.12,2.1c6.36,1.34,11.1,3.4,14.22,6.2,3.12,2.8,4.68,6.52,4.68,11.17,0,3.88-1.05,7.3-3.15,10.26-2.1,2.96-5.06,5.25-8.88,6.87-3.81,1.62-8.36,2.43-13.65,2.43Z"/>
    <path class="cls-1" d="M707.69,69.09c-5.09,0-9.47-.97-13.12-2.91-3.66-1.94-6.49-4.71-8.49-8.3-2.01-3.6-3.01-7.87-3.01-12.84s.99-9.07,2.96-12.69,4.68-6.46,8.11-8.5c3.44-2.04,7.35-3.05,11.74-3.05s8.03.94,11.12,2.82c3.08,1.88,5.45,4.53,7.11,7.97,1.65,3.43,2.48,7.54,2.48,12.31v3.25h-35.89v-5.92h29.39l-1.62,1.34c0-4.77-1.05-8.46-3.15-11.07-2.1-2.61-5.12-3.91-9.07-3.91-2.99,0-5.52.7-7.58,2.1-2.07,1.4-3.65,3.34-4.72,5.82-1.08,2.48-1.62,5.38-1.62,8.68v.57c0,3.69.59,6.79,1.77,9.3,1.17,2.51,2.91,4.4,5.2,5.68,2.29,1.27,5.12,1.91,8.49,1.91,2.68,0,5.3-.43,7.87-1.29,2.58-.86,5.01-2.21,7.3-4.06l2.86,6.68c-2.1,1.91-4.81,3.41-8.11,4.49-3.31,1.08-6.65,1.62-10.02,1.62Z"/>
    <path class="cls-1" d="M736.7,68.23V21.66h9.35v11.17h-.95c1.02-3.82,2.85-6.71,5.49-8.69,2.64-1.97,6.15-3.12,10.55-3.43l3.15-.19.67,8.21-5.82.57c-4.14.38-7.28,1.69-9.45,3.91-2.17,2.23-3.24,5.28-3.24,9.16v25.86h-9.73Z"/>
    <path class="cls-1" d="M785.56,68.23l-20.04-46.57h10.4l15.56,38.65h-2.67l15.94-38.65h9.83l-20.33,46.57h-8.69Z"/>
    <path class="cls-1" d="M820.3,10.87V.85h11.26v10.02h-11.26ZM821.16,68.23V21.66h9.64v46.57h-9.64Z"/>
    <path class="cls-1" d="M864.49,69.09c-4.77,0-8.89-1-12.36-3.01s-6.15-4.83-8.06-8.49-2.86-7.97-2.86-12.93.95-9.13,2.86-12.69c1.91-3.56,4.6-6.31,8.06-8.26,3.47-1.94,7.59-2.91,12.36-2.91,2.93,0,5.82.5,8.69,1.48,2.86.99,5.21,2.4,7.06,4.25l-3.05,6.78c-1.72-1.65-3.66-2.88-5.82-3.67-2.16-.8-4.2-1.19-6.11-1.19-4.51,0-8,1.42-10.45,4.25s-3.67,6.86-3.67,12.07,1.22,9.3,3.67,12.26c2.45,2.96,5.93,4.44,10.45,4.44,1.91,0,3.95-.4,6.11-1.19,2.17-.79,4.11-2.02,5.82-3.67l3.05,6.87c-1.84,1.72-4.21,3.09-7.11,4.1-2.9,1.02-5.77,1.53-8.64,1.53Z"/>
    <path class="cls-1" d="M887.29,10.87V.85h11.27v10.02h-11.27ZM888.16,68.23V21.66h9.64v46.57h-9.64Z"/>
    <path class="cls-1" d="M931.1,69.09c-4.65,0-8.67-.99-12.07-2.96-3.41-1.97-6.06-4.77-7.97-8.4-1.9-3.63-2.86-7.92-2.86-12.88s.95-9.15,2.86-12.74c1.91-3.59,4.57-6.38,7.97-8.35,3.4-1.97,7.43-2.96,12.07-2.96s8.76.99,12.16,2.96c3.41,1.97,6.06,4.77,7.97,8.4s2.86,7.89,2.86,12.79-.95,9.16-2.86,12.79c-1.91,3.63-4.57,6.43-7.97,8.4-3.4,1.97-7.46,2.96-12.16,2.96ZM931.1,61.64c4.01,0,7.22-1.43,9.64-4.29s3.63-7,3.63-12.41-1.21-9.61-3.63-12.4c-2.42-2.8-5.63-4.2-9.64-4.2s-7.13,1.4-9.54,4.2c-2.42,2.8-3.63,6.94-3.63,12.4s1.21,9.54,3.63,12.41c2.42,2.86,5.6,4.29,9.54,4.29Z"/>
    <path class="cls-1" d="M980.82,69.09c-2.48,0-4.9-.22-7.25-.67s-4.52-1.08-6.49-1.91c-1.97-.82-3.72-1.84-5.25-3.05l2.77-6.49c1.59,1.08,3.28,2.02,5.06,2.81,1.78.8,3.64,1.38,5.58,1.77,1.94.38,3.83.57,5.68.57,3.37,0,5.92-.61,7.63-1.81s2.57-2.83,2.57-4.87c0-1.65-.57-2.94-1.72-3.87s-2.86-1.64-5.15-2.15l-9.06-1.81c-3.95-.83-6.94-2.29-8.97-4.39-2.04-2.1-3.05-4.77-3.05-8.02,0-2.93.8-5.47,2.38-7.63s3.82-3.83,6.68-5.01c2.86-1.18,6.17-1.77,9.93-1.77,2.16,0,4.26.22,6.3.67,2.04.45,3.96,1.08,5.78,1.91,1.81.83,3.36,1.88,4.63,3.15l-2.77,6.49c-1.21-1.08-2.59-2-4.15-2.77s-3.17-1.35-4.82-1.77c-1.66-.41-3.31-.62-4.96-.62-3.38,0-5.9.62-7.59,1.86s-2.53,2.91-2.53,5.01c0,1.59.51,2.9,1.53,3.91,1.02,1.02,2.61,1.75,4.77,2.19l9.07,1.81c4.13.83,7.27,2.23,9.4,4.2,2.13,1.97,3.2,4.64,3.2,8.02,0,2.93-.79,5.47-2.38,7.63-1.59,2.17-3.83,3.8-6.73,4.92-2.9,1.11-6.25,1.67-10.07,1.67Z"/>
    <path class="cls-1" d="M649.19,165.99l-29.68-67.28h10.59l25.39,58.88h-3.53l25.29-58.88h10.12l-29.68,67.28h-8.49Z"/>
    <path class="cls-1" d="M692.42,108.64v-10.02h11.26v10.02h-11.26ZM693.28,165.99v-46.57h9.64v46.57h-9.64Z"/>
    <path class="cls-1" d="M730.98,166.85c-3.25,0-6.15-.63-8.73-1.9s-4.6-2.99-6.06-5.15c-1.46-2.17-2.2-4.62-2.2-7.35,0-3.44.88-6.15,2.62-8.16,1.75-2.01,4.65-3.44,8.69-4.29s9.49-1.29,16.37-1.29h4.48v5.91h-4.39c-3.44,0-6.33.13-8.69.38-2.35.26-4.23.65-5.63,1.19s-2.4,1.29-3,2.24c-.61.95-.91,2.1-.91,3.43,0,2.42.83,4.38,2.48,5.87,1.65,1.5,3.94,2.24,6.87,2.24,2.35,0,4.42-.56,6.2-1.67s3.2-2.62,4.25-4.53,1.57-4.1,1.57-6.58v-10.97c0-3.63-.76-6.24-2.29-7.82-1.53-1.59-4.04-2.39-7.54-2.39-2.67,0-5.34.4-8.01,1.19-2.68.8-5.41,2.05-8.21,3.77l-2.96-6.77c1.65-1.15,3.56-2.13,5.72-2.96,2.17-.83,4.44-1.48,6.83-1.96,2.38-.47,4.69-.72,6.92-.72,4.26,0,7.78.67,10.55,2.01,2.76,1.33,4.82,3.38,6.15,6.11,1.34,2.74,2,6.27,2,10.6v28.72h-9.06v-10.4h.86c-.51,2.35-1.45,4.37-2.81,6.06s-3.07,2.97-5.11,3.87-4.36,1.33-6.97,1.33Z"/>
    <path class="cls-1" d="M782.13,166.85c-5.09,0-8.89-1.44-11.4-4.34-2.52-2.89-3.77-7.08-3.77-12.55v-51.25h9.64v50.68c0,2.04.29,3.77.86,5.2.57,1.43,1.44,2.49,2.58,3.2,1.14.69,2.57,1.05,4.29,1.05.76,0,1.49-.03,2.2-.1.7-.06,1.36-.19,2-.38l-.19,7.73c-1.08.26-2.13.44-3.15.58-1.02.12-2.04.18-3.05.18Z"/>
    <path class="cls-1" d="M817.63,166.85c-5.09,0-9.46-.97-13.12-2.91-3.66-1.94-6.49-4.7-8.5-8.3-2-3.6-3-7.87-3-12.83s.99-9.07,2.96-12.7,4.68-6.46,8.11-8.5c3.44-2.03,7.35-3.05,11.74-3.05s8.03.94,11.12,2.82,5.45,4.53,7.11,7.97c1.65,3.44,2.48,7.54,2.48,12.31v3.24h-35.88v-5.91h29.39l-1.62,1.34c0-4.77-1.05-8.47-3.15-11.07-2.1-2.61-5.12-3.91-9.06-3.91-2.99,0-5.52.69-7.59,2.09-2.07,1.4-3.64,3.34-4.72,5.82s-1.62,5.38-1.62,8.69v.58c0,3.69.59,6.79,1.77,9.3,1.17,2.51,2.91,4.4,5.2,5.68,2.29,1.27,5.12,1.9,8.49,1.9,2.67,0,5.3-.43,7.87-1.29,2.57-.86,5.01-2.21,7.3-4.06l2.86,6.68c-2.1,1.91-4.81,3.41-8.11,4.49s-6.65,1.62-10.02,1.62Z"/>
    <path class="cls-1" d="M862.96,166.85c-2.48,0-4.9-.22-7.25-.66s-4.52-1.08-6.49-1.91-3.72-1.84-5.25-3.05l2.77-6.49c1.59,1.08,3.28,2.02,5.06,2.81,1.78.8,3.64,1.39,5.58,1.77,1.94.38,3.83.57,5.68.57,3.37,0,5.92-.6,7.63-1.81,1.72-1.21,2.57-2.83,2.57-4.87,0-1.65-.57-2.94-1.72-3.86-1.14-.92-2.86-1.64-5.15-2.15l-9.06-1.81c-3.95-.83-6.94-2.29-8.97-4.39-2.04-2.1-3.05-4.77-3.05-8.02,0-2.92.8-5.47,2.38-7.63,1.59-2.17,3.82-3.84,6.68-5.01,2.86-1.17,6.17-1.77,9.93-1.77,2.16,0,4.26.22,6.3.67,2.04.44,3.96,1.08,5.78,1.9,1.81.83,3.36,1.88,4.63,3.15l-2.77,6.49c-1.21-1.08-2.59-2-4.15-2.76s-3.17-1.35-4.82-1.77c-1.66-.41-3.31-.62-4.96-.62-3.38,0-5.9.62-7.59,1.86s-2.53,2.91-2.53,5.01c0,1.59.51,2.9,1.53,3.92,1.02,1.01,2.61,1.75,4.77,2.19l9.07,1.81c4.13.83,7.27,2.23,9.4,4.2,2.13,1.97,3.2,4.65,3.2,8.02,0,2.93-.79,5.47-2.38,7.63-1.59,2.17-3.83,3.8-6.73,4.92s-6.25,1.66-10.07,1.66Z"/>
  </g>
</svg>